<svg width="64" height="64" viewBox="0 0 64 64" fill="none" xmlns="http://www.w3.org/2000/svg">
<circle cx="32" cy="32" r="31.5" stroke="#E2F3FC"/>
<g filter="url(#filter0_i_667_59)">
<circle cx="32" cy="32" r="28" fill="white"/>
</g>
<circle cx="32" cy="32" r="24" fill="url(#paint0_radial_667_59)"/>
<path d="M30.941 24.797C30.7272 24.797 30.509 24.7791 30.2863 24.7435C30.0637 24.699 29.8187 24.6233 29.5515 24.5164C29.2932 24.4095 29.0795 24.2403 28.9102 24.0087C28.7499 23.7771 28.6698 23.501 28.6698 23.1804C28.6698 22.0849 29.409 21.5371 30.8875 21.5371C31.3062 21.5371 31.658 21.5905 31.943 21.6974C32.2369 21.8043 32.4507 21.9468 32.5843 22.125C32.7268 22.3031 32.8247 22.4768 32.8782 22.646C32.9316 22.8152 32.9583 22.9978 32.9583 23.1938C32.9583 23.5946 32.8337 23.9241 32.5843 24.1824C32.3349 24.4407 32.0677 24.6099 31.7827 24.6901C31.5066 24.7613 31.226 24.797 30.941 24.797ZM33.1454 28.3374V38.0769C33.1454 38.2105 33.1498 38.3173 33.1587 38.3975C33.1766 38.4688 33.2077 38.5534 33.2523 38.6513C33.3057 38.7493 33.3948 38.825 33.5195 38.8785C33.6442 38.923 33.8045 38.9453 34.0004 38.9453C34.3389 38.9453 34.6284 38.9987 34.8688 39.1056C35.1093 39.2125 35.2296 39.3728 35.2296 39.5865C35.2296 40.6286 35.0826 41.2788 34.7887 41.5371C33.9871 41.4659 33.0073 41.4302 31.8495 41.4302C30.6471 41.4302 29.5248 41.4659 28.4827 41.5371C28.1888 41.2699 28.0418 40.6197 28.0418 39.5865C28.0418 39.3728 28.1621 39.2125 28.4026 39.1056C28.643 38.9987 28.9325 38.9453 29.271 38.9453C29.6183 38.9453 29.8455 38.874 29.9523 38.7315C30.0592 38.5801 30.1127 38.3708 30.1127 38.1036V30.9292C30.1127 30.4572 29.9746 30.1232 29.6985 29.9272C29.4313 29.7313 28.9102 29.6155 28.1354 29.5799C28.0196 29.5531 27.9439 29.4952 27.9082 29.4062C27.8815 29.3171 27.8682 29.1256 27.8682 28.8317C27.8682 28.3775 27.9172 27.9767 28.0151 27.6293C28.1131 27.2819 28.2111 27.0815 28.309 27.0281C28.9949 27.1261 29.6584 27.1751 30.2997 27.1751C30.7272 27.1751 31.177 27.1528 31.6491 27.1083C32.1211 27.0548 32.3705 27.0281 32.3972 27.0281C32.709 27.0281 32.9094 27.1083 32.9984 27.2686C33.0964 27.42 33.1454 27.7763 33.1454 28.3374Z" fill="white"/>
<defs>
<filter id="filter0_i_667_59" x="4" y="-8" width="56" height="68" filterUnits="userSpaceOnUse" color-interpolation-filters="sRGB">
<feFlood flood-opacity="0" result="BackgroundImageFix"/>
<feBlend mode="normal" in="SourceGraphic" in2="BackgroundImageFix" result="shape"/>
<feColorMatrix in="SourceAlpha" type="matrix" values="0 0 0 0 0 0 0 0 0 0 0 0 0 0 0 0 0 0 127 0" result="hardAlpha"/>
<feOffset dy="-12"/>
<feGaussianBlur stdDeviation="6"/>
<feComposite in2="hardAlpha" operator="arithmetic" k2="-1" k3="1"/>
<feColorMatrix type="matrix" values="0 0 0 0 0.741176 0 0 0 0 0.905882 0 0 0 0 0.980392 0 0 0 1 0"/>
<feBlend mode="normal" in2="shape" result="effect1_innerShadow_667_59"/>
</filter>
<radialGradient id="paint0_radial_667_59" cx="0" cy="0" r="1" gradientUnits="userSpaceOnUse" gradientTransform="translate(8 8) rotate(45) scale(67.8823)">
<stop stop-color="#05B9F7"/>
<stop offset="1" stop-color="#0092CF"/>
</radialGradient>
</defs>
</svg>
