<svg width="115" height="33" viewBox="0 0 115 33" fill="none" xmlns="http://www.w3.org/2000/svg">
<path fill-rule="evenodd" clip-rule="evenodd" d="M97.1862 12.6609C96.4177 12.1958 95.5341 11.9558 94.6359 11.9682C94.1018 11.9666 93.5707 12.0481 93.0616 12.2096C92.5619 12.3704 92.0934 12.6153 91.6762 12.9338C91.4254 13.1207 91.1934 13.3316 90.9835 13.5635V12.2621H88.1813V24.3841H91.12V17.6777C91.112 17.1375 91.2382 16.6037 91.4873 16.1244C91.7317 15.6829 92.0954 15.3192 92.5368 15.0748C92.98 14.8183 93.4835 14.6842 93.9957 14.6865C94.5043 14.6739 95.0063 14.8048 95.444 15.0643C95.8573 15.3112 96.1865 15.677 96.3886 16.1139C96.6113 16.6084 96.7224 17.1459 96.7139 17.6882V24.3841H99.6211V17.1949C99.6319 16.2649 99.4158 15.3462 98.9914 14.5186C98.5807 13.7388 97.9539 13.0938 97.1862 12.6609Z" fill="#1F1D83"/>
<path fill-rule="evenodd" clip-rule="evenodd" d="M82.5873 13.616C82.3642 13.3764 82.122 13.1553 81.8632 12.9548C81.4152 12.6276 80.9148 12.3791 80.3833 12.2201C79.7939 12.047 79.182 11.9621 78.5677 11.9682C77.5137 11.9841 76.4836 12.2851 75.587 12.8393C74.6206 13.4073 73.8193 14.2178 73.2626 15.1907C72.7059 16.1637 72.413 17.2651 72.413 18.3861C72.413 19.507 72.7059 20.6085 73.2626 21.5814C73.8193 22.5543 74.6206 23.3649 75.587 23.9328C76.492 24.4705 77.5255 24.7533 78.5782 24.7514C79.4706 24.7727 80.3554 24.5821 81.16 24.1952C81.7002 23.9375 82.1877 23.5816 82.5978 23.1457V24.3841H85.4106V12.2621H82.5978L82.5873 13.616ZM82.136 20.186C81.8317 20.7351 81.3812 21.1891 80.8346 21.4979C80.2744 21.8148 79.6416 21.9811 78.998 21.9807C78.3539 21.984 77.7204 21.8175 77.1613 21.4979C76.6163 21.1835 76.1638 20.731 75.8494 20.186C75.5298 19.6269 75.3633 18.9934 75.3666 18.3493C75.3607 17.695 75.5272 17.0507 75.8494 16.4812C76.1678 15.9296 76.6272 15.4727 77.1805 15.1573C77.7338 14.8419 78.3611 14.6794 78.998 14.6865C79.6423 14.6807 80.2765 14.8473 80.8346 15.1693C81.3812 15.4781 81.8317 15.9321 82.136 16.4812C82.455 17.0515 82.6179 17.6959 82.6083 18.3493C82.6154 18.9925 82.4524 19.6261 82.136 20.186Z" fill="#1F1D83"/>
<path fill-rule="evenodd" clip-rule="evenodd" d="M68.2403 15.3897C68.5571 15.2333 68.8562 15.0433 69.1324 14.823C69.5399 14.4835 69.8753 14.066 70.119 13.595C70.3587 13.1201 70.4811 12.5947 70.4758 12.0627C70.4891 11.2251 70.2515 10.4027 69.7936 9.70128C69.3007 8.99379 68.611 8.44644 67.81 8.12699C66.8105 7.72491 65.7382 7.53547 64.6615 7.57074H59.4873V24.3631H65.0918C66.2376 24.3956 67.3767 24.1771 68.4293 23.7229C69.28 23.3687 70.0033 22.7648 70.5036 21.9909C71.0039 21.217 71.2577 20.3095 71.2315 19.3884C71.2547 18.4026 70.9148 17.4426 70.2764 16.6911C69.7341 16.0739 69.0282 15.6228 68.2403 15.3897ZM62.6149 10.2365H64.7139C65.4134 10.1978 66.1042 10.4058 66.6661 10.8243C66.926 11.045 67.1254 11.3284 67.2453 11.6477C67.3652 11.967 67.4017 12.3116 67.3512 12.6489C67.3008 12.9862 67.1651 13.305 66.9571 13.5753C66.749 13.8455 66.4755 14.0582 66.1623 14.1932C65.7058 14.3916 65.2116 14.4883 64.7139 14.4766H62.6149V10.2365ZM67.6946 20.5743C67.4495 20.9465 67.1037 21.2413 66.6975 21.4245C66.2069 21.6468 65.6722 21.7544 65.1337 21.7393H62.6149V17.0374H65.1337C65.6709 17.0243 66.2045 17.1282 66.6975 17.3418C67.1037 17.525 67.4495 17.8198 67.6946 18.1919C67.9359 18.5435 68.0607 18.962 68.0514 19.3884C68.0576 19.8095 67.9369 20.2227 67.7051 20.5743H67.6946Z" fill="#1F1D83"/>
<path fill-rule="evenodd" clip-rule="evenodd" d="M47.9635 18.087H53.7464C53.6195 18.6465 53.3881 19.1771 53.0642 19.6508C52.5726 20.3329 51.9152 20.8783 51.1541 21.2355C50.3017 21.6384 49.368 21.8395 48.4253 21.8233C47.4183 21.8335 46.4276 21.5686 45.5601 21.0571C44.6857 20.5572 43.961 19.8325 43.4611 18.9581C42.9723 18.0444 42.7166 17.0241 42.7166 15.9879C42.7166 14.9517 42.9723 13.9315 43.4611 13.0178C43.961 12.1434 44.6857 11.4187 45.5601 10.9187C46.4649 10.4024 47.4886 10.1309 48.5303 10.1309C49.572 10.1309 50.5957 10.4024 51.5004 10.9187C52.3629 11.4657 53.0825 12.2105 53.5995 13.0912H56.853C56.4846 11.9506 55.8762 10.9021 55.0688 10.0161C54.2703 9.11093 53.281 8.39405 52.1721 7.91708C50.9957 7.42579 49.7316 7.17939 48.4568 7.19291C46.9172 7.18073 45.4012 7.57149 44.0593 8.32639C42.7109 9.07957 41.5879 10.1789 40.8062 11.5109C40.0245 12.843 39.6124 14.3595 39.6124 15.904C39.6124 17.4484 40.0245 18.9649 40.8062 20.297C41.5879 21.629 42.7109 22.7283 44.0593 23.4815C45.42 24.2219 46.9444 24.6098 48.4935 24.6098C50.0426 24.6098 51.5671 24.2219 52.9278 23.4815C54.2069 22.762 55.2607 21.7009 55.9714 20.4169C56.7024 19.0577 57.0643 17.5306 57.0209 15.9879V15.0748H47.9635V18.087Z" fill="#1F1D83"/>
<path fill-rule="evenodd" clip-rule="evenodd" d="M35.3378 8.25292C34.3147 7.78558 33.198 7.55937 32.0737 7.59173H26.5952V24.3841H29.6703V18.1814H32.0737C33.1996 18.2072 34.3164 17.9738 35.3378 17.4992C36.2013 17.0796 36.9289 16.4248 37.4368 15.6101C37.9186 14.7757 38.1722 13.8291 38.1722 12.8656C38.1722 11.9021 37.9186 10.9555 37.4368 10.1211C36.9258 9.31412 36.1985 8.66683 35.3378 8.25292ZM34.6556 14.1303C34.4056 14.5258 34.0388 14.8339 33.606 15.0119C33.0921 15.2435 32.5322 15.3547 31.9688 15.3372H29.6703V10.4359H32.0527C32.6141 10.4171 33.1729 10.521 33.69 10.7403C34.125 10.9145 34.4928 11.2235 34.7395 11.6219C34.9674 12.0019 35.0838 12.4383 35.0754 12.8813C35.0616 13.3299 34.9155 13.7644 34.6556 14.1303Z" fill="#1F1D83"/>
<path fill-rule="evenodd" clip-rule="evenodd" d="M108.437 18.1394L113.769 12.2621H110.022L104.701 18.2549V7.57074H101.773V24.4051H104.701V18.2549L110.263 24.4051H114.147L108.437 18.1394Z" fill="#1F1D83"/>
<path fill-rule="evenodd" clip-rule="evenodd" d="M19.1749 24.3831L3.01225 31.9292C2.83379 32.0109 2.63785 32.047 2.44199 32.0343C2.24614 32.0216 2.05649 31.9605 1.89006 31.8565C1.72363 31.7525 1.58562 31.6088 1.48839 31.4383C1.39117 31.2678 1.33778 31.0759 1.33301 30.8797V24.9498C1.33261 24.3977 1.4906 23.857 1.78824 23.3919C2.08589 22.9269 2.51069 22.5569 3.01225 22.326L18.1779 15.1788C18.3561 15.0942 18.5527 15.0559 18.7496 15.0673C18.9466 15.0787 19.1374 15.1394 19.3047 15.244C19.472 15.3485 19.6103 15.4935 19.7068 15.6655C19.8033 15.8375 19.855 16.0311 19.8571 16.2283V23.2496C19.8718 23.4854 19.8144 23.7201 19.6925 23.9226C19.5707 24.125 19.3902 24.2856 19.1749 24.3831ZM18.1884 9.68976L3.01225 16.7636C2.83403 16.8481 2.63741 16.8864 2.44049 16.875C2.24357 16.8636 2.05268 16.8029 1.88541 16.6983C1.71814 16.5938 1.57987 16.4488 1.48334 16.2768C1.3868 16.1048 1.3351 15.9113 1.33301 15.714V8.70321C1.3363 8.48177 1.40209 8.26578 1.52278 8.08009C1.64348 7.89441 1.81417 7.74659 2.0152 7.65368L18.1779 0.107613C18.3563 0.0259228 18.5523 -0.0102025 18.7481 0.00247816C18.944 0.0151588 19.1336 0.0762425 19.3001 0.180263C19.4665 0.284283 19.6045 0.427988 19.7017 0.59848C19.799 0.768973 19.8523 0.96093 19.8571 1.15714V7.08694C19.8532 7.63411 19.6944 8.16898 19.399 8.62961C19.1037 9.09025 18.684 9.45782 18.1884 9.68976Z" fill="#05B9F7"/>
<path d="M19.1749 15.1796L3.01224 7.64404C2.83403 7.55949 2.63741 7.52115 2.44049 7.53254C2.24357 7.54394 2.05268 7.60471 1.88541 7.70925C1.71814 7.8138 1.57987 7.95875 1.48334 8.13076C1.3868 8.30278 1.3351 8.49632 1.33301 8.69356V15.7149C1.33753 15.936 1.40381 16.1515 1.52436 16.337C1.64491 16.5224 1.81493 16.6705 2.0152 16.7644L18.1779 24.384C18.3561 24.4685 18.5527 24.5068 18.7496 24.4954C18.9465 24.4841 19.1374 24.4233 19.3047 24.3187C19.472 24.2142 19.6102 24.0692 19.7068 23.8972C19.8033 23.7252 19.855 23.5317 19.8571 23.3344V16.3131C19.8551 16.0914 19.7898 15.8748 19.6689 15.6889C19.5481 15.503 19.3767 15.3555 19.1749 15.2636" fill="#97DC41"/>
<path fill-rule="evenodd" clip-rule="evenodd" d="M8.4173 19.7558L18.2303 15.1799C18.4086 15.0954 18.6052 15.057 18.8021 15.0684C18.999 15.0798 19.1899 15.1406 19.3572 15.2451C19.5245 15.3497 19.6627 15.4946 19.7593 15.6667C19.8558 15.8387 19.9075 16.0322 19.9096 16.2295V23.2508C19.9075 23.448 19.8558 23.6415 19.7593 23.8136C19.6627 23.9856 19.5245 24.1305 19.3572 24.2351C19.1899 24.3396 18.999 24.4004 18.8021 24.4118C18.6052 24.4232 18.4086 24.3848 18.2303 24.3003L8.4173 19.7558Z" fill="#1F1D83"/>
<path fill-rule="evenodd" clip-rule="evenodd" d="M12.8253 12.2203L3.01225 16.7962C2.83403 16.8807 2.63741 16.9191 2.44049 16.9077C2.24357 16.8963 2.05268 16.8355 1.88541 16.731C1.71814 16.6264 1.57987 16.4815 1.48334 16.3095C1.3868 16.1374 1.3351 15.9439 1.33301 15.7467V8.70436C1.3351 8.50712 1.3868 8.31358 1.48334 8.14157C1.57987 7.96955 1.71814 7.82459 1.88541 7.72005C2.05268 7.61551 2.24357 7.55474 2.44049 7.54335C2.63741 7.53195 2.83403 7.57028 3.01225 7.65483L12.8253 12.2203Z" fill="#1F1D83"/>
</svg>
