<svg width="24" height="24" viewBox="0 0 24 24" fill="none" xmlns="http://www.w3.org/2000/svg">
<path fill-rule="evenodd" clip-rule="evenodd" d="M19.4476 18.2596L6.35977 23.9113C5.72238 24.1868 5 23.7538 5 23.1084V18.661C5 17.8188 5.52691 17.0552 6.35127 16.6932L18.6402 11.3878C19.2691 11.1123 20 11.5452 20 12.1907V17.4567C20 17.803 19.7875 18.11 19.4476 18.2596ZM18.6487 7.30254L6.35977 12.6C5.73088 12.8755 5 12.4426 5 11.7971V6.53114C5 6.18479 5.21246 5.87781 5.55241 5.72825L18.6402 0.0844325C19.2691 -0.191068 20 0.241861 20 0.887319V5.33468C20 6.17692 19.4731 6.94832 18.6487 7.30254Z" fill="#32BBED"/>
<path d="M19.4476 11.3885L6.35977 5.73678C5.72238 5.46128 5 5.89421 5 6.53966V11.8057C5 12.152 5.21246 12.459 5.55241 12.6085L18.6402 18.2602C19.2691 18.5357 20 18.1028 20 17.4573V12.1914C20 11.845 19.7875 11.538 19.4476 11.3885Z" fill="#BDD747"/>
<path fill-rule="evenodd" clip-rule="evenodd" d="M10.6941 14.8204L18.6402 11.3885C19.2691 11.113 20 11.5459 20 12.1914V17.4573C20 18.1028 19.2776 18.5357 18.6402 18.2602L10.6941 14.8283V14.8204ZM14.3144 9.16872L6.35977 12.6007C5.72238 12.8762 5 12.4511 5 11.8057V6.53966C5 5.89421 5.72238 5.46128 6.35977 5.73678L14.3059 9.16872H14.3144Z" fill="#1D4078"/>
</svg>
