<svg width="349" height="349" viewBox="0 0 349 349" fill="none" xmlns="http://www.w3.org/2000/svg">
<path d="M348.957 77.4294L144.205 165.576C137.398 168.507 129.596 163.924 129.596 156.982V100.491C129.596 96.8022 131.91 93.4492 135.528 91.8969L348.957 0V77.4294Z" fill="url(#paint0_linear_439_718)"/>
<path d="M285.101 226.228L0 348.96V271.531L276.424 152.536C283.231 149.606 291.047 154.188 291.047 161.13V217.622C291.047 221.31 288.733 224.663 285.114 226.215" fill="url(#paint1_linear_439_718)"/>
<path d="M285.102 152.537L144.193 91.8851C137.386 88.9544 129.584 93.5492 129.584 100.479V156.983C129.584 160.671 131.898 164.024 135.516 165.577L276.426 226.229C283.232 229.159 291.048 224.577 291.048 217.635V161.143C291.048 157.455 288.734 154.102 285.116 152.55" fill="url(#paint2_linear_439_718)"/>
<g opacity="0.1">
<path d="M229.773 128.729L144.192 165.575C137.385 168.506 129.569 163.924 129.569 156.982V100.49C129.569 93.5479 137.371 88.9654 144.192 91.8962L229.773 128.742V128.729Z" fill="url(#paint3_linear_439_718)"/>
<path d="M190.843 189.381L276.424 226.227C283.231 229.158 291.047 224.563 291.047 217.634V161.142C291.047 154.2 283.245 149.617 276.424 152.548L190.843 189.394V189.381Z" fill="url(#paint4_linear_439_718)"/>
</g>
<defs>
<linearGradient id="paint0_linear_439_718" x1="299.812" y1="69.1946" x2="237.559" y2="305.512" gradientUnits="userSpaceOnUse">
<stop stop-color="#00BBF8"/>
<stop offset="1" stop-color="#00BBF8" stop-opacity="0"/>
</linearGradient>
<linearGradient id="paint1_linear_439_718" x1="299.812" y1="69.1946" x2="237.559" y2="305.512" gradientUnits="userSpaceOnUse">
<stop stop-color="#00BBF8"/>
<stop offset="1" stop-color="#00BBF8" stop-opacity="0"/>
</linearGradient>
<linearGradient id="paint2_linear_439_718" x1="262.838" y1="103.185" x2="253.615" y2="213.096" gradientUnits="userSpaceOnUse">
<stop stop-color="#00BBF8"/>
<stop offset="1" stop-color="#00BBF8" stop-opacity="0"/>
</linearGradient>
<linearGradient id="paint3_linear_439_718" x1="152.305" y1="113.514" x2="294.172" y2="211.054" gradientUnits="userSpaceOnUse">
<stop stop-color="#D4EAFF" stop-opacity="0.6"/>
<stop offset="1" stop-color="#D4EAFF" stop-opacity="0"/>
</linearGradient>
<linearGradient id="paint4_linear_439_718" x1="152.305" y1="113.514" x2="294.172" y2="211.054" gradientUnits="userSpaceOnUse">
<stop stop-color="#D4EAFF" stop-opacity="0.6"/>
<stop offset="1" stop-color="#D4EAFF" stop-opacity="0"/>
</linearGradient>
</defs>
</svg>
