<svg width="79" height="18" viewBox="0 0 79 18" fill="none" xmlns="http://www.w3.org/2000/svg">
<path d="M6.8965 3.97656C5.51433 3.97656 3.7086 4.38911 2.48248 4.8128L1 13.2532H3.66401L4.82325 6.58562C4.82325 6.58562 5.58121 6.30688 6.4172 6.32918C7.25318 6.35148 7.74363 6.73057 7.74363 7.44416C7.74363 7.54451 7.74363 7.7006 7.69904 7.9459L6.76274 13.2532H9.42675L10.3631 7.879C10.4299 7.44416 10.4634 7.02047 10.4634 6.69712C10.4634 4.8128 9.35987 3.97656 6.8965 3.97656Z" fill="#1E417D"/>
<path d="M24.3965 3.97656C23.1927 3.97656 21.8886 4.28876 20.707 4.7905L18.5669 16.9884H21.2309L21.922 13.086C21.922 13.086 22.7803 13.3536 23.594 13.3759C26.9268 13.4428 28.5987 11.4358 28.6879 8.1912C28.7659 5.54869 27.2723 3.97656 24.3965 3.97656ZM23.4825 11.2128C22.8026 11.1905 22.2898 10.9452 22.2898 10.9452L23.0478 6.63022C23.0478 6.63022 23.6274 6.34033 24.3073 6.34033C25.5446 6.34033 26.18 7.02046 26.0462 8.31384C25.8567 10.0532 25.2325 11.2797 23.4825 11.2128Z" fill="#1E417D"/>
<path d="M44.8168 10.3333C44.8168 8.92847 44.0254 8.14798 41.9856 7.55704C41.4505 7.41209 41.0158 7.24485 41.0158 6.75425C41.0158 6.49781 41.1607 6.05181 42.1082 6.05181C43.0445 6.05181 43.925 6.40861 44.6719 7.0776L45.0843 4.83648C44.3263 4.25669 43.3231 3.9668 42.1082 3.9668C40.3024 3.9668 38.3629 4.78073 38.3629 7.04415C38.3629 8.69432 39.4219 9.30756 41.0158 9.73126C41.7961 9.9431 42.1416 10.1104 42.1416 10.5786C42.1416 11.0804 41.7292 11.3591 41.0047 11.3591C40.0126 11.3591 39.054 10.9689 38.0063 10.1327L37.605 12.3961C38.3964 13.0651 39.6336 13.4553 41.027 13.4553C43.4012 13.4553 44.8168 12.2957 44.8168 10.3333Z" fill="#1E417D"/>
<path d="M18.5892 4.99258C17.9984 4.31244 16.7723 3.9668 15.2006 3.9668C14.2978 3.9668 13.0605 4.22324 12.0796 4.52429L11.7452 6.6316C12.6258 6.38631 13.707 6.18561 14.3869 6.18561C15.1003 6.18561 15.9029 6.18561 16.2484 6.58701C16.3933 6.75425 16.449 6.97725 16.4156 7.24484C16.4045 7.34519 16.3599 7.65739 16.3599 7.65739H15.2452C13.2277 7.65739 10.8201 8.24833 10.8201 10.6344C10.8201 12.9313 13.25 13.4664 14.7213 13.4664C15.758 13.4664 16.8169 13.3327 18.043 13.0316L18.9793 7.63509C19.0685 7.0999 19.3026 5.80652 18.5892 4.99258ZM15.6688 11.5152C15.6688 11.5152 15.3344 11.6267 14.7213 11.6267C13.8854 11.6156 13.4395 11.0804 13.4395 10.4448C13.4395 9.90965 13.7516 9.18491 15.2229 9.18491H16.0924L15.6688 11.5152Z" fill="#1E417D"/>
<path d="M36.9141 4.99258C36.3234 4.31244 35.0972 3.9668 33.5256 3.9668C32.6227 3.9668 31.3855 4.22324 30.4046 4.52429L30.0702 6.6316C30.9508 6.38631 32.032 6.18561 32.7119 6.18561C33.4253 6.18561 34.2278 6.18561 34.5734 6.58701C34.7183 6.75425 34.774 6.97725 34.7406 7.24484C34.7294 7.34519 34.6848 7.65739 34.6848 7.65739H33.5702C31.5527 7.65739 29.145 8.24833 29.145 10.6344C29.145 12.9313 31.575 13.4664 33.0463 13.4664C34.0829 13.4664 35.1418 13.3327 36.3679 13.0316L37.3043 7.63509C37.3934 7.0999 37.6275 5.80652 36.9141 4.99258ZM33.9937 11.5152C33.9937 11.5152 33.6594 11.6267 33.0463 11.6267C32.2103 11.6156 31.7644 11.0804 31.7644 10.4448C31.7644 9.90965 32.0765 9.18491 33.5479 9.18491H34.4173L33.9937 11.5152Z" fill="#1E417D"/>
<path d="M48.1609 13.2871L48.6736 10.8899C49.1195 10.6335 49.5096 10.4105 49.8106 10.2321C50.2118 9.99791 50.5685 9.76376 50.9029 9.55192C51.6832 9.03903 52.3743 8.50383 52.9762 7.95749C53.2214 7.7345 53.4555 7.52265 53.6784 7.29965C53.9348 7.03206 54.1688 6.77561 54.3806 6.53031C54.8934 5.90592 55.1943 5.35958 55.3058 4.86899C55.473 4.0885 55.172 3.69826 54.4141 3.69826C53.9125 3.69826 53.5112 3.89895 53.1991 4.3115C52.965 4.61254 52.7644 5.04739 52.6306 5.60488H49.688C49.8217 5.02509 49.9778 4.54564 50.1561 4.16655C50.3679 3.68711 50.6466 3.24112 50.9921 2.83972C51.516 2.23763 52.1513 1.76934 52.8981 1.44599C53.6004 1.14495 54.336 1 55.094 1C55.9188 1 56.6322 1.16725 57.2118 1.51289C57.8472 1.88084 58.2596 2.41603 58.4491 3.11847C58.5606 3.58676 58.5606 4.0439 58.4603 4.50105C58.3265 5.12544 58.0701 5.73868 57.6911 6.35192C57.3567 6.89826 56.9332 7.4446 56.3981 7.99094C55.9523 8.44808 55.4173 8.92753 54.7931 9.42927C54.5478 9.62997 54.2692 9.85296 53.9571 10.0871C53.7341 10.2544 53.4666 10.4662 53.1322 10.7003H57.223L56.6768 13.2983H48.1609V13.2871Z" fill="#0C99D5"/>
<path d="M64.3789 5.70344L63.7213 8.74734H61.3136L64.1783 5.34664L63.1751 3.45117L58.1814 8.91459L57.7021 11.1669H63.0302L62.5732 13.2853H65.5158L65.9729 11.1669H67.2547L64.3789 5.70344Z" fill="#0C99D5"/>
<path d="M64.5015 4.96843H64.5349L64.3789 5.70432L67.2547 11.1677H67.3104L67.8231 8.74822H66.4856L68.0907 1.21094H65.226L63.175 3.45205L64.1782 5.34752L64.5015 4.96843Z" fill="#A3CC39"/>
<path d="M71.1896 13.2862L77.4985 3.5747L78.0001 1.21094H70.1306L69.5845 3.80885H74.266L67.801 13.2862H71.1896Z" fill="#A3CC39"/>
</svg>
