<svg width="24" height="24" viewBox="0 0 24 24" fill="none" xmlns="http://www.w3.org/2000/svg">
<path d="M12 9V13M12 16H12.01" stroke="#EA580C" stroke-width="1.5" stroke-linecap="round" stroke-linejoin="round"/>
<path d="M10.363 3.591L2.257 17.125C2.0899 17.4144 2.00147 17.7425 2.00051 18.0766C1.99955 18.4108 2.0861 18.7394 2.25155 19.0297C2.41699 19.3201 2.65557 19.562 2.94354 19.7316C3.23152 19.9011 3.55886 19.9922 3.893 19.996H20.107C20.441 19.9921 20.7682 19.901 21.056 19.7315C21.3438 19.562 21.5823 19.3202 21.7477 19.03C21.9132 18.7398 21.9997 18.4114 21.9989 18.0774C21.9981 17.7433 21.9099 17.4154 21.743 17.126L13.637 3.59C13.4665 3.3085 13.2262 3.07574 12.9395 2.9142C12.6527 2.75265 12.3291 2.66778 12 2.66778C11.6709 2.66778 11.3473 2.75265 11.0606 2.9142C10.7738 3.07574 10.5335 3.3085 10.363 3.59V3.591Z" stroke="#EA580C" stroke-width="1.5" stroke-linecap="round" stroke-linejoin="round"/>
</svg>
