<svg width="24" height="24" viewBox="0 0 24 24" fill="none" xmlns="http://www.w3.org/2000/svg">
<path d="M12 6V19" stroke="#18181B" stroke-width="1.5" stroke-linecap="round" stroke-linejoin="round"/>
<path d="M3 18.9996C4.36817 18.2097 5.92017 17.7938 7.5 17.7938C9.07983 17.7938 10.6318 18.2097 12 18.9996C13.3682 18.2097 14.9202 17.7938 16.5 17.7938C18.0798 17.7938 19.6318 18.2097 21 18.9996" stroke="#18181B" stroke-width="1.5" stroke-linecap="round" stroke-linejoin="round"/>
<path d="M3 5.99972C4.36817 5.2098 5.92017 4.79395 7.5 4.79395C9.07983 4.79395 10.6318 5.2098 12 5.99972C13.3682 5.2098 14.9202 4.79395 16.5 4.79395C18.0798 4.79395 19.6318 5.2098 21 5.99972" stroke="#18181B" stroke-width="1.5" stroke-linecap="round" stroke-linejoin="round"/>
<path d="M3 5.99972V18.9996Z" stroke="#18181B" stroke-width="1.5" stroke-linecap="round" stroke-linejoin="round"/>
<path d="M21 5.99972V18.9996Z" stroke="#18181B" stroke-width="1.5" stroke-linecap="round" stroke-linejoin="round"/>
</svg>
