<svg width="24" height="24" viewBox="0 0 24 24" fill="none" xmlns="http://www.w3.org/2000/svg">
<path d="M12 8V12L14 14" stroke="white" stroke-width="1.5" stroke-linecap="round" stroke-linejoin="round"/>
<path d="M3.0498 12.8242C3.2739 15.0241 4.30007 17.0645 5.93254 18.5562C7.56501 20.0478 9.6895 20.8863 11.9007 20.9115C14.1119 20.9368 16.255 20.1471 17.9211 18.6931C19.5872 17.2391 20.6597 15.2227 20.934 13.0284C21.2083 10.8342 20.6651 8.61574 19.4082 6.79639C18.1512 4.97703 16.2684 3.68411 14.1191 3.1643C11.9697 2.64449 9.70421 2.93417 7.7548 3.97808C5.80539 5.02199 4.30853 6.74706 3.5498 8.82415M3.0498 3.82415V8.82415H8.0498" stroke="white" stroke-width="1.5" stroke-linecap="round" stroke-linejoin="round"/>
</svg>
