<svg width="24" height="24" viewBox="0 0 24 24" fill="none" xmlns="http://www.w3.org/2000/svg">
<path d="M12 7V12L15 15M19 16L17 19H21L19 22" stroke="#18181B" stroke-width="1.5" stroke-linecap="round" stroke-linejoin="round"/>
<path d="M20.984 12.53C21.0938 10.6693 20.6232 8.82039 19.6371 7.23861C18.6511 5.65682 17.1982 4.42022 15.4792 3.69959C13.7601 2.97895 11.8598 2.80983 10.0405 3.21558C8.22123 3.62134 6.57282 4.58194 5.32292 5.96474C4.07303 7.34754 3.28331 9.08431 3.06283 10.9352C2.84235 12.7861 3.20198 14.6598 4.09207 16.2975C4.98216 17.9352 6.35878 19.2561 8.03183 20.0779C9.70487 20.8997 11.5918 21.1817 13.432 20.885" stroke="#18181B" stroke-width="1.5" stroke-linecap="round" stroke-linejoin="round"/>
</svg>
