<svg width="21" height="20" viewBox="0 0 21 20" fill="none" xmlns="http://www.w3.org/2000/svg">
<path d="M8 10H13M8 13.333H13" stroke="#52525B" stroke-width="1.25" stroke-linecap="round" stroke-linejoin="round"/>
<path d="M7.99935 4.16602H6.33268C5.89065 4.16602 5.46673 4.34161 5.15417 4.65417C4.84161 4.96673 4.66602 5.39065 4.66602 5.83268V15.8327C4.66602 16.2747 4.84161 16.6986 5.15417 17.0112C5.46673 17.3238 5.89065 17.4993 6.33268 17.4993H14.666C15.108 17.4993 15.532 17.3238 15.8445 17.0112C16.1571 16.6986 16.3327 16.2747 16.3327 15.8327V5.83268C16.3327 5.39065 16.1571 4.96673 15.8445 4.65417C15.532 4.34161 15.108 4.16602 14.666 4.16602H12.9993M8 4.16667C8 3.72464 8.17559 3.30072 8.48816 2.98816C8.80072 2.67559 9.22464 2.5 9.66667 2.5H11.3333C11.7754 2.5 12.1993 2.67559 12.5118 2.98816C12.8244 3.30072 13 3.72464 13 4.16667C13 4.60869 12.8244 5.03262 12.5118 5.34518C12.1993 5.65774 11.7754 5.83333 11.3333 5.83333H9.66667C9.22464 5.83333 8.80072 5.65774 8.48816 5.34518C8.17559 5.03262 8 4.60869 8 4.16667Z" stroke="#52525B" stroke-width="1.25" stroke-linecap="round" stroke-linejoin="round"/>
</svg>
