<svg width="20" height="20" viewBox="0 0 20 20" fill="none" xmlns="http://www.w3.org/2000/svg">
<path d="M11.375 4.83019C12.1429 4.96502 12.8486 5.30301 13.4018 5.8009C13.955 6.29878 14.3305 6.93391 14.4803 7.625M11.375 2C12.9703 2.15951 14.458 2.80248 15.5937 3.82335C16.7295 4.84423 17.4458 6.18232 17.625 7.61792M16.3746 13.8554V16.1135C16.3754 16.3231 16.3341 16.5306 16.2535 16.7227C16.1729 16.9148 16.0546 17.0872 15.9063 17.2289C15.7579 17.3706 15.5828 17.4785 15.3921 17.5457C15.2014 17.6128 14.9994 17.6378 14.7989 17.6189C12.5748 17.3672 10.4384 16.5758 8.5614 15.3081C6.81506 14.1524 5.33447 12.6105 4.22477 10.7919C3.00327 8.82824 2.24311 6.59256 2.00587 4.26596C1.9878 4.05782 2.01156 3.84803 2.07561 3.64997C2.13967 3.45191 2.24263 3.2699 2.37792 3.11555C2.51322 2.96119 2.6779 2.83787 2.86148 2.75343C3.04505 2.66898 3.2435 2.62527 3.44418 2.62507H5.61249C5.96326 2.62148 6.30331 2.75083 6.56927 2.98903C6.83523 3.22722 7.00894 3.55801 7.05804 3.91972C7.14956 4.64236 7.31928 5.35191 7.56398 6.03481C7.66122 6.30422 7.68227 6.59701 7.62462 6.8785C7.56698 7.15998 7.43306 7.41836 7.23873 7.62301L6.32081 8.57894C7.34971 10.4634 8.84795 12.0236 10.6574 13.0952L11.5754 12.1392C11.7719 11.9368 12.02 11.7974 12.2903 11.7373C12.5606 11.6773 12.8417 11.6992 13.1004 11.8005C13.7562 12.0553 14.4375 12.2321 15.1314 12.3274C15.4825 12.379 15.8031 12.5631 16.0323 12.8449C16.2616 13.1266 16.3833 13.4862 16.3746 13.8554Z" stroke="white" stroke-width="1.25" stroke-linecap="round" stroke-linejoin="round"/>
</svg>
