<svg width="24" height="24" viewBox="0 0 24 24" fill="none" xmlns="http://www.w3.org/2000/svg">
<path d="M9 12H15M9 15.9996H15" stroke="#18181B" stroke-width="1.5" stroke-linecap="round" stroke-linejoin="round"/>
<path d="M8.99921 4.99922H6.99921C6.46877 4.99922 5.96007 5.20993 5.58499 5.58501C5.20992 5.96008 4.99921 6.46879 4.99921 6.99922V18.9992C4.99921 19.5297 5.20992 20.0384 5.58499 20.4134C5.96007 20.7885 6.46877 20.9992 6.99921 20.9992H16.9992C17.5296 20.9992 18.0383 20.7885 18.4134 20.4134C18.7885 20.0384 18.9992 19.5297 18.9992 18.9992V6.99922C18.9992 6.46879 18.7885 5.96008 18.4134 5.58501C18.0383 5.20993 17.5296 4.99922 16.9992 4.99922H14.9992M8.99999 5C8.99999 4.46957 9.2107 3.96086 9.58577 3.58579C9.96085 3.21071 10.4696 3 11 3H13C13.5304 3 14.0391 3.21071 14.4142 3.58579C14.7893 3.96086 15 4.46957 15 5C15 5.53043 14.7893 6.03914 14.4142 6.41421C14.0391 6.78929 13.5304 7 13 7H11C10.4696 7 9.96085 6.78929 9.58577 6.41421C9.2107 6.03914 8.99999 5.53043 8.99999 5Z" stroke="#18181B" stroke-width="1.5" stroke-linecap="round" stroke-linejoin="round"/>
</svg>
