<svg width="64" height="64" viewBox="0 0 64 64" fill="none" xmlns="http://www.w3.org/2000/svg">
<circle cx="32" cy="32" r="31.5" stroke="#FFEDD5"/>
<g filter="url(#filter0_i_667_60)">
<circle cx="32" cy="32" r="28" fill="white"/>
</g>
<circle cx="32" cy="32" r="24" fill="url(#paint0_radial_667_60)"/>
<path d="M31.4614 36.7164C31.2971 36.7164 31.1674 36.7121 31.0723 36.7034C30.9771 36.6861 30.8907 36.6645 30.8129 36.6386C30.735 36.6126 30.6745 36.5608 30.6313 36.4829C30.5967 36.3965 30.5664 36.3143 30.5405 36.2365C30.5145 36.1587 30.4973 36.029 30.4886 35.8474C30.48 35.6658 30.4713 35.4886 30.4627 35.3156C30.454 35.1427 30.441 34.9006 30.4238 34.5893C30.4151 34.2694 30.3978 33.9581 30.3719 33.6554C30.3027 32.7129 30.1946 31.4116 30.0476 29.7514C29.9093 28.0826 29.7882 26.6559 29.6845 25.4713C29.5807 24.278 29.5288 23.6079 29.5288 23.4609C29.5288 23.0977 29.6196 22.8383 29.8012 22.6827C29.9914 22.527 30.2897 22.4492 30.6961 22.4492H32.2007C32.6071 22.4492 32.9011 22.527 33.0826 22.6827C33.2729 22.8383 33.368 23.0977 33.368 23.4609C33.368 23.6079 33.3118 24.278 33.1994 25.4713C33.0956 26.6645 32.9659 28.0912 32.8103 29.7514C32.6633 31.403 32.5552 32.7043 32.486 33.6554C32.4601 33.9581 32.4385 34.2694 32.4212 34.5893C32.4125 34.9006 32.4039 35.1427 32.3952 35.3156C32.3952 35.4886 32.3909 35.6658 32.3822 35.8474C32.3736 36.0203 32.3563 36.15 32.3304 36.2365C32.3131 36.3143 32.2871 36.3965 32.2525 36.4829C32.218 36.5608 32.1618 36.6126 32.0839 36.6386C32.0148 36.6645 31.9326 36.6861 31.8375 36.7034C31.7424 36.7121 31.617 36.7164 31.4614 36.7164ZM29.2694 40.3351C29.2694 39.7385 29.4683 39.2369 29.866 38.8305C30.2638 38.4241 30.8474 38.2209 31.617 38.2209C32.3693 38.2209 32.9356 38.4285 33.3161 38.8435C33.6966 39.2499 33.8868 39.7471 33.8868 40.3351C33.8868 40.9144 33.6966 41.4116 33.3161 41.8267C32.9356 42.2417 32.3693 42.4492 31.617 42.4492C30.8474 42.4492 30.2638 42.246 29.866 41.8396C29.4683 41.4246 29.2694 40.9231 29.2694 40.3351Z" fill="white"/>
<defs>
<filter id="filter0_i_667_60" x="4" y="-8" width="56" height="68" filterUnits="userSpaceOnUse" color-interpolation-filters="sRGB">
<feFlood flood-opacity="0" result="BackgroundImageFix"/>
<feBlend mode="normal" in="SourceGraphic" in2="BackgroundImageFix" result="shape"/>
<feColorMatrix in="SourceAlpha" type="matrix" values="0 0 0 0 0 0 0 0 0 0 0 0 0 0 0 0 0 0 127 0" result="hardAlpha"/>
<feOffset dy="-12"/>
<feGaussianBlur stdDeviation="6"/>
<feComposite in2="hardAlpha" operator="arithmetic" k2="-1" k3="1"/>
<feColorMatrix type="matrix" values="0 0 0 0 0.996078 0 0 0 0 0.843137 0 0 0 0 0.666667 0 0 0 1 0"/>
<feBlend mode="normal" in2="shape" result="effect1_innerShadow_667_60"/>
</filter>
<radialGradient id="paint0_radial_667_60" cx="0" cy="0" r="1" gradientUnits="userSpaceOnUse" gradientTransform="translate(8 8) rotate(45) scale(67.8823)">
<stop stop-color="#F97316"/>
<stop offset="1" stop-color="#EA580C"/>
</radialGradient>
</defs>
</svg>
