<svg width="64" height="64" viewBox="0 0 64 64" fill="none" xmlns="http://www.w3.org/2000/svg">
<circle cx="32" cy="32" r="31.5" stroke="#FEE2E2"/>
<g filter="url(#filter0_i_667_58)">
<circle cx="32" cy="32" r="28" fill="white"/>
</g>
<circle cx="32" cy="32" r="24" fill="url(#paint0_radial_667_58)"/>
<path fill-rule="evenodd" clip-rule="evenodd" d="M40.0607 23.9393C40.6464 24.5251 40.6464 25.4749 40.0607 26.0607L26.0607 40.0607C25.4749 40.6464 24.5251 40.6464 23.9393 40.0607C23.3536 39.4749 23.3536 38.5251 23.9393 37.9393L37.9393 23.9393C38.5251 23.3536 39.4749 23.3536 40.0607 23.9393Z" fill="white"/>
<path fill-rule="evenodd" clip-rule="evenodd" d="M23.9393 23.9393C24.5251 23.3536 25.4749 23.3536 26.0607 23.9393L40.0607 37.9393C40.6464 38.5251 40.6464 39.4749 40.0607 40.0607C39.4749 40.6464 38.5251 40.6464 37.9393 40.0607L23.9393 26.0607C23.3536 25.4749 23.3536 24.5251 23.9393 23.9393Z" fill="white"/>
<defs>
<filter id="filter0_i_667_58" x="4" y="-8" width="56" height="68" filterUnits="userSpaceOnUse" color-interpolation-filters="sRGB">
<feFlood flood-opacity="0" result="BackgroundImageFix"/>
<feBlend mode="normal" in="SourceGraphic" in2="BackgroundImageFix" result="shape"/>
<feColorMatrix in="SourceAlpha" type="matrix" values="0 0 0 0 0 0 0 0 0 0 0 0 0 0 0 0 0 0 127 0" result="hardAlpha"/>
<feOffset dy="-12"/>
<feGaussianBlur stdDeviation="6"/>
<feComposite in2="hardAlpha" operator="arithmetic" k2="-1" k3="1"/>
<feColorMatrix type="matrix" values="0 0 0 0 0.996078 0 0 0 0 0.792157 0 0 0 0 0.792157 0 0 0 1 0"/>
<feBlend mode="normal" in2="shape" result="effect1_innerShadow_667_58"/>
</filter>
<radialGradient id="paint0_radial_667_58" cx="0" cy="0" r="1" gradientUnits="userSpaceOnUse" gradientTransform="translate(8 8) rotate(45) scale(67.8823)">
<stop stop-color="#EF4444"/>
<stop offset="1" stop-color="#DC2626"/>
</radialGradient>
</defs>
</svg>
