<svg width="24" height="24" viewBox="0 0 24 24" fill="none" xmlns="http://www.w3.org/2000/svg">
<path d="M12 2C17.523 2 22 6.47523 22 11.996C22.0021 14.6205 20.9715 17.1405 19.1309 19.0119C17.2902 20.8834 14.7871 21.9562 12.162 21.9987C9.53689 22.0412 7.00034 21.05 5.1 19.2392C3.19966 17.4283 2.08799 14.943 2.005 12.3199L2 11.996L2.004 11.7162C2.152 6.32529 6.57 2 12 2ZM12 10.9964H11L10.883 11.0034C10.6399 11.0323 10.4159 11.1493 10.2534 11.3323C10.0909 11.5152 10.0011 11.7514 10.0011 11.996C10.0011 12.2407 10.0909 12.4769 10.2534 12.6598C10.4159 12.8428 10.6399 12.9598 10.883 12.9887L11 12.9957V15.9945L11.007 16.1114C11.0333 16.3345 11.1341 16.5423 11.293 16.7012C11.4519 16.86 11.6598 16.9608 11.883 16.9871L12 16.9941H13L13.117 16.9871C13.3402 16.9608 13.5481 16.86 13.707 16.7012C13.8659 16.5423 13.9667 16.3345 13.993 16.1114L14 15.9945L13.993 15.8775C13.9691 15.6736 13.8829 15.4819 13.7462 15.3287C13.6095 15.1754 13.4289 15.0679 13.229 15.0208L13.117 15.0009L13 14.9949V11.996L12.993 11.8791C12.9667 11.656 12.8659 11.4482 12.707 11.2893C12.5481 11.1305 12.3402 11.0298 12.117 11.0034L12 10.9964ZM12.01 7.99763L11.883 8.00462C11.6399 8.03352 11.4159 8.15052 11.2534 8.33346C11.0909 8.5164 11.0011 8.75257 11.0011 8.99723C11.0011 9.2419 11.0909 9.47807 11.2534 9.661C11.4159 9.84394 11.6399 9.96094 11.883 9.98984L12 9.99684L12.127 9.98984C12.37 9.96094 12.5941 9.84394 12.7566 9.661C12.9191 9.47807 13.0089 9.2419 13.0089 8.99723C13.0089 8.75257 12.9191 8.5164 12.7566 8.33346C12.5941 8.15052 12.37 8.03352 12.127 8.00462L12.01 7.99763Z" fill="#0092CF"/>
</svg>
