<svg width="20" height="20" viewBox="0 0 20 20" fill="none" xmlns="http://www.w3.org/2000/svg">
<path d="M10 2.5C11.9891 2.5 13.8972 3.28977 15.3037 4.69629C16.7102 6.10281 17.5 8.01088 17.5 10C17.5 10.9849 17.3056 11.9602 16.9287 12.8701C16.5518 13.7801 16.0001 14.6073 15.3037 15.3037C14.6073 16.0001 13.7801 16.5518 12.8701 16.9287C11.9602 17.3056 10.9849 17.5 10 17.5C9.01509 17.5 8.03983 17.3056 7.12988 16.9287C6.21999 16.5518 5.3927 16.0001 4.69629 15.3037C3.99989 14.6073 3.4482 13.7801 3.07129 12.8701C2.69438 11.9602 2.5 10.9849 2.5 10C2.5 8.01088 3.28977 6.10281 4.69629 4.69629C6.10281 3.28977 8.01088 2.5 10 2.5ZM10 12.584C9.58579 12.584 9.25 12.9198 9.25 13.334C9.25032 13.7479 9.58598 14.084 10 14.084H10.0078L10.085 14.0801C10.463 14.0417 10.7575 13.7221 10.7578 13.334C10.7578 12.9457 10.4631 12.6263 10.085 12.5879L10.0078 12.584H10ZM10 5.91699C9.58579 5.91699 9.25 6.25278 9.25 6.66699V10C9.25013 10.4141 9.58587 10.75 10 10.75C10.4141 10.75 10.7499 10.4141 10.75 10V6.66699C10.75 6.25278 10.4142 5.91699 10 5.91699Z" fill="#DC2626"/>
</svg>
