<svg width="24" height="24" viewBox="0 0 24 24" fill="none" xmlns="http://www.w3.org/2000/svg">
<path d="M11.9999 3C12.8681 3 13.6773 3.43496 14.1728 4.16144L14.2682 4.31046L21.645 16.9289C21.8692 17.3267 21.9912 17.7762 21.9995 18.2355C22.0079 18.6947 21.9023 19.1486 21.6927 19.5547C21.4832 19.9607 21.1764 20.3056 20.8013 20.5571C20.4261 20.8086 19.9947 20.9584 19.5476 20.9925L19.3703 21H4.61944C4.17187 20.9948 3.73288 20.8736 3.34343 20.6476C2.95398 20.4216 2.62678 20.0981 2.39237 19.7075C2.15796 19.3169 2.02397 18.8718 2.00293 18.4137C1.98189 17.9557 2.07447 17.4996 2.27203 17.0882L2.36203 16.9159L9.73521 4.30674C9.97129 3.90793 10.3037 3.57818 10.7004 3.34929C11.0971 3.1204 11.5446 3.0001 11.9999 3ZM12.009 15.4154L11.8935 15.4219C11.6726 15.4488 11.4689 15.5579 11.3211 15.7283C11.1734 15.8988 11.0918 16.1188 11.0918 16.3468C11.0918 16.5748 11.1734 16.7948 11.3211 16.9653C11.4689 17.1357 11.6726 17.2447 11.8935 17.2717L11.9999 17.2782L12.1154 17.2717C12.3363 17.2447 12.54 17.1357 12.6877 16.9653C12.8355 16.7948 12.9171 16.5748 12.9171 16.3468C12.9171 16.1188 12.8355 15.8988 12.6877 15.7283C12.54 15.5579 12.3363 15.4488 12.1154 15.4219L12.009 15.4154ZM11.9999 8.89568C11.7772 8.89571 11.5623 8.97947 11.3959 9.13106C11.2295 9.28265 11.1232 9.49154 11.0971 9.7181L11.0907 9.82707V13.5526L11.0971 13.6616C11.1234 13.888 11.2298 14.0966 11.3962 14.248C11.5626 14.3994 11.7774 14.483 11.9999 14.483C12.2224 14.483 12.4372 14.3994 12.6036 14.248C12.77 14.0966 12.8764 13.888 12.9027 13.6616L12.909 13.5526V9.82707L12.9027 9.7181C12.8766 9.49154 12.7703 9.28265 12.6039 9.13106C12.4375 8.97947 12.2226 8.89571 11.9999 8.89568Z" fill="#EA580C"/>
</svg>
