<svg width="48" height="48" viewBox="0 0 48 48" fill="none" xmlns="http://www.w3.org/2000/svg">
<path fill-rule="evenodd" clip-rule="evenodd" d="M20.9525 5.42319C22.9328 4.76584 25.0671 4.76584 27.0474 5.42319C29.0197 6.07783 30.5682 7.63047 32.1237 9.81193C33.6742 11.9862 35.3875 15.0177 37.5959 18.9255L37.6826 19.0789C39.8915 22.9873 41.6046 26.0187 42.6723 28.4771C43.7451 30.9474 44.2794 33.0803 43.8532 35.1294C43.4238 37.1926 42.3654 39.0687 40.8238 40.4868C39.2859 41.9013 37.192 42.4981 34.5555 42.7846C31.9339 43.0697 28.5045 43.0697 24.0908 43.0697H23.9094C19.4955 43.0697 16.0661 43.0697 13.4445 42.7846C10.8079 42.4981 8.71402 41.9013 7.17622 40.4868C5.63464 39.0687 4.57615 37.1926 4.14689 35.1294C3.72056 33.0803 4.25488 30.9474 5.32772 28.4771C6.39538 26.0187 8.10855 22.9873 10.3174 19.0789L10.4041 18.9255C12.6125 15.0177 14.3257 11.9862 15.8762 9.81193C17.4319 7.63047 18.9803 6.07783 20.9525 5.42319Z" fill="#EC604A"/>
<path d="M26 31.7505C26 32.8551 25.1046 33.7505 24 33.7505C22.8954 33.7505 22 32.8551 22 31.7505C22 30.6459 22.8954 29.7505 24 29.7505C25.1046 29.7505 26 30.6459 26 31.7505Z" fill="white"/>
<path fill-rule="evenodd" clip-rule="evenodd" d="M24 14.2505C24.8284 14.2505 25.5 14.9221 25.5 15.7505V25.7505C25.5 26.5789 24.8284 27.2505 24 27.2505C23.1716 27.2505 22.5 26.5789 22.5 25.7505V15.7505C22.5 14.9221 23.1716 14.2505 24 14.2505Z" fill="white"/>
</svg>
