<svg width="24" height="24" viewBox="0 0 24 24" fill="none" xmlns="http://www.w3.org/2000/svg">
<path fill-rule="evenodd" clip-rule="evenodd" d="M21 12C21 16.9706 16.9706 21 12 21C7.02944 21 3 16.9706 3 12C3 7.02944 7.02944 3 12 3C16.9706 3 21 7.02944 21 12Z" fill="#E1E1E1"/>
<path d="M14.0682 15.0227C14.3318 15.2863 14.7592 15.2863 15.0228 15.0227C15.2864 14.7591 15.2864 14.3317 15.0228 14.0681L12.9545 11.9999L15.0228 9.93165C15.2864 9.66805 15.2864 9.24066 15.0228 8.97706C14.7592 8.71345 14.3318 8.71345 14.0682 8.97706L11.9999 11.0453L9.93161 8.97694C9.668 8.71333 9.24062 8.71333 8.97701 8.97694C8.71341 9.24054 8.71341 9.66793 8.97701 9.93153L11.0454 11.9999L8.977 14.0682C8.7134 14.3318 8.7134 14.7592 8.977 15.0228C9.2406 15.2864 9.66799 15.2864 9.93159 15.0228L11.9999 12.9545L14.0682 15.0227Z" fill="#1A1A1A"/>
</svg>
