<svg width="20" height="20" viewBox="0 0 20 20" fill="none" xmlns="http://www.w3.org/2000/svg">
<path d="M10 1.66666C14.6025 1.66666 18.3333 5.3975 18.3333 10C18.3351 12.1879 17.4763 14.2887 15.9424 15.8489C14.4085 17.409 12.3226 18.3034 10.135 18.3388C7.94742 18.3743 5.83362 17.548 4.25 16.0383C2.66639 14.5287 1.74 12.4568 1.67084 10.27L1.66667 10L1.67001 9.76666C1.79334 5.2725 5.47501 1.66666 10 1.66666ZM10.0083 12.5L9.9025 12.5058C9.69996 12.5299 9.51329 12.6275 9.37785 12.78C9.24241 12.9325 9.1676 13.1294 9.1676 13.3333C9.1676 13.5373 9.24241 13.7342 9.37785 13.8867C9.51329 14.0392 9.69996 14.1367 9.9025 14.1608L10 14.1667L10.1058 14.1608C10.3084 14.1367 10.4951 14.0392 10.6305 13.8867C10.7659 13.7342 10.8407 13.5373 10.8407 13.3333C10.8407 13.1294 10.7659 12.9325 10.6305 12.78C10.4951 12.6275 10.3084 12.5299 10.1058 12.5058L10.0083 12.5ZM10 5.83333C9.79589 5.83336 9.59889 5.90829 9.44636 6.04393C9.29383 6.17956 9.19639 6.36645 9.1725 6.56916L9.16667 6.66666V10L9.1725 10.0975C9.1966 10.3 9.29413 10.4867 9.44664 10.6222C9.59915 10.7576 9.79604 10.8324 10 10.8324C10.204 10.8324 10.4009 10.7576 10.5534 10.6222C10.7059 10.4867 10.8034 10.3 10.8275 10.0975L10.8333 10V6.66666L10.8275 6.56916C10.8036 6.36645 10.7062 6.17956 10.5536 6.04393C10.4011 5.90829 10.2041 5.83336 10 5.83333Z" fill="#A1A1AA"/>
</svg>
