<svg width="20" height="20" viewBox="0 0 20 20" fill="none" xmlns="http://www.w3.org/2000/svg">
<path d="M9.9999 1C10.8681 1 11.6773 1.43496 12.1728 2.16144L12.2682 2.31046L19.645 14.9289C19.8692 15.3267 19.9912 15.7762 19.9995 16.2355C20.0079 16.6947 19.9023 17.1486 19.6927 17.5547C19.4832 17.9607 19.1764 18.3056 18.8013 18.5571C18.4261 18.8086 17.9947 18.9584 17.5476 18.9925L17.3703 19H2.61944C2.17187 18.9948 1.73288 18.8736 1.34343 18.6476C0.953982 18.4216 0.626781 18.0981 0.392368 17.7075C0.157955 17.3169 0.0239742 16.8718 0.00293007 16.4137C-0.018114 15.9557 0.0744652 15.4996 0.272026 15.0882L0.362032 14.9159L7.73521 2.30674C7.97129 1.90793 8.3037 1.57818 8.70038 1.34929C9.09706 1.1204 9.54462 1.0001 9.9999 1ZM10.009 13.4154L9.89353 13.4219C9.67256 13.4488 9.4689 13.5579 9.32114 13.7283C9.17338 13.8988 9.09176 14.1188 9.09176 14.3468C9.09176 14.5748 9.17338 14.7948 9.32114 14.9653C9.4689 15.1357 9.67256 15.2447 9.89353 15.2717L9.9999 15.2782L10.1154 15.2717C10.3363 15.2447 10.54 15.1357 10.6877 14.9653C10.8355 14.7948 10.9171 14.5748 10.9171 14.3468C10.9171 14.1188 10.8355 13.8988 10.6877 13.7283C10.54 13.5579 10.3363 13.4488 10.1154 13.4219L10.009 13.4154ZM9.9999 6.89568C9.77722 6.89571 9.56229 6.97947 9.39588 7.13106C9.22948 7.28265 9.12317 7.49154 9.09711 7.7181L9.09075 7.82707V11.5526L9.09711 11.6616C9.1234 11.888 9.22981 12.0966 9.39619 12.248C9.56257 12.3994 9.77737 12.483 9.9999 12.483C10.2224 12.483 10.4372 12.3994 10.6036 12.248C10.77 12.0966 10.8764 11.888 10.9027 11.6616L10.909 11.5526V7.82707L10.9027 7.7181C10.8766 7.49154 10.7703 7.28265 10.6039 7.13106C10.4375 6.97947 10.2226 6.89571 9.9999 6.89568Z" fill="#F97316"/>
</svg>
