<svg width="20" height="20" viewBox="0 0 20 20" fill="none" xmlns="http://www.w3.org/2000/svg">
<path d="M7.13335 3.07495C6.22341 3.45161 5.39657 4.00378 4.70001 4.69995M3.075 7.13338C2.69713 8.04196 2.50175 9.01602 2.5 10M3.075 12.8666C3.45166 13.7766 4.00383 14.6034 4.7 15.3M7.13333 16.925C8.04191 17.3029 9.01597 17.4983 10 17.5M12.8667 16.925C13.7766 16.5483 14.6034 15.9962 15.3 15.3M16.925 12.8667C17.3029 11.9581 17.4982 10.984 17.5 10M16.925 7.13335C16.5483 6.22341 15.9962 5.39657 15.3 4.70001M12.8667 3.075C11.9581 2.69713 10.984 2.50175 10 2.5" stroke="#18181B" stroke-width="1.5" stroke-linecap="round" stroke-linejoin="round"/>
</svg>
