<svg width="20" height="20" viewBox="0 0 20 20" fill="none" xmlns="http://www.w3.org/2000/svg">
<path d="M14.1667 2.78334C15.4236 3.50905 16.4691 4.55045 17.1999 5.80442C17.9306 7.0584 18.3211 8.48148 18.3329 9.93279C18.3446 11.3841 17.9771 12.8133 17.2667 14.0789C16.5563 15.3445 15.5277 16.4027 14.2827 17.1486C13.0377 17.8945 11.6195 18.3024 10.1684 18.3317C8.71736 18.3611 7.2838 18.011 6.00963 17.316C4.73547 16.6211 3.6649 15.6054 2.90389 14.3696C2.14289 13.1338 1.71785 11.7206 1.67084 10.27L1.66667 10L1.67084 9.73001C1.71751 8.29083 2.13629 6.88831 2.88637 5.65917C3.63645 4.43003 4.69222 3.41622 5.95075 2.71658C7.20928 2.01693 8.62763 1.65534 10.0675 1.66704C11.5074 1.67874 12.9197 2.06334 14.1667 2.78334ZM8.75917 7.61667C8.58457 7.51274 8.37801 7.47618 8.17835 7.51387C7.97868 7.55155 7.79966 7.66089 7.67496 7.82132C7.55026 7.98175 7.48848 8.18222 7.50122 8.38501C7.51397 8.5878 7.60037 8.77895 7.74417 8.92251L8.82084 10L7.74417 11.0775L7.67501 11.1558C7.5455 11.3233 7.48459 11.5338 7.50467 11.7446C7.52475 11.9554 7.6243 12.1506 7.78311 12.2906C7.94191 12.4307 8.14806 12.505 8.35969 12.4985C8.57131 12.4921 8.77254 12.4053 8.92251 12.2558L10 11.1792L11.0775 12.2558L11.1558 12.325C11.3233 12.4545 11.5338 12.5154 11.7446 12.4953C11.9554 12.4753 12.1506 12.3757 12.2906 12.2169C12.4307 12.0581 12.505 11.852 12.4985 11.6403C12.4921 11.4287 12.4053 11.2275 12.2558 11.0775L11.1792 10L12.2558 8.92251L12.325 8.84417C12.4545 8.67668 12.5154 8.46617 12.4953 8.2554C12.4753 8.04463 12.3757 7.84941 12.2169 7.70938C12.0581 7.56935 11.8519 7.49502 11.6403 7.50148C11.4287 7.50795 11.2275 7.59472 11.0775 7.74417L10 8.82084L8.92251 7.74417L8.84417 7.67501L8.75917 7.61667Z" fill="#DC2626"/>
</svg>
