<svg width="20" height="20" viewBox="0 0 20 20" fill="none" xmlns="http://www.w3.org/2000/svg">
<path d="M14.1667 2.78335C15.4236 3.50906 16.4691 4.55045 17.1999 5.80443C17.9306 7.05841 18.3211 8.48149 18.3329 9.9328C18.3446 11.3841 17.9771 12.8133 17.2667 14.0789C16.5563 15.3445 15.5277 16.4027 14.2827 17.1486C13.0377 17.8945 11.6195 18.3024 10.1684 18.3317C8.71736 18.3611 7.2838 18.011 6.00963 17.316C4.73547 16.6211 3.6649 15.6055 2.90389 14.3696C2.14289 13.1338 1.71785 11.7206 1.67084 10.27L1.66667 10L1.67084 9.73001C1.71751 8.29084 2.13629 6.88831 2.88637 5.65917C3.63645 4.43003 4.69222 3.41622 5.95075 2.71658C7.20928 2.01694 8.62763 1.65534 10.0675 1.66704C11.5074 1.67874 12.9197 2.06334 14.1667 2.78335ZM13.0892 7.74418C12.9457 7.6007 12.7548 7.51451 12.5522 7.50177C12.3497 7.48904 12.1495 7.55064 11.9892 7.67501L11.9108 7.74418L9.16667 10.4875L8.08917 9.41085L8.01084 9.34168C7.85049 9.21739 7.65031 9.15587 7.44784 9.16864C7.24537 9.18141 7.05451 9.26761 6.91106 9.41106C6.7676 9.55452 6.68141 9.74538 6.66863 9.94785C6.65586 10.1503 6.71738 10.3505 6.84167 10.5108L6.91084 10.5892L8.57751 12.2558L8.65584 12.325C8.80198 12.4384 8.9817 12.4999 9.16667 12.4999C9.35165 12.4999 9.53136 12.4384 9.67751 12.325L9.75584 12.2558L13.0892 8.92251L13.1583 8.84418C13.2827 8.68384 13.3443 8.48363 13.3316 8.28111C13.3188 8.07859 13.2327 7.88767 13.0892 7.74418Z" fill="#77C121"/>
</svg>
