<svg width="20" height="20" viewBox="0 0 20 20" fill="none" xmlns="http://www.w3.org/2000/svg">
<path d="M10 1.66666C14.6025 1.66666 18.3333 5.39602 18.3333 9.9967C18.3351 12.1837 17.4763 14.2837 15.9424 15.8433C14.4085 17.4028 12.3226 18.2968 10.135 18.3322C7.94742 18.3677 5.83362 17.5417 4.25 16.0326C2.66639 14.5236 1.74 12.4525 1.67084 10.2666L1.66667 9.9967L1.67001 9.76345C1.79334 5.27106 5.475 1.66666 10 1.66666ZM10 9.16369H9.16667L9.06917 9.16952C8.86663 9.1936 8.67996 9.2911 8.54452 9.44355C8.40907 9.596 8.33427 9.79281 8.33427 9.9967C8.33427 10.2006 8.40907 10.3974 8.54452 10.5498C8.67996 10.7023 8.86663 10.7998 9.06917 10.8239L9.16667 10.8297V13.3287L9.1725 13.4262C9.19444 13.6121 9.2784 13.7852 9.41085 13.9176C9.54329 14.05 9.71649 14.134 9.9025 14.1559L10 14.1617H10.8333L10.9308 14.1559C11.1169 14.134 11.2901 14.05 11.4225 13.9176C11.5549 13.7852 11.6389 13.6121 11.6608 13.4262L11.6667 13.3287L11.6608 13.2312C11.6409 13.0613 11.5691 12.9016 11.4552 12.7739C11.3413 12.6461 11.1908 12.5566 11.0242 12.5174L10.9308 12.5007L10.8333 12.4957V9.9967L10.8275 9.89923C10.8056 9.71329 10.7216 9.54016 10.5892 9.40777C10.4567 9.27538 10.2835 9.19145 10.0975 9.16952L10 9.16369ZM10.0083 6.66468L9.9025 6.67051C9.69996 6.69459 9.51329 6.79209 9.37785 6.94454C9.24241 7.09699 9.1676 7.2938 9.1676 7.49768C9.1676 7.70157 9.24241 7.89838 9.37785 8.05083C9.51329 8.20327 9.69996 8.30077 9.9025 8.32486L10 8.33069L10.1058 8.32486C10.3084 8.30077 10.4951 8.20327 10.6305 8.05083C10.7659 7.89838 10.8407 7.70157 10.8407 7.49768C10.8407 7.2938 10.7659 7.09699 10.6305 6.94454C10.4951 6.79209 10.3084 6.69459 10.1058 6.67051L10.0083 6.66468Z" fill="#0092CF"/>
</svg>
