<svg width="20" height="20" viewBox="0 0 20 20" fill="none" xmlns="http://www.w3.org/2000/svg">
<path d="M7.15573 6.69835L2.31625 7.4327L2.23054 7.45096C2.10078 7.48701 1.98249 7.55846 1.88775 7.65801C1.793 7.75756 1.7252 7.88164 1.69126 8.01758C1.65733 8.15353 1.65847 8.29646 1.69457 8.43179C1.73068 8.56712 1.80046 8.69 1.89678 8.78788L5.40274 12.3596L4.57594 17.4048L4.56608 17.4921C4.55813 17.6326 4.586 17.7727 4.64682 17.8982C4.70765 18.0237 4.79924 18.13 4.91222 18.2063C5.02521 18.2825 5.15553 18.326 5.28983 18.3322C5.42414 18.3384 5.55761 18.3071 5.67658 18.2416L10.0048 15.8599L14.3232 18.2416L14.399 18.2781C14.5242 18.3297 14.6603 18.3455 14.7933 18.3239C14.9262 18.3024 15.0513 18.2441 15.1557 18.1553C15.2601 18.0664 15.34 17.95 15.3873 17.8181C15.4345 17.6863 15.4474 17.5436 15.4245 17.4048L14.597 12.3596L18.1045 8.78708L18.1636 8.7196C18.2481 8.61065 18.3036 8.48021 18.3242 8.34155C18.3449 8.20289 18.3301 8.06097 18.2813 7.93026C18.2325 7.79954 18.1514 7.68471 18.0464 7.59744C17.9414 7.51018 17.8162 7.45361 17.6835 7.43349L12.844 6.69835L10.6807 2.10963C10.6181 1.97668 10.5211 1.86473 10.4009 1.78644C10.2806 1.70816 10.1419 1.66666 10.0002 1.66666C9.85863 1.66666 9.71984 1.70816 9.59959 1.78644C9.47934 1.86473 9.38243 1.97668 9.31984 2.10963L7.15573 6.69835Z" fill="url(#paint0_linear_2848_7578)"/>
<defs>
<linearGradient id="paint0_linear_2848_7578" x1="9.99996" y1="1.66666" x2="9.99996" y2="18.3333" gradientUnits="userSpaceOnUse">
<stop stop-color="#4960FF"/>
<stop offset="1" stop-color="#1F1D83"/>
</linearGradient>
</defs>
</svg>
