<?xml version="1.0" standalone="no"?>
<!DOCTYPE svg PUBLIC "-//W3C//DTD SVG 1.1//EN" "http://www.w3.org/Graphics/SVG/1.1/DTD/svg11.dtd" >
<svg xmlns="http://www.w3.org/2000/svg" xmlns:xlink="http://www.w3.org/1999/xlink" version="1.1">
<metadata>
Created by FontForge 20201107 at Mon Jan  8 13:35:08 2024
 By 
Copyright 2020 The Plus Jakarta Sans Project Authors (https://github.com/tokotype/PlusJakartaSans)
</metadata>
<defs>
<font id="PGSans-ExtraBold" horiz-adv-x="599" >
  <font-face 
    font-family="PG Sans ExtraBold"
    font-weight="400"
    font-stretch="normal"
    units-per-em="1000"
    panose-1="0 0 0 0 0 0 0 0 0 0"
    ascent="800"
    descent="-200"
    x-height="546"
    cap-height="745"
    bbox="-230 -285 1423 1241"
    underline-thickness="50"
    underline-position="-125"
    unicode-range="U+000D-FB02"
  />
<missing-glyph horiz-adv-x="640" 
d="M60 675v70h520v-70h-520zM60 0v70h520v-70h-520zM60 225v70h520v-70h-520zM60 450v70h520v-70h-520z" />
    <glyph glyph-name="fi" unicode="fi" horiz-adv-x="649" 
d="M121 0v416h-92v130h92v8q0 65 25.5 110t73.5 69t116 24q13 0 28 -1.5t25 -3.5v-128q-10 2 -17.5 2.5t-15.5 0.5q-42 0 -63.5 -18.5t-21.5 -54.5v-8h217v-130h-217v-416h-150zM444 0v546h150v-546h-150z" />
    <glyph glyph-name="fl" unicode="fl" horiz-adv-x="670" 
d="M121 0v416h-92v130h92v8q0 65 25.5 110t73.5 69t116 24q13 0 28 -1.5t25 -3.5v-128q-10 2 -17.5 2.5t-15.5 0.5q-42 0 -63.5 -18.5t-21.5 -54.5v-8h217v-130h-217v-416h-150zM465 0v757h150v-757h-150z" />
    <glyph glyph-name="f_f" unicode="ff" horiz-adv-x="760" 
d="M121 0v426h-92v120h92v8q0 65 25.5 110t73.5 69t116 24q13 0 28 -1.5t25 -3.5v-128q-10 2 -17.5 2.5t-15.5 0.5q-42 0 -63.5 -18.5t-21.5 -54.5v-8h167v-120h-167v-426h-150zM471 0v426h-62v120h62v8q0 65 25.5 110t73.5 69t116 24q13 0 28 -1.5t25 -3.5v-128
q-10 2 -17.5 2.5t-15.5 0.5q-42 0 -63.5 -18.5t-21.5 -54.5v-8h117v-120h-117v-426h-150z" />
    <glyph glyph-name="f_f_i" unicode="ffi" horiz-adv-x="999" 
d="M121 0v421h-92v125h92v8q0 65 25.5 110t73.5 69t116 24q13 0 28 -1.5t25 -3.5v-128q-10 2 -17.5 2.5t-15.5 0.5q-42 0 -63.5 -18.5t-21.5 -54.5v-8h167v-125h-167v-421h-150zM794 0v546h150v-546h-150zM471 0v421h-72v125h72v8q0 65 25.5 110t73.5 69t116 24
q13 0 28 -1.5t25 -3.5v-128q-10 2 -17.5 2.5t-15.5 0.5q-42 0 -63.5 -18.5t-21.5 -54.5v-8h217v-125h-217v-421h-150z" />
    <glyph glyph-name="f_f_l" unicode="ffl" horiz-adv-x="1020" 
d="M121 0v426h-92v120h92v8q0 65 25.5 110t73.5 69t116 24q13 0 28 -1.5t25 -3.5v-128q-10 2 -17.5 2.5t-15.5 0.5q-42 0 -63.5 -18.5t-21.5 -54.5v-8h167v-120h-167v-426h-150zM471 0v426h-62v120h62v8q0 65 25.5 110t73.5 69t116 24q13 0 28 -1.5t25 -3.5v-128
q-10 2 -17.5 2.5t-15.5 0.5q-42 0 -63.5 -18.5t-21.5 -54.5v-8h227v-120h-227v-426h-150zM815 0v757h150v-757h-150z" />
    <glyph glyph-name=".notdef" horiz-adv-x="640" 
d="M60 675v70h520v-70h-520zM60 0v70h520v-70h-520zM60 225v70h520v-70h-520zM60 450v70h520v-70h-520z" />
    <glyph glyph-name=".null" horiz-adv-x="0" 
 />
    <glyph glyph-name="nonmarkingreturn" unicode="&#xd;" horiz-adv-x="180" 
 />
    <glyph glyph-name="space" unicode=" " horiz-adv-x="190" 
 />
    <glyph glyph-name="exclam" unicode="!" horiz-adv-x="400" 
d="M135 230l-10 515h150l-10 -515h-130zM125 0v150h150v-150h-150z" />
    <glyph glyph-name="quotedbl" unicode="&#x22;" horiz-adv-x="532" 
d="M119 440l-18 305h130l-17 -305h-95zM318 440l-18 305h130l-17 -305h-95z" />
    <glyph glyph-name="numbersign" unicode="#" horiz-adv-x="956" 
d="M146 0l44 153h-120v130h157l52 180h-120v130h157l44 152h150l-44 -152h150l43 152h150l-43 -152h120v-130h-158l-51 -180h120v-130h-158l-43 -153h-150l43 153h-149l-44 -153h-150zM377 283h150l51 180h-149z" />
    <glyph glyph-name="dollar" unicode="$" horiz-adv-x="647" 
d="M205.5 13.5q-61.5 25.5 -106 72.5t-66.5 111l127 57q28 -61 77.5 -96t109.5 -35q32 0 55 10t36 27.5t13 41.5q0 26 -16 44.5t-50 29.5l-146 48q-89 29 -134 82.5t-45 128.5q0 66 32.5 116t91 78t134.5 28q67 0 124 -23t98.5 -65t62.5 -101l-126 -57q-21 52 -63 81.5
t-96 29.5q-31 0 -55 -10t-37 -28.5t-13 -42.5q0 -26 17 -45.5t51 -30.5l143 -46q90 -29 134.5 -81t44.5 -127q0 -65 -34 -115.5t-93.5 -79t-138.5 -28.5q-70 0 -131.5 25.5zM288 -100v945h90v-945h-90z" />
    <glyph glyph-name="percent" unicode="%" horiz-adv-x="1070" 
d="M158 0l602 745h154l-602 -745h-154zM176.5 393.5q-44.5 26.5 -70.5 70.5t-26 98t26 98.5t70.5 70.5t100.5 26t100 -26t70 -70.5t26 -98.5t-26.5 -98t-70.5 -70.5t-99 -26.5q-56 0 -100.5 26.5zM322 489.5q18 12.5 27 32t9 40.5q0 22 -9 41t-27 31.5t-45 12.5t-45 -12.5
t-27.5 -31.5t-9.5 -41q0 -21 9.5 -40.5t27.5 -32t45 -12.5t45 12.5zM693.5 14.5q-44.5 26.5 -70.5 70.5t-26 98t26 98.5t70.5 70.5t100.5 26t100 -26t70 -70.5t26 -98.5t-26.5 -98t-70.5 -70.5t-99 -26.5q-56 0 -100.5 26.5zM839 110.5q18 12.5 27 32t9 40.5q0 22 -9 41
t-27 31.5t-45 12.5q-26 0 -44.5 -12.5t-28 -31.5t-9.5 -41q0 -21 9.5 -40.5t28 -32t44.5 -12.5q27 0 45 12.5z" />
    <glyph glyph-name="ampersand" unicode="&#x26;" horiz-adv-x="813" 
d="M196.5 13.5q-53.5 25.5 -83.5 72.5t-30 109q0 52 18.5 90t45.5 64t53.5 42.5t43.5 25.5l70 36q33 17 59 33t41.5 35.5t15.5 45.5q0 30 -19.5 51t-49.5 21q-29 0 -49.5 -20.5t-20.5 -52.5q0 -24 11 -47t25.5 -42t26.5 -33l390 -444h-174l-321 360q-23 26 -45.5 55
t-37 64.5t-14.5 79.5q0 61 29 105.5t76 68.5t102 24q58 0 104 -25t73 -68t27 -98t-25.5 -93.5t-61.5 -64.5t-68 -44l-73 -42q-20 -11 -43 -28t-38.5 -40.5t-15.5 -56.5q0 -39 24 -61.5t66 -22.5q26 0 46 8.5t35 21t25.5 26.5t18.5 25l117 169h152l-135 -212
q-15 -24 -36.5 -52.5t-52.5 -53.5t-74 -41t-102 -16q-72 0 -125.5 25.5z" />
    <glyph glyph-name="quotesingle" unicode="'" horiz-adv-x="333" 
d="M119 440l-18 305h130l-17 -305h-95z" />
    <glyph glyph-name="parenleft" unicode="(" horiz-adv-x="407" 
d="M240 -180q-85 101 -128 216.5t-43 246.5t42.5 246.5t128.5 215.5h125q-71 -110 -106 -224.5t-35 -237.5t35.5 -238.5t105.5 -224.5h-125z" />
    <glyph glyph-name="parenright" unicode=")" horiz-adv-x="407" 
d="M42 -180q71 109 106 224.5t35 238.5t-35 237.5t-106 224.5h125q86 -100 128.5 -215.5t42.5 -246.5t-42.5 -246.5t-128.5 -216.5h-125z" />
    <glyph glyph-name="asterisk" unicode="*" horiz-adv-x="560" 
d="M211 358l-88 64l69 94l-111 38l34 103l110 -37v125h110v-125l110 37l34 -103l-111 -38l69 -94l-88 -64l-69 94z" />
    <glyph glyph-name="plus" unicode="+" horiz-adv-x="678" 
d="M277 0v188h-188v125h188v187h125v-187h187v-125h-187v-188h-125z" />
    <glyph glyph-name="comma" unicode="," horiz-adv-x="386" 
d="M110 -90q35 8 57.5 30.5t29.5 59.5h-67v150h150v-87q0 -95 -43 -153t-127 -75v75z" />
    <glyph glyph-name="hyphen" unicode="-" horiz-adv-x="634" 
d="M92 208v130h450v-130h-450z" />
    <glyph glyph-name="period" unicode="." horiz-adv-x="408" 
d="M129 0v150h150v-150h-150z" />
    <glyph glyph-name="slash" unicode="/" horiz-adv-x="532" 
d="M20 -120l330 980h162l-330 -980h-162z" />
    <glyph glyph-name="zero" unicode="0" horiz-adv-x="700" 
d="M193.5 36q-67.5 48 -105.5 135t-38 202q0 116 37.5 202t105 134t156.5 48q91 0 158.5 -48t105 -134.5t37.5 -201.5t-37.5 -201.5t-105 -135t-157.5 -48.5q-89 0 -156.5 48zM429 157q32 29 49 84t17 132t-17 131.5t-49.5 83.5t-79.5 29q-46 0 -78 -29t-49 -83.5
t-17 -131.5q0 -76 17 -131t49.5 -84.5t79.5 -29.5q46 0 78 29z" />
    <glyph glyph-name="one" unicode="1" horiz-adv-x="413" 
d="M170 0v614h-145v131h300v-745h-155z" />
    <glyph glyph-name="two" unicode="2" horiz-adv-x="596" 
d="M42 0v120l200 206q59 61 89.5 96.5t42 59.5t11.5 47q0 41 -26.5 64.5t-66.5 23.5q-41 0 -73 -23.5t-47 -71.5l-135 44q12 58 50 101t92 66.5t113 23.5q74 0 130 -26t87 -73t31 -110q0 -40 -14 -78.5t-42.5 -78t-73.5 -85.5l-171 -176h308v-130h-505z" />
    <glyph glyph-name="three" unicode="3" horiz-adv-x="612" 
d="M174 11.5q-56 23.5 -95 66.5t-52 101l137 46q17 -48 50 -72.5t78 -24.5q37 0 63.5 14t41.5 39.5t15 59.5t-14.5 58.5t-41 38t-64.5 13.5q-22 0 -44 -5t-40 -14l-36 75l191 208h-291v130h465v-120l-196 -223l5 63q67 0 116.5 -27.5t77 -76.5t27.5 -114q0 -74 -36 -133
t-98 -92.5t-141 -33.5q-62 0 -118 23.5z" />
    <glyph glyph-name="four" unicode="4" horiz-adv-x="662" 
d="M362 0v160h-330v130l320 455h165v-455h115v-130h-115v-160h-155zM362 290v265l-179 -265h179z" />
    <glyph glyph-name="five" unicode="5" horiz-adv-x="614" 
d="M181 10.5q-55 22.5 -94 64t-51 99.5l137 46q15 -48 48 -70t74 -22q35 0 61 14.5t40.5 41t14.5 61.5t-14.5 61t-40.5 40.5t-61 14.5q-36 0 -64 -15.5t-41 -47.5l-127 30l60 417h416v-130h-353l58 70l-41 -310l-42 37q25 41 63.5 60t99.5 19q75 0 129 -31.5t83.5 -86.5
t29.5 -128t-35.5 -131.5t-96.5 -92t-139 -33.5q-59 0 -114 22.5z" />
    <glyph glyph-name="six" unicode="6" horiz-adv-x="604" 
d="M165 20.5q-60 32.5 -94 88.5t-34 126q0 35 7 70t28 77t63 96l207 267h185l-251 -321l-25 35q14 7 27 11t25.5 6t26.5 2q69 0 122.5 -31t84 -84.5t30.5 -120.5q0 -73 -34 -130.5t-93.5 -90.5t-137.5 -33q-77 0 -137 32.5zM357.5 142q24.5 14 39.5 39.5t15 58.5
q0 34 -15 58.5t-39.5 38.5t-55.5 14q-30 0 -55 -14t-40 -38.5t-15 -58.5q0 -33 15 -58.5t40 -39.5t55 -14q31 0 55.5 14z" />
    <glyph glyph-name="seven" unicode="7" horiz-adv-x="564" 
d="M70 0l301 615h-344v130h507v-130l-292 -615h-172z" />
    <glyph glyph-name="eight" unicode="8" horiz-adv-x="633" 
d="M171.5 19q-60.5 31 -92.5 83t-32 113q0 73 38.5 122t113.5 74l-10 -38q-53 16 -84.5 66t-31.5 111q0 60 31 107t86 73.5t126 26.5t125.5 -26.5t86 -73.5t31.5 -107q0 -61 -31 -111t-85 -67l-9 40q75 -28 114 -76.5t39 -121.5q0 -61 -32.5 -112.5t-93.5 -82.5t-145 -31
t-144.5 31zM377 131q26 13 40.5 36t14.5 53q0 31 -14.5 53.5t-40.5 35t-61 12.5q-34 0 -59.5 -12.5t-40 -35t-14.5 -53.5q0 -30 14.5 -53t40 -36t59.5 -13q35 0 61 13zM362.5 463q19.5 12 30.5 32t11 44q0 25 -11 45t-30.5 31.5t-46.5 11.5q-26 0 -46 -11.5t-31 -31.5
t-11 -45q0 -24 11 -44t31 -32t46 -12q27 0 46.5 12z" />
    <glyph glyph-name="nine" unicode="9" horiz-adv-x="604" 
d="M77 0l251 321l25 -35q-14 -6 -26.5 -10.5t-25.5 -6.5t-27 -2q-69 0 -122.5 31t-84 84.5t-30.5 120.5q0 74 34 131t94 90t137 33q78 0 137.5 -32.5t93.5 -88t34 -126.5q0 -35 -7 -70t-28 -76.5t-63 -96.5l-207 -267h-185zM357.5 408q24.5 14 39.5 39t15 58q0 34 -15 59
t-39.5 39t-55.5 14q-30 0 -55 -14t-40 -39t-15 -59q0 -33 15 -58t40 -39t55 -14q31 0 55.5 14z" />
    <glyph glyph-name="colon" unicode=":" horiz-adv-x="408" 
d="M129 0v150h150v-150h-150zM129 396v150h150v-150h-150z" />
    <glyph glyph-name="semicolon" unicode=";" horiz-adv-x="428" 
d="M129 -90q35 8 57.5 30.5t29.5 59.5h-67v150h150v-87q0 -95 -43 -153t-127 -75v75zM149 396v150h150v-150h-150z" />
    <glyph glyph-name="less" unicode="&#x3c;" horiz-adv-x="678" 
d="M564 4l-475 195v148l475 196v-151l-287 -119l287 -118v-151z" />
    <glyph glyph-name="equal" unicode="=" horiz-adv-x="678" 
d="M114 291v125h450v-125h-450zM114 46v125h450v-125h-450z" />
    <glyph glyph-name="greater" unicode="&#x3e;" horiz-adv-x="678" 
d="M114 4v151l287 118l-287 119v151l475 -196v-148z" />
    <glyph glyph-name="question" unicode="?" horiz-adv-x="611" 
d="M225 230v23q0 44 12.5 77.5t32.5 59.5t41 47q29 29 52 52.5t23 54.5q0 21 -10 37.5t-29.5 26t-48.5 9.5q-37 0 -64.5 -22.5t-33.5 -60.5l-139 35q9 56 41.5 98t84 66t115.5 24q78 0 131.5 -30.5t80.5 -78t27 -100.5q0 -38 -14.5 -67.5t-36.5 -54t-46 -47.5
q-31 -29 -55 -61t-24 -75v-13h-140zM221 0v150h150v-150h-150z" />
    <glyph glyph-name="at" unicode="@" horiz-adv-x="926" 
d="M308.5 -191q-80.5 31 -140 88t-92 136.5t-32.5 176.5t32.5 176.5t92 136.5t139.5 88t175 31t172.5 -31t133 -88t85.5 -136.5t30 -176.5q0 -65 -23.5 -112.5t-64 -72.5t-93.5 -25q-35 0 -70.5 14t-59 44.5t-23.5 81.5l26 -63q-7 -24 -30 -41t-54 -26.5t-64 -9.5
q-58 0 -106 27.5t-76.5 76t-28.5 109.5q0 60 28 110.5t77 81t111 30.5q49 0 87.5 -18t48.5 -47l-11 -42v97h100v-246q0 -35 13 -54.5t36 -19.5q29 0 43 25t14 86q0 68 -19 125.5t-56.5 100.5t-93.5 66.5t-130 23.5q-73 0 -132 -24t-101.5 -67t-65 -101.5t-22.5 -128.5
q0 -72 24 -131.5t67.5 -102.5t102 -66t126.5 -23q48 0 91.5 12.5t80.5 36.5l51 -97q-97 -62 -222 -62q-96 0 -176.5 31zM518.5 120q24.5 15 38.5 40.5t14 56.5q0 47 -30.5 79t-77.5 33q-31 1 -57 -13t-41 -39.5t-15 -58.5q0 -32 15 -58t40.5 -40.5t56.5 -14.5q32 0 56.5 15z
" />
    <glyph glyph-name="A" unicode="A" horiz-adv-x="732" 
d="M11 0l252 745h206l252 -745h-169l-50 152h-273l-50 -152h-168zM459 287l-93 287l-94 -287h187z" />
    <glyph glyph-name="B" unicode="B" horiz-adv-x="690" 
d="M66 0v745h315q77 0 132 -26t84 -74.5t29 -117.5q0 -49 -27 -93.5t-89 -74.5v76q59 -23 91 -55t44 -69.5t12 -78.5q0 -110 -73 -171t-203 -61h-315zM221 135h178q47 0 75 27t28 70q0 44 -28 71t-75 27h-178v-195zM221 465h171q36 0 57.5 20.5t21.5 54.5t-21.5 54.5
t-57.5 20.5h-171v-150z" />
    <glyph glyph-name="C" unicode="C" horiz-adv-x="772" 
d="M271.5 17q-68.5 29 -119.5 81t-79.5 122t-28.5 153t28 153.5t79 122t119.5 80t149.5 28.5t145.5 -27t109.5 -72t64 -100l-137 -66q-19 54 -66.5 89.5t-115.5 35.5q-66 0 -116 -31t-77.5 -85.5t-27.5 -127.5t27.5 -128t77.5 -86t116 -31q68 0 115.5 35.5t66.5 89.5
l137 -66q-19 -55 -64 -100t-109.5 -72t-145.5 -27q-80 0 -148.5 29z" />
    <glyph glyph-name="D" unicode="D" horiz-adv-x="739" 
d="M66 0v745h243q121 0 210 -48t138 -132t49 -192t-49 -192.5t-138 -132.5t-210 -48h-243zM221 135h92q73 0 126 29.5t82.5 83t29.5 125.5q0 73 -29.5 126t-82.5 82t-126 29h-92v-475z" />
    <glyph glyph-name="E" unicode="E" horiz-adv-x="589" 
d="M66 0v745h501v-135h-346v-169h326v-135h-326v-171h346v-135h-501z" />
    <glyph glyph-name="F" unicode="F" horiz-adv-x="587" 
d="M66 0v745h510v-135h-355v-189h305v-135h-305v-286h-155z" />
    <glyph glyph-name="G" unicode="G" horiz-adv-x="804" 
d="M275 17q-69 29 -121 81t-81 122t-29 153t28 153.5t79 122t119.5 80t149.5 28.5t145.5 -27t109.5 -72t64 -100l-137 -66q-19 54 -66.5 89.5t-115.5 35.5q-66 0 -116 -31t-77.5 -85.5t-27.5 -127.5t29 -128t79.5 -86t116.5 -31q51 0 95.5 19.5t72 56.5t27.5 89v62l71 -60
h-270v130h354v-79q0 -91 -30 -158.5t-80.5 -112t-113 -66t-126.5 -21.5q-80 0 -149 29z" />
    <glyph glyph-name="H" unicode="H" horiz-adv-x="732" 
d="M66 0v745h155v-322h290v322h155v-745h-155v288h-290v-288h-155z" />
    <glyph glyph-name="I" unicode="I" horiz-adv-x="287" 
d="M66 0v745h155v-745h-155z" />
    <glyph glyph-name="J" unicode="J" horiz-adv-x="396" 
d="M33 0v140h45q45 0 72.5 25.5t27.5 67.5v512h155v-505q0 -72 -31 -126t-88.5 -84t-135.5 -30h-45z" />
    <glyph glyph-name="K" unicode="K" horiz-adv-x="687" 
d="M66 0v745h155v-306l255 306h194l-252 -304l258 -441h-181l-182 315l-92 -111v-204h-155z" />
    <glyph glyph-name="L" unicode="L" horiz-adv-x="547" 
d="M66 0v745h155v-610h315v-135h-470z" />
    <glyph glyph-name="M" unicode="M" horiz-adv-x="912" 
d="M66 0v745h150l243 -323l237 323h150v-745h-155v480l-225 -290h-20l-225 301v-491h-155z" />
    <glyph glyph-name="N" unicode="N" horiz-adv-x="742" 
d="M66 0v745h119l336 -443v443h155v-745h-120l-335 453v-453h-155z" />
    <glyph glyph-name="O" unicode="O" horiz-adv-x="878" 
d="M283 17q-72 29 -125.5 81.5t-83.5 122.5t-30 152t29.5 152t83 122t125.5 81t157 29t157 -29t125.5 -81t83 -122t29.5 -152t-30 -152t-83.5 -122.5t-125.5 -81.5t-156 -29t-156 29zM533.5 146q43.5 18 76.5 50.5t51 77.5t18 99t-18 98.5t-51 77.5t-76.5 50.5t-94.5 17.5
t-94.5 -17.5t-76.5 -50.5t-51 -77.5t-18 -98.5t18 -99t51 -77.5t76.5 -50.5t94.5 -18t94.5 18z" />
    <glyph glyph-name="P" unicode="P" horiz-adv-x="649" 
d="M66 0v745h286q77 0 136.5 -27t93.5 -80t34 -131q0 -76 -34.5 -129t-94 -80.5t-135.5 -27.5h-131v-270h-155zM221 405h132q33 0 57 13t37.5 36t13.5 53q0 31 -13.5 54t-37.5 36t-57 13h-132v-205z" />
    <glyph glyph-name="Q" unicode="Q" horiz-adv-x="878" 
d="M283 17q-72 29 -125.5 81.5t-83.5 122.5t-30 152t29.5 152t83 122t125.5 81t157 29t157 -29t125.5 -81t83 -122t29.5 -152t-30 -152t-83.5 -122.5t-125.5 -81.5t-156 -29t-156 29zM533.5 146q43.5 18 76.5 50.5t51 77.5t18 99t-18 98.5t-51 77.5t-76.5 50.5t-94.5 17.5
t-94.5 -17.5t-76.5 -50.5t-51 -77.5t-18 -98.5t18 -99t51 -77.5t76.5 -50.5t94.5 -18t94.5 18zM597 -90l-222 388h160l225 -388h-163z" />
    <glyph glyph-name="R" unicode="R" horiz-adv-x="667" 
d="M66 0v745h285q77 0 136.5 -27t93.5 -80t34 -131q0 -76 -35 -129.5t-94 -80.5l170 -297h-174l-184 329l100 -59h-177v-270h-155zM221 405h131q33 0 57 13t37.5 36t13.5 53q0 31 -13.5 54t-37.5 36t-57 13h-131v-205z" />
    <glyph glyph-name="S" unicode="S" horiz-adv-x="647" 
d="M205.5 13.5q-61.5 25.5 -106 72.5t-66.5 111l127 57q28 -61 77.5 -96t109.5 -35q32 0 55 10t36 27.5t13 41.5q0 26 -16 44.5t-50 29.5l-146 48q-89 29 -134 82.5t-45 128.5q0 66 32.5 116t91 78t134.5 28q67 0 124 -23t98.5 -65t62.5 -101l-126 -57q-21 52 -63 81.5
t-96 29.5q-31 0 -55 -10t-37 -28.5t-13 -42.5q0 -26 17 -45.5t51 -30.5l143 -46q90 -29 134.5 -81t44.5 -127q0 -65 -34 -115.5t-93.5 -79t-138.5 -28.5q-70 0 -131.5 25.5z" />
    <glyph glyph-name="T" unicode="T" horiz-adv-x="552" 
d="M200 0v610h-189v135h530v-135h-186v-610h-155z" />
    <glyph glyph-name="U" unicode="U" horiz-adv-x="724" 
d="M205 25q-69 37 -108.5 101.5t-39.5 146.5v472h155v-462q0 -44 19.5 -79.5t53.5 -55.5t77 -20q44 0 77.5 20t53 55.5t19.5 79.5v462h155v-472q0 -82 -39.5 -146.5t-108.5 -101.5t-157 -37t-157 37z" />
    <glyph glyph-name="V" unicode="V" horiz-adv-x="712" 
d="M266 0l-255 745h170l175 -545l175 545h170l-255 -745h-180z" />
    <glyph glyph-name="W" unicode="W" horiz-adv-x="1032" 
d="M206 0l-195 745h168l125 -531l132 531h160l132 -531l125 531h168l-195 -745h-180l-130 500l-130 -500h-180z" />
    <glyph glyph-name="X" unicode="X" horiz-adv-x="682" 
d="M11 0l244 373l-244 372h178l152 -232l152 232h178l-243 -372l243 -373h-178l-151 232l-153 -232h-178z" />
    <glyph glyph-name="Y" unicode="Y" horiz-adv-x="672" 
d="M259 0v325l-248 420h177l148 -261l148 261h177l-247 -419v-326h-155z" />
    <glyph glyph-name="Z" unicode="Z" horiz-adv-x="567" 
d="M11 0v125l339 485h-319v135h515v-125l-338 -485h348v-135h-545z" />
    <glyph glyph-name="bracketleft" unicode="[" horiz-adv-x="449" 
d="M110 -180v925h280v-130h-130v-665h130v-130h-280z" />
    <glyph glyph-name="backslash" unicode="\" horiz-adv-x="532" 
d="M350 -120l-330 825h162l330 -825h-162z" />
    <glyph glyph-name="bracketright" unicode="]" horiz-adv-x="449" 
d="M59 -180v130h130v665h-130v130h280v-925h-280z" />
    <glyph glyph-name="asciicircum" unicode="^" horiz-adv-x="678" 
d="M97 418l171 327h144l170 -327h-164l-78 150l-78 -150h-165z" />
    <glyph glyph-name="underscore" unicode="_" horiz-adv-x="684" 
d="M92 -130v130h500v-130h-500z" />
    <glyph glyph-name="grave" unicode="`" horiz-adv-x="391" 
 />
    <glyph glyph-name="a" unicode="a" horiz-adv-x="583" 
d="M122 7q-43 19 -66 54.5t-23 84.5q0 46 21 81.5t64.5 59.5t108.5 34l167 27v-110l-140 -25q-32 -6 -49 -20.5t-17 -41.5q0 -25 19 -39t47 -14q37 0 65 16t43.5 43.5t15.5 60.5v142q0 31 -24.5 52t-66.5 21q-40 0 -70.5 -22t-44.5 -58l-120 57q16 46 51 79t84 51t107 18
q69 0 122 -25t82.5 -69.5t29.5 -103.5v-360h-140v88l34 6q-24 -36 -53 -59.5t-65 -35t-80 -11.5q-59 0 -102 19z" />
    <glyph glyph-name="b" unicode="b" horiz-adv-x="673" 
d="M257.5 8.5q-47.5 20.5 -76.5 60.5l14 31v-100h-140v757h150v-315l-23 30q27 41 73.5 63.5t106.5 22.5q78 0 141 -38t100 -102.5t37 -144.5q0 -79 -36.5 -144t-99.5 -103t-143 -38q-56 0 -103.5 20.5zM417 142q32 19 50 53t18 78t-18 77.5t-50 53t-74 19.5
q-40 0 -71.5 -19t-49 -53t-17.5 -78t17.5 -78t49 -53t71.5 -19q42 0 74 19z" />
    <glyph glyph-name="c" unicode="c" horiz-adv-x="611" 
d="M175.5 25.5q-65.5 37.5 -104 102.5t-38.5 146t38 145.5t104 101.5t148 37q61 0 113 -21t89 -58.5t53 -88.5l-130 -56q-14 41 -47.5 65t-77.5 24q-39 0 -69.5 -19t-48 -53t-17.5 -78t17.5 -78t48 -53t69.5 -19q45 0 78 24t47 65l130 -57q-15 -48 -52 -86t-89 -59.5
t-114 -21.5q-82 0 -147.5 37.5z" />
    <glyph glyph-name="d" unicode="d" horiz-adv-x="673" 
d="M169 26q-63 38 -99.5 103t-36.5 144q0 80 37 144.5t100 102.5t141 38q60 0 106.5 -22.5t73.5 -63.5l-23 -30v315h150v-757h-140v100l14 -31q-28 -40 -76 -60.5t-104 -20.5q-80 0 -143 38zM402 142q31 19 48.5 53t17.5 78t-17.5 78t-48.5 53t-72 19t-73.5 -19.5t-50.5 -53
t-18 -77.5t18 -78t50.5 -53t73.5 -19t72 19z" />
    <glyph glyph-name="e" unicode="e" horiz-adv-x="611" 
d="M167 26.5q-64 38.5 -99 103.5t-35 144q0 82 36.5 146t98.5 101t140 37q65 0 115 -20.5t84.5 -57.5t52.5 -85.5t18 -105.5q0 -16 -1.5 -31.5t-5.5 -26.5h-409v110h324l-71 -52q10 43 -1 76.5t-38.5 53t-67.5 19.5q-39 0 -67 -19t-42 -56t-11 -90q-4 -46 11 -81t46 -54.5
t75 -19.5q40 0 68.5 16t44.5 44l120 -57q-16 -40 -50.5 -70t-81.5 -46.5t-103 -16.5q-87 0 -151 38.5z" />
    <glyph glyph-name="f" unicode="f" horiz-adv-x="410" 
d="M121 0v416h-92v130h92v8q0 65 25.5 110t73.5 69t116 24q13 0 28 -1.5t25 -3.5v-128q-10 2 -17.5 2.5t-15.5 0.5q-42 0 -63.5 -18.5t-21.5 -54.5v-8h117v-130h-117v-416h-150z" />
    <glyph glyph-name="g" unicode="g" horiz-adv-x="648" 
d="M206 -199q-54 21 -92.5 58.5t-55.5 88.5l139 49q11 -38 45 -60t81 -22q37 0 64 13.5t41.5 39.5t14.5 61v125l29 -36q-28 -46 -72 -68.5t-103 -22.5q-76 0 -136 34.5t-94 95t-34 137.5t34 136.5t93 93.5t134 34q59 0 103 -23.5t75 -71.5l-19 -36v119h140v-517
q0 -72 -35 -128.5t-95.5 -88.5t-139.5 -32q-63 0 -117 21zM384 179q28 16 43.5 45t15.5 68t-16 68.5t-44 46t-65 16.5q-38 0 -67.5 -16.5t-46 -46t-16.5 -68.5q0 -38 16.5 -67t46 -45.5t67.5 -16.5t66 16z" />
    <glyph glyph-name="h" unicode="h" 
d="M55 0v757h150v-319l-18 24q19 49 61.5 72.5t99.5 23.5q62 0 108.5 -26t72.5 -72.5t26 -108.5v-351h-150v319q0 32 -12.5 55t-35 36t-52.5 13q-29 0 -52 -13t-35.5 -36t-12.5 -55v-319h-150z" />
    <glyph glyph-name="i" unicode="i" horiz-adv-x="260" 
d="M55 0v546h150v-546h-150zM55 595v150h150v-150h-150z" />
    <glyph glyph-name="j" unicode="j" horiz-adv-x="260" 
d="M-40.5 -220.5q-14.5 1.5 -24.5 3.5v128q17 -3 34 -3q43 0 64.5 18t21.5 54v566h150v-566q0 -64 -25.5 -109.5t-74 -69t-116.5 -23.5q-15 0 -29.5 1.5zM55 595v150h150v-150h-150z" />
    <glyph glyph-name="k" unicode="k" horiz-adv-x="586" 
d="M55 0v757h150v-408l185 197h185l-198 -220l197 -326h-170l-139 233l-60 -66v-167h-150z" />
    <glyph glyph-name="l" unicode="l" horiz-adv-x="260" 
d="M55 0v757h150v-757h-150z" />
    <glyph glyph-name="m" unicode="m" horiz-adv-x="929" 
d="M55 0v546h140v-133l-15 22q12 63 58 93t110 30q68 0 119.5 -34.5t64.5 -92.5l-43 -4q27 67 77 99t117 32q59 0 104.5 -26t71.5 -72.5t26 -108.5v-351h-150v319q0 32 -11.5 55t-32.5 36t-51 13q-29 0 -50.5 -13t-33 -36t-11.5 -55v-319h-150v319q0 32 -11.5 55t-32.5 36
t-51 13q-29 0 -50.5 -13t-33 -36t-11.5 -55v-319h-150z" />
    <glyph glyph-name="n" unicode="n" 
d="M55 0v546h140v-108l-8 24q19 49 61.5 72.5t99.5 23.5q62 0 108.5 -26t72.5 -72.5t26 -108.5v-351h-150v319q0 32 -12.5 55t-35 36t-52.5 13q-29 0 -52 -13t-35.5 -36t-12.5 -55v-319h-150z" />
    <glyph glyph-name="o" unicode="o" horiz-adv-x="651" 
d="M178.5 25q-66.5 37 -106 101.5t-39.5 146.5q0 83 39.5 147t106 101t147.5 37t147 -37t105.5 -101t39.5 -147q0 -82 -39.5 -146.5t-105.5 -101.5t-147 -37t-147.5 37zM397.5 142q30.5 19 48 53t17.5 78t-17.5 77.5t-48 53t-71.5 19.5t-72 -19.5t-48.5 -53t-17.5 -77.5
t17.5 -78t48.5 -53t72 -19t71.5 19z" />
    <glyph glyph-name="p" unicode="p" horiz-adv-x="673" 
d="M55 -200v746h140v-104l-13 30q27 41 73.5 63.5t106.5 22.5q78 0 141 -38t100 -102.5t37 -144.5q0 -79 -36.5 -144t-99.5 -103t-143 -38q-56 0 -103.5 20.5t-76.5 60.5l24 31v-300h-150zM417 142q32 19 50 53t18 78t-18 77.5t-50 53t-74 19.5q-40 0 -71.5 -19t-49 -53
t-17.5 -78t17.5 -78t49 -53t71.5 -19q42 0 74 19z" />
    <glyph glyph-name="q" unicode="q" horiz-adv-x="673" 
d="M468 -200v300l24 -31q-28 -40 -76 -60.5t-104 -20.5q-80 0 -143 38t-99.5 103t-36.5 144q0 80 37 144.5t100 102.5t141 38q60 0 106.5 -22.5t73.5 -63.5l-13 -30v104h140v-746h-150zM402 142q31 19 48.5 53t17.5 78t-17.5 78t-48.5 53t-72 19t-73.5 -19.5t-50.5 -53
t-18 -77.5t18 -78t50.5 -53t73.5 -19t72 19z" />
    <glyph glyph-name="r" unicode="r" horiz-adv-x="386" 
d="M55 0v546h140v-131l-10 19q18 69 59.5 93.5t98.5 24.5h32v-130h-47q-55 0 -89 -33.5t-34 -94.5v-294h-150z" />
    <glyph glyph-name="s" unicode="s" horiz-adv-x="515" 
d="M112.5 30.5q-66.5 42.5 -90.5 114.5l110 52q21 -44 57 -69t80 -25q32 0 49 13t17 36q0 12 -6 20.5t-18 15.5t-30 12l-93 26q-67 19 -103 61.5t-36 100.5q0 51 26 89t73 59.5t108 21.5q80 0 140.5 -37.5t85.5 -105.5l-111 -52q-12 34 -43.5 54.5t-71.5 20.5
q-29 0 -45.5 -12t-16.5 -33q0 -11 6 -20t19.5 -16t33.5 -13l87 -26q68 -20 104 -60.5t36 -99.5q0 -51 -26.5 -89t-73.5 -59.5t-111 -21.5q-90 0 -156.5 42.5z" />
    <glyph glyph-name="t" unicode="t" horiz-adv-x="421" 
d="M164.5 47.5q-54.5 53.5 -54.5 149.5v219h-92v130h5q42 0 64.5 21t22.5 63v40h150v-124h128v-130h-128v-209q0 -28 10 -46.5t31 -27.5t52 -9q7 0 16 1t19 2v-127q-15 -2 -34 -4t-36 -2q-99 0 -153.5 53.5z" />
    <glyph glyph-name="u" unicode="u" 
d="M138.5 16.5q-46.5 28.5 -70.5 79.5t-24 119v331h150v-319q0 -31 12.5 -54.5t35.5 -36.5t52 -13q30 0 52.5 13t35 36.5t12.5 54.5v319h150v-546h-140v108l8 -24q-19 -49 -61.5 -72.5t-99.5 -23.5q-66 0 -112.5 28.5z" />
    <glyph glyph-name="v" unicode="v" horiz-adv-x="582" 
d="M226 0l-215 546h162l118 -327l118 327h162l-215 -546h-130z" />
    <glyph glyph-name="w" unicode="w" horiz-adv-x="912" 
d="M199 0l-188 546h155l106 -317l119 317h130l118 -317l106 317h156l-189 -546h-130l-126 350l-127 -350h-130z" />
    <glyph glyph-name="x" unicode="x" horiz-adv-x="582" 
d="M12 0l191 274l-192 272h174l106 -156l106 156h174l-192 -272l190 -274h-173l-105 158l-105 -158h-174z" />
    <glyph glyph-name="y" unicode="y" horiz-adv-x="602" 
d="M93.5 -216q-22.5 4 -39.5 13v123q14 -4 33 -7t35 -3q44 0 63 20.5t31 46.5l37 85l-2 -125l-240 609h161l159 -433h-60l159 433h161l-234 -597q-22 -56 -54 -94t-72.5 -56.5t-90.5 -18.5q-24 0 -46.5 4z" />
    <glyph glyph-name="z" unicode="z" horiz-adv-x="492" 
d="M11 0v120l269 296h-256v130h456v-120l-261 -296h262v-130h-470z" />
    <glyph glyph-name="braceleft" unicode="{" horiz-adv-x="425" 
d="M316 -180q-91 0 -139.5 44t-48.5 123v170q0 26 -12.5 40t-35.5 14h-32v130h32q23 0 35.5 14.5t12.5 39.5v183q0 79 48.5 123t139.5 44h50v-130h-50q-18 0 -28 -10.5t-10 -30.5v-165q0 -43 -16.5 -77t-46.5 -54q30 -17 46.5 -49.5t16.5 -73.5v-164q0 -19 10 -30t28 -11h50
v-130h-50z" />
    <glyph glyph-name="bar" unicode="|" horiz-adv-x="426" 
d="M138 -190v1035h150v-1035h-150z" />
    <glyph glyph-name="braceright" unicode="}" horiz-adv-x="425" 
d="M59 -180v130h50q18 0 28 11t10 30v164q0 41 16.5 73.5t46.5 49.5q-30 20 -46.5 54t-16.5 77v165q0 20 -10 30.5t-28 10.5h-50v130h50q91 0 139.5 -44t48.5 -123v-183q0 -25 13 -39.5t35 -14.5h32v-130h-32q-22 0 -35 -14t-13 -40v-170q0 -79 -48.5 -123t-139.5 -44h-50z
" />
    <glyph glyph-name="asciitilde" unicode="~" horiz-adv-x="678" 
d="M377 189.5q-24 9.5 -42.5 22.5t-35 22.5t-36.5 9.5q-22 0 -35.5 -14.5t-17.5 -44.5h-120q5 89 45 135.5t111 46.5q34 0 58 -9.5t42 -22.5t35 -22.5t36 -9.5q20 0 33.5 13.5t18.5 45.5h119q-5 -89 -43.5 -135.5t-109.5 -46.5q-34 0 -58 9.5z" />
    <glyph glyph-name="uni00A0" unicode="&#xa0;" horiz-adv-x="180" 
 />
    <glyph glyph-name="exclamdown" unicode="&#xa1;" horiz-adv-x="400" 
d="M125 -199l10 515h130l10 -515h-150zM125 396v150h150v-150h-150z" />
    <glyph glyph-name="cent" unicode="&#xa2;" horiz-adv-x="611" 
d="M175.5 125.5q-65.5 37.5 -104 102.5t-38.5 146t38 145.5t104 101.5t148 37q61 0 113 -21t89 -58.5t53 -88.5l-130 -56q-14 41 -47.5 65t-77.5 24q-39 0 -69.5 -19t-48 -53t-17.5 -78t17.5 -78t48 -53t69.5 -19q45 0 78 24t47 65l130 -57q-15 -48 -52 -86t-89 -59.5
t-114 -21.5q-82 0 -147.5 37.5zM277 0v745h90v-745h-90z" />
    <glyph glyph-name="sterling" unicode="&#xa3;" horiz-adv-x="670" 
d="M33 0v130h100v375q0 76 31 132.5t89 88t139 31.5q60 0 113 -23t89 -64t43 -96l-135 -44q-7 43 -38 65t-72 22q-50 0 -77 -29t-27 -83v-375h318v-130h-573zM33 334v90h444v-90h-444z" />
    <glyph glyph-name="currency" unicode="&#xa4;" horiz-adv-x="596" 
d="M118 4l-85 85l80 79q-13 23 -19.5 48t-6.5 53q0 27 6.5 52.5t19.5 47.5l-80 80l85 85l80 -80q23 13 48 19.5t52 6.5q28 0 53.5 -6.5t47.5 -19.5l79 80l85 -85l-79 -80q12 -22 18.5 -47.5t6.5 -52.5q0 -28 -6.5 -53t-18.5 -48l79 -79l-85 -85l-79 79q-22 -12 -47.5 -18.5
t-53.5 -6.5q-27 0 -52 6.5t-48 18.5zM339 199q18 11 29 29.5t11 40.5q0 23 -11 41t-29 29t-41 11q-22 0 -40.5 -11t-29.5 -29t-11 -41q0 -22 11 -40.5t29.5 -29.5t40.5 -11q23 0 41 11z" />
    <glyph glyph-name="yen" unicode="&#xa5;" horiz-adv-x="672" 
d="M259 0v142h-145v90h145v50h-145v90h117l-220 373h177l148 -261l148 261h177l-220 -373h117v-90h-144v-50h144v-90h-144v-142h-155z" />
    <glyph glyph-name="brokenbar" unicode="&#xa6;" horiz-adv-x="426" 
d="M138 428v417h150v-417h-150zM138 -190v418h150v-418h-150z" />
    <glyph glyph-name="section" unicode="&#xa7;" horiz-adv-x="535" 
d="M117.5 -50.5q-69.5 44.5 -95.5 120.5l111 52q23 -47 61.5 -73.5t85.5 -26.5q35 0 55 14.5t20 40.5q0 13 -7 23.5t-20.5 18.5t-33.5 13l-97 27q-71 20 -109 64.5t-38 104.5q0 53 27.5 93t76.5 62.5t112 22.5v-81q-33 0 -51.5 -19.5t-18.5 -51.5q0 -19 8.5 -34.5t27 -27
t46.5 -19.5l75 -22q72 -21 109.5 -64t37.5 -104q0 -53 -27.5 -93t-77 -62.5t-115.5 -22.5q-93 0 -162.5 44.5zM280 233q35 0 55 19.5t20 55.5q0 18 -7.5 33t-24.5 27t-47 20l-79 22q-71 20 -109 64.5t-38 104.5q0 53 27.5 93t76.5 62.5t112 22.5q81 0 144.5 -38.5
t91.5 -111.5l-112 -52q-13 37 -47.5 59t-76.5 22q-33 0 -51.5 -14t-18.5 -37q0 -14 8 -25t22.5 -18t33.5 -13l93 -27q72 -21 109.5 -64t37.5 -104q0 -53 -27.5 -93t-77 -62.5t-115.5 -22.5v77z" />
    <glyph glyph-name="dieresis" unicode="&#xa8;" horiz-adv-x="567" 
d="M129 640v150h150v-150h-150zM359 640v150h150v-150h-150z" />
    <glyph glyph-name="copyright" unicode="&#xa9;" horiz-adv-x="952" 
d="M327 18q-70 30 -123 83t-83 123t-30 150t29.5 149t82.5 122t123 82.5t151 29.5q79 0 148.5 -29.5t122.5 -82t83 -122t30 -149.5t-29.5 -150t-82.5 -123t-122.5 -83t-149.5 -30t-150 30zM587.5 110q51.5 22 90.5 61t61 91t22 112q0 59 -22 110.5t-61.5 90.5t-90.5 61
t-110 22q-60 0 -112 -22t-91 -61t-61 -90.5t-22 -110.5q0 -60 22 -112t61 -91t91 -61t112 -22q59 0 110.5 22zM374 190.5q-48 27.5 -75.5 75t-27.5 107.5q0 61 27.5 108t75 74t107.5 27q45 0 82 -14.5t62.5 -40t35.5 -58.5l-99 -37q-9 22 -30 37t-51 15q-46 0 -73 -31
t-27 -80t27 -80.5t73 -31.5q29 0 50.5 15t30.5 37l99 -37q-10 -33 -35.5 -58.5t-62.5 -40t-82 -14.5q-59 0 -107 27.5z" />
    <glyph glyph-name="ordfeminine" unicode="&#xaa;" horiz-adv-x="442" 
d="M69.5 383q-36.5 30 -36.5 82q0 50 34.5 81.5t103.5 42.5l112 18v-84l-91 -17q-18 -4 -28.5 -11.5t-10.5 -25.5q0 -15 11 -23.5t29 -8.5q23 0 40.5 10.5t27.5 27.5t10 38v100q0 19 -15.5 32.5t-41.5 13.5q-28 0 -48.5 -16t-28.5 -39l-92 43q17 50 64.5 79t109.5 29
q74 0 121 -39.5t47 -102.5v-251h-108v59l28 5q-27 -38 -59.5 -55.5t-78.5 -17.5q-63 0 -99.5 30z" />
    <glyph glyph-name="guillemotleft" unicode="&#xab;" horiz-adv-x="718" 
d="M204 69l-154 200l154 200h163l-152 -200l152 -200h-163zM504 69l-154 200l154 200h163l-152 -200l152 -200h-163z" />
    <glyph glyph-name="logicalnot" unicode="&#xac;" horiz-adv-x="678" 
d="M464 40v148h-375v125h500v-273h-125z" />
    <glyph glyph-name="registered" unicode="&#xae;" horiz-adv-x="694" 
d="M218.5 306q-58.5 35 -93 93.5t-34.5 129.5t34.5 129t93 92t129.5 34q53 0 99 -19.5t81 -54.5t55 -81.5t20 -100.5q0 -70 -34 -128.5t-92 -93.5t-129 -35t-129.5 35zM439 370.5q41 24.5 65.5 66t24.5 91.5q0 51 -25 92.5t-66 66t-90 24.5q-51 0 -92.5 -25t-66 -66.5
t-24.5 -91.5q0 -51 24.5 -92.5t66.5 -65.5t92 -24t91 24.5zM235 392v272h123q44 0 73.5 -21.5t29.5 -70.5q0 -33 -15.5 -52t-36.5 -30l55 -98h-84l-50 91h-15v-91h-80zM315 549h45q11 0 17.5 7t6.5 17q0 11 -6.5 17.5t-17.5 6.5h-45v-48z" />
    <glyph glyph-name="macron" unicode="&#xaf;" horiz-adv-x="460" 
d="M129 660v120h340v-120h-340z" />
    <glyph glyph-name="degree" unicode="&#xb0;" horiz-adv-x="552" 
d="M190.5 440q-38.5 23 -61.5 61.5t-23 85.5t23 85.5t61.5 61.5t85.5 23t85.5 -23t61.5 -61.5t23 -85.5t-23 -85.5t-61.5 -61.5t-85.5 -23t-85.5 23zM325.5 537.5q20.5 20.5 20.5 49.5t-20.5 49.5t-49.5 20.5t-49.5 -20.5t-20.5 -49.5t20.5 -49.5t49.5 -20.5t49.5 20.5z" />
    <glyph glyph-name="plusminus" unicode="&#xb1;" horiz-adv-x="678" 
d="M277 195v138h-188v125h188v137h125v-137h187v-125h-187v-138h-125zM89 0v125h500v-125h-500z" />
    <glyph glyph-name="uni00B2" unicode="&#xb2;" horiz-adv-x="404" 
d="M17 224v93l140 143q35 36 56 59.5t30 40t9 31.5q0 25 -17 40t-41 15q-25 0 -45.5 -14.5t-30.5 -44.5l-104 34q9 41 36 71t65.5 46t78.5 16q53 0 93 -18.5t62 -51.5t22 -77q0 -45 -23 -83.5t-64 -80.5l-116 -119h207v-100h-358z" />
    <glyph glyph-name="uni00B3" unicode="&#xb3;" horiz-adv-x="421" 
d="M114 232q-40 17 -67.5 47.5t-36.5 70.5l105 35q12 -31 33.5 -46t49.5 -15q35 0 55.5 19t20.5 52q0 31 -19.5 50t-56.5 19q-36 0 -63 -15l-28 58l132 139h-195v99h328v-92l-137 -151l5 49q47 0 81.5 -19t53 -53.5t18.5 -79.5q0 -52 -25.5 -94t-69.5 -66t-100 -24
q-44 0 -84 17z" />
    <glyph glyph-name="acute" unicode="&#xb4;" horiz-adv-x="391" 
 />
    <glyph glyph-name="uni00B5" unicode="&#xb5;" 
d="M44 -140v686h150v-319q0 -31 12.5 -54.5t35.5 -36.5t52 -13q30 0 52.5 13t35 36.5t12.5 54.5v319h150v-546h-140v133l15 -22q-12 -63 -57.5 -93t-110.5 -30q-27 0 -51 4.5t-46 14.5l40 54v-201h-150z" />
    <glyph glyph-name="paragraph" unicode="&#xb6;" horiz-adv-x="619" 
d="M326 -100v372q-74 0 -129 29.5t-85.5 82.5t-30.5 124t30.5 124.5t85.5 83t129 29.5h155v-845h-155z" />
    <glyph glyph-name="periodcentered" unicode="&#xb7;" horiz-adv-x="408" 
d="M129 198v150h150v-150h-150z" />
    <glyph glyph-name="cedilla" unicode="&#xb8;" horiz-adv-x="381" 
d="M186.5 -232q-33.5 8 -57.5 24l31 83q15 -9 32.5 -14t33.5 -5q22 0 33.5 8.5t11.5 23.5q0 18 -24 29t-69 15l20 78h85l-8 -38q53 -5 84 -31t31 -65q0 -53 -39 -84.5t-105 -31.5q-26 0 -59.5 8z" />
    <glyph glyph-name="uni00B9" unicode="&#xb9;" horiz-adv-x="319" 
d="M116 224v421h-102v100h221v-521h-119z" />
    <glyph glyph-name="ordmasculine" unicode="&#xba;" horiz-adv-x="481" 
d="M137 379q-47 26 -75.5 71.5t-28.5 103.5t28.5 103.5t75.5 71.5t104 26t104 -26t75 -71.5t28 -103.5t-28 -103.5t-75 -71.5t-104 -26t-104 26zM287.5 469.5q19.5 12.5 30 34.5t10.5 50q0 29 -11 50.5t-30.5 34t-45.5 12.5t-46 -12.5t-31 -34.5t-11 -50t11 -50t31 -34.5
t47 -12.5q26 0 45.5 12.5z" />
    <glyph glyph-name="guillemotright" unicode="&#xbb;" horiz-adv-x="718" 
d="M351 69l152 200l-152 200h163l154 -200l-154 -200h-163zM51 69l152 200l-152 200h163l154 -200l-154 -200h-163z" />
    <glyph glyph-name="onequarter" unicode="&#xbc;" horiz-adv-x="877" 
d="M96 328v333h-82v84h182v-417h-100zM107 0l446 745h97l-446 -745h-97zM687 0v87h-177v85l169 245h109v-246h69v-84h-69v-87h-101zM687 171v124l-82 -124h82z" />
    <glyph glyph-name="onehalf" unicode="&#xbd;" horiz-adv-x="816" 
d="M96 328v333h-82v84h182v-417h-100zM107 0l446 745h97l-446 -745h-97zM499 0v78l112 114q29 29 44.5 47.5t22 31t6.5 22.5q0 17 -13 28.5t-30 11.5q-18 0 -34 -10.5t-24 -33.5l-87 29q7 33 29 56.5t53 36.5t63 13q64 0 103.5 -32.5t39.5 -85.5q0 -37 -19 -67.5t-49 -61.5
l-91 -93h162v-84h-288z" />
    <glyph glyph-name="threequarters" unicode="&#xbe;" horiz-adv-x="943" 
d="M65 351q-44 30 -55 79l89 29q9 -23 24.5 -34.5t37.5 -11.5q26 0 42 14.5t16 38.5q0 23 -14.5 37t-43.5 14q-13 0 -27 -3t-25 -9l-23 48l104 109h-152v83h265v-78l-111 -119l5 43q56 0 88.5 -34t32.5 -88q0 -42 -20.5 -75.5t-56 -53t-80.5 -19.5q-52 0 -96 30zM173 0
l446 745h97l-446 -745h-97zM753 0v87h-177v85l169 245h109v-246h69v-84h-69v-87h-101zM753 171v124l-82 -124h82z" />
    <glyph glyph-name="questiondown" unicode="&#xbf;" horiz-adv-x="611" 
d="M178 -180.5q-53 30.5 -80.5 78.5t-27.5 100q0 38 14.5 67.5t37 54t45.5 47.5q31 29 55 61t24 75v13h140v-23q0 -44 -12.5 -77.5t-32.5 -59t-41 -47.5q-28 -29 -51.5 -52t-23.5 -55q0 -21 10 -37.5t30 -26t48 -9.5q38 0 65 22.5t33 60.5l139 -35q-8 -55 -41 -97.5
t-84 -66.5t-116 -24q-78 0 -131 30.5zM240 396v150h150v-150h-150z" />
    <glyph glyph-name="Agrave" unicode="&#xc0;" horiz-adv-x="732" 
d="M11 0l252 745h206l252 -745h-169l-50 152h-273l-50 -152h-168zM459 287l-93 287l-94 -287h187zM303 797l-153 190h179l109 -190h-135z" />
    <glyph glyph-name="Aacute" unicode="&#xc1;" horiz-adv-x="732" 
d="M11 0l252 745h206l252 -745h-169l-50 152h-273l-50 -152h-168zM459 287l-93 287l-94 -287h187zM394 987h179l-153 -190h-135z" />
    <glyph glyph-name="Acircumflex" unicode="&#xc2;" horiz-adv-x="732" 
d="M11 0l252 745h206l252 -745h-169l-50 152h-273l-50 -152h-168zM459 287l-93 287l-94 -287h187zM136 796l174 192h111l175 -192h-151l-79 75l-79 -75h-151z" />
    <glyph glyph-name="Atilde" unicode="&#xc3;" horiz-adv-x="732" 
d="M11 0l252 745h206l252 -745h-169l-50 152h-273l-50 -152h-168zM459 287l-93 287l-94 -287h187zM413 814.5q-23 9.5 -55 27.5q-23 13 -36.5 19t-26.5 6q-15 0 -21.5 -13.5t-6.5 -44.5h-101q0 92 29 133t77 41q29 0 53.5 -10.5t54.5 -28.5q19 -12 32.5 -18t25.5 -6
q17 0 22.5 13.5t5.5 44.5h101q-1 -90 -29 -131.5t-75 -41.5q-27 0 -50 9.5z" />
    <glyph glyph-name="Adieresis" unicode="&#xc4;" horiz-adv-x="732" 
d="M11 0l252 745h206l252 -745h-169l-50 152h-273l-50 -152h-168zM459 287l-93 287l-94 -287h187zM176 849v150h150v-150h-150zM406 849v150h150v-150h-150z" />
    <glyph glyph-name="Aring" unicode="&#xc5;" horiz-adv-x="732" 
d="M11 0l252 745h206l252 -745h-169l-50 152h-273l-50 -152h-168zM459 287l-93 287l-94 -287h187zM273 834.5q-37 35.5 -37 90.5q0 54 37 89t93 35t92.5 -35t36.5 -89q0 -55 -36.5 -90.5t-92.5 -35.5t-93 35.5zM393.5 897q10.5 11 10.5 28t-10.5 28t-27.5 11t-28 -11
t-11 -28t11 -28t28 -11t27.5 11z" />
    <glyph glyph-name="AE" unicode="&#xc6;" horiz-adv-x="993" 
d="M11 0l252 745h708v-135h-346v-169h326v-135h-326v-171h346l-1 -135h-500v152h-241l-50 -152h-168zM272 287h198v323h-92z" />
    <glyph glyph-name="Ccedilla" unicode="&#xc7;" horiz-adv-x="772" 
d="M271.5 17q-68.5 29 -119.5 81t-79.5 122t-28.5 153t28 153.5t79 122t119.5 80t149.5 28.5t145.5 -27t109.5 -72t64 -100l-137 -66q-19 54 -66.5 89.5t-115.5 35.5q-66 0 -116 -31t-77.5 -85.5t-27.5 -127.5t27.5 -128t77.5 -86t116 -31q68 0 115.5 35.5t66.5 89.5
l137 -66q-19 -55 -64 -100t-109.5 -72t-145.5 -27q-80 0 -148.5 29zM370.5 -232q-33.5 8 -57.5 24l31 83q15 -9 32.5 -14t33.5 -5q22 0 33.5 8.5t11.5 23.5q0 18 -24 29t-69 15l20 78h85l-8 -38q53 -5 84 -31t31 -65q0 -53 -39 -84.5t-105 -31.5q-26 0 -59.5 8z" />
    <glyph glyph-name="Egrave" unicode="&#xc8;" horiz-adv-x="589" 
d="M66 0v745h501v-135h-346v-169h326v-135h-326v-171h346v-135h-501zM256 797l-153 190h179l109 -190h-135z" />
    <glyph glyph-name="Eacute" unicode="&#xc9;" horiz-adv-x="589" 
d="M66 0v745h501v-135h-346v-169h326v-135h-326v-171h346v-135h-501zM347 987h179l-153 -190h-135z" />
    <glyph glyph-name="Ecircumflex" unicode="&#xca;" horiz-adv-x="589" 
d="M66 0v745h501v-135h-346v-169h326v-135h-326v-171h346v-135h-501zM89 796l174 192h111l175 -192h-151l-79 75l-79 -75h-151z" />
    <glyph glyph-name="Edieresis" unicode="&#xcb;" horiz-adv-x="589" 
d="M66 0v745h501v-135h-346v-169h326v-135h-326v-171h346v-135h-501zM129 849v150h150v-150h-150zM359 849v150h150v-150h-150z" />
    <glyph glyph-name="Igrave" unicode="&#xcc;" horiz-adv-x="287" 
d="M66 0v745h155v-745h-155zM87 819l-127 200h175l81 -200h-129z" />
    <glyph glyph-name="Iacute" unicode="&#xcd;" horiz-adv-x="287" 
d="M66 0v745h155v-745h-155zM150 1019h178l-127 -200h-132z" />
    <glyph glyph-name="Icircumflex" unicode="&#xce;" horiz-adv-x="287" 
d="M66 0v745h155v-745h-155z" />
    <glyph glyph-name="Idieresis" unicode="&#xcf;" horiz-adv-x="287" 
d="M66 0v745h155v-745h-155zM-46 849v150h150v-150h-150zM184 849v150h150v-150h-150z" />
    <glyph glyph-name="Eth" unicode="&#xd0;" horiz-adv-x="749" 
d="M8 321v127h409v-127h-409zM76 0v745h243q121 0 210 -48t138 -132t49 -192t-49 -192.5t-138 -132.5t-210 -48h-243zM231 135h92q73 0 126 29.5t82.5 83t29.5 125.5q0 73 -29.5 126t-82.5 82t-126 29h-92v-475z" />
    <glyph glyph-name="Ntilde" unicode="&#xd1;" horiz-adv-x="742" 
d="M66 0v745h119l336 -443v443h155v-745h-120l-335 453v-453h-155z" />
    <glyph glyph-name="Ograve" unicode="&#xd2;" horiz-adv-x="878" 
d="M283 17q-72 29 -125.5 81.5t-83.5 122.5t-30 152t29.5 152t83 122t125.5 81t157 29t157 -29t125.5 -81t83 -122t29.5 -152t-30 -152t-83.5 -122.5t-125.5 -81.5t-156 -29t-156 29zM533.5 146q43.5 18 76.5 50.5t51 77.5t18 99t-18 98.5t-51 77.5t-76.5 50.5t-94.5 17.5
t-94.5 -17.5t-76.5 -50.5t-51 -77.5t-18 -98.5t18 -99t51 -77.5t76.5 -50.5t94.5 -18t94.5 18zM376 797l-153 190h179l109 -190h-135z" />
    <glyph glyph-name="Oacute" unicode="&#xd3;" horiz-adv-x="878" 
d="M283 17q-72 29 -125.5 81.5t-83.5 122.5t-30 152t29.5 152t83 122t125.5 81t157 29t157 -29t125.5 -81t83 -122t29.5 -152t-30 -152t-83.5 -122.5t-125.5 -81.5t-156 -29t-156 29zM533.5 146q43.5 18 76.5 50.5t51 77.5t18 99t-18 98.5t-51 77.5t-76.5 50.5t-94.5 17.5
t-94.5 -17.5t-76.5 -50.5t-51 -77.5t-18 -98.5t18 -99t51 -77.5t76.5 -50.5t94.5 -18t94.5 18zM467 987h179l-153 -190h-135z" />
    <glyph glyph-name="Ocircumflex" unicode="&#xd4;" horiz-adv-x="878" 
d="M283 17q-72 29 -125.5 81.5t-83.5 122.5t-30 152t29.5 152t83 122t125.5 81t157 29t157 -29t125.5 -81t83 -122t29.5 -152t-30 -152t-83.5 -122.5t-125.5 -81.5t-156 -29t-156 29zM533.5 146q43.5 18 76.5 50.5t51 77.5t18 99t-18 98.5t-51 77.5t-76.5 50.5t-94.5 17.5
t-94.5 -17.5t-76.5 -50.5t-51 -77.5t-18 -98.5t18 -99t51 -77.5t76.5 -50.5t94.5 -18t94.5 18zM209 796l174 192h111l175 -192h-151l-79 75l-79 -75h-151z" />
    <glyph glyph-name="Otilde" unicode="&#xd5;" horiz-adv-x="878" 
d="M283 17q-72 29 -125.5 81.5t-83.5 122.5t-30 152t29.5 152t83 122t125.5 81t157 29t157 -29t125.5 -81t83 -122t29.5 -152t-30 -152t-83.5 -122.5t-125.5 -81.5t-156 -29t-156 29zM533.5 146q43.5 18 76.5 50.5t51 77.5t18 99t-18 98.5t-51 77.5t-76.5 50.5t-94.5 17.5
t-94.5 -17.5t-76.5 -50.5t-51 -77.5t-18 -98.5t18 -99t51 -77.5t76.5 -50.5t94.5 -18t94.5 18zM486 814.5q-23 9.5 -55 27.5q-23 13 -36.5 19t-26.5 6q-15 0 -21.5 -13.5t-6.5 -44.5h-101q0 92 29 133t77 41q29 0 53.5 -10.5t54.5 -28.5q19 -12 32.5 -18t25.5 -6
q17 0 22.5 13.5t5.5 44.5h101q-1 -90 -29 -131.5t-75 -41.5q-27 0 -50 9.5z" />
    <glyph glyph-name="Odieresis" unicode="&#xd6;" horiz-adv-x="878" 
d="M283 17q-72 29 -125.5 81.5t-83.5 122.5t-30 152t29.5 152t83 122t125.5 81t157 29t157 -29t125.5 -81t83 -122t29.5 -152t-30 -152t-83.5 -122.5t-125.5 -81.5t-156 -29t-156 29zM533.5 146q43.5 18 76.5 50.5t51 77.5t18 99t-18 98.5t-51 77.5t-76.5 50.5t-94.5 17.5
t-94.5 -17.5t-76.5 -50.5t-51 -77.5t-18 -98.5t18 -99t51 -77.5t76.5 -50.5t94.5 -18t94.5 18zM249 849v150h150v-150h-150zM479 849v150h150v-150h-150z" />
    <glyph glyph-name="multiply" unicode="&#xd7;" horiz-adv-x="678" 
d="M192 0l-88 89l147 147l-147 146l89 88l146 -146l146 146l89 -88l-147 -146l147 -147l-88 -89l-147 147z" />
    <glyph glyph-name="Oslash" unicode="&#xd8;" horiz-adv-x="878" 
d="M50 0l610 745h168l-610 -745h-168zM283 17q-72 29 -125.5 81.5t-83.5 122.5t-30 152t29.5 152t83 122t125.5 81t157 29t157 -29t125.5 -81t83 -122t29.5 -152t-30 -152t-83.5 -122.5t-125.5 -81.5t-156 -29t-156 29zM533.5 146q43.5 18 76.5 50.5t51 77.5t18 99t-18 98.5
t-51 77.5t-76.5 50.5t-94.5 17.5t-94.5 -17.5t-76.5 -50.5t-51 -77.5t-18 -98.5t18 -99t51 -77.5t76.5 -50.5t94.5 -18t94.5 18z" />
    <glyph glyph-name="Ugrave" unicode="&#xd9;" horiz-adv-x="724" 
d="M205 25q-69 37 -108.5 101.5t-39.5 146.5v472h155v-462q0 -44 19.5 -79.5t53.5 -55.5t77 -20q44 0 77.5 20t53 55.5t19.5 79.5v462h155v-472q0 -82 -39.5 -146.5t-108.5 -101.5t-157 -37t-157 37zM299 787l-153 190h179l109 -190h-135z" />
    <glyph glyph-name="Uacute" unicode="&#xda;" horiz-adv-x="724" 
d="M205 25q-69 37 -108.5 101.5t-39.5 146.5v472h155v-462q0 -44 19.5 -79.5t53.5 -55.5t77 -20q44 0 77.5 20t53 55.5t19.5 79.5v462h155v-472q0 -82 -39.5 -146.5t-108.5 -101.5t-157 -37t-157 37zM390 977h179l-153 -190h-135z" />
    <glyph glyph-name="Ucircumflex" unicode="&#xdb;" horiz-adv-x="724" 
d="M205 25q-69 37 -108.5 101.5t-39.5 146.5v472h155v-462q0 -44 19.5 -79.5t53.5 -55.5t77 -20q44 0 77.5 20t53 55.5t19.5 79.5v462h155v-472q0 -82 -39.5 -146.5t-108.5 -101.5t-157 -37t-157 37z" />
    <glyph glyph-name="Udieresis" unicode="&#xdc;" horiz-adv-x="724" 
d="M205 25q-69 37 -108.5 101.5t-39.5 146.5v472h155v-462q0 -44 19.5 -79.5t53.5 -55.5t77 -20q44 0 77.5 20t53 55.5t19.5 79.5v462h155v-472q0 -82 -39.5 -146.5t-108.5 -101.5t-157 -37t-157 37zM172 839v150h150v-150h-150zM402 839v150h150v-150h-150z" />
    <glyph glyph-name="Yacute" unicode="&#xdd;" horiz-adv-x="672" 
d="M259 0v325l-248 420h177l148 -261l148 261h177l-247 -419v-326h-155zM364 977h179l-153 -190h-135z" />
    <glyph glyph-name="Thorn" unicode="&#xde;" horiz-adv-x="655" 
d="M60 0v745h155v-135h131q77 0 136.5 -27t93.5 -80t34 -131q0 -76 -34.5 -129t-94 -80.5t-135.5 -27.5h-131v-135h-155zM215 270h132q33 0 57 13t37.5 36t13.5 53q0 31 -13.5 54t-37.5 36t-57 13h-132v-205z" />
    <glyph glyph-name="germandbls" unicode="&#xdf;" horiz-adv-x="654" 
d="M66 -160v650q0 83 35 143t96 92t139 32q77 0 134 -27.5t88.5 -76.5t31.5 -114q0 -52 -30 -95.5t-88 -63.5l-8 43q85 -27 121 -72t36 -119q0 -71 -31 -123.5t-88 -80.5t-136 -28h-70v130h60q49 0 79.5 28t30.5 74q0 45 -30 71.5t-80 26.5h-60v130h50q26 0 46 10.5
t31.5 29.5t11.5 42q0 25 -12.5 44t-34.5 30t-52 11q-36 0 -63 -16t-42 -46.5t-15 -74.5v-650h-150z" />
    <glyph glyph-name="agrave" unicode="&#xe0;" horiz-adv-x="583" 
d="M122 7q-43 19 -66 54.5t-23 84.5q0 46 21 81.5t64.5 59.5t108.5 34l167 27v-110l-140 -25q-32 -6 -49 -20.5t-17 -41.5q0 -25 19 -39t47 -14q37 0 65 16t43.5 43.5t15.5 60.5v142q0 31 -24.5 52t-66.5 21q-40 0 -70.5 -22t-44.5 -58l-120 57q16 46 51 79t84 51t107 18
q69 0 122 -25t82.5 -69.5t29.5 -103.5v-360h-140v88l34 6q-24 -36 -53 -59.5t-65 -35t-80 -11.5q-59 0 -102 19zM235 610l-127 200h175l81 -200h-129z" />
    <glyph glyph-name="aacute" unicode="&#xe1;" horiz-adv-x="583" 
d="M122 7q-43 19 -66 54.5t-23 84.5q0 46 21 81.5t64.5 59.5t108.5 34l167 27v-110l-140 -25q-32 -6 -49 -20.5t-17 -41.5q0 -25 19 -39t47 -14q37 0 65 16t43.5 43.5t15.5 60.5v142q0 31 -24.5 52t-66.5 21q-40 0 -70.5 -22t-44.5 -58l-120 57q16 46 51 79t84 51t107 18
q69 0 122 -25t82.5 -69.5t29.5 -103.5v-360h-140v88l34 6q-24 -36 -53 -59.5t-65 -35t-80 -11.5q-59 0 -102 19zM298 810h178l-127 -200h-132z" />
    <glyph glyph-name="acircumflex" unicode="&#xe2;" horiz-adv-x="583" 
d="M122 7q-43 19 -66 54.5t-23 84.5q0 46 21 81.5t64.5 59.5t108.5 34l167 27v-110l-140 -25q-32 -6 -49 -20.5t-17 -41.5q0 -25 19 -39t47 -14q37 0 65 16t43.5 43.5t15.5 60.5v142q0 31 -24.5 52t-66.5 21q-40 0 -70.5 -22t-44.5 -58l-120 57q16 46 51 79t84 51t107 18
q69 0 122 -25t82.5 -69.5t29.5 -103.5v-360h-140v88l34 6q-24 -36 -53 -59.5t-65 -35t-80 -11.5q-59 0 -102 19zM71 597l166 209h109l167 -209h-142l-79 95l-79 -95h-142z" />
    <glyph glyph-name="atilde" unicode="&#xe3;" horiz-adv-x="583" 
d="M122 7q-43 19 -66 54.5t-23 84.5q0 46 21 81.5t64.5 59.5t108.5 34l167 27v-110l-140 -25q-32 -6 -49 -20.5t-17 -41.5q0 -25 19 -39t47 -14q37 0 65 16t43.5 43.5t15.5 60.5v142q0 31 -24.5 52t-66.5 21q-40 0 -70.5 -22t-44.5 -58l-120 57q16 46 51 79t84 51t107 18
q69 0 122 -25t82.5 -69.5t29.5 -103.5v-360h-140v88l34 6q-24 -36 -53 -59.5t-65 -35t-80 -11.5q-59 0 -102 19zM337 615.5q-23 9.5 -55 27.5q-23 13 -36.5 19t-26.5 6q-15 0 -21.5 -13.5t-6.5 -44.5h-101q0 92 29 133t77 41q29 0 53.5 -10.5t54.5 -28.5q19 -12 32.5 -18
t25.5 -6q17 0 22.5 13.5t5.5 44.5h101q-1 -90 -29 -131.5t-75 -41.5q-27 0 -50 9.5z" />
    <glyph glyph-name="adieresis" unicode="&#xe4;" horiz-adv-x="583" 
d="M122 7q-43 19 -66 54.5t-23 84.5q0 46 21 81.5t64.5 59.5t108.5 34l167 27v-110l-140 -25q-32 -6 -49 -20.5t-17 -41.5q0 -25 19 -39t47 -14q37 0 65 16t43.5 43.5t15.5 60.5v142q0 31 -24.5 52t-66.5 21q-40 0 -70.5 -22t-44.5 -58l-120 57q16 46 51 79t84 51t107 18
q69 0 122 -25t82.5 -69.5t29.5 -103.5v-360h-140v88l34 6q-24 -36 -53 -59.5t-65 -35t-80 -11.5q-59 0 -102 19zM102 640v150h150v-150h-150zM332 640v150h150v-150h-150z" />
    <glyph glyph-name="aring" unicode="&#xe5;" horiz-adv-x="583" 
d="M122 7q-43 19 -66 54.5t-23 84.5q0 46 21 81.5t64.5 59.5t108.5 34l167 27v-110l-140 -25q-32 -6 -49 -20.5t-17 -41.5q0 -25 19 -39t47 -14q37 0 65 16t43.5 43.5t15.5 60.5v142q0 31 -24.5 52t-66.5 21q-40 0 -70.5 -22t-44.5 -58l-120 57q16 46 51 79t84 51t107 18
q69 0 122 -25t82.5 -69.5t29.5 -103.5v-360h-140v88l34 6q-24 -36 -53 -59.5t-65 -35t-80 -11.5q-59 0 -102 19zM199 625.5q-37 35.5 -37 90.5q0 54 37 89t93 35t92.5 -35t36.5 -89q0 -55 -36.5 -90.5t-92.5 -35.5t-93 35.5zM319.5 688q10.5 11 10.5 28t-10.5 28t-27.5 11
t-28 -11t-11 -28t11 -28t28 -11t27.5 11z" />
    <glyph glyph-name="ae" unicode="&#xe6;" horiz-adv-x="961" 
d="M122 7q-43 19 -66 54.5t-23 84.5q0 46 21 81.5t64.5 59.5t108.5 34l151 24v15q0 31 -24.5 52t-66.5 21q-40 0 -70.5 -22t-44.5 -58l-120 57q16 46 51 79t84 51t107 18q71 0 124.5 -26.5t81.5 -71.5h-54q38 45 92.5 71.5t119.5 26.5t115 -20.5t84.5 -57.5t52.5 -85.5
t18 -105.5q0 -16 -1.5 -31.5t-5.5 -26.5h-382q5 -34 21.5 -59.5t44.5 -39.5t65 -14q40 0 68.5 16t44.5 44l120 -57q-16 -40 -49.5 -70t-76.5 -46.5t-89 -16.5q-66 0 -119.5 24t-90.5 75l33 31v-118h-123v118l31 -31q-24 -34 -53 -56t-64 -32.5t-78 -10.5q-59 0 -102 19z
M319 114q28 16 43.5 43.5t15.5 60.5v17l-124 -22q-32 -6 -49 -20.5t-17 -41.5q0 -25 19 -39t47 -14q37 0 65 16zM769 341q-3 29 -17.5 51t-38.5 34t-55 12q-29 0 -53 -11t-40 -32.5t-23 -53.5h227z" />
    <glyph glyph-name="ccedilla" unicode="&#xe7;" horiz-adv-x="611" 
d="M175.5 25.5q-65.5 37.5 -104 102.5t-38.5 146t38 145.5t104 101.5t148 37q61 0 113 -21t89 -58.5t53 -88.5l-130 -56q-14 41 -47.5 65t-77.5 24q-39 0 -69.5 -19t-48 -53t-17.5 -78t17.5 -78t48 -53t69.5 -19q45 0 78 24t47 65l130 -57q-15 -48 -52 -86t-89 -59.5
t-114 -21.5q-82 0 -147.5 37.5zM273.5 -232q-33.5 8 -57.5 24l31 83q15 -9 32.5 -14t33.5 -5q22 0 33.5 8.5t11.5 23.5q0 18 -24 29t-69 15l20 78h85l-8 -38q53 -5 84 -31t31 -65q0 -53 -39 -84.5t-105 -31.5q-26 0 -59.5 8z" />
    <glyph glyph-name="egrave" unicode="&#xe8;" horiz-adv-x="611" 
d="M167 26.5q-64 38.5 -99 103.5t-35 144q0 82 36.5 146t98.5 101t140 37q65 0 115 -20.5t84.5 -57.5t52.5 -85.5t18 -105.5q0 -16 -1.5 -31.5t-5.5 -26.5h-409v110h324l-71 -52q10 43 -1 76.5t-38.5 53t-67.5 19.5q-39 0 -67 -19t-42 -56t-11 -90q-4 -46 11 -81t46 -54.5
t75 -19.5q40 0 68.5 16t44.5 44l120 -57q-16 -40 -50.5 -70t-81.5 -46.5t-103 -16.5q-87 0 -151 38.5zM249 610l-127 200h175l81 -200h-129z" />
    <glyph glyph-name="eacute" unicode="&#xe9;" horiz-adv-x="611" 
d="M167 26.5q-64 38.5 -99 103.5t-35 144q0 82 36.5 146t98.5 101t140 37q65 0 115 -20.5t84.5 -57.5t52.5 -85.5t18 -105.5q0 -16 -1.5 -31.5t-5.5 -26.5h-409v110h324l-71 -52q10 43 -1 76.5t-38.5 53t-67.5 19.5q-39 0 -67 -19t-42 -56t-11 -90q-4 -46 11 -81t46 -54.5
t75 -19.5q40 0 68.5 16t44.5 44l120 -57q-16 -40 -50.5 -70t-81.5 -46.5t-103 -16.5q-87 0 -151 38.5zM312 810h178l-127 -200h-132z" />
    <glyph glyph-name="ecircumflex" unicode="&#xea;" horiz-adv-x="611" 
d="M167 26.5q-64 38.5 -99 103.5t-35 144q0 82 36.5 146t98.5 101t140 37q65 0 115 -20.5t84.5 -57.5t52.5 -85.5t18 -105.5q0 -16 -1.5 -31.5t-5.5 -26.5h-409v110h324l-71 -52q10 43 -1 76.5t-38.5 53t-67.5 19.5q-39 0 -67 -19t-42 -56t-11 -90q-4 -46 11 -81t46 -54.5
t75 -19.5q40 0 68.5 16t44.5 44l120 -57q-16 -40 -50.5 -70t-81.5 -46.5t-103 -16.5q-87 0 -151 38.5zM85 597l166 209h109l167 -209h-142l-79 95l-79 -95h-142z" />
    <glyph glyph-name="edieresis" unicode="&#xeb;" horiz-adv-x="611" 
d="M167 26.5q-64 38.5 -99 103.5t-35 144q0 82 36.5 146t98.5 101t140 37q65 0 115 -20.5t84.5 -57.5t52.5 -85.5t18 -105.5q0 -16 -1.5 -31.5t-5.5 -26.5h-409v110h324l-71 -52q10 43 -1 76.5t-38.5 53t-67.5 19.5q-39 0 -67 -19t-42 -56t-11 -90q-4 -46 11 -81t46 -54.5
t75 -19.5q40 0 68.5 16t44.5 44l120 -57q-16 -40 -50.5 -70t-81.5 -46.5t-103 -16.5q-87 0 -151 38.5zM116 640v150h150v-150h-150zM346 640v150h150v-150h-150z" />
    <glyph glyph-name="igrave" unicode="&#xec;" horiz-adv-x="238" 
d="M44 0v546h150v-546h-150zM62 620l-127 200h176l81 -200h-130z" />
    <glyph glyph-name="iacute" unicode="&#xed;" horiz-adv-x="238" 
d="M44 0v546h150v-546h-150zM127 820h176l-127 -200h-130z" />
    <glyph glyph-name="icircumflex" unicode="&#xee;" horiz-adv-x="238" 
d="M44 0v546h150v-546h-150z" />
    <glyph glyph-name="idieresis" unicode="&#xef;" horiz-adv-x="238" 
d="M44 0v546h150v-546h-150zM-71 640v150h150v-150h-150zM159 640v150h150v-150h-150z" />
    <glyph glyph-name="eth" unicode="&#xf0;" horiz-adv-x="651" 
d="M214 8.5q-53 20.5 -93.5 58t-64 89.5t-23.5 114q0 79 37.5 142t101.5 99.5t144 36.5q36 0 64 -8t52.5 -24t49.5 -40l-23 -40q-3 45 -17.5 81.5t-39 64.5t-57 46.5t-70 28t-78.5 9.5q-24 0 -48.5 -3.5t-49.5 -11.5l-15 120q74 25 143 25q71 0 131.5 -24t108.5 -67.5
t81.5 -101.5t51.5 -126t18 -142q0 -114 -37.5 -191t-103 -116.5t-151.5 -39.5q-59 0 -112 20.5zM397.5 142q30.5 19 48 52t17.5 75q0 41 -16.5 73.5t-47 51.5t-73.5 19q-41 0 -72.5 -18.5t-48.5 -51t-17 -74.5q0 -43 18 -76t49 -51.5t71 -18.5q41 0 71.5 19zM215 555v60
l354 138v-60z" />
    <glyph glyph-name="ntilde" unicode="&#xf1;" 
d="M55 0v546h140v-108l-8 24q19 49 61.5 72.5t99.5 23.5q62 0 108.5 -26t72.5 -72.5t26 -108.5v-351h-150v319q0 32 -12.5 55t-35 36t-52.5 13q-29 0 -52 -13t-35.5 -36t-12.5 -55v-319h-150z" />
    <glyph glyph-name="ograve" unicode="&#xf2;" horiz-adv-x="651" 
d="M178.5 25q-66.5 37 -106 101.5t-39.5 146.5q0 83 39.5 147t106 101t147.5 37t147 -37t105.5 -101t39.5 -147q0 -82 -39.5 -146.5t-105.5 -101.5t-147 -37t-147.5 37zM397.5 142q30.5 19 48 53t17.5 78t-17.5 77.5t-48 53t-71.5 19.5t-72 -19.5t-48.5 -53t-17.5 -77.5
t17.5 -78t48.5 -53t72 -19t71.5 19zM269 610l-127 200h175l81 -200h-129z" />
    <glyph glyph-name="oacute" unicode="&#xf3;" horiz-adv-x="651" 
d="M178.5 25q-66.5 37 -106 101.5t-39.5 146.5q0 83 39.5 147t106 101t147.5 37t147 -37t105.5 -101t39.5 -147q0 -82 -39.5 -146.5t-105.5 -101.5t-147 -37t-147.5 37zM397.5 142q30.5 19 48 53t17.5 78t-17.5 77.5t-48 53t-71.5 19.5t-72 -19.5t-48.5 -53t-17.5 -77.5
t17.5 -78t48.5 -53t72 -19t71.5 19zM332 810h178l-127 -200h-132z" />
    <glyph glyph-name="ocircumflex" unicode="&#xf4;" horiz-adv-x="651" 
d="M178.5 25q-66.5 37 -106 101.5t-39.5 146.5q0 83 39.5 147t106 101t147.5 37t147 -37t105.5 -101t39.5 -147q0 -82 -39.5 -146.5t-105.5 -101.5t-147 -37t-147.5 37zM397.5 142q30.5 19 48 53t17.5 78t-17.5 77.5t-48 53t-71.5 19.5t-72 -19.5t-48.5 -53t-17.5 -77.5
t17.5 -78t48.5 -53t72 -19t71.5 19zM105 597l166 209h109l167 -209h-142l-79 95l-79 -95h-142z" />
    <glyph glyph-name="otilde" unicode="&#xf5;" horiz-adv-x="651" 
d="M178.5 25q-66.5 37 -106 101.5t-39.5 146.5q0 83 39.5 147t106 101t147.5 37t147 -37t105.5 -101t39.5 -147q0 -82 -39.5 -146.5t-105.5 -101.5t-147 -37t-147.5 37zM397.5 142q30.5 19 48 53t17.5 78t-17.5 77.5t-48 53t-71.5 19.5t-72 -19.5t-48.5 -53t-17.5 -77.5
t17.5 -78t48.5 -53t72 -19t71.5 19zM371 615.5q-23 9.5 -55 27.5q-23 13 -36.5 19t-26.5 6q-15 0 -21.5 -13.5t-6.5 -44.5h-101q0 92 29 133t77 41q29 0 53.5 -10.5t54.5 -28.5q19 -12 32.5 -18t25.5 -6q17 0 22.5 13.5t5.5 44.5h101q-1 -90 -29 -131.5t-75 -41.5
q-27 0 -50 9.5z" />
    <glyph glyph-name="odieresis" unicode="&#xf6;" horiz-adv-x="651" 
d="M178.5 25q-66.5 37 -106 101.5t-39.5 146.5q0 83 39.5 147t106 101t147.5 37t147 -37t105.5 -101t39.5 -147q0 -82 -39.5 -146.5t-105.5 -101.5t-147 -37t-147.5 37zM397.5 142q30.5 19 48 53t17.5 78t-17.5 77.5t-48 53t-71.5 19.5t-72 -19.5t-48.5 -53t-17.5 -77.5
t17.5 -78t48.5 -53t72 -19t71.5 19zM136 640v150h150v-150h-150zM366 640v150h150v-150h-150z" />
    <glyph glyph-name="divide" unicode="&#xf7;" horiz-adv-x="678" 
d="M89 188v125h500v-125h-500zM264 0v118h150v-118h-150zM264 382v118h150v-118h-150z" />
    <glyph glyph-name="oslash" unicode="&#xf8;" horiz-adv-x="651" 
d="M9 0l469 546h165l-469 -546h-165zM178.5 25q-66.5 37 -106 101.5t-39.5 146.5q0 83 39.5 147t106 101t147.5 37t147 -37t105.5 -101t39.5 -147q0 -82 -39.5 -146.5t-105.5 -101.5t-147 -37t-147.5 37zM397.5 142q30.5 19 48 53t17.5 78t-17.5 77.5t-48 53t-71.5 19.5
t-72 -19.5t-48.5 -53t-17.5 -77.5t17.5 -78t48.5 -53t72 -19t71.5 19z" />
    <glyph glyph-name="ugrave" unicode="&#xf9;" 
d="M138.5 16.5q-46.5 28.5 -70.5 79.5t-24 119v331h150v-319q0 -31 12.5 -54.5t35.5 -36.5t52 -13q30 0 52.5 13t35 36.5t12.5 54.5v319h150v-546h-140v108l8 -24q-19 -49 -61.5 -72.5t-99.5 -23.5q-66 0 -112.5 28.5zM233 600l-127 200h175l81 -200h-129z" />
    <glyph glyph-name="uacute" unicode="&#xfa;" 
d="M138.5 16.5q-46.5 28.5 -70.5 79.5t-24 119v331h150v-319q0 -31 12.5 -54.5t35.5 -36.5t52 -13q30 0 52.5 13t35 36.5t12.5 54.5v319h150v-546h-140v108l8 -24q-19 -49 -61.5 -72.5t-99.5 -23.5q-66 0 -112.5 28.5zM296 800h178l-127 -200h-132z" />
    <glyph glyph-name="ucircumflex" unicode="&#xfb;" 
d="M138.5 16.5q-46.5 28.5 -70.5 79.5t-24 119v331h150v-319q0 -31 12.5 -54.5t35.5 -36.5t52 -13q30 0 52.5 13t35 36.5t12.5 54.5v319h150v-546h-140v108l8 -24q-19 -49 -61.5 -72.5t-99.5 -23.5q-66 0 -112.5 28.5z" />
    <glyph glyph-name="udieresis" unicode="&#xfc;" 
d="M138.5 16.5q-46.5 28.5 -70.5 79.5t-24 119v331h150v-319q0 -31 12.5 -54.5t35.5 -36.5t52 -13q30 0 52.5 13t35 36.5t12.5 54.5v319h150v-546h-140v108l8 -24q-19 -49 -61.5 -72.5t-99.5 -23.5q-66 0 -112.5 28.5zM100 630v150h150v-150h-150zM330 630v150h150v-150
h-150z" />
    <glyph glyph-name="yacute" unicode="&#xfd;" horiz-adv-x="602" 
d="M93.5 -216q-22.5 4 -39.5 13v123q14 -4 33 -7t35 -3q44 0 63 20.5t31 46.5l37 85l-2 -125l-240 609h161l159 -433h-60l159 433h161l-234 -597q-22 -56 -54 -94t-72.5 -56.5t-90.5 -18.5q-24 0 -46.5 4zM307 810h178l-127 -200h-132z" />
    <glyph glyph-name="thorn" unicode="&#xfe;" horiz-adv-x="673" 
d="M55 -200v945h140v-303l-13 30q27 41 73.5 63.5t106.5 22.5q78 0 141 -38t100 -102.5t37 -144.5q0 -79 -36.5 -144t-99.5 -103t-143 -38q-56 0 -103.5 20.5t-76.5 60.5l24 31v-300h-150zM417 142q32 19 50 53t18 78t-18 77.5t-50 53t-74 19.5q-40 0 -71.5 -19t-49 -53
t-17.5 -78t17.5 -78t49 -53t71.5 -19q42 0 74 19z" />
    <glyph glyph-name="ydieresis" unicode="&#xff;" horiz-adv-x="602" 
d="M93.5 -216q-22.5 4 -39.5 13v123q14 -4 33 -7t35 -3q44 0 63 20.5t31 46.5l37 85l-2 -125l-240 609h161l159 -433h-60l159 433h161l-234 -597q-22 -56 -54 -94t-72.5 -56.5t-90.5 -18.5q-24 0 -46.5 4zM111 640v150h150v-150h-150zM341 640v150h150v-150h-150z" />
    <glyph glyph-name="Amacron" unicode="&#x100;" horiz-adv-x="732" 
d="M11 0l252 745h206l252 -745h-169l-50 152h-273l-50 -152h-168zM459 287l-93 287l-94 -287h187zM196 869v120h340v-120h-340z" />
    <glyph glyph-name="amacron" unicode="&#x101;" horiz-adv-x="583" 
d="M122 7q-43 19 -66 54.5t-23 84.5q0 46 21 81.5t64.5 59.5t108.5 34l167 27v-110l-140 -25q-32 -6 -49 -20.5t-17 -41.5q0 -25 19 -39t47 -14q37 0 65 16t43.5 43.5t15.5 60.5v142q0 31 -24.5 52t-66.5 21q-40 0 -70.5 -22t-44.5 -58l-120 57q16 46 51 79t84 51t107 18
q69 0 122 -25t82.5 -69.5t29.5 -103.5v-360h-140v88l34 6q-24 -36 -53 -59.5t-65 -35t-80 -11.5q-59 0 -102 19zM122 660v120h340v-120h-340z" />
    <glyph glyph-name="Abreve" unicode="&#x102;" horiz-adv-x="732" 
d="M11 0l252 745h206l252 -745h-169l-50 152h-273l-50 -152h-168zM459 287l-93 287l-94 -287h187zM223.5 841.5q-48.5 53.5 -52.5 140.5h117q3 -43 24 -65t53 -22t53.5 22t23.5 65h118q-3 -88 -50 -141t-145 -53q-93 0 -141.5 53.5z" />
    <glyph glyph-name="abreve" unicode="&#x103;" horiz-adv-x="583" 
d="M122 7q-43 19 -66 54.5t-23 84.5q0 46 21 81.5t64.5 59.5t108.5 34l167 27v-110l-140 -25q-32 -6 -49 -20.5t-17 -41.5q0 -25 19 -39t47 -14q37 0 65 16t43.5 43.5t15.5 60.5v142q0 31 -24.5 52t-66.5 21q-40 0 -70.5 -22t-44.5 -58l-120 57q16 46 51 79t84 51t107 18
q69 0 122 -25t82.5 -69.5t29.5 -103.5v-360h-140v88l34 6q-24 -36 -53 -59.5t-65 -35t-80 -11.5q-59 0 -102 19zM153 660.5q-51 56.5 -55 149.5h117q3 -47 24.5 -71.5t53.5 -24.5q33 0 54.5 24.5t23.5 71.5h118q-3 -94 -53 -150t-143 -56q-89 0 -140 56.5z" />
    <glyph glyph-name="Aogonek" unicode="&#x104;" horiz-adv-x="732" 
d="M11 0l252 745h206l252 -745h-169l-50 152h-273l-50 -152h-168zM272 287h187l-114 352h42zM445.5 -238.5q-40.5 36.5 -40.5 89.5q0 38 16 71.5t51 56.5t91 31h29v-45q-21 -4 -36 -17t-23.5 -32t-8.5 -43q0 -26 17 -39t35 -13q17 0 28 4.5t24 14.5l31 -83q-22 -14 -47 -23
t-60 -9q-66 0 -106.5 36.5z" />
    <glyph glyph-name="aogonek" unicode="&#x105;" horiz-adv-x="583" 
d="M122 7q-43 19 -66 54.5t-23 84.5q0 46 21 81.5t64.5 59.5t108.5 34l167 27v-110l-140 -25q-32 -6 -49 -20.5t-17 -41.5q0 -25 19 -39t47 -14q37 0 65 16t43.5 43.5t15.5 60.5v142q0 31 -24.5 52t-66.5 21q-40 0 -70.5 -22t-44.5 -58l-120 57q16 46 51 79t84 51t107 18
q69 0 122 -25t82.5 -69.5t29.5 -103.5v-360h-140v88l34 6q-24 -36 -53 -59.5t-65 -35t-80 -11.5q-59 0 -102 19zM311.5 -238.5q-40.5 36.5 -40.5 89.5q0 38 16 71.5t51 56.5t91 31h29v-45q-21 -4 -36 -17t-23.5 -32t-8.5 -43q0 -26 17 -39t35 -13q17 0 28 4.5t24 14.5
l31 -83q-22 -14 -47 -23t-60 -9q-66 0 -106.5 36.5z" />
    <glyph glyph-name="Cacute" unicode="&#x106;" horiz-adv-x="772" 
d="M271.5 17q-68.5 29 -119.5 81t-79.5 122t-28.5 153t28 153.5t79 122t119.5 80t149.5 28.5t145.5 -27t109.5 -72t64 -100l-137 -66q-19 54 -66.5 89.5t-115.5 35.5q-66 0 -116 -31t-77.5 -85.5t-27.5 -127.5t27.5 -128t77.5 -86t116 -31q68 0 115.5 35.5t66.5 89.5
l137 -66q-19 -55 -64 -100t-109.5 -72t-145.5 -27q-80 0 -148.5 29z" />
    <glyph glyph-name="cacute" unicode="&#x107;" horiz-adv-x="611" 
d="M175.5 25.5q-65.5 37.5 -104 102.5t-38.5 146t38 145.5t104 101.5t148 37q61 0 113 -21t89 -58.5t53 -88.5l-130 -56q-14 41 -47.5 65t-77.5 24q-39 0 -69.5 -19t-48 -53t-17.5 -78t17.5 -78t48 -53t69.5 -19q45 0 78 24t47 65l130 -57q-15 -48 -52 -86t-89 -59.5
t-114 -21.5q-82 0 -147.5 37.5z" />
    <glyph glyph-name="Ccircumflex" unicode="&#x108;" horiz-adv-x="772" 
d="M271.5 17q-68.5 29 -119.5 81t-79.5 122t-28.5 153t28 153.5t79 122t119.5 80t149.5 28.5t145.5 -27t109.5 -72t64 -100l-137 -66q-19 54 -66.5 89.5t-115.5 35.5q-66 0 -116 -31t-77.5 -85.5t-27.5 -127.5t27.5 -128t77.5 -86t116 -31q68 0 115.5 35.5t66.5 89.5
l137 -66q-19 -55 -64 -100t-109.5 -72t-145.5 -27q-80 0 -148.5 29z" />
    <glyph glyph-name="ccircumflex" unicode="&#x109;" horiz-adv-x="611" 
d="M175.5 25.5q-65.5 37.5 -104 102.5t-38.5 146t38 145.5t104 101.5t148 37q61 0 113 -21t89 -58.5t53 -88.5l-130 -56q-14 41 -47.5 65t-77.5 24q-39 0 -69.5 -19t-48 -53t-17.5 -78t17.5 -78t48 -53t69.5 -19q45 0 78 24t47 65l130 -57q-15 -48 -52 -86t-89 -59.5
t-114 -21.5q-82 0 -147.5 37.5z" />
    <glyph glyph-name="Cdotaccent" unicode="&#x10a;" horiz-adv-x="772" 
d="M271.5 17q-68.5 29 -119.5 81t-79.5 122t-28.5 153t28 153.5t79 122t119.5 80t149.5 28.5t145.5 -27t109.5 -72t64 -100l-137 -66q-19 54 -66.5 89.5t-115.5 35.5q-66 0 -116 -31t-77.5 -85.5t-27.5 -127.5t27.5 -128t77.5 -86t116 -31q68 0 115.5 35.5t66.5 89.5
l137 -66q-19 -55 -64 -100t-109.5 -72t-145.5 -27q-80 0 -148.5 29zM345 839v150h150v-150h-150z" />
    <glyph glyph-name="cdotaccent" unicode="&#x10b;" horiz-adv-x="611" 
d="M175.5 25.5q-65.5 37.5 -104 102.5t-38.5 146t38 145.5t104 101.5t148 37q61 0 113 -21t89 -58.5t53 -88.5l-130 -56q-14 41 -47.5 65t-77.5 24q-39 0 -69.5 -19t-48 -53t-17.5 -78t17.5 -78t48 -53t69.5 -19q45 0 78 24t47 65l130 -57q-15 -48 -52 -86t-89 -59.5
t-114 -21.5q-82 0 -147.5 37.5zM248 640v150h150v-150h-150z" />
    <glyph glyph-name="Ccaron" unicode="&#x10c;" horiz-adv-x="772" 
d="M271.5 17q-68.5 29 -119.5 81t-79.5 122t-28.5 153t28 153.5t79 122t119.5 80t149.5 28.5t145.5 -27t109.5 -72t64 -100l-137 -66q-19 54 -66.5 89.5t-115.5 35.5q-66 0 -116 -31t-77.5 -85.5t-27.5 -127.5t27.5 -128t77.5 -86t116 -31q68 0 115.5 35.5t66.5 89.5
l137 -66q-19 -55 -64 -100t-109.5 -72t-145.5 -27q-80 0 -148.5 29zM330 839l-116 170h144l62 -90l62 90h144l-117 -170h-179z" />
    <glyph glyph-name="ccaron" unicode="&#x10d;" horiz-adv-x="611" 
d="M175.5 25.5q-65.5 37.5 -104 102.5t-38.5 146t38 145.5t104 101.5t148 37q61 0 113 -21t89 -58.5t53 -88.5l-130 -56q-14 41 -47.5 65t-77.5 24q-39 0 -69.5 -19t-48 -53t-17.5 -78t17.5 -78t48 -53t69.5 -19q45 0 78 24t47 65l130 -57q-15 -48 -52 -86t-89 -59.5
t-114 -21.5q-82 0 -147.5 37.5zM233 640l-116 170h144l62 -90l62 90h144l-117 -170h-179z" />
    <glyph glyph-name="Dcaron" unicode="&#x10e;" horiz-adv-x="739" 
d="M66 0v745h243q121 0 210 -48t138 -132t49 -192t-49 -192.5t-138 -132.5t-210 -48h-243zM221 135h92q73 0 126 29.5t82.5 83t29.5 125.5q0 73 -29.5 126t-82.5 82t-126 29h-92v-475zM285 839l-116 170h144l62 -90l62 90h144l-117 -170h-179z" />
    <glyph glyph-name="dcaron" unicode="&#x10f;" horiz-adv-x="673" 
d="M169 26q-63 38 -99.5 103t-36.5 144q0 80 37 144.5t100 102.5t141 38q60 0 106.5 -22.5t73.5 -63.5l-23 -30v315h150v-757h-140v100l14 -31q-28 -40 -76 -60.5t-104 -20.5q-80 0 -143 38zM402 142q31 19 48.5 53t17.5 78t-17.5 78t-48.5 53t-72 19t-73.5 -19.5t-50.5 -53
t-18 -77.5t18 -78t50.5 -53t73.5 -19t72 19zM673 560v197h188l-50 -197h-138z" />
    <glyph glyph-name="Dcroat" unicode="&#x110;" horiz-adv-x="749" 
d="M8 321v127h409v-127h-409zM76 0v745h243q121 0 210 -48t138 -132t49 -192t-49 -192.5t-138 -132.5t-210 -48h-243zM231 135h92q73 0 126 29.5t82.5 83t29.5 125.5q0 73 -29.5 126t-82.5 82t-126 29h-92v-475z" />
    <glyph glyph-name="dcroat" unicode="&#x111;" horiz-adv-x="673" 
d="M346 588v107h340v-107h-340zM169 26q-63 38 -99.5 103t-36.5 144q0 80 37 144.5t100 102.5t141 38q60 0 106.5 -22.5t73.5 -63.5l-23 -30v315h150v-757h-140v100l14 -31q-28 -40 -76 -60.5t-104 -20.5q-80 0 -143 38zM402 142q31 19 48.5 53t17.5 78t-17.5 78t-48.5 53
t-72 19t-73.5 -19.5t-50.5 -53t-18 -77.5t18 -78t50.5 -53t73.5 -19t72 19z" />
    <glyph glyph-name="Emacron" unicode="&#x112;" horiz-adv-x="589" 
d="M66 0v745h501v-135h-346v-169h326v-135h-326v-171h346v-135h-501zM149 869v120h340v-120h-340z" />
    <glyph glyph-name="emacron" unicode="&#x113;" horiz-adv-x="611" 
d="M167 26.5q-64 38.5 -99 103.5t-35 144q0 82 36.5 146t98.5 101t140 37q65 0 115 -20.5t84.5 -57.5t52.5 -85.5t18 -105.5q0 -16 -1.5 -31.5t-5.5 -26.5h-409v110h324l-71 -52q10 43 -1 76.5t-38.5 53t-67.5 19.5q-39 0 -67 -19t-42 -56t-11 -90q-4 -46 11 -81t46 -54.5
t75 -19.5q40 0 68.5 16t44.5 44l120 -57q-16 -40 -50.5 -70t-81.5 -46.5t-103 -16.5q-87 0 -151 38.5zM136 660v120h340v-120h-340z" />
    <glyph glyph-name="Ebreve" unicode="&#x114;" horiz-adv-x="589" 
d="M66 0v745h501v-135h-346v-169h326v-135h-326v-171h346v-135h-501z" />
    <glyph glyph-name="ebreve" unicode="&#x115;" horiz-adv-x="611" 
d="M167 26.5q-64 38.5 -99 103.5t-35 144q0 82 36.5 146t98.5 101t140 37q65 0 115 -20.5t84.5 -57.5t52.5 -85.5t18 -105.5q0 -16 -1.5 -31.5t-5.5 -26.5h-409v110h324l-71 -52q10 43 -1 76.5t-38.5 53t-67.5 19.5q-39 0 -67 -19t-42 -56t-11 -90q-4 -46 11 -81t46 -54.5
t75 -19.5q40 0 68.5 16t44.5 44l120 -57q-16 -40 -50.5 -70t-81.5 -46.5t-103 -16.5q-87 0 -151 38.5z" />
    <glyph glyph-name="Edotaccent" unicode="&#x116;" horiz-adv-x="589" 
d="M66 0v745h501v-135h-346v-169h326v-135h-326v-171h346v-135h-501zM244 849v150h150v-150h-150z" />
    <glyph glyph-name="edotaccent" unicode="&#x117;" horiz-adv-x="611" 
d="M167 26.5q-64 38.5 -99 103.5t-35 144q0 82 36.5 146t98.5 101t140 37q65 0 115 -20.5t84.5 -57.5t52.5 -85.5t18 -105.5q0 -16 -1.5 -31.5t-5.5 -26.5h-409v110h324l-71 -52q10 43 -1 76.5t-38.5 53t-67.5 19.5q-39 0 -67 -19t-42 -56t-11 -90q-4 -46 11 -81t46 -54.5
t75 -19.5q40 0 68.5 16t44.5 44l120 -57q-16 -40 -50.5 -70t-81.5 -46.5t-103 -16.5q-87 0 -151 38.5zM231 640v150h150v-150h-150z" />
    <glyph glyph-name="Eogonek" unicode="&#x118;" horiz-adv-x="589" 
d="M66 0v745h501v-135h-346v-169h326v-135h-326v-171h346v-135h-501zM316.5 -238.5q-40.5 36.5 -40.5 89.5q0 38 16 71.5t51 56.5t91 31h29v-45q-21 -4 -36 -17t-23.5 -32t-8.5 -43q0 -26 17 -39t35 -13q17 0 28 4.5t24 14.5l31 -83q-22 -14 -47 -23t-60 -9
q-66 0 -106.5 36.5z" />
    <glyph glyph-name="eogonek" unicode="&#x119;" horiz-adv-x="611" 
d="M167 26.5q-64 38.5 -99 103.5t-35 144q0 82 36.5 146t98.5 101t140 37q65 0 115 -20.5t84.5 -57.5t52.5 -85.5t18 -105.5q0 -16 -1.5 -31.5t-5.5 -26.5h-409v110h324l-71 -52q10 43 -1 76.5t-38.5 53t-67.5 19.5q-39 0 -67 -19t-42 -56t-11 -90q-4 -46 11 -81t46 -54.5
t75 -19.5q40 0 68.5 16t44.5 44l120 -57q-16 -40 -50.5 -70t-81.5 -46.5t-103 -16.5q-87 0 -151 38.5zM336.5 -238.5q-40.5 36.5 -40.5 89.5q0 38 16 71.5t51 56.5t91 31h29v-45q-21 -4 -36 -17t-23.5 -32t-8.5 -43q0 -26 17 -39t35 -13q17 0 28 4.5t24 14.5l31 -83
q-22 -14 -47 -23t-60 -9q-66 0 -106.5 36.5z" />
    <glyph glyph-name="Ecaron" unicode="&#x11a;" horiz-adv-x="589" 
d="M66 0v745h501v-135h-346v-169h326v-135h-326v-171h346v-135h-501zM229 849l-116 170h144l62 -90l62 90h144l-117 -170h-179z" />
    <glyph glyph-name="ecaron" unicode="&#x11b;" horiz-adv-x="611" 
d="M167 26.5q-64 38.5 -99 103.5t-35 144q0 82 36.5 146t98.5 101t140 37q65 0 115 -20.5t84.5 -57.5t52.5 -85.5t18 -105.5q0 -16 -1.5 -31.5t-5.5 -26.5h-409v110h324l-71 -52q10 43 -1 76.5t-38.5 53t-67.5 19.5q-39 0 -67 -19t-42 -56t-11 -90q-4 -46 11 -81t46 -54.5
t75 -19.5q40 0 68.5 16t44.5 44l120 -57q-16 -40 -50.5 -70t-81.5 -46.5t-103 -16.5q-87 0 -151 38.5zM216 640l-116 170h144l62 -90l62 90h144l-117 -170h-179z" />
    <glyph glyph-name="Gcircumflex" unicode="&#x11c;" horiz-adv-x="804" 
d="M275 17q-69 29 -121 81t-81 122t-29 153t28 153.5t79 122t119.5 80t149.5 28.5t145.5 -27t109.5 -72t64 -100l-137 -66q-19 54 -66.5 89.5t-115.5 35.5q-66 0 -116 -31t-77.5 -85.5t-27.5 -127.5t29 -128t79.5 -86t116.5 -31q51 0 95.5 19.5t72 56.5t27.5 89v62l71 -60
h-270v130h354v-79q0 -91 -30 -158.5t-80.5 -112t-113 -66t-126.5 -21.5q-80 0 -149 29z" />
    <glyph glyph-name="gcircumflex" unicode="&#x11d;" horiz-adv-x="648" 
d="M206 -199q-54 21 -92.5 58.5t-55.5 88.5l139 49q11 -38 45 -60t81 -22q37 0 64 13.5t41.5 39.5t14.5 61v125l29 -36q-28 -46 -72 -68.5t-103 -22.5q-76 0 -136 34.5t-94 95t-34 137.5t34 136.5t93 93.5t134 34q59 0 103 -23.5t75 -71.5l-19 -36v119h140v-517
q0 -72 -35 -128.5t-95.5 -88.5t-139.5 -32q-63 0 -117 21zM384 179q28 16 43.5 45t15.5 68t-16 68.5t-44 46t-65 16.5q-38 0 -67.5 -16.5t-46 -46t-16.5 -68.5q0 -38 16.5 -67t46 -45.5t67.5 -16.5t66 16z" />
    <glyph glyph-name="Gbreve" unicode="&#x11e;" horiz-adv-x="804" 
d="M275 17q-69 29 -121 81t-81 122t-29 153t28 153.5t79 122t119.5 80t149.5 28.5t145.5 -27t109.5 -72t64 -100l-137 -66q-19 54 -66.5 89.5t-115.5 35.5q-66 0 -116 -31t-77.5 -85.5t-27.5 -127.5t29 -128t79.5 -86t116.5 -31q51 0 95.5 19.5t72 56.5t27.5 89v62l71 -60
h-270v130h354v-79q0 -91 -30 -158.5t-80.5 -112t-113 -66t-126.5 -21.5q-80 0 -149 29z" />
    <glyph glyph-name="gbreve" unicode="&#x11f;" horiz-adv-x="648" 
d="M206 -199q-54 21 -92.5 58.5t-55.5 88.5l139 49q11 -38 45 -60t81 -22q37 0 64 13.5t41.5 39.5t14.5 61v125l29 -36q-28 -46 -72 -68.5t-103 -22.5q-76 0 -136 34.5t-94 95t-34 137.5t34 136.5t93 93.5t134 34q59 0 103 -23.5t75 -71.5l-19 -36v119h140v-517
q0 -72 -35 -128.5t-95.5 -88.5t-139.5 -32q-63 0 -117 21zM384 179q28 16 43.5 45t15.5 68t-16 68.5t-44 46t-65 16.5q-38 0 -67.5 -16.5t-46 -46t-16.5 -68.5q0 -38 16.5 -67t46 -45.5t67.5 -16.5t66 16z" />
    <glyph glyph-name="Gdotaccent" unicode="&#x120;" horiz-adv-x="804" 
d="M275 17q-69 29 -121 81t-81 122t-29 153t28 153.5t79 122t119.5 80t149.5 28.5t145.5 -27t109.5 -72t64 -100l-137 -66q-19 54 -66.5 89.5t-115.5 35.5q-66 0 -116 -31t-77.5 -85.5t-27.5 -127.5t29 -128t79.5 -86t116.5 -31q51 0 95.5 19.5t72 56.5t27.5 89v62l71 -60
h-270v130h354v-79q0 -91 -30 -158.5t-80.5 -112t-113 -66t-126.5 -21.5q-80 0 -149 29zM327 839v150h150v-150h-150z" />
    <glyph glyph-name="gdotaccent" unicode="&#x121;" horiz-adv-x="648" 
d="M206 -199q-54 21 -92.5 58.5t-55.5 88.5l139 49q11 -38 45 -60t81 -22q37 0 64 13.5t41.5 39.5t14.5 61v125l29 -36q-28 -46 -72 -68.5t-103 -22.5q-76 0 -136 34.5t-94 95t-34 137.5t34 136.5t93 93.5t134 34q59 0 103 -23.5t75 -71.5l-19 -36v119h140v-517
q0 -72 -35 -128.5t-95.5 -88.5t-139.5 -32q-63 0 -117 21zM384 179q28 16 43.5 45t15.5 68t-16 68.5t-44 46t-65 16.5q-38 0 -67.5 -16.5t-46 -46t-16.5 -68.5q0 -38 16.5 -67t46 -45.5t67.5 -16.5t66 16zM249 640v150h150v-150h-150z" />
    <glyph glyph-name="uni0122" unicode="&#x122;" horiz-adv-x="804" 
d="M275 17q-69 29 -121 81t-81 122t-29 153t28 153.5t79 122t119.5 80t149.5 28.5t145.5 -27t109.5 -72t64 -100l-137 -66q-19 54 -66.5 89.5t-115.5 35.5q-66 0 -116 -31t-77.5 -85.5t-27.5 -127.5t29 -128t79.5 -86t116.5 -31q51 0 95.5 19.5t72 56.5t27.5 89v62l71 -60
h-270v130h354v-79q0 -91 -30 -158.5t-80.5 -112t-113 -66t-126.5 -21.5q-80 0 -149 29zM282 -263l24 193h193l-75 -193h-142z" />
    <glyph glyph-name="uni0123" unicode="&#x123;" horiz-adv-x="648" 
d="M206 -199q-54 21 -92.5 58.5t-55.5 88.5l139 49q11 -38 45 -60t81 -22q37 0 64 13.5t41.5 39.5t14.5 61v125l29 -36q-28 -46 -72 -68.5t-103 -22.5q-76 0 -136 34.5t-94 95t-34 137.5t34 136.5t93 93.5t134 34q59 0 103 -23.5t75 -71.5l-19 -36v119h140v-517
q0 -72 -35 -128.5t-95.5 -88.5t-139.5 -32q-63 0 -117 21zM384 179q28 16 43.5 45t15.5 68t-16 68.5t-44 46t-65 16.5q-38 0 -67.5 -16.5t-46 -46t-16.5 -68.5q0 -38 16.5 -67t46 -45.5t67.5 -16.5t66 16zM203 606l75 193h142l-24 -193h-193z" />
    <glyph glyph-name="Hcircumflex" unicode="&#x124;" horiz-adv-x="732" 
d="M66 0v745h155v-322h290v322h155v-745h-155v288h-290v-288h-155z" />
    <glyph glyph-name="hcircumflex" unicode="&#x125;" 
d="M55 0v757h150v-319l-18 24q19 49 61.5 72.5t99.5 23.5q62 0 108.5 -26t72.5 -72.5t26 -108.5v-351h-150v319q0 32 -12.5 55t-35 36t-52.5 13q-29 0 -52 -13t-35.5 -36t-12.5 -55v-319h-150z" />
    <glyph glyph-name="Hbar" unicode="&#x126;" horiz-adv-x="732" 
d="M666 530v-530h-155v288h-290v-288h-155v530h-75v130h75v85h155v-85h290v85h155v-85h75v-130h-75zM511 423v107h-290v-107h290z" />
    <glyph glyph-name="hbar" unicode="&#x127;" 
d="M-20 585v110h300v-110h-300zM55 0v757h150v-319l-18 24q19 49 61.5 72.5t99.5 23.5q62 0 108.5 -26t72.5 -72.5t26 -108.5v-351h-150v319q0 32 -12.5 55t-35 36t-52.5 13q-29 0 -52 -13t-35.5 -36t-12.5 -55v-319h-150z" />
    <glyph glyph-name="Itilde" unicode="&#x128;" horiz-adv-x="287" 
d="M66 0v745h155v-745h-155zM189 824.5q-23 9.5 -55 27.5q-23 13 -36.5 19t-26.5 6q-15 0 -21.5 -13.5t-6.5 -44.5h-101q0 92 29 133t77 41q29 0 53.5 -10.5t54.5 -28.5q19 -12 32.5 -18t25.5 -6q17 0 22.5 13.5t5.5 44.5h101q-1 -90 -29 -131.5t-75 -41.5q-27 0 -50 9.5z
" />
    <glyph glyph-name="itilde" unicode="&#x129;" horiz-adv-x="238" 
d="M44 0v546h150v-546h-150zM154.5 625q-17.5 9 -41.5 26q-17 12 -27 17.5t-20 5.5q-24 0 -24 -54h-93q0 177 94 177q26 0 46 -10t41 -27q15 -11 24 -16t18 -5q14 0 19 13t5 40h93q-1 -176 -94 -176q-23 0 -40.5 9z" />
    <glyph glyph-name="Imacron" unicode="&#x12a;" horiz-adv-x="287" 
d="M66 0v745h155v-745h-155zM-26 869v120h340v-120h-340z" />
    <glyph glyph-name="imacron" unicode="&#x12b;" horiz-adv-x="238" 
d="M44 0v546h150v-546h-150zM-51 660v120h340v-120h-340z" />
    <glyph glyph-name="Ibreve" unicode="&#x12c;" horiz-adv-x="287" 
d="M66 0v745h155v-745h-155z" />
    <glyph glyph-name="ibreve" unicode="&#x12d;" horiz-adv-x="238" 
d="M44 0v546h150v-546h-150z" />
    <glyph glyph-name="Iogonek" unicode="&#x12e;" horiz-adv-x="287" 
d="M66 0v745h155v-745h-155zM44.5 -238.5q-40.5 36.5 -40.5 89.5q0 38 16 71.5t51 56.5t91 31h29v-45q-21 -4 -36 -17t-23.5 -32t-8.5 -43q0 -26 17 -39t35 -13q17 0 28 4.5t24 14.5l31 -83q-22 -14 -47 -23t-60 -9q-66 0 -106.5 36.5z" />
    <glyph glyph-name="iogonek" unicode="&#x12f;" horiz-adv-x="238" 
d="M44 0v546h150v-546h-150zM44 640v150h150v-150h-150zM-19.5 -248.5q-40.5 36.5 -40.5 89.5q0 38 16 71.5t51 56.5t91 31h29v-45q-21 -4 -36 -17t-23.5 -32t-8.5 -43q0 -26 17 -39t35 -13q17 0 28 4.5t24 14.5l31 -83q-22 -14 -47 -23t-60 -9q-66 0 -106.5 36.5z" />
    <glyph glyph-name="Idotaccent" unicode="&#x130;" horiz-adv-x="287" 
d="M66 0v745h155v-745h-155zM69 849v150h150v-150h-150z" />
    <glyph glyph-name="dotlessi" unicode="&#x131;" horiz-adv-x="238" 
d="M44 0v546h150v-546h-150z" />
    <glyph glyph-name="IJ" unicode="&#x132;" horiz-adv-x="683" 
d="M66 0v745h155v-745h-155zM320 0v140h45q45 0 72.5 25.5t27.5 67.5v512h155v-505q0 -72 -31 -126t-88.5 -84t-135.5 -30h-45z" />
    <glyph glyph-name="ij" unicode="&#x133;" horiz-adv-x="520" 
d="M55 0v546h150v-546h-150zM55 595v150h150v-150h-150zM219.5 -220.5q-14.5 1.5 -24.5 3.5v128q17 -3 34 -3q43 0 64.5 18t21.5 54v566h150v-566q0 -64 -25.5 -109.5t-74 -69t-116.5 -23.5q-15 0 -29.5 1.5zM315 595v150h150v-150h-150z" />
    <glyph glyph-name="Jcircumflex" unicode="&#x134;" horiz-adv-x="396" 
d="M33 0v140h45q45 0 72.5 25.5t27.5 67.5v512h155v-505q0 -72 -31 -126t-88.5 -84t-135.5 -30h-45z" />
    <glyph glyph-name="jcircumflex" unicode="&#x135;" horiz-adv-x="260" 
d="M-40.5 -220.5q-14.5 1.5 -24.5 3.5v128q17 -3 34 -3q43 0 64.5 18t21.5 54v566h150v-566q0 -64 -25.5 -109.5t-74 -69t-116.5 -23.5q-15 0 -29.5 1.5z" />
    <glyph glyph-name="uni0136" unicode="&#x136;" horiz-adv-x="687" 
d="M66 0v745h155v-306l255 306h194l-252 -304l258 -441h-181l-182 315l-92 -111v-204h-155zM224 -263l24 193h193l-75 -193h-142z" />
    <glyph glyph-name="uni0137" unicode="&#x137;" horiz-adv-x="586" 
d="M55 0v757h150v-408l185 197h185l-198 -220l197 -326h-170l-139 233l-60 -66v-167h-150zM173 -263l24 193h193l-75 -193h-142z" />
    <glyph glyph-name="kgreenlandic" unicode="&#x138;" horiz-adv-x="586" 
d="M406 0l-151 218h-50v-218h-150v546h150v-198h59l126 198h164l-168 -270l189 -276h-169z" />
    <glyph glyph-name="Lacute" unicode="&#x139;" horiz-adv-x="547" 
d="M66 0v745h155v-610h315v-135h-470z" />
    <glyph glyph-name="lacute" unicode="&#x13a;" horiz-adv-x="260" 
d="M55 0v757h150v-757h-150z" />
    <glyph glyph-name="uni013B" unicode="&#x13b;" horiz-adv-x="547" 
d="M66 0v745h155v-610h315v-135h-470zM181 -263l24 193h193l-75 -193h-142z" />
    <glyph glyph-name="uni013C" unicode="&#x13c;" horiz-adv-x="260" 
d="M55 0v757h150v-757h-150zM10 -263l24 193h193l-75 -193h-142z" />
    <glyph glyph-name="Lcaron" unicode="&#x13d;" horiz-adv-x="547" 
d="M66 0v745h155v-610h315v-135h-470zM379 560v197h188l-50 -197h-138z" />
    <glyph glyph-name="lcaron" unicode="&#x13e;" horiz-adv-x="260" 
d="M55 0v757h150v-757h-150zM260 560v197h188l-50 -197h-138z" />
    <glyph glyph-name="Ldot" unicode="&#x13f;" horiz-adv-x="547" 
d="M324 317q-23 23 -23 55t23 54.5t55 22.5t54.5 -22.5t22.5 -54.5q0 -33 -22.5 -55.5t-54.5 -22.5t-55 23zM66 0v745h155v-610h315v-135h-470z" />
    <glyph glyph-name="ldot" unicode="&#x140;" horiz-adv-x="445" 
d="M285 317q-23 23 -23 55t23 54.5t55 22.5t54.5 -22.5t22.5 -54.5q0 -33 -22.5 -55.5t-54.5 -22.5t-55 23zM55 0v757h150v-757h-150z" />
    <glyph glyph-name="Lslash" unicode="&#x141;" horiz-adv-x="611" 
d="M285 345v-210h315v-135h-470v256l-97 -55v144l97 55v345h155v-256l98 56v-144z" />
    <glyph glyph-name="lslash" unicode="&#x142;" horiz-adv-x="365" 
d="M258 364v-364h-150v278l-81 -47v144l81 47v335h150v-249l79 45v-144z" />
    <glyph glyph-name="Nacute" unicode="&#x143;" horiz-adv-x="742" 
d="M66 0v745h119l336 -443v443h155v-745h-120l-335 453v-453h-155z" />
    <glyph glyph-name="nacute" unicode="&#x144;" 
d="M55 0v546h140v-108l-8 24q19 49 61.5 72.5t99.5 23.5q62 0 108.5 -26t72.5 -72.5t26 -108.5v-351h-150v319q0 32 -12.5 55t-35 36t-52.5 13q-29 0 -52 -13t-35.5 -36t-12.5 -55v-319h-150z" />
    <glyph glyph-name="uni0145" unicode="&#x145;" horiz-adv-x="742" 
d="M66 0v745h119l336 -443v443h155v-745h-120l-335 453v-453h-155zM251 -263l24 193h193l-75 -193h-142z" />
    <glyph glyph-name="uni0146" unicode="&#x146;" 
d="M55 0v546h140v-108l-8 24q19 49 61.5 72.5t99.5 23.5q62 0 108.5 -26t72.5 -72.5t26 -108.5v-351h-150v319q0 32 -12.5 55t-35 36t-52.5 13q-29 0 -52 -13t-35.5 -36t-12.5 -55v-319h-150zM180 -263l24 193h193l-75 -193h-142z" />
    <glyph glyph-name="Ncaron" unicode="&#x147;" horiz-adv-x="742" 
d="M66 0v745h119l336 -443v443h155v-745h-120l-335 453v-453h-155zM281 839l-116 170h144l62 -90l62 90h144l-117 -170h-179z" />
    <glyph glyph-name="ncaron" unicode="&#x148;" 
d="M55 0v546h140v-108l-8 24q19 49 61.5 72.5t99.5 23.5q62 0 108.5 -26t72.5 -72.5t26 -108.5v-351h-150v319q0 32 -12.5 55t-35 36t-52.5 13q-29 0 -52 -13t-35.5 -36t-12.5 -55v-319h-150zM210 640l-116 170h144l62 -90l62 90h144l-117 -170h-179z" />
    <glyph glyph-name="Eng" unicode="&#x14a;" horiz-adv-x="742" 
d="M430.5 -220.5q-14.5 1.5 -24.5 3.5v128q17 -3 34 -3q43 0 64.5 18t21.5 54v128l40 -121l-385 520l40 13v-520h-155v745h119l377 -497l-41 -13v510h155v-765q0 -64 -25.5 -109.5t-74 -69t-116.5 -23.5q-15 0 -29.5 1.5z" />
    <glyph glyph-name="eng" unicode="&#x14b;" horiz-adv-x="600" 
d="M304.5 -220.5q-14.5 1.5 -24.5 3.5v128q17 -3 34 -3q43 0 64.5 18t21.5 54v339q0 32 -12.5 55t-35 36t-52.5 13q-29 0 -52 -13t-35.5 -36t-12.5 -55v-319h-150v546h140v-108l-8 24q19 49 61.5 72.5t99.5 23.5q62 0 108.5 -26t72.5 -72.5t26 -108.5v-371
q0 -64 -25.5 -109.5t-74 -69t-116.5 -23.5q-15 0 -29.5 1.5z" />
    <glyph glyph-name="Omacron" unicode="&#x14c;" horiz-adv-x="878" 
d="M283 17q-72 29 -125.5 81.5t-83.5 122.5t-30 152t29.5 152t83 122t125.5 81t157 29t157 -29t125.5 -81t83 -122t29.5 -152t-30 -152t-83.5 -122.5t-125.5 -81.5t-156 -29t-156 29zM533.5 146q43.5 18 76.5 50.5t51 77.5t18 99t-18 98.5t-51 77.5t-76.5 50.5t-94.5 17.5
t-94.5 -17.5t-76.5 -50.5t-51 -77.5t-18 -98.5t18 -99t51 -77.5t76.5 -50.5t94.5 -18t94.5 18zM269 869v120h340v-120h-340z" />
    <glyph glyph-name="omacron" unicode="&#x14d;" horiz-adv-x="651" 
d="M178.5 25q-66.5 37 -106 101.5t-39.5 146.5q0 83 39.5 147t106 101t147.5 37t147 -37t105.5 -101t39.5 -147q0 -82 -39.5 -146.5t-105.5 -101.5t-147 -37t-147.5 37zM397.5 142q30.5 19 48 53t17.5 78t-17.5 77.5t-48 53t-71.5 19.5t-72 -19.5t-48.5 -53t-17.5 -77.5
t17.5 -78t48.5 -53t72 -19t71.5 19zM156 660v120h340v-120h-340z" />
    <glyph glyph-name="Obreve" unicode="&#x14e;" horiz-adv-x="878" 
d="M283 17q-72 29 -125.5 81.5t-83.5 122.5t-30 152t29.5 152t83 122t125.5 81t157 29t157 -29t125.5 -81t83 -122t29.5 -152t-30 -152t-83.5 -122.5t-125.5 -81.5t-156 -29t-156 29zM533.5 146q43.5 18 76.5 50.5t51 77.5t18 99t-18 98.5t-51 77.5t-76.5 50.5t-94.5 17.5
t-94.5 -17.5t-76.5 -50.5t-51 -77.5t-18 -98.5t18 -99t51 -77.5t76.5 -50.5t94.5 -18t94.5 18z" />
    <glyph glyph-name="obreve" unicode="&#x14f;" horiz-adv-x="651" 
d="M178.5 25q-66.5 37 -106 101.5t-39.5 146.5q0 83 39.5 147t106 101t147.5 37t147 -37t105.5 -101t39.5 -147q0 -82 -39.5 -146.5t-105.5 -101.5t-147 -37t-147.5 37zM397.5 142q30.5 19 48 53t17.5 78t-17.5 77.5t-48 53t-71.5 19.5t-72 -19.5t-48.5 -53t-17.5 -77.5
t17.5 -78t48.5 -53t72 -19t71.5 19z" />
    <glyph glyph-name="Ohungarumlaut" unicode="&#x150;" horiz-adv-x="878" 
d="M283 17q-72 29 -125.5 81.5t-83.5 122.5t-30 152t29.5 152t83 122t125.5 81t157 29t157 -29t125.5 -81t83 -122t29.5 -152t-30 -152t-83.5 -122.5t-125.5 -81.5t-156 -29t-156 29zM533.5 146q43.5 18 76.5 50.5t51 77.5t18 99t-18 98.5t-51 77.5t-76.5 50.5t-94.5 17.5
t-94.5 -17.5t-76.5 -50.5t-51 -77.5t-18 -98.5t18 -99t51 -77.5t76.5 -50.5t94.5 -18t94.5 18zM202 849l38 180h193l-84 -180h-147zM444 849l38 180h193l-84 -180h-147z" />
    <glyph glyph-name="ohungarumlaut" unicode="&#x151;" horiz-adv-x="651" 
d="M178.5 25q-66.5 37 -106 101.5t-39.5 146.5q0 83 39.5 147t106 101t147.5 37t147 -37t105.5 -101t39.5 -147q0 -82 -39.5 -146.5t-105.5 -101.5t-147 -37t-147.5 37zM397.5 142q30.5 19 48 53t17.5 78t-17.5 77.5t-48 53t-71.5 19.5t-72 -19.5t-48.5 -53t-17.5 -77.5
t17.5 -78t48.5 -53t72 -19t71.5 19zM89 640l38 180h193l-84 -180h-147zM331 640l38 180h193l-84 -180h-147z" />
    <glyph glyph-name="OE" unicode="&#x152;" horiz-adv-x="1207" 
d="M283 17q-72 29 -125.5 81.5t-83.5 122.5t-30 152t29.5 152t83 122t125.5 81t157 29q55 0 105.5 -13t94 -38.5t77.5 -63.5l-32 -30v133h501v-135h-346v-169h326v-135h-326v-171h346l-1 -135h-500v134l32 -29q-34 -38 -77.5 -64.5t-94 -39.5t-105.5 -13q-84 0 -156 29z
M533.5 146q43.5 18 76.5 50.5t51 77.5t18 99t-18 98.5t-51 77.5t-76.5 50.5t-94.5 17.5t-94.5 -17.5t-76.5 -50.5t-51 -77.5t-18 -98.5t18 -99t51 -77.5t76.5 -50.5t94.5 -18t94.5 18z" />
    <glyph glyph-name="oe" unicode="&#x153;" horiz-adv-x="1045" 
d="M178.5 25q-66.5 37 -106 101.5t-39.5 146.5q0 83 39.5 147t106 101t147.5 37q50 0 95.5 -15t83 -42t63.5 -65l-54 -1q24 38 58.5 65.5t78 42.5t91.5 15q65 0 115 -20.5t84.5 -57.5t52.5 -85.5t18 -105.5q0 -16 -1.5 -31.5t-5.5 -26.5h-382q5 -34 21.5 -59.5t44.5 -39.5
t65 -14q40 0 68.5 16t44.5 44l120 -57q-16 -40 -50.5 -70t-81.5 -46.5t-103 -16.5q-79 0 -140 33t-98 88l54 1q-26 -37 -63.5 -64.5t-82.5 -42.5t-96 -15q-81 0 -147.5 37zM397.5 142q30.5 19 48 53t17.5 78t-17.5 77.5t-48 53t-71.5 19.5t-72 -19.5t-48.5 -53t-17.5 -77.5
t17.5 -78t48.5 -53t72 -19t71.5 19zM853 341q-3 29 -17.5 51t-38.5 34t-55 12q-29 0 -53 -11t-40 -32.5t-23 -53.5h227z" />
    <glyph glyph-name="Racute" unicode="&#x154;" horiz-adv-x="667" 
d="M66 0v745h285q77 0 136.5 -27t93.5 -80t34 -131q0 -76 -35 -129.5t-94 -80.5l170 -297h-174l-184 329l100 -59h-177v-270h-155zM221 405h131q33 0 57 13t37.5 36t13.5 53q0 31 -13.5 54t-37.5 36t-57 13h-131v-205z" />
    <glyph glyph-name="racute" unicode="&#x155;" horiz-adv-x="386" 
d="M55 0v546h140v-131l-10 19q18 69 59.5 93.5t98.5 24.5h32v-130h-47q-55 0 -89 -33.5t-34 -94.5v-294h-150z" />
    <glyph glyph-name="uni0156" unicode="&#x156;" horiz-adv-x="667" 
d="M66 0v745h285q77 0 136.5 -27t93.5 -80t34 -131q0 -76 -35 -129.5t-94 -80.5l170 -297h-174l-184 329l100 -59h-177v-270h-155zM221 405h131q33 0 57 13t37.5 36t13.5 53q0 31 -13.5 54t-37.5 36t-57 13h-131v-205zM214 -263l24 193h193l-75 -193h-142z" />
    <glyph glyph-name="uni0157" unicode="&#x157;" horiz-adv-x="386" 
d="M55 0v546h140v-131l-10 19q18 69 59.5 93.5t98.5 24.5h32v-130h-47q-55 0 -89 -33.5t-34 -94.5v-294h-150zM10 -263l24 193h193l-75 -193h-142z" />
    <glyph glyph-name="Rcaron" unicode="&#x158;" horiz-adv-x="667" 
d="M66 0v745h285q77 0 136.5 -27t93.5 -80t34 -131q0 -76 -35 -129.5t-94 -80.5l170 -297h-174l-184 329l100 -59h-177v-270h-155zM221 405h131q33 0 57 13t37.5 36t13.5 53q0 31 -13.5 54t-37.5 36t-57 13h-131v-205zM244 839l-116 170h144l62 -90l62 90h144l-117 -170
h-179z" />
    <glyph glyph-name="rcaron" unicode="&#x159;" horiz-adv-x="386" 
d="M55 0v546h140v-131l-10 19q18 69 59.5 93.5t98.5 24.5h32v-130h-47q-55 0 -89 -33.5t-34 -94.5v-294h-150zM125 640l-116 170h144l62 -90l62 90h144l-117 -170h-179z" />
    <glyph glyph-name="Sacute" unicode="&#x15a;" horiz-adv-x="647" 
d="M205.5 13.5q-61.5 25.5 -106 72.5t-66.5 111l127 57q28 -61 77.5 -96t109.5 -35q32 0 55 10t36 27.5t13 41.5q0 26 -16 44.5t-50 29.5l-146 48q-89 29 -134 82.5t-45 128.5q0 66 32.5 116t91 78t134.5 28q67 0 124 -23t98.5 -65t62.5 -101l-126 -57q-21 52 -63 81.5
t-96 29.5q-31 0 -55 -10t-37 -28.5t-13 -42.5q0 -26 17 -45.5t51 -30.5l143 -46q90 -29 134.5 -81t44.5 -127q0 -65 -34 -115.5t-93.5 -79t-138.5 -28.5q-70 0 -131.5 25.5z" />
    <glyph glyph-name="sacute" unicode="&#x15b;" horiz-adv-x="515" 
d="M112.5 30.5q-66.5 42.5 -90.5 114.5l110 52q21 -44 57 -69t80 -25q32 0 49 13t17 36q0 12 -6 20.5t-18 15.5t-30 12l-93 26q-67 19 -103 61.5t-36 100.5q0 51 26 89t73 59.5t108 21.5q80 0 140.5 -37.5t85.5 -105.5l-111 -52q-12 34 -43.5 54.5t-71.5 20.5
q-29 0 -45.5 -12t-16.5 -33q0 -11 6 -20t19.5 -16t33.5 -13l87 -26q68 -20 104 -60.5t36 -99.5q0 -51 -26.5 -89t-73.5 -59.5t-111 -21.5q-90 0 -156.5 42.5z" />
    <glyph glyph-name="Scircumflex" unicode="&#x15c;" horiz-adv-x="647" 
d="M205.5 13.5q-61.5 25.5 -106 72.5t-66.5 111l127 57q28 -61 77.5 -96t109.5 -35q32 0 55 10t36 27.5t13 41.5q0 26 -16 44.5t-50 29.5l-146 48q-89 29 -134 82.5t-45 128.5q0 66 32.5 116t91 78t134.5 28q67 0 124 -23t98.5 -65t62.5 -101l-126 -57q-21 52 -63 81.5
t-96 29.5q-31 0 -55 -10t-37 -28.5t-13 -42.5q0 -26 17 -45.5t51 -30.5l143 -46q90 -29 134.5 -81t44.5 -127q0 -65 -34 -115.5t-93.5 -79t-138.5 -28.5q-70 0 -131.5 25.5z" />
    <glyph glyph-name="scircumflex" unicode="&#x15d;" horiz-adv-x="515" 
d="M112.5 30.5q-66.5 42.5 -90.5 114.5l110 52q21 -44 57 -69t80 -25q32 0 49 13t17 36q0 12 -6 20.5t-18 15.5t-30 12l-93 26q-67 19 -103 61.5t-36 100.5q0 51 26 89t73 59.5t108 21.5q80 0 140.5 -37.5t85.5 -105.5l-111 -52q-12 34 -43.5 54.5t-71.5 20.5
q-29 0 -45.5 -12t-16.5 -33q0 -11 6 -20t19.5 -16t33.5 -13l87 -26q68 -20 104 -60.5t36 -99.5q0 -51 -26.5 -89t-73.5 -59.5t-111 -21.5q-90 0 -156.5 42.5z" />
    <glyph glyph-name="Scedilla" unicode="&#x15e;" horiz-adv-x="647" 
d="M205.5 13.5q-61.5 25.5 -106 72.5t-66.5 111l127 57q28 -61 77.5 -96t109.5 -35q32 0 55 10t36 27.5t13 41.5q0 26 -16 44.5t-50 29.5l-146 48q-89 29 -134 82.5t-45 128.5q0 66 32.5 116t91 78t134.5 28q67 0 124 -23t98.5 -65t62.5 -101l-126 -57q-21 52 -63 81.5
t-96 29.5q-31 0 -55 -10t-37 -28.5t-13 -42.5q0 -26 17 -45.5t51 -30.5l143 -46q90 -29 134.5 -81t44.5 -127q0 -65 -34 -115.5t-93.5 -79t-138.5 -28.5q-70 0 -131.5 25.5zM287.5 -232q-33.5 8 -57.5 24l31 83q15 -9 32.5 -14t33.5 -5q22 0 33.5 8.5t11.5 23.5q0 18 -24 29
t-69 15l20 78h85l-8 -38q53 -5 84 -31t31 -65q0 -53 -39 -84.5t-105 -31.5q-26 0 -59.5 8z" />
    <glyph glyph-name="scedilla" unicode="&#x15f;" horiz-adv-x="515" 
d="M112.5 30.5q-66.5 42.5 -90.5 114.5l110 52q21 -44 57 -69t80 -25q32 0 49 13t17 36q0 12 -6 20.5t-18 15.5t-30 12l-93 26q-67 19 -103 61.5t-36 100.5q0 51 26 89t73 59.5t108 21.5q80 0 140.5 -37.5t85.5 -105.5l-111 -52q-12 34 -43.5 54.5t-71.5 20.5
q-29 0 -45.5 -12t-16.5 -33q0 -11 6 -20t19.5 -16t33.5 -13l87 -26q68 -20 104 -60.5t36 -99.5q0 -51 -26.5 -89t-73.5 -59.5t-111 -21.5q-90 0 -156.5 42.5zM208.5 -232q-33.5 8 -57.5 24l31 83q15 -9 32.5 -14t33.5 -5q22 0 33.5 8.5t11.5 23.5q0 18 -24 29t-69 15l20 78
h85l-8 -38q53 -5 84 -31t31 -65q0 -53 -39 -84.5t-105 -31.5q-26 0 -59.5 8z" />
    <glyph glyph-name="Scaron" unicode="&#x160;" horiz-adv-x="647" 
d="M205.5 13.5q-61.5 25.5 -106 72.5t-66.5 111l127 57q28 -61 77.5 -96t109.5 -35q32 0 55 10t36 27.5t13 41.5q0 26 -16 44.5t-50 29.5l-146 48q-89 29 -134 82.5t-45 128.5q0 66 32.5 116t91 78t134.5 28q67 0 124 -23t98.5 -65t62.5 -101l-126 -57q-21 52 -63 81.5
t-96 29.5q-31 0 -55 -10t-37 -28.5t-13 -42.5q0 -26 17 -45.5t51 -30.5l143 -46q90 -29 134.5 -81t44.5 -127q0 -65 -34 -115.5t-93.5 -79t-138.5 -28.5q-70 0 -131.5 25.5zM228 839l-116 170h144l62 -90l62 90h144l-117 -170h-179z" />
    <glyph glyph-name="scaron" unicode="&#x161;" horiz-adv-x="515" 
d="M112.5 30.5q-66.5 42.5 -90.5 114.5l110 52q21 -44 57 -69t80 -25q32 0 49 13t17 36q0 12 -6 20.5t-18 15.5t-30 12l-93 26q-67 19 -103 61.5t-36 100.5q0 51 26 89t73 59.5t108 21.5q80 0 140.5 -37.5t85.5 -105.5l-111 -52q-12 34 -43.5 54.5t-71.5 20.5
q-29 0 -45.5 -12t-16.5 -33q0 -11 6 -20t19.5 -16t33.5 -13l87 -26q68 -20 104 -60.5t36 -99.5q0 -51 -26.5 -89t-73.5 -59.5t-111 -21.5q-90 0 -156.5 42.5zM168 640l-116 170h144l62 -90l62 90h144l-117 -170h-179z" />
    <glyph glyph-name="uni0162" unicode="&#x162;" horiz-adv-x="552" 
d="M200 0v610h-189v135h530v-135h-186v-610h-155zM226.5 -232q-33.5 8 -57.5 24l31 83q15 -9 32.5 -14t33.5 -5q22 0 33.5 8.5t11.5 23.5q0 18 -24 29t-69 15l20 78h85l-8 -38q53 -5 84 -31t31 -65q0 -53 -39 -84.5t-105 -31.5q-26 0 -59.5 8z" />
    <glyph glyph-name="uni0163" unicode="&#x163;" horiz-adv-x="421" 
d="M164.5 47.5q-54.5 53.5 -54.5 149.5v219h-92v130h5q42 0 64.5 21t22.5 63v40h150v-124h128v-130h-128v-209q0 -28 10 -46.5t31 -27.5t52 -9q7 0 16 1t19 2v-127q-15 -2 -34 -4t-36 -2q-99 0 -153.5 53.5zM261.5 -232q-33.5 8 -57.5 24l31 83q15 -9 32.5 -14t33.5 -5
q22 0 33.5 8.5t11.5 23.5q0 18 -24 29t-69 15l20 78h85l-8 -38q53 -5 84 -31t31 -65q0 -53 -39 -84.5t-105 -31.5q-26 0 -59.5 8z" />
    <glyph glyph-name="Tcaron" unicode="&#x164;" horiz-adv-x="552" 
d="M200 0v610h-189v135h530v-135h-186v-610h-155zM186 839l-116 170h144l62 -90l62 90h144l-117 -170h-179z" />
    <glyph glyph-name="tcaron" unicode="&#x165;" horiz-adv-x="421" 
d="M164.5 47.5q-54.5 53.5 -54.5 149.5v219h-92v130h5q42 0 64.5 21t22.5 63v40h150v-124h128v-130h-128v-209q0 -28 10 -46.5t31 -27.5t52 -9q7 0 16 1t19 2v-127q-15 -2 -34 -4t-36 -2q-99 0 -153.5 53.5zM324 560v197h188l-50 -197h-138z" />
    <glyph glyph-name="Tbar" unicode="&#x166;" horiz-adv-x="552" 
d="M355 308v-308h-155v308h-106v130h106v172h-189v135h530v-135h-186v-172h104v-130h-104z" />
    <glyph glyph-name="tbar" unicode="&#x167;" horiz-adv-x="421" 
d="M0 208v130h370v-130h-370zM164.5 47.5q-54.5 53.5 -54.5 149.5v219h-92v130h5q42 0 64.5 21t22.5 63v40h150v-124h128v-130h-128v-209q0 -28 10 -46.5t31 -27.5t52 -9q7 0 16 1t19 2v-127q-15 -2 -34 -4t-36 -2q-99 0 -153.5 53.5z" />
    <glyph glyph-name="Utilde" unicode="&#x168;" horiz-adv-x="724" 
d="M205 25q-69 37 -108.5 101.5t-39.5 146.5v472h155v-462q0 -44 19.5 -79.5t53.5 -55.5t77 -20q44 0 77.5 20t53 55.5t19.5 79.5v462h155v-472q0 -82 -39.5 -146.5t-108.5 -101.5t-157 -37t-157 37zM409 804.5q-23 9.5 -55 27.5q-23 13 -36.5 19t-26.5 6q-15 0 -21.5 -13.5
t-6.5 -44.5h-101q0 92 29 133t77 41q29 0 53.5 -10.5t54.5 -28.5q19 -12 32.5 -18t25.5 -6q17 0 22.5 13.5t5.5 44.5h101q-1 -90 -29 -131.5t-75 -41.5q-27 0 -50 9.5z" />
    <glyph glyph-name="utilde" unicode="&#x169;" 
d="M138.5 16.5q-46.5 28.5 -70.5 79.5t-24 119v331h150v-319q0 -31 12.5 -54.5t35.5 -36.5t52 -13q30 0 52.5 13t35 36.5t12.5 54.5v319h150v-546h-140v108l8 -24q-19 -49 -61.5 -72.5t-99.5 -23.5q-66 0 -112.5 28.5zM335 605.5q-23 9.5 -55 27.5q-23 13 -36.5 19t-26.5 6
q-15 0 -21.5 -13.5t-6.5 -44.5h-101q0 92 29 133t77 41q29 0 53.5 -10.5t54.5 -28.5q19 -12 32.5 -18t25.5 -6q17 0 22.5 13.5t5.5 44.5h101q-1 -90 -29 -131.5t-75 -41.5q-27 0 -50 9.5z" />
    <glyph glyph-name="Umacron" unicode="&#x16a;" horiz-adv-x="724" 
d="M205 25q-69 37 -108.5 101.5t-39.5 146.5v472h155v-462q0 -44 19.5 -79.5t53.5 -55.5t77 -20q44 0 77.5 20t53 55.5t19.5 79.5v462h155v-472q0 -82 -39.5 -146.5t-108.5 -101.5t-157 -37t-157 37zM192 859v120h340v-120h-340z" />
    <glyph glyph-name="umacron" unicode="&#x16b;" 
d="M138.5 16.5q-46.5 28.5 -70.5 79.5t-24 119v331h150v-319q0 -31 12.5 -54.5t35.5 -36.5t52 -13q30 0 52.5 13t35 36.5t12.5 54.5v319h150v-546h-140v108l8 -24q-19 -49 -61.5 -72.5t-99.5 -23.5q-66 0 -112.5 28.5zM120 650v120h340v-120h-340z" />
    <glyph glyph-name="Ubreve" unicode="&#x16c;" horiz-adv-x="724" 
d="M205 25q-69 37 -108.5 101.5t-39.5 146.5v472h155v-462q0 -44 19.5 -79.5t53.5 -55.5t77 -20q44 0 77.5 20t53 55.5t19.5 79.5v462h155v-472q0 -82 -39.5 -146.5t-108.5 -101.5t-157 -37t-157 37z" />
    <glyph glyph-name="ubreve" unicode="&#x16d;" 
d="M138.5 16.5q-46.5 28.5 -70.5 79.5t-24 119v331h150v-319q0 -31 12.5 -54.5t35.5 -36.5t52 -13q30 0 52.5 13t35 36.5t12.5 54.5v319h150v-546h-140v108l8 -24q-19 -49 -61.5 -72.5t-99.5 -23.5q-66 0 -112.5 28.5z" />
    <glyph glyph-name="Uring" unicode="&#x16e;" horiz-adv-x="724" 
d="M205 25q-69 37 -108.5 101.5t-39.5 146.5v472h155v-462q0 -44 19.5 -79.5t53.5 -55.5t77 -20q44 0 77.5 20t53 55.5t19.5 79.5v462h155v-472q0 -82 -39.5 -146.5t-108.5 -101.5t-157 -37t-157 37zM269 824.5q-37 35.5 -37 90.5q0 54 37 89t93 35t92.5 -35t36.5 -89
q0 -55 -36.5 -90.5t-92.5 -35.5t-93 35.5zM389.5 887q10.5 11 10.5 28t-10.5 28t-27.5 11t-28 -11t-11 -28t11 -28t28 -11t27.5 11z" />
    <glyph glyph-name="uring" unicode="&#x16f;" 
d="M138.5 16.5q-46.5 28.5 -70.5 79.5t-24 119v331h150v-319q0 -31 12.5 -54.5t35.5 -36.5t52 -13q30 0 52.5 13t35 36.5t12.5 54.5v319h150v-546h-140v108l8 -24q-19 -49 -61.5 -72.5t-99.5 -23.5q-66 0 -112.5 28.5zM197 615.5q-37 35.5 -37 90.5q0 54 37 89t93 35
t92.5 -35t36.5 -89q0 -55 -36.5 -90.5t-92.5 -35.5t-93 35.5zM317.5 678q10.5 11 10.5 28t-10.5 28t-27.5 11t-28 -11t-11 -28t11 -28t28 -11t27.5 11z" />
    <glyph glyph-name="Uhungarumlaut" unicode="&#x170;" horiz-adv-x="724" 
d="M205 25q-69 37 -108.5 101.5t-39.5 146.5v472h155v-462q0 -44 19.5 -79.5t53.5 -55.5t77 -20q44 0 77.5 20t53 55.5t19.5 79.5v462h155v-472q0 -82 -39.5 -146.5t-108.5 -101.5t-157 -37t-157 37zM125 839l38 180h193l-84 -180h-147zM367 839l38 180h193l-84 -180h-147z
" />
    <glyph glyph-name="uhungarumlaut" unicode="&#x171;" 
d="M138.5 16.5q-46.5 28.5 -70.5 79.5t-24 119v331h150v-319q0 -31 12.5 -54.5t35.5 -36.5t52 -13q30 0 52.5 13t35 36.5t12.5 54.5v319h150v-546h-140v108l8 -24q-19 -49 -61.5 -72.5t-99.5 -23.5q-66 0 -112.5 28.5zM53 630l38 180h193l-84 -180h-147zM295 630l38 180h193
l-84 -180h-147z" />
    <glyph glyph-name="Uogonek" unicode="&#x172;" horiz-adv-x="724" 
d="M205 25q-69 37 -108.5 101.5t-39.5 146.5v472h155v-462q0 -44 19.5 -79.5t53.5 -55.5t77 -20q44 0 77.5 20t53 55.5t19.5 79.5v462h155v-472q0 -82 -39.5 -146.5t-108.5 -101.5t-157 -37t-157 37zM438.5 -238.5q-40.5 36.5 -40.5 89.5q0 38 16 71.5t51 56.5t91 31h29v-45
q-21 -4 -36 -17t-23.5 -32t-8.5 -43q0 -26 17 -39t35 -13q17 0 28 4.5t24 14.5l31 -83q-22 -14 -47 -23t-60 -9q-66 0 -106.5 36.5z" />
    <glyph glyph-name="uogonek" unicode="&#x173;" 
d="M138.5 16.5q-46.5 28.5 -70.5 79.5t-24 119v331h150v-319q0 -31 12.5 -54.5t35.5 -36.5t52 -13q30 0 52.5 13t35 36.5t12.5 54.5v319h150v-546h-140v108l8 -24q-19 -49 -61.5 -72.5t-99.5 -23.5q-66 0 -112.5 28.5zM325.5 -238.5q-40.5 36.5 -40.5 89.5q0 38 16 71.5
t51 56.5t91 31h29v-45q-21 -4 -36 -17t-23.5 -32t-8.5 -43q0 -26 17 -39t35 -13q17 0 28 4.5t24 14.5l31 -83q-22 -14 -47 -23t-60 -9q-66 0 -106.5 36.5z" />
    <glyph glyph-name="Wcircumflex" unicode="&#x174;" horiz-adv-x="1032" 
d="M206 0l-195 745h168l125 -531l132 531h160l132 -531l125 531h168l-195 -745h-180l-130 500l-130 -500h-180z" />
    <glyph glyph-name="wcircumflex" unicode="&#x175;" horiz-adv-x="912" 
d="M199 0l-188 546h155l106 -317l119 317h130l118 -317l106 317h156l-189 -546h-130l-126 350l-127 -350h-130z" />
    <glyph glyph-name="Ycircumflex" unicode="&#x176;" horiz-adv-x="672" 
d="M259 0v325l-248 420h177l148 -261l148 261h177l-247 -419v-326h-155z" />
    <glyph glyph-name="ycircumflex" unicode="&#x177;" horiz-adv-x="602" 
d="M93.5 -216q-22.5 4 -39.5 13v123q14 -4 33 -7t35 -3q44 0 63 20.5t31 46.5l37 85l-2 -125l-240 609h161l159 -433h-60l159 433h161l-234 -597q-22 -56 -54 -94t-72.5 -56.5t-90.5 -18.5q-24 0 -46.5 4z" />
    <glyph glyph-name="Ydieresis" unicode="&#x178;" horiz-adv-x="672" 
d="M259 0v325l-248 420h177l148 -261l148 261h177l-247 -419v-326h-155zM146 839v150h150v-150h-150zM376 839v150h150v-150h-150z" />
    <glyph glyph-name="Zacute" unicode="&#x179;" horiz-adv-x="567" 
d="M11 0v125l339 485h-319v135h515v-125l-338 -485h348v-135h-545z" />
    <glyph glyph-name="zacute" unicode="&#x17a;" horiz-adv-x="492" 
d="M11 0v120l269 296h-256v130h456v-120l-261 -296h262v-130h-470z" />
    <glyph glyph-name="Zdotaccent" unicode="&#x17b;" horiz-adv-x="567" 
d="M11 0v125l339 485h-319v135h515v-125l-338 -485h348v-135h-545zM209 839v150h150v-150h-150z" />
    <glyph glyph-name="zdotaccent" unicode="&#x17c;" horiz-adv-x="492" 
d="M11 0v120l269 296h-256v130h456v-120l-261 -296h262v-130h-470zM177 640v150h150v-150h-150z" />
    <glyph glyph-name="Zcaron" unicode="&#x17d;" horiz-adv-x="567" 
d="M11 0v125l339 485h-319v135h515v-125l-338 -485h348v-135h-545zM194 839l-116 170h144l62 -90l62 90h144l-117 -170h-179z" />
    <glyph glyph-name="zcaron" unicode="&#x17e;" horiz-adv-x="492" 
d="M11 0v120l269 296h-256v130h456v-120l-261 -296h262v-130h-470zM162 640l-116 170h144l62 -90l62 90h144l-117 -170h-179z" />
    <glyph glyph-name="uni018F" unicode="&#x18f;" horiz-adv-x="808" 
d="M254 14q-64 26 -111 73.5t-73 113.5t-26 146q0 18 1.5 36t5.5 34h585v-120h-495l73 55q-1 -10 -2 -19.5t-1 -19.5q0 -53 24 -95t66.5 -66t97.5 -24q46 0 85.5 17t68 49t43.5 77t12 101q3 54 -12.5 99t-45.5 78t-72.5 50.5t-94.5 17.5q-61 0 -108 -26t-74 -73l-127 61
q24 54 70 94t108 62t133 22q85 0 154.5 -30t120 -83t77.5 -123t27 -151q0 -82 -27.5 -151.5t-77.5 -121.5t-117.5 -80.5t-147.5 -28.5q-76 0 -140 26z" />
    <glyph glyph-name="florin" unicode="&#x192;" horiz-adv-x="597" 
d="M131.5 -10.5q-14.5 1.5 -25.5 3.5v128q10 -1 18 -2t15 -1q42 0 63.5 21t21.5 72v97h-117v130h117v107q0 71 26 118t74.5 70.5t114.5 23.5q13 0 28 -1.5t25 -3.5v-128q-10 2 -17.5 2.5t-15.5 0.5q-42 0 -63.5 -21t-21.5 -72v-96h117v-130h-117v-108q0 -71 -26 -118
t-74 -70.5t-115 -23.5q-13 0 -27.5 1.5z" />
    <glyph glyph-name="Ohorn" unicode="&#x1a0;" horiz-adv-x="878" 
d="M238 38.5q-90 50.5 -142 138.5t-52 196t51.5 195.5t141.5 138t202 50.5q47 0 91 -7q48 -6 79 -6t54 21t23 71v46h129v-49q0 -68 -22 -112.5t-77 -67.5q56 -53 87 -124.5t31 -155.5q0 -108 -52 -196t-142 -138.5t-201 -50.5t-201 50.5zM560 159q55 31 87 86.5t32 127.5
q0 71 -31.5 126.5t-86 86.5t-122.5 31t-122.5 -31t-86 -86.5t-31.5 -126.5q0 -72 32 -127.5t87 -86.5t121 -31t121 31z" />
    <glyph glyph-name="ohorn" unicode="&#x1a1;" horiz-adv-x="651" 
d="M178 25.5q-67 37.5 -106 102.5t-39 145q0 84 40.5 149t107.5 100.5t145 35.5q29 0 75 -8q40 -6 56 -6q68 0 68 73v53h128v-46q0 -129 -102 -165q32 -37 49.5 -84.5t17.5 -101.5q0 -80 -39 -145.5t-105.5 -102.5t-147.5 -37t-148 37.5zM425 165q38 42 38 108t-38 108
t-99 42t-99.5 -42t-38.5 -108t37.5 -108t100.5 -42q61 0 99 42z" />
    <glyph glyph-name="Uhorn" unicode="&#x1af;" horiz-adv-x="754" 
d="M205.5 25q-69.5 37 -109 102t-39.5 146v472h155v-462q0 -43 19 -78.5t53 -56t78 -20.5t78 20.5t53 56t19 78.5v462h83q35 0 55 15t20 47v63h129v-59q0 -69 -33 -113.5t-99 -53.5v-371q0 -81 -39.5 -146t-109 -102t-156.5 -37t-156.5 37z" />
    <glyph glyph-name="uhorn" unicode="&#x1b0;" horiz-adv-x="651" 
d="M99 49q-55 61 -55 166v331h150v-319q0 -47 27.5 -75.5t72.5 -28.5t72.5 28.5t27.5 75.5v319h91q29 0 44.5 17t15.5 62v35h128v-38q0 -76 -34.5 -121t-94.5 -55v-446h-140v66q-21 -39 -60.5 -58.5t-92.5 -19.5q-97 0 -152 61z" />
    <glyph glyph-name="uni01C4" unicode="&#x1c4;" horiz-adv-x="1306" 
d="M66 0v745h243q121 0 210 -48t138 -132t49 -192t-49 -192.5t-138 -132.5t-210 -48h-243zM221 135h92q73 0 126 29.5t82.5 83t29.5 125.5q0 73 -29.5 126t-82.5 82t-126 29h-92v-475zM750 0v125l339 485h-319v135h515v-125l-338 -485h348v-135h-545zM933 839l-116 170h144
l62 -90l62 90h144l-117 -170h-179z" />
    <glyph glyph-name="uni01C5" unicode="&#x1c5;" horiz-adv-x="1231" 
d="M66 0v745h243q121 0 210 -48t138 -132t49 -192t-49 -192.5t-138 -132.5t-210 -48h-243zM221 135h92q73 0 126 29.5t82.5 83t29.5 125.5q0 73 -29.5 126t-82.5 82t-126 29h-92v-475zM750 0v120l269 296h-256v130h456v-120l-261 -296h262v-130h-470zM901 640l-116 170h144
l62 -90l62 90h144l-117 -170h-179z" />
    <glyph glyph-name="uni01C6" unicode="&#x1c6;" horiz-adv-x="1165" 
d="M169 26q-63 38 -99.5 103t-36.5 144q0 80 37 144.5t100 102.5t141 38q60 0 106.5 -22.5t73.5 -63.5l-23 -30v315h150v-757h-140v100l14 -31q-28 -40 -76 -60.5t-104 -20.5q-80 0 -143 38zM402 142q31 19 48.5 53t17.5 78t-17.5 78t-48.5 53t-72 19t-73.5 -19.5t-50.5 -53
t-18 -77.5t18 -78t50.5 -53t73.5 -19t72 19zM684 0v120l269 296h-256v130h456v-120l-261 -296h262v-130h-470zM835 640l-116 170h144l62 -90l62 90h144l-117 -170h-179z" />
    <glyph glyph-name="uni01C7" unicode="&#x1c7;" horiz-adv-x="1172" 
d="M66 0v745h155v-610h315v-135h-470zM661.5 41.5q-72.5 53.5 -91.5 147.5l144 39q13 -49 46.5 -74.5t81.5 -25.5q36 0 61 14t38 40.5t13 62.5v500h155v-500q0 -74 -31.5 -132t-91.5 -91.5t-145 -33.5q-107 0 -179.5 53.5z" />
    <glyph glyph-name="uni01C8" unicode="&#x1c8;" horiz-adv-x="807" 
d="M66 0v745h155v-610h315v-135h-470zM506.5 -220.5q-14.5 1.5 -24.5 3.5v128q17 -3 34 -3q43 0 64.5 18t21.5 54v566h150v-566q0 -64 -25.5 -109.5t-74 -69t-116.5 -23.5q-15 0 -29.5 1.5zM602 595v150h150v-150h-150z" />
    <glyph glyph-name="uni01C9" unicode="&#x1c9;" horiz-adv-x="520" 
d="M55 0v757h150v-757h-150zM219.5 -220.5q-14.5 1.5 -24.5 3.5v128q17 -3 34 -3q43 0 64.5 18t21.5 54v566h150v-566q0 -64 -25.5 -109.5t-74 -69t-116.5 -23.5q-15 0 -29.5 1.5zM315 595v150h150v-150h-150z" />
    <glyph glyph-name="uni01CA" unicode="&#x1ca;" horiz-adv-x="1138" 
d="M66 0v745h119l336 -443v443h155v-745h-120l-335 453v-453h-155zM775 0v140h45q45 0 72.5 25.5t27.5 67.5v512h155v-505q0 -72 -31 -126t-88.5 -84t-135.5 -30h-45z" />
    <glyph glyph-name="uni01CB" unicode="&#x1cb;" horiz-adv-x="1002" 
d="M66 0v745h119l336 -443v443h155v-745h-120l-335 453v-453h-155zM701.5 -220.5q-14.5 1.5 -24.5 3.5v128q17 -3 34 -3q43 0 64.5 18t21.5 54v566h150v-566q0 -64 -25.5 -109.5t-74 -69t-116.5 -23.5q-15 0 -29.5 1.5zM797 595v150h150v-150h-150z" />
    <glyph glyph-name="uni01CC" unicode="&#x1cc;" horiz-adv-x="859" 
d="M55 0v546h140v-108l-8 24q19 49 61.5 72.5t99.5 23.5q62 0 108.5 -26t72.5 -72.5t26 -108.5v-351h-150v319q0 32 -12.5 55t-35 36t-52.5 13q-29 0 -52 -13t-35.5 -36t-12.5 -55v-319h-150zM558.5 -220.5q-14.5 1.5 -24.5 3.5v128q17 -3 34 -3q43 0 64.5 18t21.5 54v566
h150v-566q0 -64 -25.5 -109.5t-74 -69t-116.5 -23.5q-15 0 -29.5 1.5zM654 595v150h150v-150h-150z" />
    <glyph glyph-name="Gcaron" unicode="&#x1e6;" horiz-adv-x="804" 
d="M275 17q-69 29 -121 81t-81 122t-29 153t28 153.5t79 122t119.5 80t149.5 28.5t145.5 -27t109.5 -72t64 -100l-137 -66q-19 54 -66.5 89.5t-115.5 35.5q-66 0 -116 -31t-77.5 -85.5t-27.5 -127.5t29 -128t79.5 -86t116.5 -31q51 0 95.5 19.5t72 56.5t27.5 89v62l71 -60
h-270v130h354v-79q0 -91 -30 -158.5t-80.5 -112t-113 -66t-126.5 -21.5q-80 0 -149 29zM312 839l-116 170h144l62 -90l62 90h144l-117 -170h-179z" />
    <glyph glyph-name="gcaron" unicode="&#x1e7;" horiz-adv-x="648" 
d="M206 -199q-54 21 -92.5 58.5t-55.5 88.5l139 49q11 -38 45 -60t81 -22q37 0 64 13.5t41.5 39.5t14.5 61v125l29 -36q-28 -46 -72 -68.5t-103 -22.5q-76 0 -136 34.5t-94 95t-34 137.5t34 136.5t93 93.5t134 34q59 0 103 -23.5t75 -71.5l-19 -36v119h140v-517
q0 -72 -35 -128.5t-95.5 -88.5t-139.5 -32q-63 0 -117 21zM384 179q28 16 43.5 45t15.5 68t-16 68.5t-44 46t-65 16.5q-38 0 -67.5 -16.5t-46 -46t-16.5 -68.5q0 -38 16.5 -67t46 -45.5t67.5 -16.5t66 16zM234 640l-116 170h144l62 -90l62 90h144l-117 -170h-179z" />
    <glyph glyph-name="uni01EA" unicode="&#x1ea;" horiz-adv-x="878" 
d="M283 17q-72 29 -125.5 81.5t-83.5 122.5t-30 152t29.5 152t83 122t125.5 81t157 29t157 -29t125.5 -81t83 -122t29.5 -152t-30 -152t-83.5 -122.5t-125.5 -81.5t-156 -29t-156 29zM533.5 146q43.5 18 76.5 50.5t51 77.5t18 99t-18 98.5t-51 77.5t-76.5 50.5t-94.5 17.5
t-94.5 -17.5t-76.5 -50.5t-51 -77.5t-18 -98.5t18 -99t51 -77.5t76.5 -50.5t94.5 -18t94.5 18zM576.5 -238.5q-40.5 36.5 -40.5 89.5q0 38 16 71.5t51 56.5t91 31h29v-45q-21 -4 -36 -17t-23.5 -32t-8.5 -43q0 -26 17 -39t35 -13q17 0 28 4.5t24 14.5l31 -83
q-22 -14 -47 -23t-60 -9q-66 0 -106.5 36.5z" />
    <glyph glyph-name="uni01EB" unicode="&#x1eb;" horiz-adv-x="651" 
d="M178.5 25q-66.5 37 -106 101.5t-39.5 146.5q0 83 39.5 147t106 101t147.5 37t147 -37t105.5 -101t39.5 -147q0 -82 -39.5 -146.5t-105.5 -101.5t-147 -37t-147.5 37zM397.5 142q30.5 19 48 53t17.5 78t-17.5 77.5t-48 53t-71.5 19.5t-72 -19.5t-48.5 -53t-17.5 -77.5
t17.5 -78t48.5 -53t72 -19t71.5 19zM372.5 -238.5q-40.5 36.5 -40.5 89.5q0 38 16 71.5t51 56.5t91 31h29v-45q-21 -4 -36 -17t-23.5 -32t-8.5 -43q0 -26 17 -39t35 -13q17 0 28 4.5t24 14.5l31 -83q-22 -14 -47 -23t-60 -9q-66 0 -106.5 36.5z" />
    <glyph glyph-name="Aringacute" unicode="&#x1fa;" horiz-adv-x="732" 
d="M11 0l252 745h206l252 -745h-169l-50 152h-273l-50 -152h-168zM459 287l-93 287l-94 -287h187zM249 834.5q-37 35.5 -37 90.5q0 54 37 89t93 35t92.5 -35t36.5 -89q0 -55 -36.5 -90.5t-92.5 -35.5t-93 35.5zM369.5 897q10.5 11 10.5 28t-10.5 28t-27.5 11t-28 -11
t-11 -28t11 -28t28 -11t27.5 11zM310 976l46 173h163l-83 -173h-126z" />
    <glyph glyph-name="aringacute" unicode="&#x1fb;" horiz-adv-x="583" 
d="M122 7q-43 19 -66 54.5t-23 84.5q0 46 21 81.5t64.5 59.5t108.5 34l167 27v-110l-140 -25q-32 -6 -49 -20.5t-17 -41.5q0 -25 19 -39t47 -14q37 0 65 16t43.5 43.5t15.5 60.5v142q0 31 -24.5 52t-66.5 21q-40 0 -70.5 -22t-44.5 -58l-120 57q16 46 51 79t84 51t107 18
q69 0 122 -25t82.5 -69.5t29.5 -103.5v-360h-140v88l34 6q-24 -36 -53 -59.5t-65 -35t-80 -11.5q-59 0 -102 19zM175 625.5q-37 35.5 -37 90.5q0 54 37 89t93 35t92.5 -35t36.5 -89q0 -55 -36.5 -90.5t-92.5 -35.5t-93 35.5zM295.5 688q10.5 11 10.5 28t-10.5 28t-27.5 11
t-28 -11t-11 -28t11 -28t28 -11t27.5 11zM236 767l46 173h163l-83 -173h-126z" />
    <glyph glyph-name="AEacute" unicode="&#x1fc;" horiz-adv-x="993" 
d="M11 0l252 745h708v-135h-346v-169h326v-135h-326v-171h346l-1 -135h-500v152h-241l-50 -152h-168zM272 287h198v323h-92z" />
    <glyph glyph-name="aeacute" unicode="&#x1fd;" horiz-adv-x="961" 
d="M122 7q-43 19 -66 54.5t-23 84.5q0 46 21 81.5t64.5 59.5t108.5 34l151 24v15q0 31 -24.5 52t-66.5 21q-40 0 -70.5 -22t-44.5 -58l-120 57q16 46 51 79t84 51t107 18q71 0 124.5 -26.5t81.5 -71.5h-54q38 45 92.5 71.5t119.5 26.5t115 -20.5t84.5 -57.5t52.5 -85.5
t18 -105.5q0 -16 -1.5 -31.5t-5.5 -26.5h-382q5 -34 21.5 -59.5t44.5 -39.5t65 -14q40 0 68.5 16t44.5 44l120 -57q-16 -40 -49.5 -70t-76.5 -46.5t-89 -16.5q-66 0 -119.5 24t-90.5 75l33 31v-118h-123v118l31 -31q-24 -34 -53 -56t-64 -32.5t-78 -10.5q-59 0 -102 19z
M319 114q28 16 43.5 43.5t15.5 60.5v17l-124 -22q-32 -6 -49 -20.5t-17 -41.5q0 -25 19 -39t47 -14q37 0 65 16zM769 341q-3 29 -17.5 51t-38.5 34t-55 12q-29 0 -53 -11t-40 -32.5t-23 -53.5h227z" />
    <glyph glyph-name="Oslashacute" unicode="&#x1fe;" horiz-adv-x="878" 
d="M50 0l610 745h168l-610 -745h-168zM283 17q-72 29 -125.5 81.5t-83.5 122.5t-30 152t29.5 152t83 122t125.5 81t157 29t157 -29t125.5 -81t83 -122t29.5 -152t-30 -152t-83.5 -122.5t-125.5 -81.5t-156 -29t-156 29zM533.5 146q43.5 18 76.5 50.5t51 77.5t18 99t-18 98.5
t-51 77.5t-76.5 50.5t-94.5 17.5t-94.5 -17.5t-76.5 -50.5t-51 -77.5t-18 -98.5t18 -99t51 -77.5t76.5 -50.5t94.5 -18t94.5 18z" />
    <glyph glyph-name="oslashacute" unicode="&#x1ff;" horiz-adv-x="651" 
d="M9 0l469 546h165l-469 -546h-165zM178.5 25q-66.5 37 -106 101.5t-39.5 146.5q0 83 39.5 147t106 101t147.5 37t147 -37t105.5 -101t39.5 -147q0 -82 -39.5 -146.5t-105.5 -101.5t-147 -37t-147.5 37zM397.5 142q30.5 19 48 53t17.5 78t-17.5 77.5t-48 53t-71.5 19.5
t-72 -19.5t-48.5 -53t-17.5 -77.5t17.5 -78t48.5 -53t72 -19t71.5 19z" />
    <glyph glyph-name="uni0200" unicode="&#x200;" horiz-adv-x="732" 
d="M11 0l252 745h206l252 -745h-169l-50 152h-273l-50 -152h-168zM459 287l-93 287l-94 -287h187zM223 849l-104 184h193l58 -184h-147zM465 849l-104 184h193l58 -184h-147z" />
    <glyph glyph-name="uni0201" unicode="&#x201;" horiz-adv-x="583" 
d="M122 7q-43 19 -66 54.5t-23 84.5q0 46 21 81.5t64.5 59.5t108.5 34l167 27v-110l-140 -25q-32 -6 -49 -20.5t-17 -41.5q0 -25 19 -39t47 -14q37 0 65 16t43.5 43.5t15.5 60.5v142q0 31 -24.5 52t-66.5 21q-40 0 -70.5 -22t-44.5 -58l-120 57q16 46 51 79t84 51t107 18
q69 0 122 -25t82.5 -69.5t29.5 -103.5v-360h-140v88l34 6q-24 -36 -53 -59.5t-65 -35t-80 -11.5q-59 0 -102 19zM149 640l-104 184h193l58 -184h-147zM391 640l-104 184h193l58 -184h-147z" />
    <glyph glyph-name="uni0202" unicode="&#x202;" horiz-adv-x="732" 
d="M11 0l252 745h206l252 -745h-169l-50 152h-273l-50 -152h-168zM272 287h187l-114 352h42zM151 347q2 41 24.5 80t69.5 64.5t121 25.5q75 0 121.5 -24.5t69.5 -63.5t24 -82h-147q-2 26 -19.5 40.5t-48.5 14.5q-30 0 -47.5 -14.5t-19.5 -40.5h-148z" />
    <glyph glyph-name="uni0203" unicode="&#x203;" horiz-adv-x="583" 
d="M122 7q-43 19 -66 54.5t-23 84.5q0 46 21 81.5t64.5 59.5t108.5 34l167 27v-110l-140 -25q-32 -6 -49 -20.5t-17 -41.5q0 -25 19 -39t47 -14q37 0 65 16t43.5 43.5t15.5 60.5v142q0 31 -24.5 52t-66.5 21q-40 0 -70.5 -22t-44.5 -58l-120 57q16 46 51 79t84 51t107 18
q69 0 122 -25t82.5 -69.5t29.5 -103.5v-360h-140v88l34 6q-24 -36 -53 -59.5t-65 -35t-80 -11.5q-59 0 -102 19zM77 138q2 41 24.5 80t69.5 64.5t121 25.5q75 0 121.5 -24.5t69.5 -63.5t24 -82h-147q-2 26 -19.5 40.5t-48.5 14.5q-30 0 -47.5 -14.5t-19.5 -40.5h-148z" />
    <glyph glyph-name="uni0204" unicode="&#x204;" horiz-adv-x="589" 
d="M66 0v745h501v-135h-346v-169h326v-135h-326v-171h346v-135h-501zM176 849l-104 184h193l58 -184h-147zM418 849l-104 184h193l58 -184h-147z" />
    <glyph glyph-name="uni0205" unicode="&#x205;" horiz-adv-x="611" 
d="M167 26.5q-64 38.5 -99 103.5t-35 144q0 82 36.5 146t98.5 101t140 37q65 0 115 -20.5t84.5 -57.5t52.5 -85.5t18 -105.5q0 -16 -1.5 -31.5t-5.5 -26.5h-409v110h324l-71 -52q10 43 -1 76.5t-38.5 53t-67.5 19.5q-39 0 -67 -19t-42 -56t-11 -90q-4 -46 11 -81t46 -54.5
t75 -19.5q40 0 68.5 16t44.5 44l120 -57q-16 -40 -50.5 -70t-81.5 -46.5t-103 -16.5q-87 0 -151 38.5zM163 640l-104 184h193l58 -184h-147zM405 640l-104 184h193l58 -184h-147z" />
    <glyph glyph-name="uni0206" unicode="&#x206;" horiz-adv-x="589" 
d="M66 0v745h501v-135h-346v-169h326v-135h-326v-171h346v-135h-501zM104 347q2 41 24.5 80t69.5 64.5t121 25.5q75 0 121.5 -24.5t69.5 -63.5t24 -82h-147q-2 26 -19.5 40.5t-48.5 14.5q-30 0 -47.5 -14.5t-19.5 -40.5h-148z" />
    <glyph glyph-name="uni0207" unicode="&#x207;" horiz-adv-x="611" 
d="M167 26.5q-64 38.5 -99 103.5t-35 144q0 82 36.5 146t98.5 101t140 37q65 0 115 -20.5t84.5 -57.5t52.5 -85.5t18 -105.5q0 -16 -1.5 -31.5t-5.5 -26.5h-409v110h324l-71 -52q10 43 -1 76.5t-38.5 53t-67.5 19.5q-39 0 -67 -19t-42 -56t-11 -90q-4 -46 11 -81t46 -54.5
t75 -19.5q40 0 68.5 16t44.5 44l120 -57q-16 -40 -50.5 -70t-81.5 -46.5t-103 -16.5q-87 0 -151 38.5zM91 138q2 41 24.5 80t69.5 64.5t121 25.5q75 0 121.5 -24.5t69.5 -63.5t24 -82h-147q-2 26 -19.5 40.5t-48.5 14.5q-30 0 -47.5 -14.5t-19.5 -40.5h-148z" />
    <glyph glyph-name="uni0208" unicode="&#x208;" horiz-adv-x="287" 
d="M66 0v745h155v-745h-155zM1 849l-104 184h193l58 -184h-147zM243 849l-104 184h193l58 -184h-147z" />
    <glyph glyph-name="uni0209" unicode="&#x209;" horiz-adv-x="238" 
d="M44 0v546h150v-546h-150zM-24 640l-104 184h193l58 -184h-147zM218 640l-104 184h193l58 -184h-147z" />
    <glyph glyph-name="uni020A" unicode="&#x20a;" horiz-adv-x="287" 
d="M66 0v745h155v-745h-155zM-71 347q2 41 24.5 80t69.5 64.5t121 25.5q75 0 121.5 -24.5t69.5 -63.5t24 -82h-147q-2 26 -19.5 40.5t-48.5 14.5q-30 0 -47.5 -14.5t-19.5 -40.5h-148z" />
    <glyph glyph-name="uni020B" unicode="&#x20b;" horiz-adv-x="238" 
d="M44 0v546h150v-546h-150zM-96 138q2 41 24.5 80t69.5 64.5t121 25.5q75 0 121.5 -24.5t69.5 -63.5t24 -82h-147q-2 26 -19.5 40.5t-48.5 14.5q-30 0 -47.5 -14.5t-19.5 -40.5h-148z" />
    <glyph glyph-name="uni020C" unicode="&#x20c;" horiz-adv-x="878" 
d="M283 17q-72 29 -125.5 81.5t-83.5 122.5t-30 152t29.5 152t83 122t125.5 81t157 29t157 -29t125.5 -81t83 -122t29.5 -152t-30 -152t-83.5 -122.5t-125.5 -81.5t-156 -29t-156 29zM533.5 146q43.5 18 76.5 50.5t51 77.5t18 99t-18 98.5t-51 77.5t-76.5 50.5t-94.5 17.5
t-94.5 -17.5t-76.5 -50.5t-51 -77.5t-18 -98.5t18 -99t51 -77.5t76.5 -50.5t94.5 -18t94.5 18zM296 849l-104 184h193l58 -184h-147zM538 849l-104 184h193l58 -184h-147z" />
    <glyph glyph-name="uni020D" unicode="&#x20d;" horiz-adv-x="651" 
d="M178.5 25q-66.5 37 -106 101.5t-39.5 146.5q0 83 39.5 147t106 101t147.5 37t147 -37t105.5 -101t39.5 -147q0 -82 -39.5 -146.5t-105.5 -101.5t-147 -37t-147.5 37zM397.5 142q30.5 19 48 53t17.5 78t-17.5 77.5t-48 53t-71.5 19.5t-72 -19.5t-48.5 -53t-17.5 -77.5
t17.5 -78t48.5 -53t72 -19t71.5 19zM183 640l-104 184h193l58 -184h-147zM425 640l-104 184h193l58 -184h-147z" />
    <glyph glyph-name="uni020E" unicode="&#x20e;" horiz-adv-x="878" 
d="M283 17q-72 29 -125.5 81.5t-83.5 122.5t-30 152t29.5 152t83 122t125.5 81t157 29t157 -29t125.5 -81t83 -122t29.5 -152t-30 -152t-83.5 -122.5t-125.5 -81.5t-156 -29t-156 29zM533.5 146q43.5 18 76.5 50.5t51 77.5t18 99t-18 98.5t-51 77.5t-76.5 50.5t-94.5 17.5
t-94.5 -17.5t-76.5 -50.5t-51 -77.5t-18 -98.5t18 -99t51 -77.5t76.5 -50.5t94.5 -18t94.5 18zM224 347q2 41 24.5 80t69.5 64.5t121 25.5q75 0 121.5 -24.5t69.5 -63.5t24 -82h-147q-2 26 -19.5 40.5t-48.5 14.5q-30 0 -47.5 -14.5t-19.5 -40.5h-148z" />
    <glyph glyph-name="uni020F" unicode="&#x20f;" horiz-adv-x="651" 
d="M178.5 25q-66.5 37 -106 101.5t-39.5 146.5q0 83 39.5 147t106 101t147.5 37t147 -37t105.5 -101t39.5 -147q0 -82 -39.5 -146.5t-105.5 -101.5t-147 -37t-147.5 37zM397.5 142q30.5 19 48 53t17.5 78t-17.5 77.5t-48 53t-71.5 19.5t-72 -19.5t-48.5 -53t-17.5 -77.5
t17.5 -78t48.5 -53t72 -19t71.5 19zM111 138q2 41 24.5 80t69.5 64.5t121 25.5q75 0 121.5 -24.5t69.5 -63.5t24 -82h-147q-2 26 -19.5 40.5t-48.5 14.5q-30 0 -47.5 -14.5t-19.5 -40.5h-148z" />
    <glyph glyph-name="uni0210" unicode="&#x210;" horiz-adv-x="667" 
d="M66 0v745h285q77 0 136.5 -27t93.5 -80t34 -131q0 -76 -35 -129.5t-94 -80.5l170 -297h-174l-184 329l100 -59h-177v-270h-155zM221 405h131q33 0 57 13t37.5 36t13.5 53q0 31 -13.5 54t-37.5 36t-57 13h-131v-205zM139 839l-104 184h193l58 -184h-147zM381 839l-104 184
h193l58 -184h-147z" />
    <glyph glyph-name="uni0211" unicode="&#x211;" horiz-adv-x="386" 
d="M55 0v546h140v-131l-10 19q18 69 59.5 93.5t98.5 24.5h32v-130h-47q-55 0 -89 -33.5t-34 -94.5v-294h-150zM20 640l-104 184h193l58 -184h-147zM262 640l-104 184h193l58 -184h-147z" />
    <glyph glyph-name="uni0212" unicode="&#x212;" horiz-adv-x="667" 
d="M66 0v745h285q77 0 136.5 -27t93.5 -80t34 -131q0 -76 -35 -129.5t-94 -80.5l170 -297h-174l-184 329l100 -59h-177v-270h-155zM221 405h131q33 0 57 13t37.5 36t13.5 53q0 31 -13.5 54t-37.5 36t-57 13h-131v-205zM119 839q2 41 24.5 80t69.5 64.5t121 25.5
q75 0 121.5 -24.5t69.5 -63.5t24 -82h-147q-2 26 -19.5 40.5t-48.5 14.5q-30 0 -47.5 -14.5t-19.5 -40.5h-148z" />
    <glyph glyph-name="uni0213" unicode="&#x213;" horiz-adv-x="386" 
d="M55 0v546h140v-131l-10 19q18 69 59.5 93.5t98.5 24.5h32v-130h-47q-55 0 -89 -33.5t-34 -94.5v-294h-150zM0 640q2 41 24.5 80t69.5 64.5t121 25.5q75 0 121.5 -24.5t69.5 -63.5t24 -82h-147q-2 26 -19.5 40.5t-48.5 14.5q-30 0 -47.5 -14.5t-19.5 -40.5h-148z" />
    <glyph glyph-name="uni0214" unicode="&#x214;" horiz-adv-x="724" 
d="M205 25q-69 37 -108.5 101.5t-39.5 146.5v472h155v-462q0 -44 19.5 -79.5t53.5 -55.5t77 -20q44 0 77.5 20t53 55.5t19.5 79.5v462h155v-472q0 -82 -39.5 -146.5t-108.5 -101.5t-157 -37t-157 37zM219 839l-104 184h193l58 -184h-147zM461 839l-104 184h193l58 -184h-147
z" />
    <glyph glyph-name="uni0215" unicode="&#x215;" 
d="M138.5 16.5q-46.5 28.5 -70.5 79.5t-24 119v331h150v-319q0 -31 12.5 -54.5t35.5 -36.5t52 -13q30 0 52.5 13t35 36.5t12.5 54.5v319h150v-546h-140v108l8 -24q-19 -49 -61.5 -72.5t-99.5 -23.5q-66 0 -112.5 28.5zM147 630l-104 184h193l58 -184h-147zM389 630l-104 184
h193l58 -184h-147z" />
    <glyph glyph-name="uni0216" unicode="&#x216;" horiz-adv-x="724" 
d="M205 25q-69 37 -108.5 101.5t-39.5 146.5v472h155v-462q0 -44 19.5 -79.5t53.5 -55.5t77 -20q44 0 77.5 20t53 55.5t19.5 79.5v462h155v-472q0 -82 -39.5 -146.5t-108.5 -101.5t-157 -37t-157 37zM147 337q2 41 24.5 80t69.5 64.5t121 25.5q75 0 121.5 -24.5t69.5 -63.5
t24 -82h-147q-2 26 -19.5 40.5t-48.5 14.5q-30 0 -47.5 -14.5t-19.5 -40.5h-148z" />
    <glyph glyph-name="uni0217" unicode="&#x217;" 
d="M138.5 16.5q-46.5 28.5 -70.5 79.5t-24 119v331h150v-319q0 -31 12.5 -54.5t35.5 -36.5t52 -13q30 0 52.5 13t35 36.5t12.5 54.5v319h150v-546h-140v108l8 -24q-19 -49 -61.5 -72.5t-99.5 -23.5q-66 0 -112.5 28.5zM75 128q2 41 24.5 80t69.5 64.5t121 25.5
q75 0 121.5 -24.5t69.5 -63.5t24 -82h-147q-2 26 -19.5 40.5t-48.5 14.5q-30 0 -47.5 -14.5t-19.5 -40.5h-148z" />
    <glyph glyph-name="uni0218" unicode="&#x218;" horiz-adv-x="647" 
d="M205.5 13.5q-61.5 25.5 -106 72.5t-66.5 111l127 57q28 -61 77.5 -96t109.5 -35q32 0 55 10t36 27.5t13 41.5q0 26 -16 44.5t-50 29.5l-146 48q-89 29 -134 82.5t-45 128.5q0 66 32.5 116t91 78t134.5 28q67 0 124 -23t98.5 -65t62.5 -101l-126 -57q-21 52 -63 81.5
t-96 29.5q-31 0 -55 -10t-37 -28.5t-13 -42.5q0 -26 17 -45.5t51 -30.5l143 -46q90 -29 134.5 -81t44.5 -127q0 -65 -34 -115.5t-93.5 -79t-138.5 -28.5q-70 0 -131.5 25.5zM217 -263l24 193h193l-75 -193h-142z" />
    <glyph glyph-name="uni0219" unicode="&#x219;" horiz-adv-x="515" 
d="M112.5 30.5q-66.5 42.5 -90.5 114.5l110 52q21 -44 57 -69t80 -25q32 0 49 13t17 36q0 12 -6 20.5t-18 15.5t-30 12l-93 26q-67 19 -103 61.5t-36 100.5q0 51 26 89t73 59.5t108 21.5q80 0 140.5 -37.5t85.5 -105.5l-111 -52q-12 34 -43.5 54.5t-71.5 20.5
q-29 0 -45.5 -12t-16.5 -33q0 -11 6 -20t19.5 -16t33.5 -13l87 -26q68 -20 104 -60.5t36 -99.5q0 -51 -26.5 -89t-73.5 -59.5t-111 -21.5q-90 0 -156.5 42.5zM138 -263l24 193h193l-75 -193h-142z" />
    <glyph glyph-name="uni021A" unicode="&#x21a;" horiz-adv-x="552" 
d="M200 0v610h-189v135h530v-135h-186v-610h-155zM156 -263l24 193h193l-75 -193h-142z" />
    <glyph glyph-name="uni021B" unicode="&#x21b;" horiz-adv-x="421" 
d="M164.5 47.5q-54.5 53.5 -54.5 149.5v219h-92v130h5q42 0 64.5 21t22.5 63v40h150v-124h128v-130h-128v-209q0 -28 10 -46.5t31 -27.5t52 -9q7 0 16 1t19 2v-127q-15 -2 -34 -4t-36 -2q-99 0 -153.5 53.5zM191 -263l24 193h193l-75 -193h-142z" />
    <glyph glyph-name="uni022A" unicode="&#x22a;" horiz-adv-x="878" 
d="M283 17q-72 29 -125.5 81.5t-83.5 122.5t-30 152t29.5 152t83 122t125.5 81t157 29t157 -29t125.5 -81t83 -122t29.5 -152t-30 -152t-83.5 -122.5t-125.5 -81.5t-156 -29t-156 29zM533.5 146q43.5 18 76.5 50.5t51 77.5t18 99t-18 98.5t-51 77.5t-76.5 50.5t-94.5 17.5
t-94.5 -17.5t-76.5 -50.5t-51 -77.5t-18 -98.5t18 -99t51 -77.5t76.5 -50.5t94.5 -18t94.5 18zM249 849v150h150v-150h-150zM479 849v150h150v-150h-150zM269 1050v120h340v-120h-340z" />
    <glyph glyph-name="uni022B" unicode="&#x22b;" horiz-adv-x="651" 
d="M178.5 25q-66.5 37 -106 101.5t-39.5 146.5q0 83 39.5 147t106 101t147.5 37t147 -37t105.5 -101t39.5 -147q0 -82 -39.5 -146.5t-105.5 -101.5t-147 -37t-147.5 37zM397.5 142q30.5 19 48 53t17.5 78t-17.5 77.5t-48 53t-71.5 19.5t-72 -19.5t-48.5 -53t-17.5 -77.5
t17.5 -78t48.5 -53t72 -19t71.5 19zM136 640v150h150v-150h-150zM366 640v150h150v-150h-150zM156 841v120h340v-120h-340z" />
    <glyph glyph-name="uni022C" unicode="&#x22c;" horiz-adv-x="878" 
d="M283 17q-72 29 -125.5 81.5t-83.5 122.5t-30 152t29.5 152t83 122t125.5 81t157 29t157 -29t125.5 -81t83 -122t29.5 -152t-30 -152t-83.5 -122.5t-125.5 -81.5t-156 -29t-156 29zM533.5 146q43.5 18 76.5 50.5t51 77.5t18 99t-18 98.5t-51 77.5t-76.5 50.5t-94.5 17.5
t-94.5 -17.5t-76.5 -50.5t-51 -77.5t-18 -98.5t18 -99t51 -77.5t76.5 -50.5t94.5 -18t94.5 18zM469 857q-19 8 -33 18t-27.5 18t-30.5 8t-25.5 -12.5t-8.5 -35.5h-115q0 87 39.5 126.5t92.5 39.5q29 0 48.5 -7.5t34.5 -18t28 -18t28 -7.5q20 0 27 12.5t7 34.5h115
q-1 -84 -40.5 -125t-92.5 -41q-28 0 -47 8zM269 1059v120h340v-120h-340z" />
    <glyph glyph-name="uni022D" unicode="&#x22d;" horiz-adv-x="651" 
d="M178.5 25q-66.5 37 -106 101.5t-39.5 146.5q0 83 39.5 147t106 101t147.5 37t147 -37t105.5 -101t39.5 -147q0 -82 -39.5 -146.5t-105.5 -101.5t-147 -37t-147.5 37zM397.5 142q30.5 19 48 53t17.5 78t-17.5 77.5t-48 53t-71.5 19.5t-72 -19.5t-48.5 -53t-17.5 -77.5
t17.5 -78t48.5 -53t72 -19t71.5 19zM356 648q-19 8 -33 18t-27.5 18t-30.5 8t-25.5 -12.5t-8.5 -35.5h-115q0 87 39.5 126.5t92.5 39.5q29 0 48.5 -7.5t34.5 -18t28 -18t28 -7.5q20 0 27 12.5t7 34.5h115q-1 -84 -40.5 -125t-92.5 -41q-28 0 -47 8zM156 850v120h340v-120
h-340z" />
    <glyph glyph-name="uni0230" unicode="&#x230;" horiz-adv-x="878" 
d="M283 17q-72 29 -125.5 81.5t-83.5 122.5t-30 152t29.5 152t83 122t125.5 81t157 29t157 -29t125.5 -81t83 -122t29.5 -152t-30 -152t-83.5 -122.5t-125.5 -81.5t-156 -29t-156 29zM533.5 146q43.5 18 76.5 50.5t51 77.5t18 99t-18 98.5t-51 77.5t-76.5 50.5t-94.5 17.5
t-94.5 -17.5t-76.5 -50.5t-51 -77.5t-18 -98.5t18 -99t51 -77.5t76.5 -50.5t94.5 -18t94.5 18zM364 849v150h150v-150h-150zM269 1050v120h340v-120h-340z" />
    <glyph glyph-name="uni0231" unicode="&#x231;" horiz-adv-x="651" 
d="M178.5 25q-66.5 37 -106 101.5t-39.5 146.5q0 83 39.5 147t106 101t147.5 37t147 -37t105.5 -101t39.5 -147q0 -82 -39.5 -146.5t-105.5 -101.5t-147 -37t-147.5 37zM397.5 142q30.5 19 48 53t17.5 78t-17.5 77.5t-48 53t-71.5 19.5t-72 -19.5t-48.5 -53t-17.5 -77.5
t17.5 -78t48.5 -53t72 -19t71.5 19zM251 640v150h150v-150h-150zM156 841v120h340v-120h-340z" />
    <glyph glyph-name="uni0232" unicode="&#x232;" horiz-adv-x="672" 
d="M259 0v325l-248 420h177l148 -261l148 261h177l-247 -419v-326h-155zM166 859v120h340v-120h-340z" />
    <glyph glyph-name="uni0233" unicode="&#x233;" horiz-adv-x="602" 
d="M93.5 -216q-22.5 4 -39.5 13v123q14 -4 33 -7t35 -3q44 0 63 20.5t31 46.5l37 85l-2 -125l-240 609h161l159 -433h-60l159 433h161l-234 -597q-22 -56 -54 -94t-72.5 -56.5t-90.5 -18.5q-24 0 -46.5 4zM131 660v120h340v-120h-340z" />
    <glyph glyph-name="uni0237" unicode="&#x237;" horiz-adv-x="260" 
d="M-40.5 -220.5q-14.5 1.5 -24.5 3.5v128q17 -3 34 -3q43 0 64.5 18t21.5 54v566h150v-566q0 -64 -25.5 -109.5t-74 -69t-116.5 -23.5q-15 0 -29.5 1.5z" />
    <glyph glyph-name="uni0259" unicode="&#x259;" horiz-adv-x="611" 
d="M188 8.5q-50 20.5 -84.5 57.5t-52.5 85.5t-18 105.5q0 17 1.5 32t5.5 26h409v-110h-324l71 52q-10 -42 1 -76t39 -53.5t67 -19.5t67 19t42.5 56t10.5 90q4 46 -11 81t-46 54.5t-75 19.5q-40 0 -68.5 -16t-44.5 -44l-120 57q17 40 51 70t81 46.5t103 16.5q87 0 151 -38.5
t99 -103.5t35 -144q0 -81 -36 -145.5t-98.5 -101.5t-140.5 -37q-65 0 -115 20.5z" />
    <glyph glyph-name="circumflex" unicode="&#x2c6;" horiz-adv-x="561" 
 />
    <glyph glyph-name="caron" unicode="&#x2c7;" horiz-adv-x="561" 
d="M245 640l-116 170h144l62 -90l62 90h144l-117 -170h-179z" />
    <glyph glyph-name="breve" unicode="&#x2d8;" horiz-adv-x="538" 
 />
    <glyph glyph-name="dotaccent" unicode="&#x2d9;" horiz-adv-x="304" 
d="M129 640v150h150v-150h-150z" />
    <glyph glyph-name="ring" unicode="&#x2da;" horiz-adv-x="379" 
d="M166 625.5q-37 35.5 -37 90.5q0 54 37 89t93 35t92.5 -35t36.5 -89q0 -55 -36.5 -90.5t-92.5 -35.5t-93 35.5zM286.5 688q10.5 11 10.5 28t-10.5 28t-27.5 11t-28 -11t-11 -28t11 -28t28 -11t27.5 11z" />
    <glyph glyph-name="ogonek" unicode="&#x2db;" horiz-adv-x="381" 
d="M169.5 -203.5q-40.5 36.5 -40.5 89.5q0 38 16 71.5t51 56.5t91 31h29v-45q-21 -4 -36 -17t-23.5 -32t-8.5 -43q0 -26 17 -39t35 -13q17 0 28 4.5t24 14.5l31 -83q-22 -14 -47 -23t-60 -9q-66 0 -106.5 36.5z" />
    <glyph glyph-name="tilde" unicode="&#x2dc;" horiz-adv-x="540" 
 />
    <glyph glyph-name="hungarumlaut" unicode="&#x2dd;" horiz-adv-x="556" 
d="M129 640l38 180h193l-84 -180h-147zM371 640l38 180h193l-84 -180h-147z" />
    <glyph glyph-name="gravecomb" unicode="&#x300;" horiz-adv-x="0" 
d="M-57 610l-127 200h175l81 -200h-129z" />
    <glyph glyph-name="acutecomb" unicode="&#x301;" horiz-adv-x="0" 
d="M6 810h178l-127 -200h-132z" />
    <glyph glyph-name="uni0302" unicode="&#x302;" horiz-adv-x="0" 
d="M-221 597l166 209h109l167 -209h-142l-79 95l-79 -95h-142z" />
    <glyph glyph-name="tildecomb" unicode="&#x303;" horiz-adv-x="0" 
d="M45 615.5q-23 9.5 -55 27.5q-23 13 -36.5 19t-26.5 6q-15 0 -21.5 -13.5t-6.5 -44.5h-101q0 92 29 133t77 41q29 0 53.5 -10.5t54.5 -28.5q19 -12 32.5 -18t25.5 -6q17 0 22.5 13.5t5.5 44.5h101q-1 -90 -29 -131.5t-75 -41.5q-27 0 -50 9.5z" />
    <glyph glyph-name="uni0304" unicode="&#x304;" horiz-adv-x="0" 
d="M129 660v120h340v-120h-340z" />
    <glyph glyph-name="uni0306" unicode="&#x306;" horiz-adv-x="0" 
d="M-139 660.5q-51 56.5 -55 149.5h117q3 -47 24.5 -71.5t53.5 -24.5q33 0 54.5 24.5t23.5 71.5h118q-3 -94 -53 -150t-143 -56q-89 0 -140 56.5z" />
    <glyph glyph-name="uni0307" unicode="&#x307;" horiz-adv-x="0" 
d="M129 640v150h150v-150h-150z" />
    <glyph glyph-name="uni0308" unicode="&#x308;" horiz-adv-x="0" 
d="M129 640v150h150v-150h-150zM359 640v150h150v-150h-150z" />
    <glyph glyph-name="hookabovecomb" unicode="&#x309;" horiz-adv-x="0" 
d="M129.5 680q-15.5 -19 -43.5 -38q-15 -9 -21.5 -15.5t-6.5 -14.5v-11h-119v26q0 16 10.5 27t32.5 25q18 12 27.5 21t9.5 21q0 16 -10 25.5t-28 9.5q-19 0 -34 -14t-32 -48l-91 46q22 58 66.5 85.5t102.5 27.5q68 0 110 -33.5t42 -86.5q0 -34 -15.5 -53z" />
    <glyph glyph-name="uni030A" unicode="&#x30a;" horiz-adv-x="0" 
d="M166 625.5q-37 35.5 -37 90.5q0 54 37 89t93 35t92.5 -35t36.5 -89q0 -55 -36.5 -90.5t-92.5 -35.5t-93 35.5zM286.5 688q10.5 11 10.5 28t-10.5 28t-27.5 11t-28 -11t-11 -28t11 -28t28 -11t27.5 11z" />
    <glyph glyph-name="uni030B" unicode="&#x30b;" horiz-adv-x="0" 
d="M129 640l38 180h193l-84 -180h-147zM371 640l38 180h193l-84 -180h-147z" />
    <glyph glyph-name="uni030C" unicode="&#x30c;" horiz-adv-x="0" 
d="M245 640l-116 170h144l62 -90l62 90h144l-117 -170h-179z" />
    <glyph glyph-name="uni030F" unicode="&#x30f;" horiz-adv-x="0" 
d="M233 640l-104 184h193l58 -184h-147zM475 640l-104 184h193l58 -184h-147z" />
    <glyph glyph-name="uni0311" unicode="&#x311;" horiz-adv-x="0" 
d="M129 640q2 41 24.5 80t69.5 64.5t121 25.5q75 0 121.5 -24.5t69.5 -63.5t24 -82h-147q-2 26 -19.5 40.5t-48.5 14.5q-30 0 -47.5 -14.5t-19.5 -40.5h-148z" />
    <glyph glyph-name="uni0312" unicode="&#x312;" horiz-adv-x="0" 
d="M129 600l75 193h142l-24 -193h-193z" />
    <glyph glyph-name="uni031B" unicode="&#x31b;" horiz-adv-x="0" 
 />
    <glyph glyph-name="dotbelowcomb" unicode="&#x323;" horiz-adv-x="0" 
d="M-71 -216v143h142v-143h-142z" />
    <glyph glyph-name="uni0324" unicode="&#x324;" horiz-adv-x="0" 
d="M129 -240v150h150v-150h-150zM359 -240v150h150v-150h-150z" />
    <glyph glyph-name="uni0326" unicode="&#x326;" horiz-adv-x="0" 
d="M129 -263l24 193h193l-75 -193h-142z" />
    <glyph glyph-name="uni0327" unicode="&#x327;" horiz-adv-x="0" 
d="M186.5 -232q-33.5 8 -57.5 24l31 83q15 -9 32.5 -14t33.5 -5q22 0 33.5 8.5t11.5 23.5q0 18 -24 29t-69 15l20 78h85l-8 -38q53 -5 84 -31t31 -65q0 -53 -39 -84.5t-105 -31.5q-26 0 -59.5 8z" />
    <glyph glyph-name="uni0328" unicode="&#x328;" horiz-adv-x="0" 
d="M169.5 -203.5q-40.5 36.5 -40.5 89.5q0 38 16 71.5t51 56.5t91 31h29v-45q-21 -4 -36 -17t-23.5 -32t-8.5 -43q0 -26 17 -39t35 -13q17 0 28 4.5t24 14.5l31 -83q-22 -14 -47 -23t-60 -9q-66 0 -106.5 36.5z" />
    <glyph glyph-name="uni032E" unicode="&#x32e;" horiz-adv-x="0" 
d="M223 -234.5q-47 25.5 -69.5 64.5t-24.5 80h148q2 -26 19.5 -40.5t47.5 -14.5q31 0 48.5 14.5t19.5 40.5h147q-1 -43 -24 -82t-69.5 -63.5t-121.5 -24.5q-74 0 -121 25.5z" />
    <glyph glyph-name="uni0331" unicode="&#x331;" horiz-adv-x="0" 
d="M129 -220v120h340v-120h-340z" />
    <glyph glyph-name="uni0394" unicode="&#x394;" horiz-adv-x="640" 
d="M11 0v135l206 610h206l206 -610v-135h-618zM462 135l-142 438l-143 -438h285z" />
    <glyph glyph-name="uni03A9" unicode="&#x3a9;" horiz-adv-x="878" 
d="M44 0v135h171l-32 -29q-64 46 -101.5 117t-37.5 150q0 82 29.5 152t83 122t125.5 81t157 29t157 -29t125.5 -81t83 -122t29.5 -152q0 -79 -37 -150t-102 -117l-32 29h171v-135h-319v135q49 15 85.5 49t57.5 82.5t21 106.5q0 54 -18 98.5t-51 77.5t-76.5 50.5t-94.5 17.5
t-94.5 -17.5t-76.5 -50.5t-51 -77.5t-18 -98.5q0 -58 21 -106.5t58 -82.5t85 -49v-135h-319z" />
    <glyph glyph-name="pi" unicode="&#x3c0;" horiz-adv-x="694" 
d="M108 0v416h-90v130h658v-130h-88v-416h-150v416h-180v-416h-150z" />
    <glyph glyph-name="uni0E3F" unicode="&#xe3f;" horiz-adv-x="690" 
d="M66 0v745h315q77 0 132 -26t84 -74.5t29 -117.5q0 -49 -27 -93.5t-89 -74.5v76q59 -23 91 -55t44 -69.5t12 -78.5q0 -110 -73 -171t-203 -61h-315zM221 135h178q47 0 75 27t28 70q0 44 -28 71t-75 27h-178v-195zM221 465h171q36 0 57.5 20.5t21.5 54.5t-21.5 54.5
t-57.5 20.5h-171v-150zM300 -100v945h90v-945h-90z" />
    <glyph glyph-name="uni1E08" unicode="&#x1e08;" horiz-adv-x="772" 
d="M271.5 17q-68.5 29 -119.5 81t-79.5 122t-28.5 153t28 153.5t79 122t119.5 80t149.5 28.5t145.5 -27t109.5 -72t64 -100l-137 -66q-19 54 -66.5 89.5t-115.5 35.5q-66 0 -116 -31t-77.5 -85.5t-27.5 -127.5t27.5 -128t77.5 -86t116 -31q68 0 115.5 35.5t66.5 89.5
l137 -66q-19 -55 -64 -100t-109.5 -72t-145.5 -27q-80 0 -148.5 29zM370.5 -232q-33.5 8 -57.5 24l31 83q15 -9 32.5 -14t33.5 -5q22 0 33.5 8.5t11.5 23.5q0 18 -24 29t-69 15l20 78h85l-8 -38q53 -5 84 -31t31 -65q0 -53 -39 -84.5t-105 -31.5q-26 0 -59.5 8z" />
    <glyph glyph-name="uni1E09" unicode="&#x1e09;" horiz-adv-x="611" 
d="M175.5 25.5q-65.5 37.5 -104 102.5t-38.5 146t38 145.5t104 101.5t148 37q61 0 113 -21t89 -58.5t53 -88.5l-130 -56q-14 41 -47.5 65t-77.5 24q-39 0 -69.5 -19t-48 -53t-17.5 -78t17.5 -78t48 -53t69.5 -19q45 0 78 24t47 65l130 -57q-15 -48 -52 -86t-89 -59.5
t-114 -21.5q-82 0 -147.5 37.5zM273.5 -232q-33.5 8 -57.5 24l31 83q15 -9 32.5 -14t33.5 -5q22 0 33.5 8.5t11.5 23.5q0 18 -24 29t-69 15l20 78h85l-8 -38q53 -5 84 -31t31 -65q0 -53 -39 -84.5t-105 -31.5q-26 0 -59.5 8z" />
    <glyph glyph-name="uni1E0C" unicode="&#x1e0c;" horiz-adv-x="739" 
d="M66 0v745h243q121 0 210 -48t138 -132t49 -192t-49 -192.5t-138 -132.5t-210 -48h-243zM221 135h92q73 0 126 29.5t82.5 83t29.5 125.5q0 73 -29.5 126t-82.5 82t-126 29h-92v-475z" />
    <glyph glyph-name="uni1E0D" unicode="&#x1e0d;" horiz-adv-x="673" 
d="M169 26q-63 38 -99.5 103t-36.5 144q0 80 37 144.5t100 102.5t141 38q60 0 106.5 -22.5t73.5 -63.5l-23 -30v315h150v-757h-140v100l14 -31q-28 -40 -76 -60.5t-104 -20.5q-80 0 -143 38zM402 142q31 19 48.5 53t17.5 78t-17.5 78t-48.5 53t-72 19t-73.5 -19.5t-50.5 -53
t-18 -77.5t18 -78t50.5 -53t73.5 -19t72 19z" />
    <glyph glyph-name="uni1E0E" unicode="&#x1e0e;" horiz-adv-x="739" 
d="M66 0v745h243q121 0 210 -48t138 -132t49 -192t-49 -192.5t-138 -132.5t-210 -48h-243zM221 135h92q73 0 126 29.5t82.5 83t29.5 125.5q0 73 -29.5 126t-82.5 82t-126 29h-92v-475zM205 -220v120h340v-120h-340z" />
    <glyph glyph-name="uni1E0F" unicode="&#x1e0f;" horiz-adv-x="673" 
d="M169 26q-63 38 -99.5 103t-36.5 144q0 80 37 144.5t100 102.5t141 38q60 0 106.5 -22.5t73.5 -63.5l-23 -30v315h150v-757h-140v100l14 -31q-28 -40 -76 -60.5t-104 -20.5q-80 0 -143 38zM402 142q31 19 48.5 53t17.5 78t-17.5 78t-48.5 53t-72 19t-73.5 -19.5t-50.5 -53
t-18 -77.5t18 -78t50.5 -53t73.5 -19t72 19zM167 -220v120h340v-120h-340z" />
    <glyph glyph-name="uni1E14" unicode="&#x1e14;" horiz-adv-x="589" 
d="M66 0v745h501v-135h-346v-169h326v-135h-326v-171h346v-135h-501zM152 869v120h340v-120h-340zM249 1049l-104 180h193l58 -180h-147z" />
    <glyph glyph-name="uni1E15" unicode="&#x1e15;" horiz-adv-x="611" 
d="M167 26.5q-64 38.5 -99 103.5t-35 144q0 82 36.5 146t98.5 101t140 37q65 0 115 -20.5t84.5 -57.5t52.5 -85.5t18 -105.5q0 -16 -1.5 -31.5t-5.5 -26.5h-409v110h324l-71 -52q10 43 -1 76.5t-38.5 53t-67.5 19.5q-39 0 -67 -19t-42 -56t-11 -90q-4 -46 11 -81t46 -54.5
t75 -19.5q40 0 68.5 16t44.5 44l120 -57q-16 -40 -50.5 -70t-81.5 -46.5t-103 -16.5q-87 0 -151 38.5zM139 660v120h340v-120h-340zM236 840l-104 180h193l58 -180h-147z" />
    <glyph glyph-name="uni1E16" unicode="&#x1e16;" horiz-adv-x="589" 
d="M66 0v745h501v-135h-346v-169h326v-135h-326v-171h346v-135h-501zM241 1049l58 180h193l-104 -180h-147zM145 869v120h340v-120h-340z" />
    <glyph glyph-name="uni1E17" unicode="&#x1e17;" horiz-adv-x="611" 
d="M167 26.5q-64 38.5 -99 103.5t-35 144q0 82 36.5 146t98.5 101t140 37q65 0 115 -20.5t84.5 -57.5t52.5 -85.5t18 -105.5q0 -16 -1.5 -31.5t-5.5 -26.5h-409v110h324l-71 -52q10 43 -1 76.5t-38.5 53t-67.5 19.5q-39 0 -67 -19t-42 -56t-11 -90q-4 -46 11 -81t46 -54.5
t75 -19.5q40 0 68.5 16t44.5 44l120 -57q-16 -40 -50.5 -70t-81.5 -46.5t-103 -16.5q-87 0 -151 38.5zM228 840l58 180h193l-104 -180h-147zM132 660v120h340v-120h-340z" />
    <glyph glyph-name="uni1E1C" unicode="&#x1e1c;" horiz-adv-x="589" 
d="M66 0v745h501v-135h-346v-169h326v-135h-326v-171h346v-135h-501zM251.5 -232q-33.5 8 -57.5 24l31 83q15 -9 32.5 -14t33.5 -5q22 0 33.5 8.5t11.5 23.5q0 18 -24 29t-69 15l20 78h85l-8 -38q53 -5 84 -31t31 -65q0 -53 -39 -84.5t-105 -31.5q-26 0 -59.5 8z" />
    <glyph glyph-name="uni1E1D" unicode="&#x1e1d;" horiz-adv-x="611" 
d="M167 26.5q-64 38.5 -99 103.5t-35 144q0 82 36.5 146t98.5 101t140 37q65 0 115 -20.5t84.5 -57.5t52.5 -85.5t18 -105.5q0 -16 -1.5 -31.5t-5.5 -26.5h-409v110h324l-71 -52q10 43 -1 76.5t-38.5 53t-67.5 19.5q-39 0 -67 -19t-42 -56t-11 -90q-4 -46 11 -81t46 -54.5
t75 -19.5q40 0 68.5 16t44.5 44l120 -57q-16 -40 -50.5 -70t-81.5 -46.5t-103 -16.5q-87 0 -151 38.5zM232.5 -232q-33.5 8 -57.5 24l31 83q15 -9 32.5 -14t33.5 -5q22 0 33.5 8.5t11.5 23.5q0 18 -24 29t-69 15l20 78h85l-8 -38q53 -5 84 -31t31 -65q0 -53 -39 -84.5
t-105 -31.5q-26 0 -59.5 8z" />
    <glyph glyph-name="uni1E20" unicode="&#x1e20;" horiz-adv-x="804" 
d="M275 17q-69 29 -121 81t-81 122t-29 153t28 153.5t79 122t119.5 80t149.5 28.5t145.5 -27t109.5 -72t64 -100l-137 -66q-19 54 -66.5 89.5t-115.5 35.5q-66 0 -116 -31t-77.5 -85.5t-27.5 -127.5t29 -128t79.5 -86t116.5 -31q51 0 95.5 19.5t72 56.5t27.5 89v62l71 -60
h-270v130h354v-79q0 -91 -30 -158.5t-80.5 -112t-113 -66t-126.5 -21.5q-80 0 -149 29zM232 859v120h340v-120h-340z" />
    <glyph glyph-name="uni1E21" unicode="&#x1e21;" horiz-adv-x="648" 
d="M206 -199q-54 21 -92.5 58.5t-55.5 88.5l139 49q11 -38 45 -60t81 -22q37 0 64 13.5t41.5 39.5t14.5 61v125l29 -36q-28 -46 -72 -68.5t-103 -22.5q-76 0 -136 34.5t-94 95t-34 137.5t34 136.5t93 93.5t134 34q59 0 103 -23.5t75 -71.5l-19 -36v119h140v-517
q0 -72 -35 -128.5t-95.5 -88.5t-139.5 -32q-63 0 -117 21zM384 179q28 16 43.5 45t15.5 68t-16 68.5t-44 46t-65 16.5q-38 0 -67.5 -16.5t-46 -46t-16.5 -68.5q0 -38 16.5 -67t46 -45.5t67.5 -16.5t66 16zM154 660v120h340v-120h-340z" />
    <glyph glyph-name="uni1E24" unicode="&#x1e24;" horiz-adv-x="732" 
d="M66 0v745h155v-322h290v322h155v-745h-155v288h-290v-288h-155z" />
    <glyph glyph-name="uni1E25" unicode="&#x1e25;" 
d="M55 0v757h150v-319l-18 24q19 49 61.5 72.5t99.5 23.5q62 0 108.5 -26t72.5 -72.5t26 -108.5v-351h-150v319q0 32 -12.5 55t-35 36t-52.5 13q-29 0 -52 -13t-35.5 -36t-12.5 -55v-319h-150z" />
    <glyph glyph-name="uni1E2A" unicode="&#x1e2a;" horiz-adv-x="732" 
d="M66 0v745h155v-322h290v322h155v-745h-155v288h-290v-288h-155zM245 -234.5q-47 25.5 -69.5 64.5t-24.5 80h148q2 -26 19.5 -40.5t47.5 -14.5q31 0 48.5 14.5t19.5 40.5h147q-1 -43 -24 -82t-69.5 -63.5t-121.5 -24.5q-74 0 -121 25.5z" />
    <glyph glyph-name="uni1E2B" unicode="&#x1e2b;" 
d="M55 0v757h150v-319l-18 24q19 49 61.5 72.5t99.5 23.5q62 0 108.5 -26t72.5 -72.5t26 -108.5v-351h-150v319q0 32 -12.5 55t-35 36t-52.5 13q-29 0 -52 -13t-35.5 -36t-12.5 -55v-319h-150zM179 -234.5q-47 25.5 -69.5 64.5t-24.5 80h148q2 -26 19.5 -40.5t47.5 -14.5
q31 0 48.5 14.5t19.5 40.5h147q-1 -43 -24 -82t-69.5 -63.5t-121.5 -24.5q-74 0 -121 25.5z" />
    <glyph glyph-name="uni1E2E" unicode="&#x1e2e;" horiz-adv-x="287" 
d="M66 0v745h155v-745h-155zM72 1049l58 180h193l-104 -180h-147zM-46 849v150h150v-150h-150zM184 849v150h150v-150h-150z" />
    <glyph glyph-name="uni1E2F" unicode="&#x1e2f;" horiz-adv-x="238" 
d="M44 0v546h150v-546h-150zM47 840l58 180h193l-104 -180h-147zM-71 640v150h150v-150h-150zM159 640v150h150v-150h-150z" />
    <glyph glyph-name="uni1E36" unicode="&#x1e36;" horiz-adv-x="547" 
d="M66 0v745h155v-610h315v-135h-470z" />
    <glyph glyph-name="uni1E37" unicode="&#x1e37;" horiz-adv-x="260" 
d="M55 0v757h150v-757h-150z" />
    <glyph glyph-name="uni1E3A" unicode="&#x1e3a;" horiz-adv-x="547" 
d="M66 0v745h155v-610h315v-135h-470zM131 -220v120h340v-120h-340z" />
    <glyph glyph-name="uni1E3B" unicode="&#x1e3b;" horiz-adv-x="260" 
d="M55 0v757h150v-757h-150zM-40 -220v120h340v-120h-340z" />
    <glyph glyph-name="uni1E42" unicode="&#x1e42;" horiz-adv-x="912" 
d="M66 0v745h150l243 -323l237 323h150v-745h-155v480l-225 -290h-20l-225 301v-491h-155z" />
    <glyph glyph-name="uni1E43" unicode="&#x1e43;" horiz-adv-x="929" 
d="M55 0v546h140v-133l-15 22q12 63 58 93t110 30q68 0 119.5 -34.5t64.5 -92.5l-43 -4q27 67 77 99t117 32q59 0 104.5 -26t71.5 -72.5t26 -108.5v-351h-150v319q0 32 -11.5 55t-32.5 36t-51 13q-29 0 -50.5 -13t-33 -36t-11.5 -55v-319h-150v319q0 32 -11.5 55t-32.5 36
t-51 13q-29 0 -50.5 -13t-33 -36t-11.5 -55v-319h-150z" />
    <glyph glyph-name="uni1E44" unicode="&#x1e44;" horiz-adv-x="742" 
d="M66 0v745h119l336 -443v443h155v-745h-120l-335 453v-453h-155zM296 839v150h150v-150h-150z" />
    <glyph glyph-name="uni1E45" unicode="&#x1e45;" 
d="M55 0v546h140v-108l-8 24q19 49 61.5 72.5t99.5 23.5q62 0 108.5 -26t72.5 -72.5t26 -108.5v-351h-150v319q0 32 -12.5 55t-35 36t-52.5 13q-29 0 -52 -13t-35.5 -36t-12.5 -55v-319h-150zM225 640v150h150v-150h-150z" />
    <glyph glyph-name="uni1E46" unicode="&#x1e46;" horiz-adv-x="742" 
d="M66 0v745h119l336 -443v443h155v-745h-120l-335 453v-453h-155z" />
    <glyph glyph-name="uni1E47" unicode="&#x1e47;" 
d="M55 0v546h140v-108l-8 24q19 49 61.5 72.5t99.5 23.5q62 0 108.5 -26t72.5 -72.5t26 -108.5v-351h-150v319q0 32 -12.5 55t-35 36t-52.5 13q-29 0 -52 -13t-35.5 -36t-12.5 -55v-319h-150z" />
    <glyph glyph-name="uni1E48" unicode="&#x1e48;" horiz-adv-x="742" 
d="M66 0v745h119l336 -443v443h155v-745h-120l-335 453v-453h-155zM201 -220v120h340v-120h-340z" />
    <glyph glyph-name="uni1E49" unicode="&#x1e49;" 
d="M55 0v546h140v-108l-8 24q19 49 61.5 72.5t99.5 23.5q62 0 108.5 -26t72.5 -72.5t26 -108.5v-351h-150v319q0 32 -12.5 55t-35 36t-52.5 13q-29 0 -52 -13t-35.5 -36t-12.5 -55v-319h-150zM130 -220v120h340v-120h-340z" />
    <glyph glyph-name="uni1E4C" unicode="&#x1e4c;" horiz-adv-x="878" 
d="M283 17q-72 29 -125.5 81.5t-83.5 122.5t-30 152t29.5 152t83 122t125.5 81t157 29t157 -29t125.5 -81t83 -122t29.5 -152t-30 -152t-83.5 -122.5t-125.5 -81.5t-156 -29t-156 29zM533.5 146q43.5 18 76.5 50.5t51 77.5t18 99t-18 98.5t-51 77.5t-76.5 50.5t-94.5 17.5
t-94.5 -17.5t-76.5 -50.5t-51 -77.5t-18 -98.5t18 -99t51 -77.5t76.5 -50.5t94.5 -18t94.5 18zM469 857q-19 8 -33 18t-27.5 18t-30.5 8t-25.5 -12.5t-8.5 -35.5h-115q0 87 39.5 126.5t92.5 39.5q29 0 48.5 -7.5t34.5 -18t28 -18t28 -7.5q20 0 27 12.5t7 34.5h115
q-1 -84 -40.5 -125t-92.5 -41q-28 0 -47 8zM365 1049l58 180h193l-104 -180h-147z" />
    <glyph glyph-name="uni1E4D" unicode="&#x1e4d;" horiz-adv-x="651" 
d="M178.5 25q-66.5 37 -106 101.5t-39.5 146.5q0 83 39.5 147t106 101t147.5 37t147 -37t105.5 -101t39.5 -147q0 -82 -39.5 -146.5t-105.5 -101.5t-147 -37t-147.5 37zM397.5 142q30.5 19 48 53t17.5 78t-17.5 77.5t-48 53t-71.5 19.5t-72 -19.5t-48.5 -53t-17.5 -77.5
t17.5 -78t48.5 -53t72 -19t71.5 19zM356 648q-19 8 -33 18t-27.5 18t-30.5 8t-25.5 -12.5t-8.5 -35.5h-115q0 87 39.5 126.5t92.5 39.5q29 0 48.5 -7.5t34.5 -18t28 -18t28 -7.5q20 0 27 12.5t7 34.5h115q-1 -84 -40.5 -125t-92.5 -41q-28 0 -47 8zM252 840l58 180h193
l-104 -180h-147z" />
    <glyph glyph-name="uni1E4E" unicode="&#x1e4e;" horiz-adv-x="878" 
d="M283 17q-72 29 -125.5 81.5t-83.5 122.5t-30 152t29.5 152t83 122t125.5 81t157 29t157 -29t125.5 -81t83 -122t29.5 -152t-30 -152t-83.5 -122.5t-125.5 -81.5t-156 -29t-156 29zM533.5 146q43.5 18 76.5 50.5t51 77.5t18 99t-18 98.5t-51 77.5t-76.5 50.5t-94.5 17.5
t-94.5 -17.5t-76.5 -50.5t-51 -77.5t-18 -98.5t18 -99t51 -77.5t76.5 -50.5t94.5 -18t94.5 18zM469 857q-19 8 -33 18t-27.5 18t-30.5 8t-25.5 -12.5t-8.5 -35.5h-115q0 87 39.5 126.5t92.5 39.5q29 0 48.5 -7.5t34.5 -18t28 -18t28 -7.5q20 0 27 12.5t7 34.5h115
q-1 -84 -40.5 -125t-92.5 -41q-28 0 -47 8zM249 1049v150h150v-150h-150zM479 1049v150h150v-150h-150z" />
    <glyph glyph-name="uni1E4F" unicode="&#x1e4f;" horiz-adv-x="651" 
d="M178.5 25q-66.5 37 -106 101.5t-39.5 146.5q0 83 39.5 147t106 101t147.5 37t147 -37t105.5 -101t39.5 -147q0 -82 -39.5 -146.5t-105.5 -101.5t-147 -37t-147.5 37zM397.5 142q30.5 19 48 53t17.5 78t-17.5 77.5t-48 53t-71.5 19.5t-72 -19.5t-48.5 -53t-17.5 -77.5
t17.5 -78t48.5 -53t72 -19t71.5 19zM356 648q-19 8 -33 18t-27.5 18t-30.5 8t-25.5 -12.5t-8.5 -35.5h-115q0 87 39.5 126.5t92.5 39.5q29 0 48.5 -7.5t34.5 -18t28 -18t28 -7.5q20 0 27 12.5t7 34.5h115q-1 -84 -40.5 -125t-92.5 -41q-28 0 -47 8zM136 840v150h150v-150
h-150zM366 840v150h150v-150h-150z" />
    <glyph glyph-name="uni1E50" unicode="&#x1e50;" horiz-adv-x="878" 
d="M283 17q-72 29 -125.5 81.5t-83.5 122.5t-30 152t29.5 152t83 122t125.5 81t157 29t157 -29t125.5 -81t83 -122t29.5 -152t-30 -152t-83.5 -122.5t-125.5 -81.5t-156 -29t-156 29zM533.5 146q43.5 18 76.5 50.5t51 77.5t18 99t-18 98.5t-51 77.5t-76.5 50.5t-94.5 17.5
t-94.5 -17.5t-76.5 -50.5t-51 -77.5t-18 -98.5t18 -99t51 -77.5t76.5 -50.5t94.5 -18t94.5 18zM272 869v120h340v-120h-340zM369 1049l-104 180h193l58 -180h-147z" />
    <glyph glyph-name="uni1E51" unicode="&#x1e51;" horiz-adv-x="651" 
d="M178.5 25q-66.5 37 -106 101.5t-39.5 146.5q0 83 39.5 147t106 101t147.5 37t147 -37t105.5 -101t39.5 -147q0 -82 -39.5 -146.5t-105.5 -101.5t-147 -37t-147.5 37zM397.5 142q30.5 19 48 53t17.5 78t-17.5 77.5t-48 53t-71.5 19.5t-72 -19.5t-48.5 -53t-17.5 -77.5
t17.5 -78t48.5 -53t72 -19t71.5 19zM159 660v120h340v-120h-340zM256 840l-104 180h193l58 -180h-147z" />
    <glyph glyph-name="uni1E52" unicode="&#x1e52;" horiz-adv-x="878" 
d="M283 17q-72 29 -125.5 81.5t-83.5 122.5t-30 152t29.5 152t83 122t125.5 81t157 29t157 -29t125.5 -81t83 -122t29.5 -152t-30 -152t-83.5 -122.5t-125.5 -81.5t-156 -29t-156 29zM533.5 146q43.5 18 76.5 50.5t51 77.5t18 99t-18 98.5t-51 77.5t-76.5 50.5t-94.5 17.5
t-94.5 -17.5t-76.5 -50.5t-51 -77.5t-18 -98.5t18 -99t51 -77.5t76.5 -50.5t94.5 -18t94.5 18zM361 1049l58 180h193l-104 -180h-147zM265 869v120h340v-120h-340z" />
    <glyph glyph-name="uni1E53" unicode="&#x1e53;" horiz-adv-x="651" 
d="M178.5 25q-66.5 37 -106 101.5t-39.5 146.5q0 83 39.5 147t106 101t147.5 37t147 -37t105.5 -101t39.5 -147q0 -82 -39.5 -146.5t-105.5 -101.5t-147 -37t-147.5 37zM397.5 142q30.5 19 48 53t17.5 78t-17.5 77.5t-48 53t-71.5 19.5t-72 -19.5t-48.5 -53t-17.5 -77.5
t17.5 -78t48.5 -53t72 -19t71.5 19zM248 840l58 180h193l-104 -180h-147zM152 660v120h340v-120h-340z" />
    <glyph glyph-name="uni1E5A" unicode="&#x1e5a;" horiz-adv-x="667" 
d="M66 0v745h285q77 0 136.5 -27t93.5 -80t34 -131q0 -76 -35 -129.5t-94 -80.5l170 -297h-174l-184 329l100 -59h-177v-270h-155zM221 405h131q33 0 57 13t37.5 36t13.5 53q0 31 -13.5 54t-37.5 36t-57 13h-131v-205z" />
    <glyph glyph-name="uni1E5B" unicode="&#x1e5b;" horiz-adv-x="386" 
d="M55 0v546h140v-131l-10 19q18 69 59.5 93.5t98.5 24.5h32v-130h-47q-55 0 -89 -33.5t-34 -94.5v-294h-150z" />
    <glyph glyph-name="uni1E5E" unicode="&#x1e5e;" horiz-adv-x="667" 
d="M66 0v745h285q77 0 136.5 -27t93.5 -80t34 -131q0 -76 -35 -129.5t-94 -80.5l170 -297h-174l-184 329l100 -59h-177v-270h-155zM221 405h131q33 0 57 13t37.5 36t13.5 53q0 31 -13.5 54t-37.5 36t-57 13h-131v-205zM164 -220v120h340v-120h-340z" />
    <glyph glyph-name="uni1E5F" unicode="&#x1e5f;" horiz-adv-x="386" 
d="M55 0v546h140v-131l-10 19q18 69 59.5 93.5t98.5 24.5h32v-130h-47q-55 0 -89 -33.5t-34 -94.5v-294h-150zM-40 -220v120h340v-120h-340z" />
    <glyph glyph-name="uni1E60" unicode="&#x1e60;" horiz-adv-x="647" 
d="M205.5 13.5q-61.5 25.5 -106 72.5t-66.5 111l127 57q28 -61 77.5 -96t109.5 -35q32 0 55 10t36 27.5t13 41.5q0 26 -16 44.5t-50 29.5l-146 48q-89 29 -134 82.5t-45 128.5q0 66 32.5 116t91 78t134.5 28q67 0 124 -23t98.5 -65t62.5 -101l-126 -57q-21 52 -63 81.5
t-96 29.5q-31 0 -55 -10t-37 -28.5t-13 -42.5q0 -26 17 -45.5t51 -30.5l143 -46q90 -29 134.5 -81t44.5 -127q0 -65 -34 -115.5t-93.5 -79t-138.5 -28.5q-70 0 -131.5 25.5zM243 839v150h150v-150h-150z" />
    <glyph glyph-name="uni1E61" unicode="&#x1e61;" horiz-adv-x="515" 
d="M112.5 30.5q-66.5 42.5 -90.5 114.5l110 52q21 -44 57 -69t80 -25q32 0 49 13t17 36q0 12 -6 20.5t-18 15.5t-30 12l-93 26q-67 19 -103 61.5t-36 100.5q0 51 26 89t73 59.5t108 21.5q80 0 140.5 -37.5t85.5 -105.5l-111 -52q-12 34 -43.5 54.5t-71.5 20.5
q-29 0 -45.5 -12t-16.5 -33q0 -11 6 -20t19.5 -16t33.5 -13l87 -26q68 -20 104 -60.5t36 -99.5q0 -51 -26.5 -89t-73.5 -59.5t-111 -21.5q-90 0 -156.5 42.5zM183 640v150h150v-150h-150z" />
    <glyph glyph-name="uni1E62" unicode="&#x1e62;" horiz-adv-x="647" 
d="M205.5 13.5q-61.5 25.5 -106 72.5t-66.5 111l127 57q28 -61 77.5 -96t109.5 -35q32 0 55 10t36 27.5t13 41.5q0 26 -16 44.5t-50 29.5l-146 48q-89 29 -134 82.5t-45 128.5q0 66 32.5 116t91 78t134.5 28q67 0 124 -23t98.5 -65t62.5 -101l-126 -57q-21 52 -63 81.5
t-96 29.5q-31 0 -55 -10t-37 -28.5t-13 -42.5q0 -26 17 -45.5t51 -30.5l143 -46q90 -29 134.5 -81t44.5 -127q0 -65 -34 -115.5t-93.5 -79t-138.5 -28.5q-70 0 -131.5 25.5z" />
    <glyph glyph-name="uni1E63" unicode="&#x1e63;" horiz-adv-x="515" 
d="M112.5 30.5q-66.5 42.5 -90.5 114.5l110 52q21 -44 57 -69t80 -25q32 0 49 13t17 36q0 12 -6 20.5t-18 15.5t-30 12l-93 26q-67 19 -103 61.5t-36 100.5q0 51 26 89t73 59.5t108 21.5q80 0 140.5 -37.5t85.5 -105.5l-111 -52q-12 34 -43.5 54.5t-71.5 20.5
q-29 0 -45.5 -12t-16.5 -33q0 -11 6 -20t19.5 -16t33.5 -13l87 -26q68 -20 104 -60.5t36 -99.5q0 -51 -26.5 -89t-73.5 -59.5t-111 -21.5q-90 0 -156.5 42.5z" />
    <glyph glyph-name="uni1E64" unicode="&#x1e64;" horiz-adv-x="647" 
d="M205.5 13.5q-61.5 25.5 -106 72.5t-66.5 111l127 57q28 -61 77.5 -96t109.5 -35q32 0 55 10t36 27.5t13 41.5q0 26 -16 44.5t-50 29.5l-146 48q-89 29 -134 82.5t-45 128.5q0 66 32.5 116t91 78t134.5 28q67 0 124 -23t98.5 -65t62.5 -101l-126 -57q-21 52 -63 81.5
t-96 29.5q-31 0 -55 -10t-37 -28.5t-13 -42.5q0 -26 17 -45.5t51 -30.5l143 -46q90 -29 134.5 -81t44.5 -127q0 -65 -34 -115.5t-93.5 -79t-138.5 -28.5q-70 0 -131.5 25.5zM234 839l58 150h213l-104 -150h-167zM81 949v150h150v-150h-150z" />
    <glyph glyph-name="uni1E65" unicode="&#x1e65;" horiz-adv-x="515" 
d="M112.5 30.5q-66.5 42.5 -90.5 114.5l110 52q21 -44 57 -69t80 -25q32 0 49 13t17 36q0 12 -6 20.5t-18 15.5t-30 12l-93 26q-67 19 -103 61.5t-36 100.5q0 51 26 89t73 59.5t108 21.5q80 0 140.5 -37.5t85.5 -105.5l-111 -52q-12 34 -43.5 54.5t-71.5 20.5
q-29 0 -45.5 -12t-16.5 -33q0 -11 6 -20t19.5 -16t33.5 -13l87 -26q68 -20 104 -60.5t36 -99.5q0 -51 -26.5 -89t-73.5 -59.5t-111 -21.5q-90 0 -156.5 42.5zM174 640l58 150h213l-104 -150h-167zM21 750v150h150v-150h-150z" />
    <glyph glyph-name="uni1E66" unicode="&#x1e66;" horiz-adv-x="647" 
d="M205.5 13.5q-61.5 25.5 -106 72.5t-66.5 111l127 57q28 -61 77.5 -96t109.5 -35q32 0 55 10t36 27.5t13 41.5q0 26 -16 44.5t-50 29.5l-146 48q-89 29 -134 82.5t-45 128.5q0 66 32.5 116t91 78t134.5 28q67 0 124 -23t98.5 -65t62.5 -101l-126 -57q-21 52 -63 81.5
t-96 29.5q-31 0 -55 -10t-37 -28.5t-13 -42.5q0 -26 17 -45.5t51 -30.5l143 -46q90 -29 134.5 -81t44.5 -127q0 -65 -34 -115.5t-93.5 -79t-138.5 -28.5q-70 0 -131.5 25.5zM228 839l-116 160h144l62 -80l62 80h144l-117 -160h-179zM243 1039v150h150v-150h-150z" />
    <glyph glyph-name="uni1E67" unicode="&#x1e67;" horiz-adv-x="515" 
d="M112.5 30.5q-66.5 42.5 -90.5 114.5l110 52q21 -44 57 -69t80 -25q32 0 49 13t17 36q0 12 -6 20.5t-18 15.5t-30 12l-93 26q-67 19 -103 61.5t-36 100.5q0 51 26 89t73 59.5t108 21.5q80 0 140.5 -37.5t85.5 -105.5l-111 -52q-12 34 -43.5 54.5t-71.5 20.5
q-29 0 -45.5 -12t-16.5 -33q0 -11 6 -20t19.5 -16t33.5 -13l87 -26q68 -20 104 -60.5t36 -99.5q0 -51 -26.5 -89t-73.5 -59.5t-111 -21.5q-90 0 -156.5 42.5zM168 640l-116 160h144l62 -80l62 80h144l-117 -160h-179zM183 840v150h150v-150h-150z" />
    <glyph glyph-name="uni1E68" unicode="&#x1e68;" horiz-adv-x="647" 
d="M205.5 13.5q-61.5 25.5 -106 72.5t-66.5 111l127 57q28 -61 77.5 -96t109.5 -35q32 0 55 10t36 27.5t13 41.5q0 26 -16 44.5t-50 29.5l-146 48q-89 29 -134 82.5t-45 128.5q0 66 32.5 116t91 78t134.5 28q67 0 124 -23t98.5 -65t62.5 -101l-126 -57q-21 52 -63 81.5
t-96 29.5q-31 0 -55 -10t-37 -28.5t-13 -42.5q0 -26 17 -45.5t51 -30.5l143 -46q90 -29 134.5 -81t44.5 -127q0 -65 -34 -115.5t-93.5 -79t-138.5 -28.5q-70 0 -131.5 25.5zM243 839v150h150v-150h-150z" />
    <glyph glyph-name="uni1E69" unicode="&#x1e69;" horiz-adv-x="515" 
d="M112.5 30.5q-66.5 42.5 -90.5 114.5l110 52q21 -44 57 -69t80 -25q32 0 49 13t17 36q0 12 -6 20.5t-18 15.5t-30 12l-93 26q-67 19 -103 61.5t-36 100.5q0 51 26 89t73 59.5t108 21.5q80 0 140.5 -37.5t85.5 -105.5l-111 -52q-12 34 -43.5 54.5t-71.5 20.5
q-29 0 -45.5 -12t-16.5 -33q0 -11 6 -20t19.5 -16t33.5 -13l87 -26q68 -20 104 -60.5t36 -99.5q0 -51 -26.5 -89t-73.5 -59.5t-111 -21.5q-90 0 -156.5 42.5zM183 640v150h150v-150h-150z" />
    <glyph glyph-name="uni1E6C" unicode="&#x1e6c;" horiz-adv-x="552" 
d="M200 0v610h-189v135h530v-135h-186v-610h-155z" />
    <glyph glyph-name="uni1E6D" unicode="&#x1e6d;" horiz-adv-x="421" 
d="M164.5 47.5q-54.5 53.5 -54.5 149.5v219h-92v130h5q42 0 64.5 21t22.5 63v40h150v-124h128v-130h-128v-209q0 -28 10 -46.5t31 -27.5t52 -9q7 0 16 1t19 2v-127q-15 -2 -34 -4t-36 -2q-99 0 -153.5 53.5z" />
    <glyph glyph-name="uni1E6E" unicode="&#x1e6e;" horiz-adv-x="552" 
d="M200 0v610h-189v135h530v-135h-186v-610h-155zM106 -220v120h340v-120h-340z" />
    <glyph glyph-name="uni1E6F" unicode="&#x1e6f;" horiz-adv-x="421" 
d="M164.5 47.5q-54.5 53.5 -54.5 149.5v219h-92v130h5q42 0 64.5 21t22.5 63v40h150v-124h128v-130h-128v-209q0 -28 10 -46.5t31 -27.5t52 -9q7 0 16 1t19 2v-127q-15 -2 -34 -4t-36 -2q-99 0 -153.5 53.5zM141 -220v120h340v-120h-340z" />
    <glyph glyph-name="uni1E78" unicode="&#x1e78;" horiz-adv-x="724" 
d="M205 25q-69 37 -108.5 101.5t-39.5 146.5v472h155v-462q0 -44 19.5 -79.5t53.5 -55.5t77 -20q44 0 77.5 20t53 55.5t19.5 79.5v462h155v-472q0 -82 -39.5 -146.5t-108.5 -101.5t-157 -37t-157 37zM392 847q-19 8 -33 18t-27.5 18t-30.5 8t-25.5 -12.5t-8.5 -35.5h-115
q0 87 39.5 126.5t92.5 39.5q29 0 48.5 -7.5t34.5 -18t28 -18t28 -7.5q20 0 27 12.5t7 34.5h115q-1 -84 -40.5 -125t-92.5 -41q-28 0 -47 8zM288 1039l58 180h193l-104 -180h-147z" />
    <glyph glyph-name="uni1E79" unicode="&#x1e79;" 
d="M138.5 16.5q-46.5 28.5 -70.5 79.5t-24 119v331h150v-319q0 -31 12.5 -54.5t35.5 -36.5t52 -13q30 0 52.5 13t35 36.5t12.5 54.5v319h150v-546h-140v108l8 -24q-19 -49 -61.5 -72.5t-99.5 -23.5q-66 0 -112.5 28.5zM320 638q-19 8 -33 18t-27.5 18t-30.5 8t-25.5 -12.5
t-8.5 -35.5h-115q0 87 39.5 126.5t92.5 39.5q29 0 48.5 -7.5t34.5 -18t28 -18t28 -7.5q20 0 27 12.5t7 34.5h115q-1 -84 -40.5 -125t-92.5 -41q-28 0 -47 8zM216 830l58 180h193l-104 -180h-147z" />
    <glyph glyph-name="uni1E7A" unicode="&#x1e7a;" horiz-adv-x="724" 
d="M205 25q-69 37 -108.5 101.5t-39.5 146.5v472h155v-462q0 -44 19.5 -79.5t53.5 -55.5t77 -20q44 0 77.5 20t53 55.5t19.5 79.5v462h155v-472q0 -82 -39.5 -146.5t-108.5 -101.5t-157 -37t-157 37zM192 859v120h340v-120h-340zM172 1039v150h150v-150h-150zM402 1039v150
h150v-150h-150z" />
    <glyph glyph-name="uni1E7B" unicode="&#x1e7b;" 
d="M138.5 16.5q-46.5 28.5 -70.5 79.5t-24 119v331h150v-319q0 -31 12.5 -54.5t35.5 -36.5t52 -13q30 0 52.5 13t35 36.5t12.5 54.5v319h150v-546h-140v108l8 -24q-19 -49 -61.5 -72.5t-99.5 -23.5q-66 0 -112.5 28.5zM120 650v120h340v-120h-340zM100 830v150h150v-150
h-150zM330 830v150h150v-150h-150z" />
    <glyph glyph-name="Wgrave" unicode="&#x1e80;" horiz-adv-x="1032" 
d="M206 0l-195 745h168l125 -531l132 531h160l132 -531l125 531h168l-195 -745h-180l-130 500l-130 -500h-180z" />
    <glyph glyph-name="wgrave" unicode="&#x1e81;" horiz-adv-x="912" 
d="M199 0l-188 546h155l106 -317l119 317h130l118 -317l106 317h156l-189 -546h-130l-126 350l-127 -350h-130z" />
    <glyph glyph-name="Wacute" unicode="&#x1e82;" horiz-adv-x="1032" 
d="M206 0l-195 745h168l125 -531l132 531h160l132 -531l125 531h168l-195 -745h-180l-130 500l-130 -500h-180z" />
    <glyph glyph-name="wacute" unicode="&#x1e83;" horiz-adv-x="912" 
d="M199 0l-188 546h155l106 -317l119 317h130l118 -317l106 317h156l-189 -546h-130l-126 350l-127 -350h-130z" />
    <glyph glyph-name="Wdieresis" unicode="&#x1e84;" horiz-adv-x="1032" 
d="M206 0l-195 745h168l125 -531l132 531h160l132 -531l125 531h168l-195 -745h-180l-130 500l-130 -500h-180zM326 839v150h150v-150h-150zM556 839v150h150v-150h-150z" />
    <glyph glyph-name="wdieresis" unicode="&#x1e85;" horiz-adv-x="912" 
d="M199 0l-188 546h155l106 -317l119 317h130l118 -317l106 317h156l-189 -546h-130l-126 350l-127 -350h-130zM266 640v150h150v-150h-150zM496 640v150h150v-150h-150z" />
    <glyph glyph-name="uni1E8E" unicode="&#x1e8e;" horiz-adv-x="672" 
d="M259 0v325l-248 420h177l148 -261l148 261h177l-247 -419v-326h-155zM261 839v150h150v-150h-150z" />
    <glyph glyph-name="uni1E8F" unicode="&#x1e8f;" horiz-adv-x="602" 
d="M93.5 -216q-22.5 4 -39.5 13v123q14 -4 33 -7t35 -3q44 0 63 20.5t31 46.5l37 85l-2 -125l-240 609h161l159 -433h-60l159 433h161l-234 -597q-22 -56 -54 -94t-72.5 -56.5t-90.5 -18.5q-24 0 -46.5 4zM226 640v150h150v-150h-150z" />
    <glyph glyph-name="uni1E92" unicode="&#x1e92;" horiz-adv-x="567" 
d="M11 0v125l339 485h-319v135h515v-125l-338 -485h348v-135h-545z" />
    <glyph glyph-name="uni1E93" unicode="&#x1e93;" horiz-adv-x="492" 
d="M11 0v120l269 296h-256v130h456v-120l-261 -296h262v-130h-470z" />
    <glyph glyph-name="uni1E97" unicode="&#x1e97;" horiz-adv-x="421" 
d="M164.5 47.5q-54.5 53.5 -54.5 149.5v219h-92v130h5q42 0 64.5 21t22.5 63v40h150v-124h128v-130h-128v-209q0 -28 10 -46.5t31 -27.5t52 -9q7 0 16 1t19 2v-127q-15 -2 -34 -4t-36 -2q-99 0 -153.5 53.5zM-5 764v150h150v-150h-150zM225 764v150h150v-150h-150z" />
    <glyph glyph-name="uni1E9E" unicode="&#x1e9e;" horiz-adv-x="1294" 
d="M205.5 13.5q-61.5 25.5 -106 72.5t-66.5 111l127 57q28 -61 77.5 -96t109.5 -35q32 0 55 10t36 27.5t13 41.5q0 26 -16 44.5t-50 29.5l-146 48q-89 29 -134 82.5t-45 128.5q0 66 32.5 116t91 78t134.5 28q67 0 124 -23t98.5 -65t62.5 -101l-126 -57q-21 52 -63 81.5
t-96 29.5q-31 0 -55 -10t-37 -28.5t-13 -42.5q0 -26 17 -45.5t51 -30.5l143 -46q90 -29 134.5 -81t44.5 -127q0 -65 -34 -115.5t-93.5 -79t-138.5 -28.5q-70 0 -131.5 25.5zM852.5 13.5q-61.5 25.5 -106 72.5t-66.5 111l127 57q28 -61 77.5 -96t109.5 -35q32 0 55 10
t36 27.5t13 41.5q0 26 -16 44.5t-50 29.5l-146 48q-89 29 -134 82.5t-45 128.5q0 66 32.5 116t91 78t134.5 28q67 0 124 -23t98.5 -65t62.5 -101l-126 -57q-21 52 -63 81.5t-96 29.5q-31 0 -55 -10t-37 -28.5t-13 -42.5q0 -26 17 -45.5t51 -30.5l143 -46q90 -29 134.5 -81
t44.5 -127q0 -65 -34 -115.5t-93.5 -79t-138.5 -28.5q-70 0 -131.5 25.5z" />
    <glyph glyph-name="uni1EA0" unicode="&#x1ea0;" horiz-adv-x="732" 
d="M11 0l252 745h206l252 -745h-169l-50 152h-273l-50 -152h-168zM459 287l-93 287l-94 -287h187zM295 -216v143h142v-143h-142z" />
    <glyph glyph-name="uni1EA1" unicode="&#x1ea1;" horiz-adv-x="583" 
d="M122 7q-43 19 -66 54.5t-23 84.5q0 46 21 81.5t64.5 59.5t108.5 34l167 27v-110l-140 -25q-32 -6 -49 -20.5t-17 -41.5q0 -25 19 -39t47 -14q37 0 65 16t43.5 43.5t15.5 60.5v142q0 31 -24.5 52t-66.5 21q-40 0 -70.5 -22t-44.5 -58l-120 57q16 46 51 79t84 51t107 18
q69 0 122 -25t82.5 -69.5t29.5 -103.5v-360h-140v88l34 6q-24 -36 -53 -59.5t-65 -35t-80 -11.5q-59 0 -102 19zM221 -216v143h142v-143h-142z" />
    <glyph glyph-name="uni1EA2" unicode="&#x1ea2;" horiz-adv-x="732" 
d="M11 0l252 745h206l252 -745h-169l-50 152h-273l-50 -152h-168zM459 287l-93 287l-94 -287h187zM498.5 881q-14.5 -18 -40.5 -36q-15 -10 -22 -17t-7 -15v-13h-126v25q0 15 10 25t30 22q19 11 29 20t10 24q0 14 -9 23t-25 9q-39 0 -63 -61l-95 42q21 57 66 87t104 30
q67 0 110 -33.5t43 -83.5q0 -30 -14.5 -48z" />
    <glyph glyph-name="uni1EA3" unicode="&#x1ea3;" horiz-adv-x="583" 
d="M122 7q-43 19 -66 54.5t-23 84.5q0 46 21 81.5t64.5 59.5t108.5 34l167 27v-110l-140 -25q-32 -6 -49 -20.5t-17 -41.5q0 -25 19 -39t47 -14q37 0 65 16t43.5 43.5t15.5 60.5v142q0 31 -24.5 52t-66.5 21q-40 0 -70.5 -22t-44.5 -58l-120 57q16 46 51 79t84 51t107 18
q69 0 122 -25t82.5 -69.5t29.5 -103.5v-360h-140v88l34 6q-24 -36 -53 -59.5t-65 -35t-80 -11.5q-59 0 -102 19zM421.5 680q-15.5 -19 -43.5 -38q-15 -9 -21.5 -15.5t-6.5 -14.5v-11h-119v26q0 16 10.5 27t32.5 25q18 12 27.5 21t9.5 21q0 16 -10 25.5t-28 9.5
q-19 0 -34 -14t-32 -48l-91 46q22 58 66.5 85.5t102.5 27.5q68 0 110 -33.5t42 -86.5q0 -34 -15.5 -53z" />
    <glyph glyph-name="uni1EA4" unicode="&#x1ea4;" horiz-adv-x="732" 
d="M11 0l252 745h206l252 -745h-169l-50 152h-273l-50 -152h-168zM459 287l-93 287l-94 -287h187zM136 796l174 192h111l175 -192h-151l-79 75l-79 -75h-151zM664 1077h179l-153 -190h-135z" />
    <glyph glyph-name="uni1EA5" unicode="&#x1ea5;" horiz-adv-x="583" 
d="M122 7q-43 19 -66 54.5t-23 84.5q0 46 21 81.5t64.5 59.5t108.5 34l167 27v-110l-140 -25q-32 -6 -49 -20.5t-17 -41.5q0 -25 19 -39t47 -14q37 0 65 16t43.5 43.5t15.5 60.5v142q0 31 -24.5 52t-66.5 21q-40 0 -70.5 -22t-44.5 -58l-120 57q16 46 51 79t84 51t107 18
q69 0 122 -25t82.5 -69.5t29.5 -103.5v-360h-140v88l34 6q-24 -36 -53 -59.5t-65 -35t-80 -11.5q-59 0 -102 19zM71 597l166 209h109l167 -209h-142l-79 95l-79 -95h-142zM510 970h178l-127 -200h-132z" />
    <glyph glyph-name="uni1EA6" unicode="&#x1ea6;" horiz-adv-x="732" 
d="M11 0l252 745h206l252 -745h-169l-50 152h-273l-50 -152h-168zM459 287l-93 287l-94 -287h187zM136 796l174 192h111l175 -192h-151l-79 75l-79 -75h-151zM584 887l-153 190h179l109 -190h-135z" />
    <glyph glyph-name="uni1EA7" unicode="&#x1ea7;" horiz-adv-x="583" 
d="M122 7q-43 19 -66 54.5t-23 84.5q0 46 21 81.5t64.5 59.5t108.5 34l167 27v-110l-140 -25q-32 -6 -49 -20.5t-17 -41.5q0 -25 19 -39t47 -14q37 0 65 16t43.5 43.5t15.5 60.5v142q0 31 -24.5 52t-66.5 21q-40 0 -70.5 -22t-44.5 -58l-120 57q16 46 51 79t84 51t107 18
q69 0 122 -25t82.5 -69.5t29.5 -103.5v-360h-140v88l34 6q-24 -36 -53 -59.5t-65 -35t-80 -11.5q-59 0 -102 19zM71 597l166 209h109l167 -209h-142l-79 95l-79 -95h-142zM455 769l-127 200h175l81 -200h-129z" />
    <glyph glyph-name="uni1EA8" unicode="&#x1ea8;" horiz-adv-x="732" 
d="M11 0l252 745h206l252 -745h-169l-50 152h-273l-50 -152h-168zM459 287l-93 287l-94 -287h187zM136 796l174 192h111l175 -192h-151l-79 75l-79 -75h-151zM750.5 971q-14.5 -18 -40.5 -36q-15 -10 -22 -17t-7 -15v-13h-126v25q0 15 10 25t30 22q19 11 29 20t10 24
q0 14 -9 23t-25 9q-39 0 -63 -61l-95 42q21 57 66 87t104 30q67 0 110 -33.5t43 -83.5q0 -30 -14.5 -48z" />
    <glyph glyph-name="uni1EA9" unicode="&#x1ea9;" horiz-adv-x="583" 
d="M122 7q-43 19 -66 54.5t-23 84.5q0 46 21 81.5t64.5 59.5t108.5 34l167 27v-110l-140 -25q-32 -6 -49 -20.5t-17 -41.5q0 -25 19 -39t47 -14q37 0 65 16t43.5 43.5t15.5 60.5v142q0 31 -24.5 52t-66.5 21q-40 0 -70.5 -22t-44.5 -58l-120 57q16 46 51 79t84 51t107 18
q69 0 122 -25t82.5 -69.5t29.5 -103.5v-360h-140v88l34 6q-24 -36 -53 -59.5t-65 -35t-80 -11.5q-59 0 -102 19zM71 597l166 209h109l167 -209h-142l-79 95l-79 -95h-142zM608.5 845q-15.5 -19 -43.5 -38q-15 -9 -21.5 -15.5t-6.5 -14.5v-11h-119v26q0 16 10.5 27t32.5 25
q18 12 27.5 21t9.5 21q0 16 -10 25.5t-28 9.5q-19 0 -34 -14t-32 -48l-91 46q22 58 66.5 85.5t102.5 27.5q68 0 110 -33.5t42 -86.5q0 -34 -15.5 -53z" />
    <glyph glyph-name="uni1EAA" unicode="&#x1eaa;" horiz-adv-x="732" 
d="M11 0l252 745h206l252 -745h-169l-50 152h-273l-50 -152h-168zM459 287l-93 287l-94 -287h187zM136 796l174 192h111l175 -192h-151l-79 75l-79 -75h-151zM425.5 1014.5q-24.5 9.5 -57.5 27.5q-27 14 -40 19.5t-27 5.5q-16 0 -22.5 -13.5t-6.5 -44.5h-106q0 92 30.5 133
t80.5 41q31 0 56.5 -10t57.5 -29q23 -13 35.5 -18.5t25.5 -5.5q18 0 23.5 13.5t5.5 44.5h106q-1 -90 -30.5 -131.5t-78.5 -41.5q-28 0 -52.5 9.5z" />
    <glyph glyph-name="uni1EAB" unicode="&#x1eab;" horiz-adv-x="583" 
d="M122 7q-43 19 -66 54.5t-23 84.5q0 46 21 81.5t64.5 59.5t108.5 34l167 27v-110l-140 -25q-32 -6 -49 -20.5t-17 -41.5q0 -25 19 -39t47 -14q37 0 65 16t43.5 43.5t15.5 60.5v142q0 31 -24.5 52t-66.5 21q-40 0 -70.5 -22t-44.5 -58l-120 57q16 46 51 79t84 51t107 18
q69 0 122 -25t82.5 -69.5t29.5 -103.5v-360h-140v88l34 6q-24 -36 -53 -59.5t-65 -35t-80 -11.5q-59 0 -102 19zM71 597l166 209h109l167 -209h-142l-79 95l-79 -95h-142zM343 840.5q-23 9.5 -55 27.5q-23 13 -36.5 19t-26.5 6q-15 0 -21.5 -13.5t-6.5 -44.5h-101
q0 92 29 133t77 41q29 0 53.5 -10.5t54.5 -28.5q19 -12 32.5 -18t25.5 -6q17 0 22.5 13.5t5.5 44.5h101q-1 -90 -29 -131.5t-75 -41.5q-27 0 -50 9.5z" />
    <glyph glyph-name="uni1EAC" unicode="&#x1eac;" horiz-adv-x="732" 
d="M11 0l252 745h206l252 -745h-169l-50 152h-273l-50 -152h-168zM459 287l-93 287l-94 -287h187zM295 -216v143h142v-143h-142zM136 796l174 192h111l175 -192h-151l-79 75l-79 -75h-151z" />
    <glyph glyph-name="uni1EAD" unicode="&#x1ead;" horiz-adv-x="583" 
d="M122 7q-43 19 -66 54.5t-23 84.5q0 46 21 81.5t64.5 59.5t108.5 34l167 27v-110l-140 -25q-32 -6 -49 -20.5t-17 -41.5q0 -25 19 -39t47 -14q37 0 65 16t43.5 43.5t15.5 60.5v142q0 31 -24.5 52t-66.5 21q-40 0 -70.5 -22t-44.5 -58l-120 57q16 46 51 79t84 51t107 18
q69 0 122 -25t82.5 -69.5t29.5 -103.5v-360h-140v88l34 6q-24 -36 -53 -59.5t-65 -35t-80 -11.5q-59 0 -102 19zM221 -216v143h142v-143h-142zM71 597l166 209h109l167 -209h-142l-79 95l-79 -95h-142z" />
    <glyph glyph-name="uni1EAE" unicode="&#x1eae;" horiz-adv-x="732" 
d="M11 0l252 745h206l252 -745h-169l-50 152h-273l-50 -152h-168zM459 287l-93 287l-94 -287h187zM225.5 841.5q-48.5 53.5 -52.5 140.5h117q3 -43 24 -65t53 -22t53.5 22t23.5 65h118q-3 -88 -50 -141t-145 -53q-93 0 -141.5 53.5zM396 1199h179l-153 -190h-135z" />
    <glyph glyph-name="uni1EAF" unicode="&#x1eaf;" horiz-adv-x="583" 
d="M122 7q-43 19 -66 54.5t-23 84.5q0 46 21 81.5t64.5 59.5t108.5 34l167 27v-110l-140 -25q-32 -6 -49 -20.5t-17 -41.5q0 -25 19 -39t47 -14q37 0 65 16t43.5 43.5t15.5 60.5v142q0 31 -24.5 52t-66.5 21q-40 0 -70.5 -22t-44.5 -58l-120 57q16 46 51 79t84 51t107 18
q69 0 122 -25t82.5 -69.5t29.5 -103.5v-360h-140v88l34 6q-24 -36 -53 -59.5t-65 -35t-80 -11.5q-59 0 -102 19zM151 660.5q-51 56.5 -55 149.5h117q3 -47 24.5 -71.5t53.5 -24.5q33 0 54.5 24.5t23.5 71.5h118q-3 -94 -53 -150t-143 -56q-89 0 -140 56.5zM297 1031h178
l-127 -200h-132z" />
    <glyph glyph-name="uni1EB0" unicode="&#x1eb0;" horiz-adv-x="732" 
d="M11 0l252 745h206l252 -745h-169l-50 152h-273l-50 -152h-168zM459 287l-93 287l-94 -287h187zM225.5 841.5q-48.5 53.5 -52.5 140.5h117q3 -43 24 -65t53 -22t53.5 22t23.5 65h118q-3 -88 -50 -141t-145 -53q-93 0 -141.5 53.5zM305 1009l-153 190h179l109 -190h-135z
" />
    <glyph glyph-name="uni1EB1" unicode="&#x1eb1;" horiz-adv-x="583" 
d="M122 7q-43 19 -66 54.5t-23 84.5q0 46 21 81.5t64.5 59.5t108.5 34l167 27v-110l-140 -25q-32 -6 -49 -20.5t-17 -41.5q0 -25 19 -39t47 -14q37 0 65 16t43.5 43.5t15.5 60.5v142q0 31 -24.5 52t-66.5 21q-40 0 -70.5 -22t-44.5 -58l-120 57q16 46 51 79t84 51t107 18
q69 0 122 -25t82.5 -69.5t29.5 -103.5v-360h-140v88l34 6q-24 -36 -53 -59.5t-65 -35t-80 -11.5q-59 0 -102 19zM151 660.5q-51 56.5 -55 149.5h117q3 -47 24.5 -71.5t53.5 -24.5q33 0 54.5 24.5t23.5 71.5h118q-3 -94 -53 -150t-143 -56q-89 0 -140 56.5zM234 831l-127 200
h175l81 -200h-129z" />
    <glyph glyph-name="uni1EB2" unicode="&#x1eb2;" horiz-adv-x="732" 
d="M11 0l252 745h206l252 -745h-169l-50 152h-273l-50 -152h-168zM459 287l-93 287l-94 -287h187zM225.5 841.5q-48.5 53.5 -52.5 140.5h117q3 -43 24 -65t53 -22t53.5 22t23.5 65h118q-3 -88 -50 -141t-145 -53q-93 0 -141.5 53.5zM498.5 1076q-14.5 -18 -40.5 -36
q-15 -10 -22 -17t-7 -15v-13h-126v25q0 15 10 25t30 22q19 11 29 20t10 24q0 14 -9 23t-25 9q-39 0 -63 -61l-95 42q21 57 66 87t104 30q67 0 110 -33.5t43 -83.5q0 -30 -14.5 -48z" />
    <glyph glyph-name="uni1EB3" unicode="&#x1eb3;" horiz-adv-x="583" 
d="M122 7q-43 19 -66 54.5t-23 84.5q0 46 21 81.5t64.5 59.5t108.5 34l167 27v-110l-140 -25q-32 -6 -49 -20.5t-17 -41.5q0 -25 19 -39t47 -14q37 0 65 16t43.5 43.5t15.5 60.5v142q0 31 -24.5 52t-66.5 21q-40 0 -70.5 -22t-44.5 -58l-120 57q16 46 51 79t84 51t107 18
q69 0 122 -25t82.5 -69.5t29.5 -103.5v-360h-140v88l34 6q-24 -36 -53 -59.5t-65 -35t-80 -11.5q-59 0 -102 19zM151 660.5q-51 56.5 -55 149.5h117q3 -47 24.5 -71.5t53.5 -24.5q33 0 54.5 24.5t23.5 71.5h118q-3 -94 -53 -150t-143 -56q-89 0 -140 56.5zM420.5 901
q-15.5 -19 -43.5 -38q-15 -9 -21.5 -15.5t-6.5 -14.5v-11h-119v26q0 16 10.5 27t32.5 25q18 12 27.5 21t9.5 21q0 16 -10 25.5t-28 9.5q-19 0 -34 -14t-32 -48l-91 46q22 58 66.5 85.5t102.5 27.5q68 0 110 -33.5t42 -86.5q0 -34 -15.5 -53z" />
    <glyph glyph-name="uni1EB4" unicode="&#x1eb4;" horiz-adv-x="732" 
d="M11 0l252 745h206l252 -745h-169l-50 152h-273l-50 -152h-168zM459 287l-93 287l-94 -287h187zM225.5 841.5q-48.5 53.5 -52.5 140.5h117q3 -43 24 -65t53 -22t53.5 22t23.5 65h118q-3 -88 -50 -141t-145 -53q-93 0 -141.5 53.5zM419 1015.5q-23 9.5 -55 27.5
q-23 13 -36.5 19t-26.5 6q-15 0 -21.5 -13.5t-6.5 -44.5h-101q0 92 29 133t77 41q29 0 53.5 -10.5t54.5 -28.5q19 -12 32.5 -18t25.5 -6q17 0 22.5 13.5t5.5 44.5h101q-1 -90 -29 -131.5t-75 -41.5q-27 0 -50 9.5z" />
    <glyph glyph-name="uni1EB5" unicode="&#x1eb5;" horiz-adv-x="583" 
d="M122 7q-43 19 -66 54.5t-23 84.5q0 46 21 81.5t64.5 59.5t108.5 34l167 27v-110l-140 -25q-32 -6 -49 -20.5t-17 -41.5q0 -25 19 -39t47 -14q37 0 65 16t43.5 43.5t15.5 60.5v142q0 31 -24.5 52t-66.5 21q-40 0 -70.5 -22t-44.5 -58l-120 57q16 46 51 79t84 51t107 18
q69 0 122 -25t82.5 -69.5t29.5 -103.5v-360h-140v88l34 6q-24 -36 -53 -59.5t-65 -35t-80 -11.5q-59 0 -102 19zM152 660.5q-51 56.5 -55 149.5h117q3 -47 24.5 -71.5t53.5 -24.5q33 0 54.5 24.5t23.5 71.5h118q-3 -94 -53 -150t-143 -56q-89 0 -140 56.5zM337 846.5
q-23 9.5 -55 27.5q-23 13 -36.5 19t-26.5 6q-15 0 -21.5 -13.5t-6.5 -44.5h-101q0 92 29 133t77 41q29 0 53.5 -10.5t54.5 -28.5q19 -12 32.5 -18t25.5 -6q17 0 22.5 13.5t5.5 44.5h101q-1 -90 -29 -131.5t-75 -41.5q-27 0 -50 9.5z" />
    <glyph glyph-name="uni1EB6" unicode="&#x1eb6;" horiz-adv-x="732" 
d="M11 0l252 745h206l252 -745h-169l-50 152h-273l-50 -152h-168zM459 287l-93 287l-94 -287h187zM295 -216v143h142v-143h-142zM223.5 841.5q-48.5 53.5 -52.5 140.5h117q3 -43 24 -65t53 -22t53.5 22t23.5 65h118q-3 -88 -50 -141t-145 -53q-93 0 -141.5 53.5z" />
    <glyph glyph-name="uni1EB7" unicode="&#x1eb7;" horiz-adv-x="583" 
d="M122 7q-43 19 -66 54.5t-23 84.5q0 46 21 81.5t64.5 59.5t108.5 34l167 27v-110l-140 -25q-32 -6 -49 -20.5t-17 -41.5q0 -25 19 -39t47 -14q37 0 65 16t43.5 43.5t15.5 60.5v142q0 31 -24.5 52t-66.5 21q-40 0 -70.5 -22t-44.5 -58l-120 57q16 46 51 79t84 51t107 18
q69 0 122 -25t82.5 -69.5t29.5 -103.5v-360h-140v88l34 6q-24 -36 -53 -59.5t-65 -35t-80 -11.5q-59 0 -102 19zM221 -216v143h142v-143h-142zM153 660.5q-51 56.5 -55 149.5h117q3 -47 24.5 -71.5t53.5 -24.5q33 0 54.5 24.5t23.5 71.5h118q-3 -94 -53 -150t-143 -56
q-89 0 -140 56.5z" />
    <glyph glyph-name="uni1EB8" unicode="&#x1eb8;" horiz-adv-x="589" 
d="M66 0v745h501v-135h-346v-169h326v-135h-326v-171h346v-135h-501zM254 -216v143h142v-143h-142z" />
    <glyph glyph-name="uni1EB9" unicode="&#x1eb9;" horiz-adv-x="611" 
d="M167 26.5q-64 38.5 -99 103.5t-35 144q0 82 36.5 146t98.5 101t140 37q65 0 115 -20.5t84.5 -57.5t52.5 -85.5t18 -105.5q0 -16 -1.5 -31.5t-5.5 -26.5h-409v110h324l-71 -52q10 43 -1 76.5t-38.5 53t-67.5 19.5q-39 0 -67 -19t-42 -56t-11 -90q-4 -46 11 -81t46 -54.5
t75 -19.5q40 0 68.5 16t44.5 44l120 -57q-16 -40 -50.5 -70t-81.5 -46.5t-103 -16.5q-87 0 -151 38.5zM235 -216v143h142v-143h-142z" />
    <glyph glyph-name="uni1EBA" unicode="&#x1eba;" horiz-adv-x="589" 
d="M66 0v745h501v-135h-346v-169h326v-135h-326v-171h346v-135h-501zM451.5 881q-14.5 -18 -40.5 -36q-15 -10 -22 -17t-7 -15v-13h-126v25q0 15 10 25t30 22q19 11 29 20t10 24q0 14 -9 23t-25 9q-39 0 -63 -61l-95 42q21 57 66 87t104 30q67 0 110 -33.5t43 -83.5
q0 -30 -14.5 -48z" />
    <glyph glyph-name="uni1EBB" unicode="&#x1ebb;" horiz-adv-x="611" 
d="M167 26.5q-64 38.5 -99 103.5t-35 144q0 82 36.5 146t98.5 101t140 37q65 0 115 -20.5t84.5 -57.5t52.5 -85.5t18 -105.5q0 -16 -1.5 -31.5t-5.5 -26.5h-409v110h324l-71 -52q10 43 -1 76.5t-38.5 53t-67.5 19.5q-39 0 -67 -19t-42 -56t-11 -90q-4 -46 11 -81t46 -54.5
t75 -19.5q40 0 68.5 16t44.5 44l120 -57q-16 -40 -50.5 -70t-81.5 -46.5t-103 -16.5q-87 0 -151 38.5zM435.5 680q-15.5 -19 -43.5 -38q-15 -9 -21.5 -15.5t-6.5 -14.5v-11h-119v26q0 16 10.5 27t32.5 25q18 12 27.5 21t9.5 21q0 16 -10 25.5t-28 9.5q-19 0 -34 -14t-32 -48
l-91 46q22 58 66.5 85.5t102.5 27.5q68 0 110 -33.5t42 -86.5q0 -34 -15.5 -53z" />
    <glyph glyph-name="uni1EBC" unicode="&#x1ebc;" horiz-adv-x="589" 
d="M66 0v745h501v-135h-346v-169h326v-135h-326v-171h346v-135h-501zM366 814.5q-23 9.5 -55 27.5q-23 13 -36.5 19t-26.5 6q-15 0 -21.5 -13.5t-6.5 -44.5h-101q0 92 29 133t77 41q29 0 53.5 -10.5t54.5 -28.5q19 -12 32.5 -18t25.5 -6q17 0 22.5 13.5t5.5 44.5h101
q-1 -90 -29 -131.5t-75 -41.5q-27 0 -50 9.5z" />
    <glyph glyph-name="uni1EBD" unicode="&#x1ebd;" horiz-adv-x="611" 
d="M167 26.5q-64 38.5 -99 103.5t-35 144q0 82 36.5 146t98.5 101t140 37q65 0 115 -20.5t84.5 -57.5t52.5 -85.5t18 -105.5q0 -16 -1.5 -31.5t-5.5 -26.5h-409v110h324l-71 -52q10 43 -1 76.5t-38.5 53t-67.5 19.5q-39 0 -67 -19t-42 -56t-11 -90q-4 -46 11 -81t46 -54.5
t75 -19.5q40 0 68.5 16t44.5 44l120 -57q-16 -40 -50.5 -70t-81.5 -46.5t-103 -16.5q-87 0 -151 38.5zM351 615.5q-23 9.5 -55 27.5q-23 13 -36.5 19t-26.5 6q-15 0 -21.5 -13.5t-6.5 -44.5h-101q0 92 29 133t77 41q29 0 53.5 -10.5t54.5 -28.5q19 -12 32.5 -18t25.5 -6
q17 0 22.5 13.5t5.5 44.5h101q-1 -90 -29 -131.5t-75 -41.5q-27 0 -50 9.5z" />
    <glyph glyph-name="uni1EBE" unicode="&#x1ebe;" horiz-adv-x="589" 
d="M66 0v745h501v-135h-346v-169h326v-135h-326v-171h346v-135h-501zM89 796l174 192h111l175 -192h-151l-79 75l-79 -75h-151zM617 1077h179l-153 -190h-135z" />
    <glyph glyph-name="uni1EBF" unicode="&#x1ebf;" horiz-adv-x="611" 
d="M167 26.5q-64 38.5 -99 103.5t-35 144q0 82 36.5 146t98.5 101t140 37q65 0 115 -20.5t84.5 -57.5t52.5 -85.5t18 -105.5q0 -16 -1.5 -31.5t-5.5 -26.5h-409v110h324l-71 -52q10 43 -1 76.5t-38.5 53t-67.5 19.5q-39 0 -67 -19t-42 -56t-11 -90q-4 -46 11 -81t46 -54.5
t75 -19.5q40 0 68.5 16t44.5 44l120 -57q-16 -40 -50.5 -70t-81.5 -46.5t-103 -16.5q-87 0 -151 38.5zM85 597l166 209h109l167 -209h-142l-79 95l-79 -95h-142zM524 970h178l-127 -200h-132z" />
    <glyph glyph-name="uni1EC0" unicode="&#x1ec0;" horiz-adv-x="589" 
d="M66 0v745h501v-135h-346v-169h326v-135h-326v-171h346v-135h-501zM89 796l174 192h111l175 -192h-151l-79 75l-79 -75h-151zM537 887l-153 190h179l109 -190h-135z" />
    <glyph glyph-name="uni1EC1" unicode="&#x1ec1;" horiz-adv-x="611" 
d="M167 26.5q-64 38.5 -99 103.5t-35 144q0 82 36.5 146t98.5 101t140 37q65 0 115 -20.5t84.5 -57.5t52.5 -85.5t18 -105.5q0 -16 -1.5 -31.5t-5.5 -26.5h-409v110h324l-71 -52q10 43 -1 76.5t-38.5 53t-67.5 19.5q-39 0 -67 -19t-42 -56t-11 -90q-4 -46 11 -81t46 -54.5
t75 -19.5q40 0 68.5 16t44.5 44l120 -57q-16 -40 -50.5 -70t-81.5 -46.5t-103 -16.5q-87 0 -151 38.5zM85 597l166 209h109l167 -209h-142l-79 95l-79 -95h-142zM469 769l-127 200h175l81 -200h-129z" />
    <glyph glyph-name="uni1EC2" unicode="&#x1ec2;" horiz-adv-x="589" 
d="M66 0v745h501v-135h-346v-169h326v-135h-326v-171h346v-135h-501zM89 796l174 192h111l175 -192h-151l-79 75l-79 -75h-151zM703.5 971q-14.5 -18 -40.5 -36q-15 -10 -22 -17t-7 -15v-13h-126v25q0 15 10 25t30 22q19 11 29 20t10 24q0 14 -9 23t-25 9q-39 0 -63 -61
l-95 42q21 57 66 87t104 30q67 0 110 -33.5t43 -83.5q0 -30 -14.5 -48z" />
    <glyph glyph-name="uni1EC3" unicode="&#x1ec3;" horiz-adv-x="611" 
d="M167 26.5q-64 38.5 -99 103.5t-35 144q0 82 36.5 146t98.5 101t140 37q65 0 115 -20.5t84.5 -57.5t52.5 -85.5t18 -105.5q0 -16 -1.5 -31.5t-5.5 -26.5h-409v110h324l-71 -52q10 43 -1 76.5t-38.5 53t-67.5 19.5q-39 0 -67 -19t-42 -56t-11 -90q-4 -46 11 -81t46 -54.5
t75 -19.5q40 0 68.5 16t44.5 44l120 -57q-16 -40 -50.5 -70t-81.5 -46.5t-103 -16.5q-87 0 -151 38.5zM85 597l166 209h109l167 -209h-142l-79 95l-79 -95h-142zM622.5 845q-15.5 -19 -43.5 -38q-15 -9 -21.5 -15.5t-6.5 -14.5v-11h-119v26q0 16 10.5 27t32.5 25
q18 12 27.5 21t9.5 21q0 16 -10 25.5t-28 9.5q-19 0 -34 -14t-32 -48l-91 46q22 58 66.5 85.5t102.5 27.5q68 0 110 -33.5t42 -86.5q0 -34 -15.5 -53z" />
    <glyph glyph-name="uni1EC4" unicode="&#x1ec4;" horiz-adv-x="589" 
d="M66 0v745h501v-135h-346v-169h326v-135h-326v-171h346v-135h-501zM89 796l174 192h111l175 -192h-151l-79 75l-79 -75h-151zM378.5 1014.5q-24.5 9.5 -57.5 27.5q-27 14 -40 19.5t-27 5.5q-16 0 -22.5 -13.5t-6.5 -44.5h-106q0 92 30.5 133t80.5 41q31 0 56.5 -10
t57.5 -29q23 -13 35.5 -18.5t25.5 -5.5q18 0 23.5 13.5t5.5 44.5h106q-1 -90 -30.5 -131.5t-78.5 -41.5q-28 0 -52.5 9.5z" />
    <glyph glyph-name="uni1EC5" unicode="&#x1ec5;" horiz-adv-x="611" 
d="M167 26.5q-64 38.5 -99 103.5t-35 144q0 82 36.5 146t98.5 101t140 37q65 0 115 -20.5t84.5 -57.5t52.5 -85.5t18 -105.5q0 -16 -1.5 -31.5t-5.5 -26.5h-409v110h324l-71 -52q10 43 -1 76.5t-38.5 53t-67.5 19.5q-39 0 -67 -19t-42 -56t-11 -90q-4 -46 11 -81t46 -54.5
t75 -19.5q40 0 68.5 16t44.5 44l120 -57q-16 -40 -50.5 -70t-81.5 -46.5t-103 -16.5q-87 0 -151 38.5zM85 597l166 209h109l167 -209h-142l-79 95l-79 -95h-142zM357 840.5q-23 9.5 -55 27.5q-23 13 -36.5 19t-26.5 6q-15 0 -21.5 -13.5t-6.5 -44.5h-101q0 92 29 133t77 41
q29 0 53.5 -10.5t54.5 -28.5q19 -12 32.5 -18t25.5 -6q17 0 22.5 13.5t5.5 44.5h101q-1 -90 -29 -131.5t-75 -41.5q-27 0 -50 9.5z" />
    <glyph glyph-name="uni1EC6" unicode="&#x1ec6;" horiz-adv-x="589" 
d="M66 0v745h501v-135h-346v-169h326v-135h-326v-171h346v-135h-501zM254 -216v143h142v-143h-142zM89 796l174 192h111l175 -192h-151l-79 75l-79 -75h-151z" />
    <glyph glyph-name="uni1EC7" unicode="&#x1ec7;" horiz-adv-x="611" 
d="M167 26.5q-64 38.5 -99 103.5t-35 144q0 82 36.5 146t98.5 101t140 37q65 0 115 -20.5t84.5 -57.5t52.5 -85.5t18 -105.5q0 -16 -1.5 -31.5t-5.5 -26.5h-409v110h324l-71 -52q10 43 -1 76.5t-38.5 53t-67.5 19.5q-39 0 -67 -19t-42 -56t-11 -90q-4 -46 11 -81t46 -54.5
t75 -19.5q40 0 68.5 16t44.5 44l120 -57q-16 -40 -50.5 -70t-81.5 -46.5t-103 -16.5q-87 0 -151 38.5zM235 -216v143h142v-143h-142zM85 597l166 209h109l167 -209h-142l-79 95l-79 -95h-142z" />
    <glyph glyph-name="uni1EC8" unicode="&#x1ec8;" horiz-adv-x="287" 
d="M66 0v745h155v-745h-155zM273.5 889q-15.5 -19 -43.5 -38q-15 -9 -21.5 -15.5t-6.5 -14.5v-11h-119v26q0 16 10.5 27t32.5 25q18 12 27.5 21t9.5 21q0 16 -10 25.5t-28 9.5q-19 0 -34 -14t-32 -48l-91 46q22 58 66.5 85.5t102.5 27.5q68 0 110 -33.5t42 -86.5
q0 -34 -15.5 -53z" />
    <glyph glyph-name="uni1EC9" unicode="&#x1ec9;" horiz-adv-x="238" 
d="M44 0v546h150v-546h-150zM248.5 680q-15.5 -19 -43.5 -38q-15 -9 -21.5 -15.5t-6.5 -14.5v-11h-119v26q0 16 10.5 27t32.5 25q18 12 27.5 21t9.5 21q0 16 -10 25.5t-28 9.5q-19 0 -34 -14t-32 -48l-91 46q22 58 66.5 85.5t102.5 27.5q68 0 110 -33.5t42 -86.5
q0 -34 -15.5 -53z" />
    <glyph glyph-name="uni1ECA" unicode="&#x1eca;" horiz-adv-x="287" 
d="M66 0v745h155v-745h-155zM73 -216v143h142v-143h-142z" />
    <glyph glyph-name="uni1ECB" unicode="&#x1ecb;" horiz-adv-x="260" 
d="M55 0v546h150v-546h-150zM55 595v150h150v-150h-150zM59 -216v143h142v-143h-142z" />
    <glyph glyph-name="uni1ECC" unicode="&#x1ecc;" horiz-adv-x="878" 
d="M283 17q-72 29 -125.5 81.5t-83.5 122.5t-30 152t29.5 152t83 122t125.5 81t157 29t157 -29t125.5 -81t83 -122t29.5 -152t-30 -152t-83.5 -122.5t-125.5 -81.5t-156 -29t-156 29zM533.5 146q43.5 18 76.5 50.5t51 77.5t18 99t-18 98.5t-51 77.5t-76.5 50.5t-94.5 17.5
t-94.5 -17.5t-76.5 -50.5t-51 -77.5t-18 -98.5t18 -99t51 -77.5t76.5 -50.5t94.5 -18t94.5 18zM368 -216v143h142v-143h-142z" />
    <glyph glyph-name="uni1ECD" unicode="&#x1ecd;" horiz-adv-x="651" 
d="M178.5 25q-66.5 37 -106 101.5t-39.5 146.5q0 83 39.5 147t106 101t147.5 37t147 -37t105.5 -101t39.5 -147q0 -82 -39.5 -146.5t-105.5 -101.5t-147 -37t-147.5 37zM397.5 142q30.5 19 48 53t17.5 78t-17.5 77.5t-48 53t-71.5 19.5t-72 -19.5t-48.5 -53t-17.5 -77.5
t17.5 -78t48.5 -53t72 -19t71.5 19zM255 -216v143h142v-143h-142z" />
    <glyph glyph-name="uni1ECE" unicode="&#x1ece;" horiz-adv-x="878" 
d="M283 17q-72 29 -125.5 81.5t-83.5 122.5t-30 152t29.5 152t83 122t125.5 81t157 29t157 -29t125.5 -81t83 -122t29.5 -152t-30 -152t-83.5 -122.5t-125.5 -81.5t-156 -29t-156 29zM533.5 146q43.5 18 76.5 50.5t51 77.5t18 99t-18 98.5t-51 77.5t-76.5 50.5t-94.5 17.5
t-94.5 -17.5t-76.5 -50.5t-51 -77.5t-18 -98.5t18 -99t51 -77.5t76.5 -50.5t94.5 -18t94.5 18zM571.5 881q-14.5 -18 -40.5 -36q-15 -10 -22 -17t-7 -15v-13h-126v25q0 15 10 25t30 22q19 11 29 20t10 24q0 14 -9 23t-25 9q-39 0 -63 -61l-95 42q21 57 66 87t104 30
q67 0 110 -33.5t43 -83.5q0 -30 -14.5 -48z" />
    <glyph glyph-name="uni1ECF" unicode="&#x1ecf;" horiz-adv-x="651" 
d="M178.5 25q-66.5 37 -106 101.5t-39.5 146.5q0 83 39.5 147t106 101t147.5 37t147 -37t105.5 -101t39.5 -147q0 -82 -39.5 -146.5t-105.5 -101.5t-147 -37t-147.5 37zM397.5 142q30.5 19 48 53t17.5 78t-17.5 77.5t-48 53t-71.5 19.5t-72 -19.5t-48.5 -53t-17.5 -77.5
t17.5 -78t48.5 -53t72 -19t71.5 19zM455.5 680q-15.5 -19 -43.5 -38q-15 -9 -21.5 -15.5t-6.5 -14.5v-11h-119v26q0 16 10.5 27t32.5 25q18 12 27.5 21t9.5 21q0 16 -10 25.5t-28 9.5q-19 0 -34 -14t-32 -48l-91 46q22 58 66.5 85.5t102.5 27.5q68 0 110 -33.5t42 -86.5
q0 -34 -15.5 -53z" />
    <glyph glyph-name="uni1ED0" unicode="&#x1ed0;" horiz-adv-x="878" 
d="M283 17q-72 29 -125.5 81.5t-83.5 122.5t-30 152t29.5 152t83 122t125.5 81t157 29t157 -29t125.5 -81t83 -122t29.5 -152t-30 -152t-83.5 -122.5t-125.5 -81.5t-156 -29t-156 29zM533.5 146q43.5 18 76.5 50.5t51 77.5t18 99t-18 98.5t-51 77.5t-76.5 50.5t-94.5 17.5
t-94.5 -17.5t-76.5 -50.5t-51 -77.5t-18 -98.5t18 -99t51 -77.5t76.5 -50.5t94.5 -18t94.5 18zM209 796l174 192h111l175 -192h-151l-79 75l-79 -75h-151zM737 1077h179l-153 -190h-135z" />
    <glyph glyph-name="uni1ED1" unicode="&#x1ed1;" horiz-adv-x="651" 
d="M178.5 25q-66.5 37 -106 101.5t-39.5 146.5q0 83 39.5 147t106 101t147.5 37t147 -37t105.5 -101t39.5 -147q0 -82 -39.5 -146.5t-105.5 -101.5t-147 -37t-147.5 37zM397.5 142q30.5 19 48 53t17.5 78t-17.5 77.5t-48 53t-71.5 19.5t-72 -19.5t-48.5 -53t-17.5 -77.5
t17.5 -78t48.5 -53t72 -19t71.5 19zM105 597l166 209h109l167 -209h-142l-79 95l-79 -95h-142zM544 970h178l-127 -200h-132z" />
    <glyph glyph-name="uni1ED2" unicode="&#x1ed2;" horiz-adv-x="878" 
d="M283 17q-72 29 -125.5 81.5t-83.5 122.5t-30 152t29.5 152t83 122t125.5 81t157 29t157 -29t125.5 -81t83 -122t29.5 -152t-30 -152t-83.5 -122.5t-125.5 -81.5t-156 -29t-156 29zM533.5 146q43.5 18 76.5 50.5t51 77.5t18 99t-18 98.5t-51 77.5t-76.5 50.5t-94.5 17.5
t-94.5 -17.5t-76.5 -50.5t-51 -77.5t-18 -98.5t18 -99t51 -77.5t76.5 -50.5t94.5 -18t94.5 18zM209 796l174 192h111l175 -192h-151l-79 75l-79 -75h-151zM657 887l-153 190h179l109 -190h-135z" />
    <glyph glyph-name="uni1ED3" unicode="&#x1ed3;" horiz-adv-x="651" 
d="M178.5 25q-66.5 37 -106 101.5t-39.5 146.5q0 83 39.5 147t106 101t147.5 37t147 -37t105.5 -101t39.5 -147q0 -82 -39.5 -146.5t-105.5 -101.5t-147 -37t-147.5 37zM397.5 142q30.5 19 48 53t17.5 78t-17.5 77.5t-48 53t-71.5 19.5t-72 -19.5t-48.5 -53t-17.5 -77.5
t17.5 -78t48.5 -53t72 -19t71.5 19zM105 597l166 209h109l167 -209h-142l-79 95l-79 -95h-142zM489 769l-127 200h175l81 -200h-129z" />
    <glyph glyph-name="uni1ED4" unicode="&#x1ed4;" horiz-adv-x="878" 
d="M283 17q-72 29 -125.5 81.5t-83.5 122.5t-30 152t29.5 152t83 122t125.5 81t157 29t157 -29t125.5 -81t83 -122t29.5 -152t-30 -152t-83.5 -122.5t-125.5 -81.5t-156 -29t-156 29zM533.5 146q43.5 18 76.5 50.5t51 77.5t18 99t-18 98.5t-51 77.5t-76.5 50.5t-94.5 17.5
t-94.5 -17.5t-76.5 -50.5t-51 -77.5t-18 -98.5t18 -99t51 -77.5t76.5 -50.5t94.5 -18t94.5 18zM209 796l174 192h111l175 -192h-151l-79 75l-79 -75h-151zM823.5 971q-14.5 -18 -40.5 -36q-15 -10 -22 -17t-7 -15v-13h-126v25q0 15 10 25t30 22q19 11 29 20t10 24
q0 14 -9 23t-25 9q-39 0 -63 -61l-95 42q21 57 66 87t104 30q67 0 110 -33.5t43 -83.5q0 -30 -14.5 -48z" />
    <glyph glyph-name="uni1ED5" unicode="&#x1ed5;" horiz-adv-x="651" 
d="M178.5 25q-66.5 37 -106 101.5t-39.5 146.5q0 83 39.5 147t106 101t147.5 37t147 -37t105.5 -101t39.5 -147q0 -82 -39.5 -146.5t-105.5 -101.5t-147 -37t-147.5 37zM397.5 142q30.5 19 48 53t17.5 78t-17.5 77.5t-48 53t-71.5 19.5t-72 -19.5t-48.5 -53t-17.5 -77.5
t17.5 -78t48.5 -53t72 -19t71.5 19zM105 597l166 209h109l167 -209h-142l-79 95l-79 -95h-142zM642.5 845q-15.5 -19 -43.5 -38q-15 -9 -21.5 -15.5t-6.5 -14.5v-11h-119v26q0 16 10.5 27t32.5 25q18 12 27.5 21t9.5 21q0 16 -10 25.5t-28 9.5q-19 0 -34 -14t-32 -48l-91 46
q22 58 66.5 85.5t102.5 27.5q68 0 110 -33.5t42 -86.5q0 -34 -15.5 -53z" />
    <glyph glyph-name="uni1ED6" unicode="&#x1ed6;" horiz-adv-x="878" 
d="M283 17q-72 29 -125.5 81.5t-83.5 122.5t-30 152t29.5 152t83 122t125.5 81t157 29t157 -29t125.5 -81t83 -122t29.5 -152t-30 -152t-83.5 -122.5t-125.5 -81.5t-156 -29t-156 29zM533.5 146q43.5 18 76.5 50.5t51 77.5t18 99t-18 98.5t-51 77.5t-76.5 50.5t-94.5 17.5
t-94.5 -17.5t-76.5 -50.5t-51 -77.5t-18 -98.5t18 -99t51 -77.5t76.5 -50.5t94.5 -18t94.5 18zM209 796l174 192h111l175 -192h-151l-79 75l-79 -75h-151zM498.5 1014.5q-24.5 9.5 -57.5 27.5q-27 14 -40 19.5t-27 5.5q-16 0 -22.5 -13.5t-6.5 -44.5h-106q0 92 30.5 133
t80.5 41q31 0 56.5 -10t57.5 -29q23 -13 35.5 -18.5t25.5 -5.5q18 0 23.5 13.5t5.5 44.5h106q-1 -90 -30.5 -131.5t-78.5 -41.5q-28 0 -52.5 9.5z" />
    <glyph glyph-name="uni1ED7" unicode="&#x1ed7;" horiz-adv-x="651" 
d="M178.5 25q-66.5 37 -106 101.5t-39.5 146.5q0 83 39.5 147t106 101t147.5 37t147 -37t105.5 -101t39.5 -147q0 -82 -39.5 -146.5t-105.5 -101.5t-147 -37t-147.5 37zM397.5 142q30.5 19 48 53t17.5 78t-17.5 77.5t-48 53t-71.5 19.5t-72 -19.5t-48.5 -53t-17.5 -77.5
t17.5 -78t48.5 -53t72 -19t71.5 19zM105 597l166 209h109l167 -209h-142l-79 95l-79 -95h-142zM377 840.5q-23 9.5 -55 27.5q-23 13 -36.5 19t-26.5 6q-15 0 -21.5 -13.5t-6.5 -44.5h-101q0 92 29 133t77 41q29 0 53.5 -10.5t54.5 -28.5q19 -12 32.5 -18t25.5 -6
q17 0 22.5 13.5t5.5 44.5h101q-1 -90 -29 -131.5t-75 -41.5q-27 0 -50 9.5z" />
    <glyph glyph-name="uni1ED8" unicode="&#x1ed8;" horiz-adv-x="878" 
d="M283 17q-72 29 -125.5 81.5t-83.5 122.5t-30 152t29.5 152t83 122t125.5 81t157 29t157 -29t125.5 -81t83 -122t29.5 -152t-30 -152t-83.5 -122.5t-125.5 -81.5t-156 -29t-156 29zM533.5 146q43.5 18 76.5 50.5t51 77.5t18 99t-18 98.5t-51 77.5t-76.5 50.5t-94.5 17.5
t-94.5 -17.5t-76.5 -50.5t-51 -77.5t-18 -98.5t18 -99t51 -77.5t76.5 -50.5t94.5 -18t94.5 18zM368 -216v143h142v-143h-142zM209 796l174 192h111l175 -192h-151l-79 75l-79 -75h-151z" />
    <glyph glyph-name="uni1ED9" unicode="&#x1ed9;" horiz-adv-x="651" 
d="M178.5 25q-66.5 37 -106 101.5t-39.5 146.5q0 83 39.5 147t106 101t147.5 37t147 -37t105.5 -101t39.5 -147q0 -82 -39.5 -146.5t-105.5 -101.5t-147 -37t-147.5 37zM397.5 142q30.5 19 48 53t17.5 78t-17.5 77.5t-48 53t-71.5 19.5t-72 -19.5t-48.5 -53t-17.5 -77.5
t17.5 -78t48.5 -53t72 -19t71.5 19zM255 -216v143h142v-143h-142zM105 597l166 209h109l167 -209h-142l-79 95l-79 -95h-142z" />
    <glyph glyph-name="uni1EDA" unicode="&#x1eda;" horiz-adv-x="878" 
d="M238 38.5q-90 50.5 -142 138.5t-52 196t51.5 195.5t141.5 138t202 50.5q47 0 91 -7q48 -6 79 -6t54 21t23 71v46h129v-49q0 -68 -22 -112.5t-77 -67.5q56 -53 87 -124.5t31 -155.5q0 -108 -52 -196t-142 -138.5t-201 -50.5t-201 50.5zM560 159q55 31 87 86.5t32 127.5
q0 71 -31.5 126.5t-86 86.5t-122.5 31t-122.5 -31t-86 -86.5t-31.5 -126.5q0 -72 32 -127.5t87 -86.5t121 -31t121 31zM467 987h179l-153 -190h-135z" />
    <glyph glyph-name="uni1EDB" unicode="&#x1edb;" horiz-adv-x="651" 
d="M178 25.5q-67 37.5 -106 102.5t-39 145q0 84 40.5 149t107.5 100.5t145 35.5q29 0 75 -8q40 -6 56 -6q68 0 68 73v53h128v-46q0 -129 -102 -165q32 -37 49.5 -84.5t17.5 -101.5q0 -80 -39 -145.5t-105.5 -102.5t-147.5 -37t-148 37.5zM425 165q38 42 38 108t-38 108
t-99 42t-99.5 -42t-38.5 -108t37.5 -108t100.5 -42q61 0 99 42zM332 810h178l-127 -200h-132z" />
    <glyph glyph-name="uni1EDC" unicode="&#x1edc;" horiz-adv-x="878" 
d="M238 38.5q-90 50.5 -142 138.5t-52 196t51.5 195.5t141.5 138t202 50.5q47 0 91 -7q48 -6 79 -6t54 21t23 71v46h129v-49q0 -68 -22 -112.5t-77 -67.5q56 -53 87 -124.5t31 -155.5q0 -108 -52 -196t-142 -138.5t-201 -50.5t-201 50.5zM560 159q55 31 87 86.5t32 127.5
q0 71 -31.5 126.5t-86 86.5t-122.5 31t-122.5 -31t-86 -86.5t-31.5 -126.5q0 -72 32 -127.5t87 -86.5t121 -31t121 31zM376 797l-153 190h179l109 -190h-135z" />
    <glyph glyph-name="uni1EDD" unicode="&#x1edd;" horiz-adv-x="651" 
d="M178 25.5q-67 37.5 -106 102.5t-39 145q0 84 40.5 149t107.5 100.5t145 35.5q29 0 75 -8q40 -6 56 -6q68 0 68 73v53h128v-46q0 -129 -102 -165q32 -37 49.5 -84.5t17.5 -101.5q0 -80 -39 -145.5t-105.5 -102.5t-147.5 -37t-148 37.5zM425 165q38 42 38 108t-38 108
t-99 42t-99.5 -42t-38.5 -108t37.5 -108t100.5 -42q61 0 99 42zM269 610l-127 200h175l81 -200h-129z" />
    <glyph glyph-name="uni1EDE" unicode="&#x1ede;" horiz-adv-x="878" 
d="M238 38.5q-90 50.5 -142 138.5t-52 196t51.5 195.5t141.5 138t202 50.5q47 0 91 -7q48 -6 79 -6t54 21t23 71v46h129v-49q0 -68 -22 -112.5t-77 -67.5q56 -53 87 -124.5t31 -155.5q0 -108 -52 -196t-142 -138.5t-201 -50.5t-201 50.5zM560 159q55 31 87 86.5t32 127.5
q0 71 -31.5 126.5t-86 86.5t-122.5 31t-122.5 -31t-86 -86.5t-31.5 -126.5q0 -72 32 -127.5t87 -86.5t121 -31t121 31zM571.5 881q-14.5 -18 -40.5 -36q-15 -10 -22 -17t-7 -15v-13h-126v25q0 15 10 25t30 22q19 11 29 20t10 24q0 14 -9 23t-25 9q-39 0 -63 -61l-95 42
q21 57 66 87t104 30q67 0 110 -33.5t43 -83.5q0 -30 -14.5 -48z" />
    <glyph glyph-name="uni1EDF" unicode="&#x1edf;" horiz-adv-x="651" 
d="M178 25.5q-67 37.5 -106 102.5t-39 145q0 84 40.5 149t107.5 100.5t145 35.5q29 0 75 -8q40 -6 56 -6q68 0 68 73v53h128v-46q0 -129 -102 -165q32 -37 49.5 -84.5t17.5 -101.5q0 -80 -39 -145.5t-105.5 -102.5t-147.5 -37t-148 37.5zM425 165q38 42 38 108t-38 108
t-99 42t-99.5 -42t-38.5 -108t37.5 -108t100.5 -42q61 0 99 42zM455.5 680q-15.5 -19 -43.5 -38q-15 -9 -21.5 -15.5t-6.5 -14.5v-11h-119v26q0 16 10.5 27t32.5 25q18 12 27.5 21t9.5 21q0 16 -10 25.5t-28 9.5q-19 0 -34 -14t-32 -48l-91 46q22 58 66.5 85.5t102.5 27.5
q68 0 110 -33.5t42 -86.5q0 -34 -15.5 -53z" />
    <glyph glyph-name="uni1EE0" unicode="&#x1ee0;" horiz-adv-x="878" 
d="M238 38.5q-90 50.5 -142 138.5t-52 196t51.5 195.5t141.5 138t202 50.5q47 0 91 -7q48 -6 79 -6t54 21t23 71v46h129v-49q0 -68 -22 -112.5t-77 -67.5q56 -53 87 -124.5t31 -155.5q0 -108 -52 -196t-142 -138.5t-201 -50.5t-201 50.5zM560 159q55 31 87 86.5t32 127.5
q0 71 -31.5 126.5t-86 86.5t-122.5 31t-122.5 -31t-86 -86.5t-31.5 -126.5q0 -72 32 -127.5t87 -86.5t121 -31t121 31zM486 814.5q-23 9.5 -55 27.5q-23 13 -36.5 19t-26.5 6q-15 0 -21.5 -13.5t-6.5 -44.5h-101q0 92 29 133t77 41q29 0 53.5 -10.5t54.5 -28.5
q19 -12 32.5 -18t25.5 -6q17 0 22.5 13.5t5.5 44.5h101q-1 -90 -29 -131.5t-75 -41.5q-27 0 -50 9.5z" />
    <glyph glyph-name="uni1EE1" unicode="&#x1ee1;" horiz-adv-x="651" 
d="M178 25.5q-67 37.5 -106 102.5t-39 145q0 84 40.5 149t107.5 100.5t145 35.5q29 0 75 -8q40 -6 56 -6q68 0 68 73v53h128v-46q0 -129 -102 -165q32 -37 49.5 -84.5t17.5 -101.5q0 -80 -39 -145.5t-105.5 -102.5t-147.5 -37t-148 37.5zM425 165q38 42 38 108t-38 108
t-99 42t-99.5 -42t-38.5 -108t37.5 -108t100.5 -42q61 0 99 42zM346 615.5q-23 9.5 -55 27.5q-23 13 -36.5 19t-26.5 6q-15 0 -21.5 -13.5t-6.5 -44.5h-101q0 92 29 133t77 41q29 0 53.5 -10.5t54.5 -28.5q19 -12 32.5 -18t25.5 -6q17 0 22.5 13.5t5.5 44.5h101
q-1 -90 -29 -131.5t-75 -41.5q-27 0 -50 9.5z" />
    <glyph glyph-name="uni1EE2" unicode="&#x1ee2;" horiz-adv-x="878" 
d="M238 38.5q-90 50.5 -142 138.5t-52 196t51.5 195.5t141.5 138t202 50.5q47 0 91 -7q48 -6 79 -6t54 21t23 71v46h129v-49q0 -68 -22 -112.5t-77 -67.5q56 -53 87 -124.5t31 -155.5q0 -108 -52 -196t-142 -138.5t-201 -50.5t-201 50.5zM560 159q55 31 87 86.5t32 127.5
q0 71 -31.5 126.5t-86 86.5t-122.5 31t-122.5 -31t-86 -86.5t-31.5 -126.5q0 -72 32 -127.5t87 -86.5t121 -31t121 31zM368 -216v143h142v-143h-142z" />
    <glyph glyph-name="uni1EE3" unicode="&#x1ee3;" horiz-adv-x="651" 
d="M178 25.5q-67 37.5 -106 102.5t-39 145q0 84 40.5 149t107.5 100.5t145 35.5q29 0 75 -8q40 -6 56 -6q68 0 68 73v53h128v-46q0 -129 -102 -165q32 -37 49.5 -84.5t17.5 -101.5q0 -80 -39 -145.5t-105.5 -102.5t-147.5 -37t-148 37.5zM425 165q38 42 38 108t-38 108
t-99 42t-99.5 -42t-38.5 -108t37.5 -108t100.5 -42q61 0 99 42zM255 -216v143h142v-143h-142z" />
    <glyph glyph-name="uni1EE4" unicode="&#x1ee4;" horiz-adv-x="724" 
d="M205 25q-69 37 -108.5 101.5t-39.5 146.5v472h155v-462q0 -44 19.5 -79.5t53.5 -55.5t77 -20q44 0 77.5 20t53 55.5t19.5 79.5v462h155v-472q0 -82 -39.5 -146.5t-108.5 -101.5t-157 -37t-157 37zM291 -216v143h142v-143h-142z" />
    <glyph glyph-name="uni1EE5" unicode="&#x1ee5;" 
d="M138.5 16.5q-46.5 28.5 -70.5 79.5t-24 119v331h150v-319q0 -31 12.5 -54.5t35.5 -36.5t52 -13q30 0 52.5 13t35 36.5t12.5 54.5v319h150v-546h-140v108l8 -24q-19 -49 -61.5 -72.5t-99.5 -23.5q-66 0 -112.5 28.5zM235 -216v143h142v-143h-142z" />
    <glyph glyph-name="uni1EE6" unicode="&#x1ee6;" horiz-adv-x="724" 
d="M205 25q-69 37 -108.5 101.5t-39.5 146.5v472h155v-462q0 -44 19.5 -79.5t53.5 -55.5t77 -20q44 0 77.5 20t53 55.5t19.5 79.5v462h155v-472q0 -82 -39.5 -146.5t-108.5 -101.5t-157 -37t-157 37zM494.5 871q-14.5 -18 -40.5 -36q-15 -10 -22 -17t-7 -15v-13h-126v25
q0 15 10 25t30 22q19 11 29 20t10 24q0 14 -9 23t-25 9q-39 0 -63 -61l-95 42q21 57 66 87t104 30q67 0 110 -33.5t43 -83.5q0 -30 -14.5 -48z" />
    <glyph glyph-name="uni1EE7" unicode="&#x1ee7;" 
d="M138.5 16.5q-46.5 28.5 -70.5 79.5t-24 119v331h150v-319q0 -31 12.5 -54.5t35.5 -36.5t52 -13q30 0 52.5 13t35 36.5t12.5 54.5v319h150v-546h-140v108l8 -24q-19 -49 -61.5 -72.5t-99.5 -23.5q-66 0 -112.5 28.5zM419.5 670q-15.5 -19 -43.5 -38q-15 -9 -21.5 -15.5
t-6.5 -14.5v-11h-119v26q0 16 10.5 27t32.5 25q18 12 27.5 21t9.5 21q0 16 -10 25.5t-28 9.5q-19 0 -34 -14t-32 -48l-91 46q22 58 66.5 85.5t102.5 27.5q68 0 110 -33.5t42 -86.5q0 -34 -15.5 -53z" />
    <glyph glyph-name="uni1EE8" unicode="&#x1ee8;" horiz-adv-x="754" 
d="M205.5 25q-69.5 37 -109 102t-39.5 146v472h155v-462q0 -43 19 -78.5t53 -56t78 -20.5t78 20.5t53 56t19 78.5v462h83q35 0 55 15t20 47v63h129v-59q0 -69 -33 -113.5t-99 -53.5v-371q0 -81 -39.5 -146t-109 -102t-156.5 -37t-156.5 37zM400 977h179l-153 -190h-135z" />
    <glyph glyph-name="uni1EE9" unicode="&#x1ee9;" horiz-adv-x="651" 
d="M99 49q-55 61 -55 166v331h150v-319q0 -47 27.5 -75.5t72.5 -28.5t72.5 28.5t27.5 75.5v319h91q29 0 44.5 17t15.5 62v35h128v-38q0 -76 -34.5 -121t-94.5 -55v-446h-140v66q-21 -39 -60.5 -58.5t-92.5 -19.5q-97 0 -152 61zM297 810h178l-127 -200h-132z" />
    <glyph glyph-name="uni1EEA" unicode="&#x1eea;" horiz-adv-x="754" 
d="M205.5 25q-69.5 37 -109 102t-39.5 146v472h155v-462q0 -43 19 -78.5t53 -56t78 -20.5t78 20.5t53 56t19 78.5v462h83q35 0 55 15t20 47v63h129v-59q0 -69 -33 -113.5t-99 -53.5v-371q0 -81 -39.5 -146t-109 -102t-156.5 -37t-156.5 37zM309 787l-153 190h179l109 -190
h-135z" />
    <glyph glyph-name="uni1EEB" unicode="&#x1eeb;" horiz-adv-x="651" 
d="M99 49q-55 61 -55 166v331h150v-319q0 -47 27.5 -75.5t72.5 -28.5t72.5 28.5t27.5 75.5v319h91q29 0 44.5 17t15.5 62v35h128v-38q0 -76 -34.5 -121t-94.5 -55v-446h-140v66q-21 -39 -60.5 -58.5t-92.5 -19.5q-97 0 -152 61zM234 610l-127 200h175l81 -200h-129z" />
    <glyph glyph-name="uni1EEC" unicode="&#x1eec;" horiz-adv-x="754" 
d="M205.5 25q-69.5 37 -109 102t-39.5 146v472h155v-462q0 -43 19 -78.5t53 -56t78 -20.5t78 20.5t53 56t19 78.5v462h83q35 0 55 15t20 47v63h129v-59q0 -69 -33 -113.5t-99 -53.5v-371q0 -81 -39.5 -146t-109 -102t-156.5 -37t-156.5 37zM504.5 871q-14.5 -18 -40.5 -36
q-15 -10 -22 -17t-7 -15v-13h-126v25q0 15 10 25t30 22q19 11 29 20t10 24q0 14 -9 23t-25 9q-39 0 -63 -61l-95 42q21 57 66 87t104 30q67 0 110 -33.5t43 -83.5q0 -30 -14.5 -48z" />
    <glyph glyph-name="uni1EED" unicode="&#x1eed;" horiz-adv-x="651" 
d="M99 49q-55 61 -55 166v331h150v-319q0 -47 27.5 -75.5t72.5 -28.5t72.5 28.5t27.5 75.5v319h91q29 0 44.5 17t15.5 62v35h128v-38q0 -76 -34.5 -121t-94.5 -55v-446h-140v66q-21 -39 -60.5 -58.5t-92.5 -19.5q-97 0 -152 61zM420.5 680q-15.5 -19 -43.5 -38
q-15 -9 -21.5 -15.5t-6.5 -14.5v-11h-119v26q0 16 10.5 27t32.5 25q18 12 27.5 21t9.5 21q0 16 -10 25.5t-28 9.5q-19 0 -34 -14t-32 -48l-91 46q22 58 66.5 85.5t102.5 27.5q68 0 110 -33.5t42 -86.5q0 -34 -15.5 -53z" />
    <glyph glyph-name="uni1EEE" unicode="&#x1eee;" horiz-adv-x="754" 
d="M205.5 25q-69.5 37 -109 102t-39.5 146v472h155v-462q0 -43 19 -78.5t53 -56t78 -20.5t78 20.5t53 56t19 78.5v462h83q35 0 55 15t20 47v63h129v-59q0 -69 -33 -113.5t-99 -53.5v-371q0 -81 -39.5 -146t-109 -102t-156.5 -37t-156.5 37zM419 804.5q-23 9.5 -55 27.5
q-23 13 -36.5 19t-26.5 6q-15 0 -21.5 -13.5t-6.5 -44.5h-101q0 92 29 133t77 41q29 0 53.5 -10.5t54.5 -28.5q19 -12 32.5 -18t25.5 -6q17 0 22.5 13.5t5.5 44.5h101q-1 -90 -29 -131.5t-75 -41.5q-27 0 -50 9.5z" />
    <glyph glyph-name="uni1EEF" unicode="&#x1eef;" horiz-adv-x="651" 
d="M99 49q-55 61 -55 166v331h150v-319q0 -47 27.5 -75.5t72.5 -28.5t72.5 28.5t27.5 75.5v319h91q29 0 44.5 17t15.5 62v35h128v-38q0 -76 -34.5 -121t-94.5 -55v-446h-140v66q-21 -39 -60.5 -58.5t-92.5 -19.5q-97 0 -152 61zM336 615.5q-23 9.5 -55 27.5q-23 13 -36.5 19
t-26.5 6q-15 0 -21.5 -13.5t-6.5 -44.5h-101q0 92 29 133t77 41q29 0 53.5 -10.5t54.5 -28.5q19 -12 32.5 -18t25.5 -6q17 0 22.5 13.5t5.5 44.5h101q-1 -90 -29 -131.5t-75 -41.5q-27 0 -50 9.5z" />
    <glyph glyph-name="uni1EF0" unicode="&#x1ef0;" horiz-adv-x="754" 
d="M205.5 25q-69.5 37 -109 102t-39.5 146v472h155v-462q0 -43 19 -78.5t53 -56t78 -20.5t78 20.5t53 56t19 78.5v462h83q35 0 55 15t20 47v63h129v-59q0 -69 -33 -113.5t-99 -53.5v-371q0 -81 -39.5 -146t-109 -102t-156.5 -37t-156.5 37zM291 -216v143h142v-143h-142z" />
    <glyph glyph-name="uni1EF1" unicode="&#x1ef1;" horiz-adv-x="651" 
d="M99 49q-55 61 -55 166v331h150v-319q0 -47 27.5 -75.5t72.5 -28.5t72.5 28.5t27.5 75.5v319h91q29 0 44.5 17t15.5 62v35h128v-38q0 -76 -34.5 -121t-94.5 -55v-446h-140v66q-21 -39 -60.5 -58.5t-92.5 -19.5q-97 0 -152 61zM256 -216v143h142v-143h-142z" />
    <glyph glyph-name="Ygrave" unicode="&#x1ef2;" horiz-adv-x="672" 
d="M259 0v325l-248 420h177l148 -261l148 261h177l-247 -419v-326h-155zM273 787l-153 190h179l109 -190h-135z" />
    <glyph glyph-name="ygrave" unicode="&#x1ef3;" horiz-adv-x="602" 
d="M93.5 -216q-22.5 4 -39.5 13v123q14 -4 33 -7t35 -3q44 0 63 20.5t31 46.5l37 85l-2 -125l-240 609h161l159 -433h-60l159 433h161l-234 -597q-22 -56 -54 -94t-72.5 -56.5t-90.5 -18.5q-24 0 -46.5 4zM244 610l-127 200h175l81 -200h-129z" />
    <glyph glyph-name="uni1EF4" unicode="&#x1ef4;" horiz-adv-x="672" 
d="M259 0v325l-248 420h177l148 -261l148 261h177l-247 -419v-326h-155zM265 -216v143h142v-143h-142z" />
    <glyph glyph-name="uni1EF5" unicode="&#x1ef5;" horiz-adv-x="602" 
d="M93.5 -216q-22.5 4 -39.5 13v123q14 -4 33 -7t35 -3q44 0 63 20.5t31 46.5l37 85l-2 -125l-240 609h161l159 -433h-60l159 433h161l-234 -597q-22 -56 -54 -94t-72.5 -56.5t-90.5 -18.5q-24 0 -46.5 4zM430 -216v143h142v-143h-142z" />
    <glyph glyph-name="uni1EF6" unicode="&#x1ef6;" horiz-adv-x="672" 
d="M259 0v325l-248 420h177l148 -261l148 261h177l-247 -419v-326h-155zM468.5 871q-14.5 -18 -40.5 -36q-15 -10 -22 -17t-7 -15v-13h-126v25q0 15 10 25t30 22q19 11 29 20t10 24q0 14 -9 23t-25 9q-39 0 -63 -61l-95 42q21 57 66 87t104 30q67 0 110 -33.5t43 -83.5
q0 -30 -14.5 -48z" />
    <glyph glyph-name="uni1EF7" unicode="&#x1ef7;" horiz-adv-x="602" 
d="M93.5 -216q-22.5 4 -39.5 13v123q14 -4 33 -7t35 -3q44 0 63 20.5t31 46.5l37 85l-2 -125l-240 609h161l159 -433h-60l159 433h161l-234 -597q-22 -56 -54 -94t-72.5 -56.5t-90.5 -18.5q-24 0 -46.5 4zM430.5 680q-15.5 -19 -43.5 -38q-15 -9 -21.5 -15.5t-6.5 -14.5v-11
h-119v26q0 16 10.5 27t32.5 25q18 12 27.5 21t9.5 21q0 16 -10 25.5t-28 9.5q-19 0 -34 -14t-32 -48l-91 46q22 58 66.5 85.5t102.5 27.5q68 0 110 -33.5t42 -86.5q0 -34 -15.5 -53z" />
    <glyph glyph-name="uni1EF8" unicode="&#x1ef8;" horiz-adv-x="672" 
d="M259 0v325l-248 420h177l148 -261l148 261h177l-247 -419v-326h-155zM383 804.5q-23 9.5 -55 27.5q-23 13 -36.5 19t-26.5 6q-15 0 -21.5 -13.5t-6.5 -44.5h-101q0 92 29 133t77 41q29 0 53.5 -10.5t54.5 -28.5q19 -12 32.5 -18t25.5 -6q17 0 22.5 13.5t5.5 44.5h101
q-1 -90 -29 -131.5t-75 -41.5q-27 0 -50 9.5z" />
    <glyph glyph-name="uni1EF9" unicode="&#x1ef9;" horiz-adv-x="602" 
d="M93.5 -216q-22.5 4 -39.5 13v123q14 -4 33 -7t35 -3q44 0 63 20.5t31 46.5l37 85l-2 -125l-240 609h161l159 -433h-60l159 433h161l-234 -597q-22 -56 -54 -94t-72.5 -56.5t-90.5 -18.5q-24 0 -46.5 4zM346 615.5q-23 9.5 -55 27.5q-23 13 -36.5 19t-26.5 6
q-15 0 -21.5 -13.5t-6.5 -44.5h-101q0 92 29 133t77 41q29 0 53.5 -10.5t54.5 -28.5q19 -12 32.5 -18t25.5 -6q17 0 22.5 13.5t5.5 44.5h101q-1 -90 -29 -131.5t-75 -41.5q-27 0 -50 9.5z" />
    <glyph glyph-name="uni2002" unicode="&#x2002;" horiz-adv-x="500" 
 />
    <glyph glyph-name="uni2003" unicode="&#x2003;" horiz-adv-x="1000" 
 />
    <glyph glyph-name="uni2007" unicode="&#x2007;" horiz-adv-x="600" 
 />
    <glyph glyph-name="uni2008" unicode="&#x2008;" horiz-adv-x="408" 
 />
    <glyph glyph-name="uni2009" unicode="&#x2009;" horiz-adv-x="205" 
 />
    <glyph glyph-name="uni200A" unicode="&#x200a;" horiz-adv-x="42" 
 />
    <glyph glyph-name="uni200B" unicode="&#x200b;" horiz-adv-x="0" 
 />
    <glyph glyph-name="uni2010" unicode="&#x2010;" horiz-adv-x="634" 
d="M129 208v130h450v-130h-450z" />
    <glyph glyph-name="figuredash" unicode="&#x2012;" horiz-adv-x="684" 
d="M129 208v130h500v-130h-500z" />
    <glyph glyph-name="endash" unicode="&#x2013;" horiz-adv-x="684" 
d="M92 208v130h500v-130h-500z" />
    <glyph glyph-name="emdash" unicode="&#x2014;" horiz-adv-x="1014" 
d="M92 208v130h830v-130h-830z" />
    <glyph glyph-name="uni2015" unicode="&#x2015;" horiz-adv-x="1014" 
d="M129 208v130h830v-130h-830z" />
    <glyph glyph-name="quoteleft" unicode="&#x2018;" horiz-adv-x="386" 
d="M110 452v87q0 88 43 144.5t127 73.5v-75q-35 -8 -57.5 -29.5t-29.5 -50.5h67v-150h-150z" />
    <glyph glyph-name="quoteright" unicode="&#x2019;" horiz-adv-x="386" 
d="M110 515q35 8 57.5 29.5t29.5 50.5h-67v150h150v-87q0 -88 -43 -144.5t-127 -73.5v75z" />
    <glyph glyph-name="quotesinglbase" unicode="&#x201a;" horiz-adv-x="386" 
d="M110 -80q35 8 57.5 29.5t29.5 50.5h-67v150h150v-87q0 -88 -43 -144.5t-127 -73.5v75z" />
    <glyph glyph-name="quotedblleft" unicode="&#x201c;" horiz-adv-x="606" 
d="M330 452v87q0 88 43 144.5t127 73.5v-75q-35 -8 -57.5 -29.5t-29.5 -50.5h67v-150h-150zM110 452v87q0 88 43 144.5t127 73.5v-75q-35 -8 -57.5 -29.5t-29.5 -50.5h67v-150h-150z" />
    <glyph glyph-name="quotedblright" unicode="&#x201d;" horiz-adv-x="606" 
d="M330 515q35 8 57.5 29.5t29.5 50.5h-67v150h150v-87q0 -88 -43 -144.5t-127 -73.5v75zM110 515q35 8 57.5 29.5t29.5 50.5h-67v150h150v-87q0 -88 -43 -144.5t-127 -73.5v75z" />
    <glyph glyph-name="quotedblbase" unicode="&#x201e;" horiz-adv-x="606" 
d="M110 -80q35 8 57.5 29.5t29.5 50.5h-67v150h150v-87q0 -88 -43 -144.5t-127 -73.5v75zM330 -80q35 8 57.5 29.5t29.5 50.5h-67v150h150v-87q0 -88 -43 -144.5t-127 -73.5v75z" />
    <glyph glyph-name="dagger" unicode="&#x2020;" horiz-adv-x="690" 
d="M270 -190v588h-195v140h195v207h150v-207h195v-140h-195v-588h-150z" />
    <glyph glyph-name="daggerdbl" unicode="&#x2021;" horiz-adv-x="728" 
d="M289 -190v207h-195v140h195v241h-195v140h195v207h150v-207h195v-140h-195v-241h195v-140h-195v-207h-150z" />
    <glyph glyph-name="bullet" unicode="&#x2022;" horiz-adv-x="698" 
d="M238.5 77q-50.5 29 -80 80t-29.5 115q0 61 29 109.5t79.5 77.5t115.5 29q61 0 109 -29t77 -78t30 -109q0 -64 -29 -115t-77.5 -80t-109.5 -29q-64 0 -114.5 29z" />
    <glyph glyph-name="ellipsis" unicode="&#x2026;" horiz-adv-x="808" 
d="M129 0v150h150v-150h-150zM329 0v150h150v-150h-150zM529 0v150h150v-150h-150z" />
    <glyph glyph-name="perthousand" unicode="&#x2030;" horiz-adv-x="1503" 
d="M158 0l602 745h154l-602 -745h-154zM176.5 393.5q-44.5 26.5 -70.5 70.5t-26 98t26 98.5t70.5 70.5t100.5 26t100 -26t70 -70.5t26 -98.5t-26.5 -98t-70.5 -70.5t-99 -26.5q-56 0 -100.5 26.5zM322 489.5q18 12.5 27 32t9 40.5q0 22 -9 41t-27 31.5t-45 12.5t-45 -12.5
t-27.5 -31.5t-9.5 -41q0 -21 9.5 -40.5t27.5 -32t45 -12.5t45 12.5zM693.5 14.5q-44.5 26.5 -70.5 70.5t-26 98t26 98.5t70.5 70.5t100.5 26t100 -26t70 -70.5t26 -98.5t-26.5 -98t-70.5 -70.5t-99 -26.5q-56 0 -100.5 26.5zM839 110.5q18 12.5 27 32t9 40.5q0 22 -9 41
t-27 31.5t-45 12.5q-26 0 -44.5 -12.5t-28 -31.5t-9.5 -41q0 -21 9.5 -40.5t28 -32t44.5 -12.5q27 0 45 12.5zM1126.5 14.5q-44.5 26.5 -70.5 70.5t-26 98t26.5 98.5t71 70.5t99.5 26q56 0 100 -26t70 -70.5t26 -98.5t-26 -98t-70 -70.5t-100 -26.5t-100.5 26.5zM1272 110.5
q18 12.5 27 32t9 40.5q0 22 -9 41t-27 31.5t-45 12.5q-26 0 -44.5 -12.5t-28 -31.5t-9.5 -41q0 -21 9.5 -40.5t28 -32t44.5 -12.5q27 0 45 12.5z" />
    <glyph glyph-name="minute" unicode="&#x2032;" horiz-adv-x="397" 
d="M138 440v305h130l-17 -305h-113z" />
    <glyph glyph-name="second" unicode="&#x2033;" horiz-adv-x="596" 
d="M138 440v305h130l-17 -305h-113zM337 440v305h130l-17 -305h-113z" />
    <glyph glyph-name="guilsinglleft" unicode="&#x2039;" horiz-adv-x="418" 
d="M204 69l-154 200l154 200h163l-152 -200l152 -200h-163z" />
    <glyph glyph-name="guilsinglright" unicode="&#x203a;" horiz-adv-x="418" 
d="M51 69l152 200l-152 200h163l154 -200l-154 -200h-163z" />
    <glyph glyph-name="fraction" unicode="&#x2044;" horiz-adv-x="202" 
d="M-173 0l446 745h97l-446 -745h-97z" />
    <glyph glyph-name="uni2070" unicode="&#x2070;" horiz-adv-x="466" 
d="M123 249q-48 34 -74.5 95t-26.5 141q0 81 26.5 141.5t74 94t110.5 33.5q64 0 111 -33.5t73.5 -94t26.5 -141.5q0 -80 -26.5 -141t-73.5 -95t-111 -34q-62 0 -110 34zM284 342.5q21 19.5 31.5 55.5t10.5 87t-10.5 87t-31.5 55t-51 19q-29 0 -49.5 -19t-31 -54.5
t-10.5 -87.5q0 -50 10.5 -86.5t31 -56t49.5 -19.5q30 0 51 19.5z" />
    <glyph glyph-name="uni2074" unicode="&#x2074;" horiz-adv-x="476" 
d="M253 224v110h-225v101l216 310h129v-311h83v-100h-83v-110h-120zM253 434v167l-111 -167h111z" />
    <glyph glyph-name="uni2075" unicode="&#x2075;" horiz-adv-x="419" 
d="M125 231q-39 16 -66.5 45.5t-35.5 69.5l106 35q10 -31 30.5 -44t45.5 -13q32 0 53 19.5t21 53.5q0 22 -9 38t-25.5 25.5t-39.5 9.5q-20 0 -39 -9t-27 -33l-98 24l43 293h296v-99h-248l45 55l-29 -215l-32 28q17 29 43.5 42t69.5 13q53 0 90.5 -21.5t58 -60.5t20.5 -90
q0 -52 -25 -93t-68.5 -65t-99.5 -24q-41 0 -80 16z" />
    <glyph glyph-name="uni2076" unicode="&#x2076;" horiz-adv-x="420" 
d="M113 238q-43 23 -67 62.5t-24 88.5q0 43 15 81t54 88l145 187h142l-173 -219l-18 29q14 2 23 4t22 2q49 0 86.5 -22t59 -59.5t21.5 -83.5q0 -52 -24 -93t-66 -64.5t-98 -23.5q-55 0 -98 23zM259.5 343q20.5 19 20.5 51t-20.5 50.5t-48.5 18.5t-49 -18.5t-21 -50.5t21 -51
t49 -19t48.5 19z" />
    <glyph glyph-name="uni2077" unicode="&#x2077;" horiz-adv-x="387" 
d="M42 224l206 422h-237v100h362v-100l-198 -422h-133z" />
    <glyph glyph-name="uni2078" unicode="&#x2078;" horiz-adv-x="447" 
d="M119.5 237.5q-42.5 22.5 -65.5 58.5t-23 78q0 52 27 85t80 52l-9 -30q-37 11 -59 47t-22 79t22.5 76t61.5 52t90 19t90.5 -19t62 -52t22.5 -76t-22 -79t-60 -47l-7 30q54 -20 80.5 -53.5t26.5 -83.5q0 -42 -23 -78.5t-66 -58.5t-104 -22q-60 0 -102.5 22.5zM275 333
q21 18 21 46t-20.5 45t-53.5 17q-32 0 -51.5 -17t-19.5 -45t20 -46t51 -18q32 0 53 18zM263 558q15 17 15 39q0 24 -15 40.5t-41 16.5q-25 0 -40.5 -16.5t-15.5 -40.5q0 -22 15.5 -39t40.5 -17q26 0 41 17z" />
    <glyph glyph-name="uni2079" unicode="&#x2079;" horiz-adv-x="420" 
d="M43 224l173 220l18 -29q-18 -3 -29 -4.5t-26 -1.5q-45 0 -80.5 22t-56 59.5t-20.5 83.5q0 52 24 92.5t67 64t98 23.5t97.5 -23t66.5 -62t24 -88q0 -37 -12 -75.5t-56 -94.5l-146 -187h-142zM260 525q20 19 20 50q0 32 -20 51.5t-49 19.5q-28 0 -49 -19.5t-21 -51.5
q0 -31 21 -50t49 -19q29 0 49 19z" />
    <glyph glyph-name="uni207A" unicode="&#x207a;" horiz-adv-x="528" 
d="M216 308v128h-127v95h127v127h96v-127h127v-95h-127v-128h-96z" />
    <glyph glyph-name="uni207B" unicode="&#x207b;" horiz-adv-x="543" 
d="M114 436v95h315v-95h-315z" />
    <glyph glyph-name="uni207C" unicode="&#x207c;" horiz-adv-x="543" 
d="M114 506v95h315v-95h-315zM114 333v96h315v-96h-315z" />
    <glyph glyph-name="uni207D" unicode="&#x207d;" horiz-adv-x="328" 
d="M191 92q-59 70 -90.5 151t-31.5 175q0 95 30.5 176t91.5 151h95q-49 -79 -73 -160t-24 -167t24 -167.5t73 -158.5h-95z" />
    <glyph glyph-name="uni207E" unicode="&#x207e;" horiz-adv-x="328" 
d="M42 92q49 77 73 159t24 167q0 89 -24.5 170t-72.5 157h95q62 -72 92 -154t30 -173q0 -88 -29 -169.5t-93 -156.5h-95z" />
    </font>
</defs>
</svg>
