<svg width="113" height="32" viewBox="0 0 113 32" fill="none" xmlns="http://www.w3.org/2000/svg">
<path d="M16.8531 9.73389L1.67731 16.8101C0.895158 17.1745 0 16.6044 0 15.7422V8.72065C0 8.26228 0.265373 7.84581 0.680574 7.65281L16.848 0.111893C17.6302 -0.252519 18.5253 0.317589 18.5253 1.17973V7.10682C18.5253 8.23307 17.8727 9.25774 16.8531 9.73389Z" fill="url(#paint0_radial_1164_11674)"/>
<path d="M17.8448 24.3497L1.67731 31.8881C0.895158 32.2525 0 31.6824 0 30.8203V24.8932C0 23.7669 0.65264 22.7435 1.67223 22.2674L16.848 15.1912C17.6302 14.8268 18.5253 15.3969 18.5253 16.259V23.2806C18.5253 23.739 18.26 24.1567 17.8448 24.3497Z" fill="url(#paint1_radial_1164_11674)"/>
<path d="M0.214844 8.7207C0.214874 8.06003 0.858206 7.60885 1.46582 7.80078L1.58691 7.84766L17.6299 15.3271V15.3301L17.7539 15.3877C18.0931 15.5454 18.3105 15.8859 18.3105 16.2607V23.2822C18.3104 23.9428 17.6671 24.394 17.0596 24.2021L16.9385 24.1553L0.771484 16.6152C0.432276 16.4576 0.214844 16.1171 0.214844 15.7422V8.7207Z" fill="#D3C3B4" stroke="url(#paint2_linear_1164_11674)" stroke-width="0.429996"/>
<path d="M16.9395 15.3877C17.5786 15.0892 18.3104 15.5559 18.3105 16.2607V23.2822C18.3105 23.9429 17.6672 24.3941 17.0596 24.2021L16.9385 24.1553L7.54004 19.7715L16.9385 15.3877H16.9395ZM0.214844 8.72168C0.214844 8.06056 0.858564 7.60818 1.46582 7.80078L1.58594 7.84863H1.58691L10.9854 12.2314L1.58691 16.6162C0.947188 16.9143 0.215065 16.4477 0.214844 15.7432V8.72168Z" fill="url(#paint3_linear_1164_11674)" stroke="url(#paint4_linear_1164_11674)" stroke-width="0.429996"/>
<path d="M34.0506 5.73824C33.1275 5.28114 32.0419 5.05258 30.7899 5.05258H25.3047V21.8943H28.3838V15.6866H30.7899C32.0406 15.6866 33.1275 15.458 34.0506 15.0009C34.9724 14.5438 35.6784 13.914 36.1672 13.1128C36.6561 12.3103 36.9011 11.3961 36.9011 10.3702C36.9011 9.34426 36.6561 8.43006 36.1672 7.62759C35.6784 6.82639 34.9724 6.19534 34.0506 5.73824ZM33.4119 11.6209C33.1872 11.9904 32.8507 12.2824 32.4012 12.4995C31.9517 12.7167 31.407 12.8246 30.7645 12.8246H28.3825V7.91709H30.7645C31.4057 7.91709 31.9517 8.02121 32.4012 8.22944C32.8494 8.43768 33.1872 8.73099 33.4119 9.1081C33.6366 9.48521 33.7484 9.90675 33.7484 10.3715C33.7484 10.8362 33.6366 11.2527 33.4119 11.6209Z" fill="#2D1B1B"/>
<path d="M46.6818 15.5177H52.4604C52.3245 16.0941 52.0998 16.616 51.7823 17.082C51.3011 17.788 50.6637 18.3377 49.8701 18.7301C49.0765 19.1237 48.1662 19.3192 47.1389 19.3192C46.1117 19.3192 45.1417 19.0628 44.2757 18.5498C43.4098 18.0368 42.7279 17.3347 42.2314 16.4446C41.7337 15.5545 41.4861 14.5641 41.4861 13.4734C41.4861 12.3827 41.735 11.3923 42.2314 10.5023C42.7279 9.61218 43.4098 8.91002 44.2757 8.39705C45.1417 7.88408 46.0965 7.62759 47.1389 7.62759C48.3579 7.62759 49.3838 7.89677 50.218 8.43387C51.0522 8.97096 51.7417 9.69725 52.2877 10.6115H55.5357C55.1509 9.44076 54.5567 8.41482 53.7555 7.53236C52.953 6.6499 51.9868 5.96806 50.8567 5.48683C49.7254 5.0056 48.4874 4.76562 47.1402 4.76562C45.5518 4.76562 44.084 5.14273 42.7368 5.89695C41.3896 6.65117 40.3192 7.68981 39.5244 9.01287C38.7308 10.3359 38.3334 11.824 38.3334 13.476C38.3334 15.1279 38.7308 16.616 39.5244 17.9391C40.318 19.2621 41.3883 20.3007 42.7368 21.055C44.084 21.8092 45.5518 22.1863 47.1402 22.1863C48.8239 22.1863 50.3158 21.813 51.6147 21.0677C52.9137 20.3223 53.9282 19.2989 54.6583 18C55.3884 16.7011 55.7528 15.2256 55.7528 13.5737V12.6595H46.6818V15.5228V15.5177Z" fill="#2D1B1B"/>
<path d="M66.9695 12.8741C67.2857 12.7205 67.5828 12.5338 67.8571 12.3065C68.2736 11.9624 68.6024 11.5523 68.8437 11.08C69.0849 10.6076 69.2043 10.0972 69.2043 9.5525C69.2043 8.6548 68.9757 7.86503 68.5186 7.18319C68.0615 6.50135 67.4 5.97695 66.534 5.60746C65.6681 5.23924 64.6333 5.05386 63.4308 5.05386H58.2579V21.8955H63.7914C65.0904 21.8955 66.2014 21.6835 67.1232 21.2581C68.045 20.8328 68.7434 20.2474 69.217 19.5021C69.6893 18.7568 69.9268 17.8946 69.9268 16.9157C69.9268 15.8732 69.6093 14.9755 68.977 14.2213C68.4501 13.5953 67.7796 13.1484 66.9708 12.8767L66.9695 12.8741ZM63.4308 7.72282C64.265 7.72282 64.9139 7.91963 65.3799 8.31198C65.8446 8.70559 66.0782 9.21475 66.0782 9.83946C66.0782 10.2407 65.9779 10.6013 65.7773 10.9225C65.5767 11.2438 65.2757 11.4965 64.8745 11.6806C64.4733 11.8647 63.992 11.9574 63.4308 11.9574H61.337V7.72282H63.4308ZM66.4261 18.0559C66.1937 18.4165 65.8611 18.7022 65.4281 18.9104C64.9951 19.1186 64.4733 19.2227 63.8638 19.2227H61.337V14.507H63.8638C64.4733 14.507 64.9951 14.6111 65.4281 14.8193C65.8611 15.0276 66.1937 15.3082 66.4261 15.6612C66.6585 16.0141 66.7753 16.4154 66.7753 16.8636C66.7753 17.3118 66.6585 17.6953 66.4261 18.0559Z" fill="#2D1B1B"/>
<path d="M81.306 11.1041C81.0788 10.854 80.84 10.6305 80.5848 10.4413C80.1518 10.1213 79.6579 9.87627 79.1056 9.7074C78.552 9.53852 77.9463 9.45472 77.2899 9.45472C76.2309 9.45472 75.2329 9.72771 74.2946 10.2724C73.3563 10.8171 72.5982 11.5752 72.0218 12.5465C71.4441 13.5166 71.1558 14.6124 71.1558 15.83C71.1558 17.0477 71.4441 18.1193 72.0218 19.0907C72.5995 20.0608 73.3575 20.8188 74.2946 21.3648C75.2329 21.9095 76.2309 22.1825 77.2899 22.1825C78.2841 22.1825 79.1462 21.9984 79.8763 21.6289C80.4071 21.361 80.8832 20.994 81.3073 20.5318V21.8942H84.1223V9.74422H81.3073L81.306 11.1041ZM80.8604 17.6711C80.548 18.2247 80.1099 18.6615 79.5487 18.9828C78.9875 19.304 78.378 19.464 77.7203 19.464C77.0626 19.464 76.4328 19.304 75.8792 18.9828C75.3256 18.6615 74.8888 18.2247 74.5676 17.6711C74.2463 17.1175 74.0864 16.5043 74.0864 15.83C74.0864 15.1558 74.2463 14.5184 74.5676 13.9661C74.8888 13.4125 75.3256 12.9757 75.8792 12.6544C76.4328 12.3332 77.0461 12.1732 77.7203 12.1732C78.3945 12.1732 78.9875 12.3332 79.5487 12.6544C80.1099 12.9757 80.5467 13.4125 80.8604 13.9661C81.1727 14.5197 81.3302 15.1406 81.3302 15.83C81.3302 16.5195 81.174 17.1175 80.8604 17.6711Z" fill="#2D1B1B"/>
<path d="M95.9092 10.1416C95.155 9.68454 94.3055 9.45599 93.3583 9.45599C92.7971 9.45599 92.2714 9.53599 91.7826 9.69597C91.2937 9.85596 90.8328 10.0972 90.3998 10.4172C90.1535 10.6 89.9224 10.8108 89.7015 11.0444V9.74295H86.8624V21.893H89.798V15.1799C89.798 14.6022 89.9224 14.0854 90.1713 13.6283C90.4202 13.1712 90.7643 12.8144 91.2061 12.5579C91.6467 12.3015 92.133 12.1732 92.6612 12.1732C93.2225 12.1732 93.7075 12.2976 94.1163 12.5465C94.5252 12.7954 94.8375 13.1484 95.0547 13.6055C95.2718 14.0626 95.3797 14.5882 95.3797 15.1812V21.8942H98.2912V14.7C98.2912 13.7223 98.083 12.8322 97.6652 12.0297C97.2488 11.2285 96.6621 10.5987 95.9092 10.1416Z" fill="#2D1B1B"/>
<path d="M100.495 5.05258V21.8943H103.43V5.05258H100.495Z" fill="#2D1B1B"/>
<path d="M107.16 15.6243L112.494 9.74422H108.747L103.43 15.7348L108.987 21.8943H112.879L107.16 15.6243Z" fill="#2D1B1B"/>
<path d="M71.1536 30.3138V25.2615H72.8639C73.2588 25.2615 73.5978 25.3314 73.8823 25.471C74.1667 25.6107 74.3838 25.8024 74.5349 26.0488C74.686 26.2938 74.7622 26.5782 74.7622 26.9007C74.7622 27.2233 74.686 27.5064 74.5349 27.7527C74.3838 27.9978 74.1654 28.1908 73.8823 28.3305C73.5978 28.4701 73.2588 28.54 72.8639 28.54H71.9396V27.5877H72.8487C73.0315 27.5877 73.1864 27.5572 73.3147 27.4975C73.4417 27.4378 73.5369 27.354 73.6004 27.2487C73.6626 27.1433 73.6943 27.0277 73.6943 26.902C73.6943 26.7763 73.6626 26.662 73.6004 26.5554C73.5382 26.45 73.4429 26.3662 73.3147 26.3065C73.1877 26.2468 73.0315 26.2164 72.8487 26.2164H72.1986V30.3163H71.1523L71.1536 30.3138Z" fill="#AA856D"/>
<path d="M76.9423 30.3138V25.2615H78.6526C79.0475 25.2615 79.3865 25.3314 79.6709 25.471C79.9553 25.6107 80.1725 25.8024 80.3236 26.0488C80.4747 26.2938 80.5509 26.5782 80.5509 26.9007C80.5509 27.2233 80.4747 27.5001 80.3236 27.7451C80.1725 27.9902 79.9541 28.1832 79.6709 28.3228C79.3865 28.4625 79.0475 28.5323 78.6526 28.5323H77.7282V27.58H78.6374C78.8202 27.58 78.9751 27.5508 79.1034 27.4937C79.2303 27.4366 79.3256 27.354 79.3891 27.2487C79.4513 27.1433 79.483 27.0277 79.483 26.902C79.483 26.7763 79.4513 26.6557 79.3891 26.5516C79.3268 26.4487 79.2316 26.3662 79.1034 26.3065C78.9764 26.2468 78.8202 26.2164 78.6374 26.2164H77.9873V30.3163H76.941L76.9423 30.3138ZM79.8792 30.3138L78.1041 28.1552H79.3814L81.1641 30.3138H79.8792Z" fill="#AA856D"/>
<path d="M83.0916 30.3138V25.2615H84.1378V30.3138H83.0916Z" fill="#AA856D"/>
<path d="M89.1393 30.4014C88.653 30.4014 88.206 30.2897 87.7972 30.0662C87.3883 29.8427 87.0633 29.5316 86.8233 29.1355C86.582 28.7381 86.4627 28.2898 86.4627 27.7896C86.4627 27.2893 86.5833 26.8398 86.8233 26.4437C87.0633 26.0462 87.3883 25.7364 87.7972 25.5129C88.206 25.2895 88.6542 25.1777 89.1393 25.1777C89.6243 25.1777 90.0725 25.2895 90.4814 25.5129C90.8902 25.7364 91.2153 26.0475 91.4552 26.4437C91.6952 26.8411 91.8158 27.2893 91.8158 27.7896C91.8158 28.2898 91.6952 28.7381 91.4552 29.1355C91.214 29.5329 90.8902 29.8427 90.4814 30.0662C90.0725 30.2897 89.6243 30.4014 89.1393 30.4014ZM89.1393 29.4415C89.4465 29.4415 89.7221 29.3691 89.9659 29.2244C90.2084 29.0796 90.4014 28.8841 90.5436 28.6365C90.6858 28.3889 90.7569 28.1057 90.7569 27.7883C90.7569 27.4709 90.6858 27.1877 90.5436 26.9401C90.4014 26.6925 90.2096 26.4957 89.9659 26.3522C89.7233 26.2075 89.4478 26.1351 89.1393 26.1351C88.8307 26.1351 88.5615 26.2075 88.3165 26.3522C88.0714 26.497 87.8772 26.6925 87.7349 26.9401C87.5927 27.1877 87.5216 27.4709 87.5216 27.7883C87.5216 28.1057 87.5927 28.3889 87.7349 28.6365C87.8772 28.8841 88.0702 29.0809 88.3165 29.2244C88.5615 29.3691 88.8358 29.4415 89.1393 29.4415Z" fill="#AA856D"/>
<path d="M94.1052 30.3138V25.2615H95.8155C96.2104 25.2615 96.5494 25.3314 96.8338 25.471C97.1183 25.6107 97.3354 25.8024 97.4865 26.0488C97.6376 26.2938 97.7138 26.5782 97.7138 26.9007C97.7138 27.2233 97.6376 27.5001 97.4865 27.7451C97.3354 27.9902 97.117 28.1832 96.8338 28.3228C96.5494 28.4625 96.2104 28.5323 95.8155 28.5323H94.8912V27.58H95.8003C95.9831 27.58 96.138 27.5508 96.2663 27.4937C96.3945 27.4366 96.4885 27.354 96.552 27.2487C96.6142 27.1433 96.6459 27.0277 96.6459 26.902C96.6459 26.7763 96.6142 26.6557 96.552 26.5516C96.4897 26.4487 96.3945 26.3662 96.2663 26.3065C96.1393 26.2468 95.9831 26.2164 95.8003 26.2164H95.1502V30.3163H94.1039L94.1052 30.3138ZM97.0421 30.3138L95.267 28.1552H96.5443L98.327 30.3138H97.0421Z" fill="#AA856D"/>
<path d="M100.254 30.3138V25.2615H101.301V30.3138H100.254Z" fill="#AA856D"/>
<path d="M104.707 30.3138V26.2214H103.452V25.2615H107.003V26.2214H105.755V30.3138H104.707Z" fill="#AA856D"/>
<path d="M110.188 30.3138V28.2784L108.55 25.2615H109.727L110.91 27.5712H110.542L111.725 25.2615H112.881L111.235 28.2784V30.3138H110.188Z" fill="#AA856D"/>
<defs>
<radialGradient id="paint0_radial_1164_11674" cx="0" cy="0" r="1" gradientUnits="userSpaceOnUse" gradientTransform="translate(9.31658 16.0532) rotate(29.6098) scale(15.0848 17.6247)">
<stop stop-color="#2D1B1B"/>
<stop offset="0.8" stop-color="#BCA28D"/>
</radialGradient>
<radialGradient id="paint1_radial_1164_11674" cx="0" cy="0" r="1" gradientUnits="userSpaceOnUse" gradientTransform="translate(9.31658 16.0532) rotate(29.6098) scale(15.0848 17.6247)">
<stop stop-color="#2D1B1B"/>
<stop offset="0.8" stop-color="#BCA28D"/>
</radialGradient>
<linearGradient id="paint2_linear_1164_11674" x1="6.66493" y1="14.6929" x2="12.6849" y2="17.9179" gradientUnits="userSpaceOnUse">
<stop stop-color="#EAE1DB" stop-opacity="0"/>
<stop offset="0.25" stop-color="#EAE1DB"/>
<stop offset="0.75" stop-color="#EAE1DB" stop-opacity="0.858824"/>
<stop offset="1" stop-color="#EAE1DB" stop-opacity="0"/>
</linearGradient>
<linearGradient id="paint3_linear_1164_11674" x1="18.5253" y1="16.0016" x2="0" y2="16.0016" gradientUnits="userSpaceOnUse">
<stop offset="0.16" stop-color="#BCA28D"/>
<stop offset="0.5" stop-color="#D3C3B4"/>
<stop offset="0.84" stop-color="#BCA28D"/>
</linearGradient>
<linearGradient id="paint4_linear_1164_11674" x1="18.5253" y1="16.0016" x2="0" y2="16.0016" gradientUnits="userSpaceOnUse">
<stop offset="0.2" stop-color="#BCA28D"/>
<stop offset="0.397512" stop-color="#EAE2DB"/>
<stop offset="0.601763" stop-color="#EAE2DB"/>
<stop offset="0.8" stop-color="#BCA28D"/>
</linearGradient>
</defs>
</svg>
