<svg width="24" height="24" viewBox="0 0 24 24" fill="none" xmlns="http://www.w3.org/2000/svg">
<path d="M5 9.99512V18.9998M9 9.99512V18.9998M15 9.99512V18.9998M19 9.99512V18.9998" stroke="#30CBFF" stroke-width="1.5" stroke-linecap="square" stroke-linejoin="round"/>
<path d="M11.9959 6.99999H12.0049M20 21.9999H4.0002C3.44795 21.9999 3.00026 21.5522 3.0002 21L3.0001 20.0001C3.00004 19.4478 3.44778 19 4.0001 19H20C20.5523 19 21 19.4477 21 20V20.9999C21 21.5522 20.5523 21.9999 20 21.9999ZM4 9.99501H20C20.5523 9.99501 21 9.5473 21 8.99501V7.5884C21 7.22523 20.8031 6.89061 20.4856 6.71424L12.4856 2.26979C12.1836 2.102 11.8164 2.102 11.5144 2.26979L3.51436 6.71424C3.19689 6.89061 3 7.22523 3 7.5884V8.99501C3 9.5473 3.44772 9.99501 4 9.99501Z" stroke="#1F1D83" stroke-width="1.5" stroke-linecap="round" stroke-linejoin="round"/>
</svg>
