<svg width="24" height="24" viewBox="0 0 24 24" fill="none" xmlns="http://www.w3.org/2000/svg">
<path d="M20.5 14.25H18C17.6022 14.25 17.2206 14.408 16.9393 14.6893C16.658 14.9706 16.5 15.3522 16.5 15.75C16.5 16.1478 16.658 16.5294 16.9393 16.8107C17.2206 17.092 17.6022 17.25 18 17.25H19C19.3978 17.25 19.7794 17.408 20.0607 17.6893C20.342 17.9706 20.5 18.3522 20.5 18.75C20.5 19.1478 20.342 19.5294 20.0607 19.8107C19.7794 20.092 19.3978 20.25 19 20.25H16.5M18.5 20.25V21.75M18.5 12.75V14.25" stroke="#30CBFF" stroke-width="1.5" stroke-linecap="round" stroke-linejoin="round"/>
<path d="M14 21L12 19L10 21L8 19L5 21V5C5 4.46957 5.21071 3.96086 5.58579 3.58579C5.96086 3.21071 6.46957 3 7 3H17C17.5304 3 18.0391 3.21071 18.4142 3.58579C18.7893 3.96086 19 4.46957 19 5V9.75" stroke="#1F1D83" stroke-width="1.5" stroke-linecap="round" stroke-linejoin="round"/>
<path d="M8.25 7.5H15M8.25 10.5H11.25" stroke="#97DC41" stroke-width="1.5" stroke-linecap="round" stroke-linejoin="round"/>
</svg>
