<svg width="24" height="24" viewBox="0 0 24 24" fill="none" xmlns="http://www.w3.org/2000/svg">
<path d="M3 7L12 13L21 7" stroke="#97DC41" stroke-width="1.5" stroke-linecap="round" stroke-linejoin="round"/>
<path d="M12 19H5C4.46957 19 3.96086 18.7893 3.58579 18.4142C3.21071 18.0391 3 17.5304 3 17V7C3 6.46957 3.21071 5.96086 3.58579 5.58579C3.96086 5.21071 4.46957 5 5 5H19C19.5304 5 20.0391 5.21071 20.4142 5.58579C20.7893 5.96086 21 6.46957 21 7V12" stroke="#1F1D83" stroke-width="1.5" stroke-linecap="round" stroke-linejoin="round"/>
<path d="M19.0012 21C18.4708 21 17.9621 20.7893 17.587 20.4142C17.2119 20.0391 17.0012 19.5304 17.0012 19C17.0012 18.4696 17.2119 17.9609 17.587 17.5858C17.9621 17.2107 18.4708 17 19.0012 17M19.0012 21C19.5317 21 20.0404 20.7893 20.4154 20.4142C20.7905 20.0391 21.0012 19.5304 21.0012 19C21.0012 18.4696 20.7905 17.9609 20.4154 17.5858C20.0404 17.2107 19.5317 17 19.0012 17M19.0012 21L19.0012 22.5M19.0012 17L19.0012 15.5M22.0322 17.25L20.7332 18M17.2702 20L15.9702 20.75M15.9702 17.25L17.2702 18M20.7332 20L22.0332 20.75" stroke="#30CBFF" stroke-width="1.5" stroke-linecap="round" stroke-linejoin="round"/>
</svg>
