<svg width="24" height="24" viewBox="0 0 24 24" fill="none" xmlns="http://www.w3.org/2000/svg">
<path d="M13 20H5C4.46957 20 3.96086 19.7893 3.58579 19.4142C3.21071 19.0391 3 18.5304 3 18V6C3 5.46957 3.21071 4.96086 3.58579 4.58579C3.96086 4.21071 4.46957 4 5 4H19C19.5304 4 20.0391 4.21071 20.4142 4.58579C20.7893 4.96086 21 5.46957 21 6V10.5" stroke="#1F1D83" stroke-width="1.5" stroke-linecap="round" stroke-linejoin="round"/>
<path d="M23 15.8125H16L18.4062 13.1875M16 19.1875H23L20.5938 21.8125" stroke="#30CBFF" stroke-width="1.5" stroke-linecap="round" stroke-linejoin="round"/>
<path d="M10 12C10 12.2626 10.0517 12.5227 10.1522 12.7654C10.2528 13.008 10.4001 13.2285 10.5858 13.4142C10.7715 13.5999 10.992 13.7472 11.2346 13.8478C11.4773 13.9483 11.7374 14 12 14C12.2626 14 12.5227 13.9483 12.7654 13.8478C13.008 13.7472 13.2285 13.5999 13.4142 13.4142C13.5999 13.2285 13.7472 13.008 13.8478 12.7654C13.9483 12.5227 14 12.2626 14 12C14 11.4696 13.7893 10.9609 13.4142 10.5858C13.0391 10.2107 12.5304 10 12 10C11.4696 10 10.9609 10.2107 10.5858 10.5858C10.2107 10.9609 10 11.4696 10 12Z" stroke="#97DC41" stroke-width="1.5" stroke-linecap="round" stroke-linejoin="round"/>
</svg>
