<svg width="24" height="24" viewBox="0 0 24 24" fill="none" xmlns="http://www.w3.org/2000/svg">
<path d="M10.5 9.5C10.5 10.0304 10.7107 10.5391 11.0858 10.9142C11.4609 11.2893 11.9696 11.5 12.5 11.5C13.0304 11.5 13.5391 11.2893 13.9142 10.9142C14.2893 10.5391 14.5 10.0304 14.5 9.5C14.5 8.96957 14.2893 8.46086 13.9142 8.08579C13.5391 7.71071 13.0304 7.5 12.5 7.5C11.9696 7.5 11.4609 7.71071 11.0858 8.08579C10.7107 8.46086 10.5 8.96957 10.5 9.5Z" stroke="#30CBFF" stroke-width="1.5" stroke-linecap="round" stroke-linejoin="round"/>
<path d="M9.5 16.5C9.5 15 9.71071 14.4609 10.0858 14.0858C10.4609 13.7107 10.9696 13.5 11.5 13.5H13.5C14.0304 13.5 14.5391 13.7107 14.9142 14.0858C15.2893 14.4609 15.5 15 15.5 16.5" stroke="#30CBFF" stroke-width="1.5" stroke-linecap="round" stroke-linejoin="round"/>
<path d="M3 8H6M3 12H6M3 16H6M20 6V18C20 18.5304 19.7742 19.0391 19.3724 19.4142C18.9705 19.7893 18.4255 20 17.8571 20H7.14286C6.57454 20 6.02949 19.7893 5.62763 19.4142C5.22576 19.0391 5 18.5304 5 18V6C5 5.46957 5.22576 4.96086 5.62763 4.58579C6.02949 4.21071 6.57454 4 7.14286 4H17.8571C18.4255 4 18.9705 4.21071 19.3724 4.58579C19.7742 4.96086 20 5.46957 20 6Z" stroke="#1F1D83" stroke-width="1.5" stroke-linecap="round" stroke-linejoin="round"/>
</svg>
