<svg width="160" height="160" viewBox="0 0 160 160" fill="none" xmlns="http://www.w3.org/2000/svg">
<path opacity="0.8" fill-rule="evenodd" clip-rule="evenodd" d="M81.1464 16.0871C74.8848 17.3445 69.1831 20.618 64.9016 25.4088H64.8808C63.585 26.7597 62.4239 28.2146 61.3975 29.7942H61.4183L60.4438 32.3611C59.7388 32.0077 59.0235 31.6752 58.3082 31.353C52.1503 29.1499 45.4637 29.0252 39.2332 30.9789C32.9923 32.943 27.5497 36.892 23.6932 42.2231C19.8471 47.575 17.8049 54.0285 17.8774 60.6379C17.95 67.2576 20.1167 73.6591 24.0768 78.9279L26.0984 80.7153C25.1342 81.7961 24.2634 82.96 23.4859 84.1967H23.4548C6.67084 110.416 28.9907 140.833 58.557 130.14L58.5363 130.119L61.1798 128.675C62.4342 130.847 63.8545 132.925 65.4199 134.889C69.4837 139.763 74.9678 143.192 81.105 144.679C87.2422 146.165 93.6696 145.624 99.4647 143.14C105.26 140.657 110.132 136.365 113.346 130.878C116.56 125.391 117.959 119.01 117.337 112.671H117.306L116.829 110.125C142.705 104.617 153.165 71.508 127.642 54.4962C125.029 52.7087 122.158 51.3681 119.12 50.516V50.4952L116.415 49.8405C117.296 43.5117 116.166 37.0583 113.18 31.4258C110.163 25.7205 105.426 21.1584 99.6513 18.3941C93.877 15.6298 87.3769 14.8192 81.1257 16.0767L81.105 16.0559L81.1464 16.0871Z" fill="url(#paint0_linear_11429_3253)"/>
<g filter="url(#filter0_b_11429_3253)">
<path d="M138.016 53.3215C138.016 54.572 137.546 55.7806 136.683 56.7224C135.825 57.6642 134.633 58.2712 133.338 58.4334C133.103 58.4647 132.863 58.4752 132.622 58.4752H114.708C114.32 58.4752 113.932 58.4438 113.55 58.3863C111.905 58.1142 110.418 57.2666 109.385 56.0109C108.352 54.7551 107.839 53.175 107.948 51.5792C108.057 49.9834 108.779 48.4818 109.97 47.3621C111.167 46.2424 112.752 45.5884 114.418 45.5204C115.282 43.7205 116.736 42.2398 118.555 41.3032C120.375 40.3667 122.468 40.0161 124.512 40.3143C126.556 40.6126 128.447 41.5387 129.89 42.9566C131.338 44.3745 132.261 46.2005 132.529 48.1626H132.611C133.322 48.1626 134.021 48.2934 134.677 48.555C135.333 48.8114 135.928 49.1933 136.426 49.6747C136.928 50.1561 137.322 50.7211 137.595 51.349C137.868 51.9769 138.005 52.6466 138.005 53.3215H138.016Z" fill="url(#paint1_linear_11429_3253)"/>
</g>
<g filter="url(#filter1_b_11429_3253)">
<path d="M17.686 109.19C17.686 110.441 18.1399 111.645 18.9706 112.586C19.7971 113.526 20.9447 114.134 22.1907 114.296C22.4177 114.326 22.6446 114.343 22.8759 114.343H40.124C40.5008 114.343 40.8734 114.313 41.2459 114.249C42.8388 113.986 44.2776 113.143 45.2839 111.884C46.2902 110.624 46.7869 109.041 46.6798 107.437C46.5728 105.833 45.8748 104.326 44.7144 103.207C43.5539 102.088 42.0167 101.437 40.4023 101.382C39.5673 99.5862 38.1671 98.1055 36.4157 97.1693C34.6601 96.2332 32.6518 95.8843 30.6821 96.1821C28.7123 96.48 26.8967 97.4034 25.5008 98.8203C24.1091 100.233 23.2141 102.058 22.9572 104.02H22.8759C22.195 104.02 21.5184 104.152 20.889 104.412C20.2595 104.671 19.6857 105.05 19.2061 105.531C18.7223 106.011 18.3412 106.582 18.0842 107.207C17.823 107.833 17.6903 108.505 17.6903 109.182L17.686 109.19Z" fill="url(#paint2_linear_11429_3253)"/>
</g>
<path opacity="0.7" d="M78.6095 123.549C78.8303 122.734 80.1049 122.734 80.3157 123.549L81.0484 126.293C81.1287 126.586 81.3695 126.814 81.6907 126.878L84.7017 127.537C85.595 127.738 85.595 128.891 84.7017 129.083L81.6907 129.742C81.3695 129.815 81.1186 130.034 81.0484 130.327L80.3157 133.071C80.0949 133.885 78.8202 133.885 78.6095 133.071L77.8768 130.327C77.7965 130.034 77.5556 129.806 77.2344 129.742L74.2235 129.083C73.3302 128.882 73.3302 127.729 74.2235 127.537L77.2344 126.878C77.5556 126.805 77.7965 126.586 77.8768 126.293L78.6095 123.549Z" fill="#8ABBBA"/>
<g filter="url(#filter2_b_11429_3253)">
<path fill-rule="evenodd" clip-rule="evenodd" d="M68.8599 88.8911C68.6071 86.7908 68.7534 84.6378 69.2857 82.5704C68.3809 82.0963 67.5559 81.4708 66.8241 80.7203L55.3746 68.8229C53.5983 66.9596 52.6469 64.5301 52.7068 61.9755C52.76 59.4143 53.8311 57.0243 55.7139 55.2466C59.5925 51.6056 65.7464 51.7504 69.432 55.5823L80.8816 67.4797C81.7531 68.3949 82.425 69.422 82.8708 70.5347C82.9107 70.6006 82.9373 70.673 82.9572 70.7454V70.7652C84.3277 74.3601 83.3897 78.3829 80.5622 81.0495C78.9988 82.5243 78.114 84.5127 78.0674 86.6393C78.0541 87.4689 78.1672 88.2853 78.3934 89.0754C80.7751 88.3775 82.9639 87.12 84.7602 85.4213C86.7427 83.5514 88.1531 81.2602 88.9381 78.7714C88.9381 78.6726 88.9647 78.5805 89.0113 78.4883C89.0246 78.4619 89.0379 78.4422 89.0512 78.4158C89.7032 76.1575 89.8363 73.7412 89.3972 71.3446C89.324 71.2129 89.2907 71.0549 89.3107 70.8969C88.7119 68.0855 87.3348 65.4914 85.3123 63.3779L73.8628 51.4871C67.8553 45.2651 57.8561 45.0215 51.5692 50.9472C48.5288 53.8178 46.7991 57.6892 46.6993 61.8504C46.5929 66.0181 48.1363 69.9685 51.0303 72.9774L62.4798 84.8748C64.2495 86.7183 66.4383 88.0878 68.8798 88.8911H68.8599Z" fill="url(#paint3_linear_11429_3253)"/>
</g>
<path d="M97.5202 76.1245L108.97 88.0219L108.963 88.0285C111.864 91.0374 113.401 94.9813 113.301 99.149C113.194 103.31 111.465 107.182 108.424 110.052C105.391 112.916 101.399 114.437 97.1876 114.338C92.983 114.233 89.0645 112.521 86.1705 109.512L74.721 97.6149C72.6652 95.4751 71.2681 92.8217 70.6893 89.9313C70.6827 89.8786 70.676 89.8325 70.6627 89.7864C70.1904 87.3438 70.3168 84.7826 71.0353 82.3794C71.8137 79.7918 73.2773 77.4348 75.2598 75.5583C77.0561 73.8596 79.2382 72.6086 81.6133 71.9107C82.4382 74.7419 81.6133 77.7969 79.4179 79.8643C77.5351 81.642 76.464 84.032 76.4108 86.5998C76.3975 87.8837 76.617 89.128 77.0694 90.3066C77.5285 91.4851 78.2137 92.5452 79.0985 93.4603L90.548 105.358C92.3377 107.221 94.7526 108.288 97.3406 108.347H97.5867C100.088 108.347 102.457 107.412 104.273 105.694C106.156 103.929 107.233 101.539 107.293 98.9778C107.353 96.41 106.402 93.9739 104.612 92.1172L93.156 80.2198C92.4375 79.4824 91.6258 78.8701 90.741 78.396C91.2599 76.3747 91.4063 74.2481 91.1535 72.1148C93.5751 72.9247 95.7572 74.2942 97.5202 76.1245Z" fill="#B0D1D0"/>
<g filter="url(#filter3_b_11429_3253)">
<path d="M95.4647 63.9901C94.9059 64.5168 94.8792 65.3925 95.4115 65.9521L95.4181 65.9587C95.6842 66.2353 96.0501 66.3933 96.436 66.3933C96.7953 66.3933 97.1412 66.255 97.4007 66.0114L99.5828 63.9638C100.148 63.437 100.168 62.5548 99.636 61.9951C99.1038 61.4355 98.2123 61.4157 97.6468 61.9425L95.4647 63.9901Z" fill="#B0D1D0"/>
<path d="M98.2655 71.0219C97.4938 70.9824 96.895 70.324 96.935 69.5602C96.9749 68.7965 97.6335 68.2039 98.4119 68.2434L101.492 68.408C102.264 68.4475 102.863 69.1059 102.823 69.8697C102.783 70.6071 102.164 71.1865 101.419 71.1865H101.346L98.2655 71.0219Z" fill="#B0D1D0"/>
<path d="M63.0654 91.439C63.0255 92.1764 62.4068 92.7558 61.6616 92.7558H61.5951L58.5149 92.5912C57.7431 92.5517 57.1444 91.8933 57.1843 91.1296C57.2242 90.3658 57.8895 89.7733 58.6612 89.8128L61.7415 89.9774C62.5066 90.0169 63.1053 90.6753 63.0654 91.439Z" fill="#B0D1D0"/>
<path d="M93.2426 62.9037C93.2426 63.6675 92.6173 64.293 91.8389 64.293C91.0605 64.293 90.4351 63.6675 90.4351 62.9037V59.8421C90.4351 59.0784 91.0672 58.4529 91.8389 58.4529C92.6106 58.4529 93.2426 59.0718 93.2426 59.8421V62.9037Z" fill="#B0D1D0"/>
<path d="M60.4176 97.0421L62.5997 94.9944L62.593 95.001C63.1585 94.4677 64.05 94.494 64.5822 95.0537C65.1145 95.6067 65.0945 96.489 64.529 97.0157L62.3469 99.0634C62.0874 99.307 61.7415 99.4452 61.3822 99.4452C60.9964 99.4452 60.6305 99.2872 60.3643 99.0107C59.8321 98.451 59.8521 97.5688 60.4176 97.0421Z" fill="#B0D1D0"/>
<path d="M66.7577 98.1021C66.7577 97.3383 67.3831 96.7129 68.1615 96.7129C68.9332 96.7129 69.5652 97.3317 69.5652 98.1021V101.164C69.5652 101.927 68.9332 102.553 68.1615 102.553C67.3897 102.553 66.7577 101.934 66.7577 101.164V98.1021Z" fill="#B0D1D0"/>
</g>
<path opacity="0.7" d="M39.932 30.0775C40.1528 29.2634 41.4274 29.2634 41.6382 30.0775L42.3709 32.8218C42.4512 33.1145 42.692 33.3432 43.0132 33.4072L46.0242 34.0659C46.9175 34.2671 46.9175 35.4197 46.0242 35.6118L43.0132 36.2704C42.692 36.3436 42.4411 36.5631 42.3709 36.8559L41.6382 39.6001C41.4174 40.4143 40.1427 40.4143 39.932 39.6001L39.1993 36.8559C39.119 36.5631 38.8781 36.3344 38.557 36.2704L35.546 35.6118C34.6527 35.4105 34.6527 34.2579 35.546 34.0659L38.557 33.4072C38.8781 33.334 39.119 33.1145 39.1993 32.8218L39.932 30.0775Z" fill="#8ABBBA"/>
<defs>
<filter id="filter0_b_11429_3253" x="99.3385" y="31.6157" width="47.2725" height="35.4545" filterUnits="userSpaceOnUse" color-interpolation-filters="sRGB">
<feFlood flood-opacity="0" result="BackgroundImageFix"/>
<feGaussianBlur in="BackgroundImageFix" stdDeviation="4.29751"/>
<feComposite in2="SourceAlpha" operator="in" result="effect1_backgroundBlur_11429_3253"/>
<feBlend mode="normal" in="SourceGraphic" in2="effect1_backgroundBlur_11429_3253" result="shape"/>
</filter>
<filter id="filter1_b_11429_3253" x="9.09098" y="87.4835" width="46.1982" height="35.4545" filterUnits="userSpaceOnUse" color-interpolation-filters="sRGB">
<feFlood flood-opacity="0" result="BackgroundImageFix"/>
<feGaussianBlur in="BackgroundImageFix" stdDeviation="4.29751"/>
<feComposite in2="SourceAlpha" operator="in" result="effect1_backgroundBlur_11429_3253"/>
<feBlend mode="normal" in="SourceGraphic" in2="effect1_backgroundBlur_11429_3253" result="shape"/>
</filter>
<filter id="filter2_b_11429_3253" x="38.0991" y="38.062" width="60.1489" height="59.6084" filterUnits="userSpaceOnUse" color-interpolation-filters="sRGB">
<feFlood flood-opacity="0" result="BackgroundImageFix"/>
<feGaussianBlur in="BackgroundImageFix" stdDeviation="4.29751"/>
<feComposite in2="SourceAlpha" operator="in" result="effect1_backgroundBlur_11429_3253"/>
<feBlend mode="normal" in="SourceGraphic" in2="effect1_backgroundBlur_11429_3253" result="shape"/>
</filter>
<filter id="filter3_b_11429_3253" x="48.5874" y="49.8579" width="62.8322" height="61.29" filterUnits="userSpaceOnUse" color-interpolation-filters="sRGB">
<feFlood flood-opacity="0" result="BackgroundImageFix"/>
<feGaussianBlur in="BackgroundImageFix" stdDeviation="4.29751"/>
<feComposite in2="SourceAlpha" operator="in" result="effect1_backgroundBlur_11429_3253"/>
<feBlend mode="normal" in="SourceGraphic" in2="effect1_backgroundBlur_11429_3253" result="shape"/>
</filter>
<linearGradient id="paint0_linear_11429_3253" x1="80.0003" y1="15.5" x2="80.0003" y2="145.5" gradientUnits="userSpaceOnUse">
<stop stop-color="#E6F0F0"/>
<stop offset="1" stop-color="#E6F0F0" stop-opacity="0.08"/>
</linearGradient>
<linearGradient id="paint1_linear_11429_3253" x1="122.975" y1="40.2108" x2="122.975" y2="58.4752" gradientUnits="userSpaceOnUse">
<stop stop-color="#B0D1D0" stop-opacity="0.4"/>
<stop offset="1" stop-color="#E6F0F0" stop-opacity="0.8"/>
</linearGradient>
<linearGradient id="paint2_linear_11429_3253" x1="32.1901" y1="96.0785" x2="32.1901" y2="114.343" gradientUnits="userSpaceOnUse">
<stop stop-color="#B0D1D0" stop-opacity="0.4"/>
<stop offset="1" stop-color="#E6F0F0" stop-opacity="0.8"/>
</linearGradient>
<linearGradient id="paint3_linear_11429_3253" x1="79.9998" y1="46.657" x2="79.9998" y2="114.343" gradientUnits="userSpaceOnUse">
<stop stop-color="#B0D1D0" stop-opacity="0.4"/>
<stop offset="1" stop-color="#E6F0F0" stop-opacity="0.8"/>
</linearGradient>
</defs>
</svg>
