<svg width="160" height="160" viewBox="0 0 160 160" fill="none" xmlns="http://www.w3.org/2000/svg">
<path opacity="0.8" fill-rule="evenodd" clip-rule="evenodd" d="M81.1461 16.0871C74.8845 17.3445 69.1827 20.618 64.9012 25.4088H64.8804C63.5846 26.7597 62.4235 28.2146 61.3971 29.7942H61.4179L60.4434 32.3611C59.7384 32.0077 59.0231 31.6752 58.3078 31.353C52.1499 29.1499 45.4632 29.0252 39.2327 30.9789C32.9918 32.943 27.5492 36.892 23.6927 42.2231C19.8465 47.575 17.8042 54.0285 17.8768 60.6379C17.9494 67.2576 20.1161 73.6591 24.0762 78.9279L26.0978 80.7153C25.1337 81.7961 24.2628 82.96 23.4853 84.1967H23.4542C6.67018 110.416 28.9902 140.833 58.5566 130.14L58.5359 130.119L61.1794 128.675C62.4338 130.847 63.8541 132.925 65.4195 134.889C69.4833 139.763 74.9674 143.192 81.1047 144.679C87.2419 146.165 93.6694 145.624 99.4645 143.14C105.26 140.657 110.132 136.365 113.346 130.878C116.56 125.391 117.959 119.01 117.337 112.671H117.306L116.829 110.125C142.705 104.617 153.165 71.508 127.642 54.4962C125.029 52.7087 122.158 51.3681 119.12 50.516V50.4952L116.414 49.8405C117.296 43.5117 116.166 37.0583 113.18 31.4258C110.163 25.7205 105.425 21.1584 99.6511 18.3941C93.8767 15.6298 87.3767 14.8192 81.1254 16.0767L81.1047 16.0559L81.1461 16.0871Z" fill="url(#paint0_linear_11429_3241)"/>
<path opacity="0.7" d="M115.828 44.7857C118.581 44.7857 120.813 42.5538 120.813 39.8006C120.813 37.0474 118.581 34.8155 115.828 34.8155C113.075 34.8155 110.843 37.0474 110.843 39.8006C110.843 42.5538 113.075 44.7857 115.828 44.7857Z" stroke="#8ABBBA" stroke-width="3.04443"/>
<path opacity="0.7" d="M116.212 108.507C116.433 107.693 117.708 107.693 117.918 108.507L118.651 111.252C118.731 111.544 118.972 111.773 119.293 111.837L122.304 112.496C123.198 112.697 123.198 113.849 122.304 114.042L119.293 114.7C118.972 114.773 118.721 114.993 118.651 115.286L117.918 118.03C117.698 118.844 116.423 118.844 116.212 118.03L115.479 115.286C115.399 114.993 115.158 114.764 114.837 114.7L111.826 114.042C110.933 113.84 110.933 112.688 111.826 112.496L114.837 111.837C115.158 111.764 115.399 111.544 115.479 111.252L116.212 108.507Z" fill="#8ABBBA"/>
<path opacity="0.7" d="M36.259 46.576C36.303 45.7726 37.2795 45.3181 38.0097 45.7482L42.954 48.7023C43.6842 49.1406 43.6314 50.1469 42.8484 50.5121L37.5962 52.9874C36.822 53.3526 35.9071 52.8089 35.9511 51.9973L36.259 46.5679V46.576Z" fill="#8ABBBA"/>
<path d="M52.2098 100.787L58.2304 106.807L39.9933 125.044C38.3316 126.706 35.6344 126.706 33.9727 125.044C32.311 123.383 32.311 120.685 33.9727 119.024L52.2098 100.787Z" fill="#B0D1D0"/>
<path d="M58.6061 92.5115L66.5055 100.411L57.8546 109.062C56.8776 110.039 55.2911 110.039 54.3141 109.062L49.9552 104.703C48.9782 103.726 48.9782 102.139 49.9552 101.171L58.6061 92.5198V92.5115Z" fill="#8ABBBA"/>
<g filter="url(#filter0_b_11429_3241)">
<path d="M78.6302 109.446C95.3755 109.446 108.95 95.8711 108.95 79.1258C108.95 62.3805 95.3755 48.8058 78.6302 48.8058C61.8849 48.8058 48.3102 62.3805 48.3102 79.1258C48.3102 95.8711 61.8849 109.446 78.6302 109.446Z" fill="url(#paint1_linear_11429_3241)"/>
</g>
<g filter="url(#filter1_b_11429_3241)">
<path d="M78.5219 102.599C91.4487 102.599 101.928 92.1195 101.928 79.1927C101.928 66.266 91.4487 55.7868 78.5219 55.7868C65.5952 55.7868 55.116 66.266 55.116 79.1927C55.116 92.1195 65.5952 102.599 78.5219 102.599Z" fill="url(#paint2_linear_11429_3241)"/>
</g>
<rect x="66.8632" y="75.7162" width="22.9293" height="6.65689" rx="3.32845" fill="white"/>
<defs>
<filter id="filter0_b_11429_3241" x="39.7152" y="40.2107" width="77.8301" height="77.8301" filterUnits="userSpaceOnUse" color-interpolation-filters="sRGB">
<feFlood flood-opacity="0" result="BackgroundImageFix"/>
<feGaussianBlur in="BackgroundImageFix" stdDeviation="4.29752"/>
<feComposite in2="SourceAlpha" operator="in" result="effect1_backgroundBlur_11429_3241"/>
<feBlend mode="normal" in="SourceGraphic" in2="effect1_backgroundBlur_11429_3241" result="shape"/>
</filter>
<filter id="filter1_b_11429_3241" x="46.5209" y="47.1917" width="64.002" height="64.002" filterUnits="userSpaceOnUse" color-interpolation-filters="sRGB">
<feFlood flood-opacity="0" result="BackgroundImageFix"/>
<feGaussianBlur in="BackgroundImageFix" stdDeviation="4.29752"/>
<feComposite in2="SourceAlpha" operator="in" result="effect1_backgroundBlur_11429_3241"/>
<feBlend mode="normal" in="SourceGraphic" in2="effect1_backgroundBlur_11429_3241" result="shape"/>
</filter>
<linearGradient id="paint0_linear_11429_3241" x1="80" y1="15.5" x2="80" y2="145.5" gradientUnits="userSpaceOnUse">
<stop stop-color="#E6F0F0"/>
<stop offset="1" stop-color="#E6F0F0" stop-opacity="0.08"/>
</linearGradient>
<linearGradient id="paint1_linear_11429_3241" x1="78.6302" y1="48.8058" x2="78.6302" y2="109.446" gradientUnits="userSpaceOnUse">
<stop stop-color="#B0D1D0" stop-opacity="0.4"/>
<stop offset="1" stop-color="#E6F0F0" stop-opacity="0.8"/>
</linearGradient>
<linearGradient id="paint2_linear_11429_3241" x1="78.5219" y1="55.7868" x2="78.5219" y2="102.599" gradientUnits="userSpaceOnUse">
<stop stop-color="#B0D1D0" stop-opacity="0.4"/>
<stop offset="1" stop-color="#E6F0F0" stop-opacity="0.8"/>
</linearGradient>
</defs>
</svg>
