<svg width="160" height="160" viewBox="0 0 160 160" fill="none" xmlns="http://www.w3.org/2000/svg">
<path opacity="0.8" fill-rule="evenodd" clip-rule="evenodd" d="M82.1462 16.0871C75.8845 17.3445 70.1827 20.618 65.9012 25.4088H65.8805C64.5846 26.7597 63.4235 28.2146 62.3972 29.7942H62.4179L61.4434 32.3611C60.7385 32.0077 60.0232 31.6752 59.3078 31.353C53.1499 29.1499 46.4632 29.0252 40.2327 30.9789C33.9918 32.943 28.5492 36.892 24.6927 42.2231C20.8466 47.575 18.8043 54.0285 18.8768 60.6379C18.9494 67.2576 21.1161 73.6591 25.0763 78.9279L27.0978 80.7153C26.1337 81.7961 25.2629 82.96 24.4854 84.1967H24.4543C7.67021 110.416 29.9902 140.833 59.5566 130.14L59.5359 130.119L62.1795 128.675C63.4339 130.847 64.8541 132.925 66.4195 134.889C70.4834 139.763 75.9675 143.192 82.1047 144.679C88.2419 146.165 94.6694 145.624 100.465 143.14C106.26 140.657 111.132 136.365 114.346 130.878C117.56 125.391 118.959 119.01 118.337 112.671H118.306L117.829 110.125C143.705 104.617 154.165 71.508 128.642 54.4962C126.029 52.7087 123.158 51.3681 120.12 50.516V50.4952L117.414 49.8405C118.296 43.5117 117.166 37.0583 114.18 31.4258C111.163 25.7205 106.425 21.1584 100.651 18.3941C94.8767 15.6298 88.3767 14.8192 82.1254 16.0767L82.1047 16.0559L82.1462 16.0871Z" fill="url(#paint0_linear_11429_3212)"/>
<path opacity="0.7" d="M116.991 117.566C119.068 117.566 120.751 115.883 120.751 113.806C120.751 111.729 119.068 110.045 116.991 110.045C114.914 110.045 113.231 111.729 113.231 113.806C113.231 115.883 114.914 117.566 116.991 117.566Z" stroke="#8ABBBA" stroke-width="2.90866"/>
<rect x="60.5092" y="49.4274" width="6.97672" height="10.4999" rx="3.48836" transform="rotate(-21.2577 60.5092 49.4274)" stroke="#8ABBBA" stroke-width="4.29752"/>
<ellipse cx="86.266" cy="104.363" rx="8.10336" ry="8.10336" fill="#8ABBBA"/>
<g filter="url(#filter0_b_11429_3212)">
<path d="M117.087 92.1369C117.087 93.4656 116.358 94.723 115.151 95.361C115.147 95.3648 115.144 95.3685 115.136 95.3648L108.363 97.8232H108.36L94.4755 102.871L79.0767 108.468L64.7266 113.681L58.3671 115.993C56.6382 116.346 54.8604 115.396 54.2252 113.692C54.0711 113.272 53.996 112.844 53.996 112.42C53.996 111.771 54.1688 111.14 54.4921 110.588C54.4921 110.584 54.4958 110.581 54.4996 110.573C54.5635 110.479 54.6274 110.386 54.6875 110.288C55.6798 108.757 56.3939 107.049 56.781 105.251C57.3862 102.451 57.1907 99.5347 56.206 96.8436L51.9325 85.1182C49.5985 78.7226 49.9142 71.6663 52.7895 65.4959C54.7589 61.2809 57.8146 57.7227 61.592 55.1405C62.7985 54.3222 64.0839 53.5978 65.4294 52.9898C66.0346 52.7121 66.6547 52.4531 67.2899 52.2241C67.756 52.0552 68.2258 51.8976 68.6994 51.7587C70.1088 51.3346 71.5446 51.0381 72.9916 50.8654C77.7236 50.2912 82.5534 51.0418 86.9396 53.0836C93.1149 55.9587 97.8958 61.172 100.226 67.5677L104.5 79.2931C105.484 81.9842 107.206 84.3525 109.476 86.1091C110.863 87.1788 112.415 88.0045 114.065 88.5413H114.069C114.324 88.6238 114.587 88.7026 114.847 88.774C114.851 88.774 114.854 88.7777 114.854 88.7777C115.749 89.1568 116.493 89.8924 116.85 90.8796C117.004 91.2924 117.076 91.7166 117.076 92.1369H117.087Z" fill="url(#paint1_linear_11429_3212)"/>
</g>
<path d="M130.168 47.2741C129.11 50.4207 126.769 52.987 123.667 54.4236C120.562 55.8524 116.948 56.0358 113.616 54.9159C113.208 54.7789 112.803 54.6166 112.409 54.4388L109.172 57.0084C108.349 57.6638 107.078 56.9517 107.253 55.9295L108.015 51.3499C106.423 49.6821 105.303 47.6546 104.777 45.4776C104.245 43.2987 104.328 41.0478 105.008 38.9461C105.689 36.8445 106.94 34.9735 108.641 33.5192C110.342 32.0648 112.431 31.0774 114.697 30.6611C116.964 30.2447 119.326 30.4108 121.541 31.149C123.758 31.8814 125.752 33.1603 127.324 34.8475C128.896 36.5347 129.988 38.5717 130.484 40.7584C130.983 42.9392 130.873 45.1939 130.166 47.2799L130.169 47.2683L130.168 47.2741Z" fill="#8ABBBA"/>
<path d="M113.473 42.9805H122.118" stroke="white" stroke-width="5.36651" stroke-linecap="round" stroke-linejoin="round"/>
<path opacity="0.7" d="M37.7081 52.6395C37.9289 51.8254 39.2035 51.8254 39.4143 52.6395L40.147 55.3838C40.2273 55.6765 40.4682 55.9052 40.7893 55.9692L43.8003 56.6279C44.6936 56.8291 44.6936 57.9817 43.8003 58.1738L40.7893 58.8324C40.4682 58.9056 40.2172 59.1251 40.147 59.4179L39.4143 62.1621C39.1935 62.9763 37.9188 62.9763 37.7081 62.1621L36.9754 59.4179C36.8951 59.1251 36.6542 58.8965 36.333 58.8324L33.322 58.1738C32.4288 57.9726 32.4288 56.82 33.322 56.6279L36.333 55.9692C36.6542 55.8961 36.8951 55.6765 36.9754 55.3838L37.7081 52.6395Z" fill="#8ABBBA"/>
<defs>
<filter id="filter0_b_11429_3212" x="41.7877" y="42.0834" width="83.8942" height="82.5778" filterUnits="userSpaceOnUse" color-interpolation-filters="sRGB">
<feFlood flood-opacity="0" result="BackgroundImageFix"/>
<feGaussianBlur in="BackgroundImageFix" stdDeviation="4.29752"/>
<feComposite in2="SourceAlpha" operator="in" result="effect1_backgroundBlur_11429_3212"/>
<feBlend mode="normal" in="SourceGraphic" in2="effect1_backgroundBlur_11429_3212" result="shape"/>
</filter>
<linearGradient id="paint0_linear_11429_3212" x1="81" y1="15.5" x2="81" y2="145.5" gradientUnits="userSpaceOnUse">
<stop stop-color="#E6F0F0"/>
<stop offset="1" stop-color="#E6F0F0" stop-opacity="0.08"/>
</linearGradient>
<linearGradient id="paint1_linear_11429_3212" x1="83.7348" y1="50.6784" x2="83.7348" y2="116.066" gradientUnits="userSpaceOnUse">
<stop stop-color="#B0D1D0" stop-opacity="0.4"/>
<stop offset="1" stop-color="#E6F0F0" stop-opacity="0.8"/>
</linearGradient>
</defs>
</svg>
