<svg width="24" height="24" viewBox="0 0 24 24" fill="none" xmlns="http://www.w3.org/2000/svg">
<path d="M8 11C8 9.93913 8.42143 8.92172 9.17157 8.17157C9.92172 7.42143 10.9391 7 12 7C13.0609 7 14.0783 7.42143 14.8284 8.17157C15.5786 8.92172 16 9.93913 16 11V12C16 14.1637 16.7018 16.269 18 18M8 15C8.2447 17.0898 8.85393 19.1206 9.8 21" stroke="#30CBFF" stroke-width="1.5" stroke-linecap="round" stroke-linejoin="round"/>
<path d="M12 11V13C11.9968 15.8594 12.8692 18.6512 14.5 21M18.9 6.99999C19.8045 8.50118 20.1909 10.2578 20 12V13C19.9988 14.0529 20.2747 15.0875 20.8 16M4.9 19C4.22525 16.7303 3.92134 14.3666 4 12V11C3.99616 9.59385 4.36302 8.21154 5.0636 6.99235C5.76419 5.77316 6.77374 4.76016 7.99054 4.05543C9.20734 3.3507 10.5884 2.97914 11.9945 2.97818C13.4007 2.97723 14.7822 3.34692 16 4.04999" stroke="#1F1D83" stroke-width="1.5" stroke-linecap="round" stroke-linejoin="round"/>
</svg>
