<svg xmlns="http://www.w3.org/2000/svg" width="24" height="24" viewBox="0 0 24 24" fill="none">
  <path d="M18.9998 8.70977L13.6668 4.56177C13.1988 4.19768 12.6227 4 12.0298 4C11.4368 4 10.8608 4.19768 10.3928 4.56177L5.05879 8.70977C4.73823 8.95905 4.47888 9.2783 4.30054 9.64312C4.1222 10.0079 4.02959 10.4087 4.02979 10.8148V18.0148C4.02979 18.5452 4.2405 19.0539 4.61557 19.429C4.99064 19.8041 5.49935 20.0148 6.02979 20.0148H18.0298C18.5602 20.0148 19.0689 19.8041 19.444 19.429C19.8191 19.0539 20.0298 18.5452 20.0298 18.0148V10.8148C20.0298 9.99177 19.6498 9.21477 18.9998 8.70977Z" stroke="#1F1D83" stroke-width="1.5" stroke-linecap="round" stroke-linejoin="round"/>
  <path d="M8 13H16" stroke="#97DC41" stroke-width="1.5" stroke-linecap="round" stroke-linejoin="round"/>
  <path d="M8 13H16" stroke="#30CBFF" stroke-width="1.5" stroke-linecap="round" stroke-linejoin="round"/>
</svg>