<svg width="24" height="24" viewBox="0 0 24 24" fill="none" xmlns="http://www.w3.org/2000/svg">
<circle cx="12" cy="8.25" r="5.25" stroke="#97DC41" stroke-width="1.5"/>
<path d="M13.5 6H11.625C11.3266 6 11.0405 6.11853 10.8295 6.32951C10.6185 6.54048 10.5 6.82663 10.5 7.125C10.5 7.42337 10.6185 7.70952 10.8295 7.9205C11.0405 8.13147 11.3266 8.25 11.625 8.25H12.375C12.6734 8.25 12.9595 8.36853 13.1705 8.57951C13.3815 8.79048 13.5 9.07663 13.5 9.375C13.5 9.67337 13.3815 9.95952 13.1705 10.1705C12.9595 10.3815 12.6734 10.5 12.375 10.5H10.5M12 10.5V11.25M12 5.25V6.00001" stroke="#30CBFF" stroke-width="1.5" stroke-linecap="round" stroke-linejoin="round"/>
<path d="M15.0715 15.8153L18.6845 13.8477C19.0089 13.671 19.4026 13.6792 19.7194 13.8693C20.3214 14.2305 20.4015 15.0714 19.8784 15.5397L16.1057 18.9178L14.8827 19.8925C14.7793 19.9749 14.6653 20.0442 14.5393 20.0841C13.8671 20.2967 12.9755 20.2967 11.969 20.2967H6.92029C6.83907 20.2967 6.75821 20.3035 6.67859 20.3195C6.28772 20.3982 5.56998 20.5783 5.07466 20.8259M9.46556 17.9995H12.108C12.4016 17.9995 13.7228 17.7059 13.4292 16.6783C13.1943 15.8562 12.3526 15.7486 11.9612 15.7975C11.374 15.8464 9.68487 15.8559 7.93186 15.5637C6.08479 15.2559 5.67063 15.7975 5.50195 15.9443L3.00635 18.2931" stroke="#1F1D83" stroke-width="1.5" stroke-linecap="round" stroke-linejoin="round"/>
</svg>
