<svg width="24" height="24" viewBox="0 0 24 24" fill="none" xmlns="http://www.w3.org/2000/svg">
<path d="M20.55 15.4623L18.8619 13.8L16.8362 15.7948M16.8362 15.7948L14.8104 17.7896M16.8362 15.7948L17.849 16.7922M14.8104 17.7896C15.5563 18.524 15.5563 19.7148 14.8104 20.4492C14.0645 21.1836 12.8553 21.1836 12.1094 20.4492C11.3635 19.7148 11.3635 18.524 12.1094 17.7896C12.8553 17.0551 14.0645 17.0551 14.8104 17.7896Z" stroke="#30CBFF" stroke-width="1.5" stroke-linecap="round" stroke-linejoin="round"/>
<path d="M14.7 9.3V7.05C14.7 4.81325 12.8868 3 10.65 3C8.41328 3 6.60003 4.81325 6.60003 7.05V9.3M17.85 11.1C17.85 10.1059 17.0442 9.3 16.05 9.3H5.2502C4.25602 9.3 3.45011 10.106 3.4502 11.1002L3.45095 19.2002C3.45104 20.1942 4.2569 21 5.25095 21H8.85003" stroke="#1F1D83" stroke-width="1.5" stroke-linecap="round"/>
</svg>
