<svg width="24" height="24" viewBox="0 0 24 24" fill="none" xmlns="http://www.w3.org/2000/svg">
<path d="M8 11V6C8 4.93913 8.42143 3.92172 9.17157 3.17157C9.92172 2.42143 10.9391 2 12 2" stroke="#30CBFF" stroke-width="1.5" stroke-linecap="round" stroke-linejoin="round"/>
<path d="M15.25 14.5V17.5M14 16.75L16.5 15.25M14 15.25L16.5 16.75M11 16H11.01M8 16H8.01" stroke="#30CBFF" stroke-width="1.5" stroke-linecap="round" stroke-linejoin="round"/>
<path d="M16 3L19 6" stroke="#30CBFF" stroke-width="1.5" stroke-linecap="round" stroke-linejoin="round"/>
<path d="M16.42 2.61022C16.615 2.41521 16.8465 2.26052 17.1013 2.15498C17.3561 2.04944 17.6292 1.99512 17.905 1.99512C18.1808 1.99512 18.4539 2.04944 18.7087 2.15498C18.9635 2.26052 19.195 2.41521 19.39 2.61022C19.585 2.80524 19.7397 3.03675 19.8452 3.29155C19.9508 3.54635 20.0051 3.81943 20.0051 4.09522C20.0051 4.37101 19.9508 4.6441 19.8452 4.8989C19.7397 5.1537 19.585 5.38521 19.39 5.58022L16 9.00022H13V6.00022L16.42 2.61022Z" stroke="#1F1D83" stroke-width="1.5" stroke-linecap="round" stroke-linejoin="round"/>
<path d="M4 14C4 13.4696 4.21071 12.9609 4.58579 12.5858C4.96086 12.2107 5.46957 12 6 12H18C18.5304 12 19.0391 12.2107 19.4142 12.5858C19.7893 12.9609 20 13.4696 20 14V18C20 18.5304 19.7893 19.0391 19.4142 19.4142C19.0391 19.7893 18.5304 20 18 20H6C5.46957 20 4.96086 19.7893 4.58579 19.4142C4.21071 19.0391 4 18.5304 4 18V14Z" stroke="#1F1D83" stroke-width="1.5" stroke-linecap="round" stroke-linejoin="round"/>
</svg>
