<svg width="24" height="24" viewBox="0 0 24 24" fill="none" xmlns="http://www.w3.org/2000/svg">
<path d="M15.3508 12.0277C15.1699 12.4645 14.9047 12.8613 14.5704 13.1956C14.2361 13.5299 13.8392 13.7951 13.4025 13.976C12.9657 14.1569 12.4976 14.25 12.0248 14.25C11.552 14.25 11.0839 14.1569 10.6471 13.976C10.2104 13.7951 9.81351 13.5299 9.47922 13.1956C9.14493 12.8613 8.87976 12.4645 8.69884 12.0277C8.51792 11.5909 8.4248 11.1228 8.4248 10.65C8.4248 10.1773 8.51792 9.70916 8.69884 9.27239C8.87976 8.83562 9.14493 8.43876 9.47922 8.10446C9.81351 7.77017 10.2104 7.505 10.6471 7.32408C11.0839 7.14317 11.552 7.05005 12.0248 7.05005C12.4976 7.05005 12.9657 7.14317 13.4025 7.32408M10.4248 10.25L12.0248 11.85L16.0248 7.85005" stroke="#97DC41" stroke-width="1.5" stroke-linecap="round" stroke-linejoin="round"/>
<path d="M4.7998 14.7V4.8C4.7998 4.32261 4.98945 3.86477 5.32701 3.52721C5.66458 3.18964 6.12241 3 6.5998 3H17.3998C17.8772 3 18.335 3.18964 18.6726 3.52721C19.0102 3.86477 19.1998 4.32261 19.1998 4.8V14.7M10.1998 3.9H13.7998" stroke="#1F1D83" stroke-width="1.5" stroke-linecap="round" stroke-linejoin="round"/>
<path d="M12.0004 21V17.4V17.409M10.2004 20.1L13.8004 18.3M10.2004 18.3L13.8004 20.1M5.70039 17.4V21M3.90039 20.1L7.50039 18.3M3.90039 18.3L7.50039 20.1M18.3004 17.4V21M16.5004 20.1L20.1004 18.3M16.5004 18.3L20.1004 20.1" stroke="#30CBFF" stroke-width="1.5" stroke-linecap="round" stroke-linejoin="round"/>
</svg>
