<svg width="24" height="24" viewBox="0 0 24 24" fill="none" xmlns="http://www.w3.org/2000/svg">
<path d="M18.4999 21.5V18.501M18.4999 18.501V15.5M18.4999 18.501H15.5M18.4999 18.501H21.5M5.75 5.75H7.25V7.25H5.75V5.75ZM16.75 5.75H18.25V7.25H16.75V5.75ZM5.75 16.75H7.25V18.25H5.75V16.75Z" stroke="#30CBFF" stroke-width="1.5" stroke-linecap="round" stroke-linejoin="round"/>
<path d="M16 13.5H15C14 13.5 13.5 14 13.5 15V16M2.5 3.83333C2.5 3.47971 2.64048 3.14057 2.89052 2.89052C3.14057 2.64048 3.47971 2.5 3.83333 2.5H9.16667C9.52029 2.5 9.85943 2.64048 10.1095 2.89052C10.3595 3.14057 10.5 3.47971 10.5 3.83333V9.16667C10.5 9.52029 10.3595 9.85943 10.1095 10.1095C9.85943 10.3595 9.52029 10.5 9.16667 10.5H3.83333C3.47971 10.5 3.14057 10.3595 2.89052 10.1095C2.64048 9.85943 2.5 9.52029 2.5 9.16667V3.83333ZM2.5 14.8333C2.5 14.4797 2.64048 14.1406 2.89052 13.8905C3.14057 13.6405 3.47971 13.5 3.83333 13.5H9.16667C9.52029 13.5 9.85943 13.6405 10.1095 13.8905C10.3595 14.1406 10.5 14.4797 10.5 14.8333V20.1667C10.5 20.5203 10.3595 20.8594 10.1095 21.1095C9.85943 21.3595 9.52029 21.5 9.16667 21.5H3.83333C3.47971 21.5 3.14057 21.3595 2.89052 21.1095C2.64048 20.8594 2.5 20.5203 2.5 20.1667V14.8333ZM13.5 3.83333C13.5 3.47971 13.6405 3.14057 13.8905 2.89052C14.1406 2.64048 14.4797 2.5 14.8333 2.5H20.1667C20.5203 2.5 20.8594 2.64048 21.1095 2.89052C21.3595 3.14057 21.5 3.47971 21.5 3.83333V9.16667C21.5 9.52029 21.3595 9.85943 21.1095 10.1095C20.8594 10.3595 20.5203 10.5 20.1667 10.5H14.8333C14.4797 10.5 14.1406 10.3595 13.8905 10.1095C13.6405 9.85943 13.5 9.52029 13.5 9.16667V3.83333Z" stroke="#1F1D83" stroke-width="1.5" stroke-linecap="round" stroke-linejoin="round"/>
</svg>
