<svg width="24" height="24" viewBox="0 0 24 24" fill="none" xmlns="http://www.w3.org/2000/svg">
<path d="M7 10H5C3.89543 10 3 9.10457 3 8V5C3 3.89543 3.89543 3 5 3H19C20.1046 3 21 3.89543 21 5V8C21 9.10457 20.1046 10 19 10H17" stroke="#1F1D83" stroke-width="1.5" stroke-linejoin="round"/>
<path d="M17 7V19C17 20.1046 16.1046 21 15 21H9C7.89543 21 7 20.1046 7 19V7M17 7H7M17 7H18M7 7H6" stroke="#97DC41" stroke-width="1.5" stroke-linecap="round" stroke-linejoin="round"/>
<path d="M12 17.25V11.25M12 17.25L9.75 15M12 17.25L14.25 15" stroke="#30CBFF" stroke-width="1.5" stroke-linecap="round" stroke-linejoin="round"/>
</svg>
