<svg width="24" height="24" viewBox="0 0 24 24" fill="none" xmlns="http://www.w3.org/2000/svg">
<path d="M11 7H8.5C8.102 7 7.721 7.158 7.439 7.439C7.158 7.72 7 8.102 7 8.5C7 8.898 7.158 9.279 7.439 9.561C7.72 9.842 8.102 10 8.5 10H9.5C9.898 10 10.279 10.158 10.561 10.439C10.842 10.72 11 11.102 11 11.5C11 11.898 10.842 12.279 10.561 12.561C10.28 12.842 9.898 13 9.5 13H7M9 13V14M9 6V7M16.245 20.9043C16.6886 21.0196 17.1527 21.0318 17.6017 20.9399C18.0507 20.8479 18.4727 20.6543 18.8353 20.3739C19.1979 20.0935 19.4914 19.7338 19.6933 19.3223C19.8952 18.9109 20.0001 18.4586 20 18.0003M17.75 15.0953C17.3067 14.9808 16.843 14.9693 16.3946 15.0617C15.9461 15.1541 15.5247 15.348 15.1628 15.6284C14.8008 15.9088 14.5078 16.2683 14.3063 16.6794C14.1047 17.0906 14 17.5424 14 18.0003M19 18.0003H21V20.0003M15 18.0003H13V16.0003" stroke="#30CBFF" stroke-width="1.5" stroke-linecap="round" stroke-linejoin="round"/>
<path d="M15 12V5.667C15 5.31676 14.931 4.96996 14.797 4.64638C14.663 4.32281 14.4665 4.0288 14.2189 3.78115C13.9712 3.53349 13.6772 3.33704 13.3536 3.20301C13.03 3.06898 12.6832 3 12.333 3H5.667C4.95967 3 4.28131 3.28099 3.78115 3.78115C3.28099 4.28131 3 4.95967 3 5.667V14.333C3 14.6832 3.06898 15.03 3.20301 15.3536C3.33704 15.6772 3.53349 15.9712 3.78115 16.2189C4.0288 16.4665 4.32281 16.663 4.64638 16.797C4.96996 16.931 5.31676 17 5.667 17H10M18 12V5.667C18 5.31676 17.931 4.96996 17.797 4.64638C17.663 4.32281 17.4665 4.0288 17.2189 3.78115C16.9712 3.53349 16.6772 3.33704 16.3536 3.20301C16.03 3.06898 15.6832 3 15.333 3H7" stroke="#1F1D83" stroke-width="1.5" stroke-linecap="round" stroke-linejoin="round"/>
</svg>
