<svg width="24" height="24" viewBox="0 0 24 24" fill="none" xmlns="http://www.w3.org/2000/svg">
<path d="M10.5 21H6.5C5.96957 21 5.46086 20.7893 5.08579 20.4142C4.71071 20.0391 4.5 19.5304 4.5 19V5C4.5 4.46957 4.71071 3.96086 5.08579 3.58579C5.46086 3.21071 5.96957 3 6.5 3H14.5C15.0304 3 15.5391 3.21071 15.9142 3.58579C16.2893 3.96086 16.5 4.46957 16.5 5V13.5" stroke="#1F1D83" stroke-width="1.5" stroke-linecap="round" stroke-linejoin="round"/>
<path d="M10.5 13.5V7.5M10.5 13.5L8.25 11.25M10.5 13.5L12.75 11.25" stroke="#97DC41" stroke-width="1.5" stroke-linecap="round" stroke-linejoin="round"/>
<path d="M9.5 4H11.5" stroke="#1F1D83" stroke-width="1.5" stroke-linecap="round" stroke-linejoin="round"/>
<path d="M19.25 21.5L14.25 16.5M14.25 21.5L19.25 16.5" stroke="#30CBFF" stroke-width="2" stroke-linecap="round" stroke-linejoin="round"/>
</svg>
