<svg width="24" height="24" viewBox="0 0 24 24" fill="none" xmlns="http://www.w3.org/2000/svg">
<path d="M7 10H5C3.89543 10 3 9.10457 3 8V5C3 3.89543 3.89543 3 5 3H19C20.1046 3 21 3.89543 21 5V8C21 9.10457 20.1046 10 19 10H17" stroke="#1F1D83" stroke-width="1.5" stroke-linejoin="round"/>
<path d="M17 7V19C17 20.1046 16.1046 21 15 21H9C7.89543 21 7 20.1046 7 19V7M17 7H7M17 7H18M7 7H6" stroke="#97DC41" stroke-width="1.5" stroke-linecap="round" stroke-linejoin="round"/>
<path d="M14 11H11.5C11.1022 11 10.7206 11.158 10.4393 11.4393C10.158 11.7206 10 12.1022 10 12.5C10 12.8978 10.158 13.2794 10.4393 13.5607C10.7206 13.842 11.1022 14 11.5 14H12.5C12.8978 14 13.2794 14.158 13.5607 14.4393C13.842 14.7206 14 15.1022 14 15.5C14 15.8978 13.842 16.2794 13.5607 16.5607C13.2794 16.842 12.8978 17 12.5 17H10M12 17V18M12 10V11" stroke="#30CBFF" stroke-width="1.5" stroke-linecap="round" stroke-linejoin="round"/>
</svg>
