<svg width="24" height="24" viewBox="0 0 24 24" fill="none" xmlns="http://www.w3.org/2000/svg">
<path d="M12 19L10 21L8 19L5 21V5C5 4.46957 5.21071 3.96086 5.58579 3.58579C5.96086 3.21071 6.46957 3 7 3H17C17.5304 3 18.0391 3.21071 18.4142 3.58579C18.7893 3.96086 19 4.46957 19 5V10" stroke="#1F1D83" stroke-width="1.5" stroke-linecap="round" stroke-linejoin="round"/>
<path d="M20 14H17.5C17.1022 14 16.7206 14.158 16.4393 14.4393C16.158 14.7206 16 15.1022 16 15.5C16 15.8978 16.158 16.2794 16.4393 16.5607C16.7206 16.842 17.1022 17 17.5 17H18.5C18.8978 17 19.2794 17.158 19.5607 17.4393C19.842 17.7206 20 18.1022 20 18.5C20 18.8978 19.842 19.2794 19.5607 19.5607C19.2794 19.842 18.8978 20 18.5 20H16M18 20V21M18 13V14" stroke="#30CBFF" stroke-width="1.5" stroke-linecap="round" stroke-linejoin="round"/>
<path d="M8.75 7.25H15.25M8.75 11.25H11.25" stroke="#97DC41" stroke-width="1.5" stroke-linecap="round" stroke-linejoin="round"/>
</svg>
