<svg width="24" height="24" viewBox="0 0 24 24" fill="none" xmlns="http://www.w3.org/2000/svg">
<path d="M17.1429 3.42856V10.2857M20.5714 6.85713H13.7143" stroke="#30CBFF" stroke-width="1.5" stroke-linecap="round" stroke-linejoin="round"/>
<path d="M3.42856 6.85713C3.42856 5.65702 3.42856 5.05696 3.66211 4.59858C3.86756 4.19538 4.19538 3.86756 4.59858 3.66211C5.05696 3.42856 5.65702 3.42856 6.85713 3.42856C8.05724 3.42856 8.6573 3.42856 9.11569 3.66211C9.51889 3.86756 9.8467 4.19538 10.0521 4.59858C10.2857 5.05696 10.2857 5.65702 10.2857 6.85713C10.2857 8.05724 10.2857 8.6573 10.0521 9.11569C9.8467 9.51889 9.51889 9.8467 9.11569 10.0521C8.6573 10.2857 8.05724 10.2857 6.85713 10.2857C5.65702 10.2857 5.05696 10.2857 4.59858 10.0521C4.19538 9.8467 3.86756 9.51889 3.66211 9.11569C3.42856 8.6573 3.42856 8.05724 3.42856 6.85713Z" stroke="#97DC41" stroke-width="1.5"/>
<path d="M3.42856 17.1429C3.42856 15.9428 3.42856 15.3427 3.66211 14.8843C3.86756 14.4811 4.19538 14.1533 4.59858 13.9479C5.05696 13.7143 5.65702 13.7143 6.85713 13.7143C8.05724 13.7143 8.6573 13.7143 9.11568 13.9479C9.51888 14.1533 9.8467 14.4811 10.0521 14.8843C10.2857 15.3427 10.2857 15.9428 10.2857 17.1429C10.2857 18.343 10.2857 18.943 10.0521 19.4014C9.8467 19.8046 9.51888 20.1324 9.11568 20.3379C8.6573 20.5714 8.05724 20.5714 6.85713 20.5714C5.65702 20.5714 5.05696 20.5714 4.59858 20.3379C4.19538 20.1324 3.86756 19.8046 3.66211 19.4014C3.42856 18.943 3.42856 18.343 3.42856 17.1429Z" stroke="#1F1D83" stroke-width="1.5"/>
<path d="M13.7143 17.1429C13.7143 15.9428 13.7143 15.3427 13.9478 14.8843C14.1533 14.4811 14.4811 14.1533 14.8843 13.9479C15.3427 13.7143 15.9428 13.7143 17.1428 13.7143C18.3429 13.7143 18.943 13.7143 19.4014 13.9479C19.8046 14.1533 20.1324 14.4811 20.3378 14.8843C20.5714 15.3427 20.5714 15.9428 20.5714 17.1429C20.5714 18.343 20.5714 18.943 20.3378 19.4014C20.1324 19.8046 19.8046 20.1324 19.4014 20.3379C18.943 20.5714 18.3429 20.5714 17.1428 20.5714C15.9428 20.5714 15.3427 20.5714 14.8843 20.3379C14.4811 20.1324 14.1533 19.8046 13.9478 19.4014C13.7143 18.943 13.7143 18.343 13.7143 17.1429Z" stroke="#1F1D83" stroke-width="1.5"/>
</svg>
