<svg width="24" height="24" viewBox="0 0 24 24" fill="none" xmlns="http://www.w3.org/2000/svg">
<path d="M18.3549 6.25906C18.7661 5.27989 19.49 3.27572 19.096 3.09241C18.6035 2.86327 15.5118 3.93953 15.1618 4.50164M3.75002 4.87501C2.62502 4.87501 1.35002 6.07501 3.75002 7.87501M22.0001 12.3815V11.4815C22.0001 10.8899 21.5703 10.4102 21.0401 10.4102C20.4578 10.4102 19.9823 10.1745 19.7902 9.54766C18.8077 6.34278 15.4416 3.98158 11.4402 3.98158C6.66843 3.98158 2.80022 7.33943 2.80022 11.4815C2.80022 13.5401 3.75571 15.405 5.30264 16.7602C5.53458 16.9634 5.68021 17.2577 5.68021 17.5734V18.7286C5.68021 19.4206 6.24115 19.9815 6.9331 19.9815C7.35012 19.9815 7.73981 19.774 7.9726 19.428L8.36225 18.8489C8.48052 18.6731 8.69306 18.5968 8.89265 18.6502C10.1276 18.981 11.4268 19.0656 12.6946 18.9042" stroke="#1F1D83" stroke-width="1.5" stroke-linecap="round"/>
<path d="M19.75 14.625H17.5625C17.2144 14.625 16.8806 14.7633 16.6344 15.0094C16.3883 15.2555 16.25 15.5894 16.25 15.9375C16.25 16.2856 16.3883 16.6194 16.6344 16.8656C16.8806 17.1117 17.2144 17.25 17.5625 17.25H18.4375C18.7856 17.25 19.1194 17.3883 19.3656 17.6344C19.6117 17.8805 19.75 18.2144 19.75 18.5625C19.75 18.9106 19.6117 19.2444 19.3656 19.4906C19.1194 19.7367 18.7856 19.875 18.4375 19.875H16.25M17.9998 19.875V20.75M17.9998 13.75V14.625" stroke="#30CBFF" stroke-width="1.5" stroke-linecap="round" stroke-linejoin="round"/>
<path d="M9.19977 7.17962C9.95786 6.83291 10.7625 6.64629 11.5953 6.6465C12.4282 6.64671 13.2306 6.83374 13.9844 7.18082M16.5 9.00001H16.575" stroke="#97DC41" stroke-width="1.5" stroke-linecap="round" stroke-linejoin="round"/>
</svg>
