<svg width="24" height="24" viewBox="0 0 24 24" fill="none" xmlns="http://www.w3.org/2000/svg">
<path d="M12 22V18V18.01M10 21L14 19M10 19L14 21M5 18V22M3 21L7 19M3 19L7 21M19 18V22M17 21L21 19M17 19L21 21M16.1575 12.2221C15.9313 12.768 15.5998 13.2641 15.182 13.682C14.7641 14.0998 14.268 14.4313 13.7221 14.6575C13.1761 14.8836 12.5909 15 12 15C11.4091 15 10.8239 14.8836 10.2779 14.6575C9.73196 14.4313 9.23588 14.0998 8.81802 13.682C8.40016 13.2641 8.06869 12.768 7.84254 12.2221C7.6164 11.6761 7.5 11.0909 7.5 10.5C7.5 9.90905 7.6164 9.32389 7.84254 8.77792C8.06869 8.23196 8.40016 7.73588 8.81802 7.31802C9.23588 6.90016 9.73196 6.56869 10.2779 6.34254C10.8239 6.1164 11.4091 6 12 6C12.5909 6 13.1761 6.1164 13.7221 6.34254" stroke="#30CBFF" stroke-width="1.5" stroke-linecap="round" stroke-linejoin="round"/>
<path d="M4 15V4C4 3.46957 4.21071 2.96086 4.58579 2.58579C4.96086 2.21071 5.46957 2 6 2H18C18.5304 2 19.0391 2.21071 19.4142 2.58579C19.7893 2.96086 20 3.46957 20 4V15M10 3H14M10 10L12 12L17 7" stroke="#1F1D83" stroke-width="1.5" stroke-linecap="round" stroke-linejoin="round"/>
</svg>
