<svg width="24" height="24" viewBox="0 0 24 24" fill="none" xmlns="http://www.w3.org/2000/svg">
<path d="M18.6619 8.43652V13.7601M21.3236 11.0977H16" stroke="#30CBFF" stroke-width="1.5" stroke-linecap="round" stroke-linejoin="round"/>
<path d="M16.3089 19.9707V18.1961C16.3089 17.2549 15.935 16.3522 15.2694 15.6866C14.6039 15.021 13.7011 14.6471 12.7599 14.6471H6.54905C5.60778 14.6471 4.70507 15.021 4.03949 15.6866C3.37392 16.3522 3 17.2549 3 18.1961V19.9707M13.2035 7.54905C13.2035 9.50913 11.6146 11.0981 9.65448 11.0981C7.6944 11.0981 6.10544 9.50913 6.10544 7.54905C6.10544 5.58896 7.6944 4 9.65448 4C11.6146 4 13.2035 5.58896 13.2035 7.54905Z" stroke="#1F1D83" stroke-width="1.5" stroke-linecap="round" stroke-linejoin="round"/>
</svg>
