<svg width="27" height="27" viewBox="0 0 27 27" fill="none" xmlns="http://www.w3.org/2000/svg">
<path d="M3.60596 5.98213C7.01681 4.21071 11.3568 2.57642 15.406 1.58042C16.5905 1.28899 17.8145 1.72728 18.4305 2.77985C18.8705 3.53185 19.4077 4.56271 19.9757 5.91013" stroke="#97DC41" stroke-width="2" stroke-linecap="round" stroke-linejoin="round"/>
<path d="M22.8088 11.4404C22.7732 10.4847 22.7174 9.52982 22.6414 8.57644C22.5225 7.11872 21.3905 6.02215 19.9316 5.92101C18.2516 5.80444 15.6596 5.68787 12.0236 5.68787C8.38765 5.68787 5.79508 5.80444 4.11508 5.92101C2.65679 6.02158 1.52479 7.11872 1.40593 8.57644C1.28308 10.0816 1.1665 12.3239 1.1665 15.4022C1.1665 18.4804 1.28308 20.7222 1.40593 22.2279C1.52479 23.6856 2.65679 24.7822 4.11565 24.8833C5.79508 24.9999 8.38765 25.1164 12.0236 25.1164C15.6596 25.1164 18.2522 24.9999 19.9316 24.8833C21.3905 24.7827 22.5225 23.6856 22.6414 22.2279C22.7036 21.4662 22.7642 20.5159 22.8088 19.3639" stroke="#1F1D83" stroke-width="2" stroke-linecap="round" stroke-linejoin="round"/>
<path d="M20.0235 14.8307V15.9736M16.0601 17.1867C16.1143 18.4039 17.0526 19.3107 18.2692 19.3593C18.8892 19.3845 19.6601 19.4022 20.5949 19.4022C21.5298 19.4022 22.3006 19.3845 22.9206 19.3593C24.1378 19.3107 25.0755 18.4039 25.1298 17.1867C25.1515 16.6913 25.1663 16.0987 25.1663 15.4022C25.1663 14.705 25.1515 14.113 25.1298 13.6176C25.0755 12.4005 24.1372 11.4936 22.9206 11.445C22.1458 11.4153 21.3704 11.401 20.5949 11.4022C19.6601 11.4022 18.8892 11.4199 18.2692 11.445C17.0521 11.4936 16.1143 12.4005 16.0601 13.6176C16.0347 14.2121 16.0225 14.8071 16.0235 15.4022C16.0235 16.0993 16.0383 16.6913 16.0601 17.1867Z" stroke="#30CBFF" stroke-width="2" stroke-linecap="round" stroke-linejoin="round"/>
</svg>
